<?xml version="1.0" standalone="no"?>
<!DOCTYPE svg PUBLIC "-//W3C//DTD SVG 1.1//EN" "http://www.w3.org/Graphics/SVG/1.1/DTD/svg11.dtd" >
<svg xmlns="http://www.w3.org/2000/svg" xmlns:xlink="http://www.w3.org/1999/xlink" version="1.1">
<metadata>
Created by FontForge 20170731 at Wed Oct 28 19:45:34 2020
 By Aleksey,,,
Copyright (c) 2015 by Fontfabric LLC. All rights reserved.
</metadata>
<defs>
<font id="MullerLight" horiz-adv-x="1191" >
  <font-face 
    font-family="Muller Light"
    font-weight="300"
    font-stretch="normal"
    units-per-em="2048"
    panose-1="0 0 0 0 0 0 0 0 0 0"
    ascent="1597"
    descent="-451"
    x-height="983"
    cap-height="1434"
    bbox="-324 -479 2519 1937"
    underline-thickness="102"
    underline-position="-358"
    unicode-range="U+0020-25CA"
  />
<missing-glyph horiz-adv-x="526" 
 />
    <glyph glyph-name="f_f" unicode="ff" horiz-adv-x="1388" 
d="M1434 1323q-92 47 -215 47q-244 0 -244 -231v-156h397v-109h-397v-874h-115v874h-520v-874h-115v874h-178v109h178v113q0 159 102.5 246.5t262.5 87.5q165 0 317 -93q84 140 285 140q137 0 242 -45v-109zM340 983h518v160q0 48 10 100q-63 40 -125.5 59t-148.5 19
q-115 0 -184.5 -57.5t-69.5 -167.5v-113z" />
    <glyph glyph-name="f_f_i" unicode="ffi" horiz-adv-x="1759" 
d="M340 0h-115v874h-178v109h178v113q0 159 103.5 246.5t267.5 87.5q91 0 165.5 -23.5t158.5 -73.5q46 68 126 102.5t179 34.5q155 0 307 -79v-117q-150 88 -301 88q-117 0 -186.5 -58.5t-69.5 -173.5v-147h618v-983h-116v874h-502v-874h-115v874h-520v-874zM340 1096v-113
h518v147q0 58 16 111q-65 42 -126.5 61t-145.5 19q-121 0 -191.5 -57t-70.5 -168z" />
    <glyph glyph-name="f_f_l" unicode="ffl" horiz-adv-x="1779" 
d="M1497 1411v8l117 31v-1450h-117v1303q-124 59 -266 59q-118 0 -187 -60t-69 -180v-139h346v-109h-346v-874h-115v874h-520v-874h-115v874h-178v109h178v113q0 159 103.5 246.5t267.5 87.5q91 0 165.5 -23.5t158.5 -73.5q98 137 305 137q145 0 272 -59zM858 983v139
q0 64 19 119q-64 42 -127 61t-148 19q-121 0 -191.5 -57t-70.5 -168v-113h518z" />
    <glyph glyph-name=".notdef" horiz-adv-x="526" 
 />
    <glyph glyph-name=".null" horiz-adv-x="0" 
 />
    <glyph glyph-name="nonmarkingreturn" horiz-adv-x="682" 
 />
    <glyph glyph-name="space" unicode=" " horiz-adv-x="526" 
 />
    <glyph glyph-name="exclam" unicode="!" horiz-adv-x="442" 
d="M272 387h-102l-10 1047h121zM301 61q0 -37 -23 -57t-57 -20t-57 20t-23 57t23 57.5t57 20.5t57 -20.5t23 -57.5z" />
    <glyph glyph-name="quotedbl" unicode="&#x22;" horiz-adv-x="598" 
d="M451 1106h-82v328h112zM217 1106h-82v328h113z" />
    <glyph glyph-name="numbersign" unicode="#" horiz-adv-x="1331" 
d="M287 0h-117l86 367h-176v102h201l108 457h-207v102h232l86 367h116l-86 -367h431l86 367h116l-86 -367h174v-102h-198l-109 -457h205v-102h-229l-86 -367h-117l86 367h-430zM506 926l-109 -457h432l109 457h-432z" />
    <glyph glyph-name="dollar" unicode="$" horiz-adv-x="1173" 
d="M627 -266h-103v246q-245 16 -426 118v121q107 -63 237 -95t257 -32q82 0 149 13t120 41.5t82.5 77.5t29.5 116q0 68 -30 119.5t-80 84t-115.5 57.5t-137.5 45t-144.5 41t-138 51t-115.5 69.5t-80 101.5t-30 142q0 84 34 151t93 110.5t133.5 68.5t161.5 32v246h103v-244
q223 -13 379 -100v-123q-83 51 -194.5 79.5t-221.5 28.5q-105 0 -184.5 -23.5t-130 -80t-50.5 -141.5q0 -64 30 -112.5t80 -79.5t115.5 -54.5t137.5 -43.5t144.5 -41.5t138 -52.5t115.5 -71.5t80 -104.5t30 -147q0 -95 -37 -167.5t-103 -115.5t-148 -64.5t-181 -23.5v-243z
" />
    <glyph glyph-name="percent" unicode="%" horiz-adv-x="1812" 
d="M547 -123h-117l838 1679h116zM713 1147q0 -144 -93.5 -226.5t-226.5 -82.5q-135 0 -229 82.5t-94 226.5t94 226.5t229 82.5q133 0 226.5 -82.5t93.5 -226.5zM180 1147q0 -93 58.5 -150t154.5 -57q94 0 151.5 57.5t57.5 149.5t-57.5 149.5t-151.5 57.5q-96 0 -154.5 -57
t-58.5 -150zM1743 287q0 -144 -93.5 -227t-226.5 -83q-135 0 -229 83t-94 227t94 226.5t229 82.5q133 0 226.5 -82.5t93.5 -226.5zM1210 287q0 -93 58.5 -150t154.5 -57q94 0 151.5 57.5t57.5 149.5t-57.5 149.5t-151.5 57.5q-96 0 -154.5 -57t-58.5 -150z" />
    <glyph glyph-name="ampersand" unicode="&#x26;" horiz-adv-x="1423" 
d="M1147 238l260 -238h-147l-181 162q-198 -185 -501 -185q-220 0 -346 101.5t-126 259.5q0 58 20 112.5t50.5 96.5t75.5 82.5t85 68t89 56.5q-188 184 -188 348q0 148 120.5 251t307.5 103q164 0 266 -83.5t102 -215.5q0 -57 -28 -112t-60.5 -91.5t-100 -83t-102 -66
t-111.5 -60.5q-5 -3 -8 -4.5t-7.5 -4t-8.5 -4.5l453 -414q109 146 106 340h121q0 -235 -141 -419zM664 1346q-140 0 -224 -72t-84 -174q0 -127 170 -293q160 82 210 114q179 113 179 228q0 90 -67.5 143.5t-183.5 53.5zM227 344q0 -116 94.5 -186t264.5 -70q245 0 407 152
l-485 436q-58 -33 -100 -62.5t-87.5 -71.5t-69.5 -92t-24 -106z" />
    <glyph glyph-name="quotesingle" unicode="'" horiz-adv-x="364" 
d="M217 1106h-82v328h113z" />
    <glyph glyph-name="parenleft" unicode="(" horiz-adv-x="555" 
d="M397 1657h115q-134 -194 -210.5 -445t-76.5 -495t76.5 -495t210.5 -445h-115q-139 198 -220 447t-81 493t81 493t220 447z" />
    <glyph glyph-name="parenright" unicode=")" horiz-adv-x="557" 
d="M45 1657h115q139 -198 220 -447t81 -493t-81 -493t-220 -447h-115q133 195 209 445.5t76 494.5t-76 494.5t-209 445.5z" />
    <glyph glyph-name="asterisk" unicode="*" horiz-adv-x="892" 
d="M446 1044l-161 -243l-88 61l178 225l-273 76l39 103l262 -101l-10 269h107l-13 -269l265 101l36 -103l-270 -76l178 -225l-88 -61z" />
    <glyph glyph-name="plus" unicode="+" horiz-adv-x="1091" 
d="M602 772h391v-110h-391v-394h-110v394h-394v110h394v393h110v-393z" />
    <glyph glyph-name="comma" unicode="," horiz-adv-x="440" 
d="M156 -301h-97l109 459h123z" />
    <glyph glyph-name="hyphen" unicode="-" horiz-adv-x="993" 
d="M137 559h719v-110h-719v110z" />
    <glyph glyph-name="period" unicode="." horiz-adv-x="421" 
d="M293 63q0 -37 -23.5 -58t-58.5 -21q-34 0 -58 21t-24 58t24 58.5t58 21.5q35 0 58.5 -21.5t23.5 -58.5z" />
    <glyph glyph-name="slash" unicode="/" horiz-adv-x="847" 
d="M162 -119h-88l610 1671h88z" />
    <glyph glyph-name="zero" unicode="0" horiz-adv-x="1441" 
d="M113 696q0 158 37 288t110.5 227t191 150.5t269.5 53.5t269.5 -53.5t191 -150.5t110.5 -227t37 -288t-37 -287.5t-110.5 -227t-191 -151t-269.5 -53.5t-269.5 53.5t-191 151t-110.5 227t-37 287.5zM1206 696q0 285 -121 444.5t-364 159.5t-364 -159.5t-121 -444.5
t121 -444.5t364 -159.5t364 159.5t121 444.5z" />
    <glyph glyph-name="one" unicode="1" horiz-adv-x="856" 
d="M449 1393h88v-1276h272v-117h-698v117h305v1145l-305 -115v117z" />
    <glyph glyph-name="two" unicode="2" horiz-adv-x="1163" 
d="M143 1284q194 131 435 131q209 0 335.5 -95t126.5 -263q0 -69 -24 -131.5t-57.5 -107.5t-93 -94t-105 -79t-119.5 -74q-164 -97 -205 -125q-147 -103 -189 -218q-19 -53 -20 -113l826 2v-117h-959v61q0 53 9 102t21.5 88.5t37.5 78.5t45.5 67t57.5 60.5t61.5 52
t69.5 48.5t69.5 43.5t73.5 42.5q6 3 9 5t8 5t9 5q155 92 210 136q131 106 142 237q1 13 1 27q0 115 -93.5 179.5t-255.5 64.5q-220 0 -426 -140v121z" />
    <glyph glyph-name="three" unicode="3" horiz-adv-x="1200" 
d="M1034 1042q0 -110 -62.5 -197t-170.5 -116q57 -14 106.5 -40.5t92 -68.5t67.5 -105.5t25 -141.5q0 -126 -66.5 -217t-176.5 -135t-249 -44q-286 0 -485 91v120q196 -99 475 -96q176 0 280.5 72t104.5 215q0 76 -29.5 132t-82 88.5t-118.5 47.5t-147 15h-207v116l195 -2
q162 0 247 73t85 183q0 120 -95.5 195.5t-263.5 75.5q-222 0 -420 -101v119q193 94 434 94q209 0 335 -105t126 -268z" />
    <glyph glyph-name="four" unicode="4" horiz-adv-x="1312" 
d="M840 1393h133v-955h276v-112h-276v-326h-121v326h-797v108zM852 438v791l-645 -791h645z" />
    <glyph glyph-name="five" unicode="5" horiz-adv-x="1179" 
d="M199 1393h817v-117h-703l-30 -479q134 41 280 41q82 0 155.5 -14t141 -47t116.5 -81.5t78 -122t29 -165.5q0 -197 -145 -314t-375 -117q-254 0 -446 95v114q190 -96 432 -96q189 0 300.5 84.5t111.5 233.5q0 87 -35 150.5t-97.5 99.5t-138 52.5t-166.5 16.5
q-182 0 -370 -65z" />
    <glyph glyph-name="six" unicode="6" horiz-adv-x="1259" 
d="M236 682q213 174 469 174q89 0 171.5 -27t150 -79t107.5 -136.5t40 -189.5q0 -140 -66.5 -243t-176 -153.5t-245.5 -50.5q-190 0 -319.5 85t-190.5 237.5t-61 366.5q0 192 46 337.5t130.5 234.5t196 133t249.5 44q176 0 320 -78v-114q-145 77 -318 77
q-107 0 -194.5 -33.5t-157.5 -104.5t-109.5 -193t-41.5 -287zM240 557q22 -230 133.5 -348.5t304.5 -118.5q107 0 189 34t133 110t51 186q0 86 -30.5 150.5t-84 101t-118.5 54t-142 17.5q-121 0 -234.5 -47.5t-201.5 -138.5z" />
    <glyph glyph-name="seven" unicode="7" horiz-adv-x="1081" 
d="M63 1393h977v-109l-614 -1284h-131l610 1276h-842v117z" />
    <glyph glyph-name="eight" unicode="8" horiz-adv-x="1320" 
d="M158 1067q0 67 29.5 127.5t88 110.5t157 80t224.5 30q116 0 212.5 -31.5t159 -83.5t97.5 -118.5t37 -137.5q2 -110 -53 -206.5t-158 -161.5q260 -115 260 -330q0 -73 -33 -137.5t-97 -117t-171.5 -83.5t-244.5 -31q-136 0 -244 32.5t-175 88t-102.5 127.5t-35.5 154
q0 113 65.5 217.5t190.5 171.5q-207 106 -207 299zM670 653q-114 31 -201 64q-115 -51 -177.5 -139t-62.5 -187q0 -138 113 -219.5t326 -81.5q191 0 307.5 71.5t116.5 178.5q0 56 -24 101t-53 73t-92.5 55.5t-102 39.5t-122.5 36q-19 5 -28 8zM1042 1024q0 115 -103 197
t-284 82q-178 0 -276 -67.5t-98 -168.5q0 -55 22.5 -99t54 -71.5t84.5 -52t93.5 -38t101.5 -30.5q19 -5 29 -8q24 -7 85.5 -24t94.5 -27q95 54 145.5 134t50.5 173z" />
    <glyph glyph-name="nine" unicode="9" horiz-adv-x="1257" 
d="M86 969q0 140 66.5 243t175 153t243.5 50q284 0 429 -182t145 -506q0 -192 -46.5 -337.5t-130.5 -234.5t-196 -133.5t-250 -44.5q-178 0 -319 78v115q147 -78 315 -78q86 0 159 20.5t137 67t108.5 117.5t71 176t28.5 238q-210 -174 -467 -174q-89 0 -171.5 27t-150 79
t-107.5 136.5t-40 189.5zM209 973q0 -86 30.5 -150.5t84 -101.5t118.5 -54.5t142 -17.5q119 0 232.5 47.5t201.5 137.5q-20 229 -132.5 349t-305.5 120q-106 0 -187.5 -34t-132.5 -110t-51 -186z" />
    <glyph glyph-name="colon" unicode=":" horiz-adv-x="438" 
d="M301 813q0 -38 -23.5 -59t-58.5 -21q-34 0 -58 21t-24 59q0 37 24 58.5t58 21.5q35 0 58.5 -21.5t23.5 -58.5zM301 63q0 -37 -23.5 -58t-58.5 -21q-34 0 -58 21t-24 58t24 58.5t58 21.5q35 0 58.5 -21.5t23.5 -58.5z" />
    <glyph glyph-name="semicolon" unicode=";" horiz-adv-x="577" 
d="M238 -301h-97l109 459h123zM371 893q0 -38 -23.5 -59t-58.5 -21q-34 0 -58 21t-24 59q0 37 24 58.5t58 21.5q35 0 58.5 -21.5t23.5 -58.5z" />
    <glyph glyph-name="less" unicode="&#x3c;" horiz-adv-x="991" 
d="M844 453v-115l-754 319v119l754 320v-115l-635 -264z" />
    <glyph glyph-name="equal" unicode="=" horiz-adv-x="1124" 
d="M981 848h-838v110h838v-110zM981 475h-838v111h838v-111z" />
    <glyph glyph-name="greater" unicode="&#x3e;" horiz-adv-x="991" 
d="M901 657l-754 -319v115l635 264l-635 264v115l754 -320v-119z" />
    <glyph glyph-name="question" unicode="?" horiz-adv-x="1003" 
d="M532 408h-116q0 64 28.5 128.5t71.5 117t93.5 110.5t93.5 109t71.5 113t28.5 122q0 117 -92 175t-256 58q-190 0 -377 -112v117q178 110 395 110q202 0 327.5 -88.5t125.5 -249.5q0 -69 -29 -138.5t-73 -123.5t-95 -113.5t-95 -109.5t-73 -109.5t-29 -115.5zM555 63
q0 -37 -23.5 -58t-58.5 -21q-34 0 -58 21t-24 58t24 58.5t58 21.5q35 0 58.5 -21.5t23.5 -58.5z" />
    <glyph glyph-name="at" unicode="@" horiz-adv-x="2158" 
d="M96 492q0 150 42 291t126.5 263t202 213.5t280 144t349.5 52.5q182 0 340 -54t269 -143.5t191 -205t118 -238.5t38 -244q0 -270 -106.5 -411.5t-280.5 -141.5q-123 0 -202.5 60.5t-100.5 175.5q-47 -89 -135.5 -140t-194.5 -51q-173 0 -286 118.5t-113 303.5
q0 187 113 306.5t286 119.5q106 0 192 -51t126 -127v160h114v-557q0 -103 50 -159t153 -56q125 0 193.5 120.5t68.5 329.5q0 89 -24.5 179.5t-70 176.5t-118 161t-162 131.5t-208 89t-250.5 32.5q-164 0 -306.5 -45.5t-246 -126t-178 -187.5t-111.5 -232t-37 -258
q0 -160 48.5 -297.5t134.5 -238t202.5 -172t255 -107t289.5 -35.5q244 0 452 73v-114q-202 -74 -454 -74q-167 0 -321.5 39.5t-287 120t-230.5 194t-154 271t-56 340.5zM1350 580q-28 95 -110 160t-196 65q-126 0 -211 -88t-85 -230t85 -229.5t211 -87.5q114 0 196 65
t110 160v185z" />
    <glyph glyph-name="A" unicode="A" horiz-adv-x="1460" 
d="M154 0h-131l639 1434h137l637 -1434h-131l-170 385h-809zM711 1264l-338 -764h712l-337 764q-2 5 -19 45q-9 -21 -18 -45z" />
    <glyph glyph-name="B" unicode="B" horiz-adv-x="1400" 
d="M199 1434h557q225 0 355 -91t130 -270q0 -133 -74.5 -214t-183.5 -105q56 -12 106 -35.5t99.5 -64.5t79 -109.5t30.5 -155.5q0 -80 -25 -144t-68.5 -105t-95 -70t-115.5 -43.5t-119 -20.5t-115 -6h-561v1434zM1176 401q0 73 -26.5 127t-65 84t-93 48t-99.5 23t-95 5h-475
v-571h415q49 0 87 2t86 8.5t83 18t71.5 33t59.5 50.5t37.5 73t14.5 99zM1118 1057q0 138 -95.5 199t-274.5 61h-426v-514h485q63 0 117.5 14t98.5 43.5t69.5 79.5t25.5 117z" />
    <glyph glyph-name="C" unicode="C" horiz-adv-x="1343" 
d="M102 702q0 145 42.5 269.5t114.5 212.5t168 150t202.5 92t218.5 30q223 0 401 -96v-123q-159 104 -383 104q-96 0 -187 -24t-173.5 -76t-145 -125.5t-99 -180t-36.5 -233.5q-1 -120 36.5 -222t100.5 -172t146.5 -120t175.5 -73t188 -23q231 0 392 105v-121
q-184 -99 -416 -99q-109 0 -215 28.5t-202.5 88.5t-170 144.5t-116.5 204t-42 259.5z" />
    <glyph glyph-name="D" unicode="D" horiz-adv-x="1505" 
d="M199 1434h444q187 0 333 -53.5t239 -150t140.5 -226.5t47.5 -287t-47.5 -287t-140.5 -226.5t-239 -150t-333 -53.5h-444v1434zM1282 717q0 279 -162.5 439.5t-474.5 160.5h-323v-1200h323q312 0 474.5 160.5t162.5 439.5z" />
    <glyph glyph-name="E" unicode="E" horiz-adv-x="1271" 
d="M199 1434h952v-117h-832v-537h771v-116h-771v-547h846v-117h-966v1434z" />
    <glyph glyph-name="F" unicode="F" horiz-adv-x="1228" 
d="M199 1434h956v-117h-836v-559h777v-117h-777v-641h-120v1434z" />
    <glyph glyph-name="G" unicode="G" horiz-adv-x="1447" 
d="M100 717q0 147 42.5 270t115.5 208.5t170.5 145t206 87.5t223.5 28q234 0 424 -94v-123q-170 102 -408 102q-98 0 -190 -22t-176.5 -71t-147.5 -120t-100 -177t-37 -234q0 -133 38 -240t101 -177.5t149 -118.5t178.5 -68.5t193.5 -20.5q171 0 313 66v598h123v-682
q-208 -97 -445 -97q-120 0 -230 25t-210.5 82t-173.5 141t-116.5 210t-43.5 282z" />
    <glyph glyph-name="H" unicode="H" horiz-adv-x="1568" 
d="M1249 1434h121v-1434h-121v662h-930v-662h-120v1434h120v-656h930v656z" />
    <glyph glyph-name="I" unicode="I" horiz-adv-x="518" 
d="M199 1434h120v-1434h-120v1434z" />
    <glyph glyph-name="J" unicode="J" horiz-adv-x="1056" 
d="M307 1434h563v-1041q0 -106 -34.5 -186t-97 -129t-143.5 -73.5t-179 -24.5q-227 0 -369 88v120q139 -92 348 -92q165 0 260 72t95 229v920h-443v117z" />
    <glyph glyph-name="K" unicode="K" horiz-adv-x="1351" 
d="M319 0h-120v1434h120v-643h375l463 643h139l-501 -699l551 -735h-142l-506 676h-379v-676z" />
    <glyph glyph-name="L" unicode="L" horiz-adv-x="1181" 
d="M199 1434h120v-1317h830v-117h-950v1434z" />
    <glyph glyph-name="M" unicode="M" horiz-adv-x="1845" 
d="M1544 1434h103v-1434h-121v1200l-565 -835h-76l-566 835v-1200h-120v1434h102l623 -920z" />
    <glyph glyph-name="N" unicode="N" horiz-adv-x="1568" 
d="M319 0h-120v1434h110l940 -1227v123v1104h121v-1434h-110l-941 1229v-123v-1106z" />
    <glyph glyph-name="O" unicode="O" horiz-adv-x="1687" 
d="M98 717q0 111 29 217t90 201t147.5 166t210.5 113t269 42t268.5 -42t210 -113t147.5 -166t90 -201t29 -217t-29 -217t-90 -201t-147.5 -166.5t-210 -113.5t-268.5 -42t-269 42t-210.5 113.5t-147.5 166.5t-90 201t-29 217zM1466 717q0 119 -39 229t-113.5 199t-196 142.5
t-273.5 53.5t-273.5 -53.5t-196.5 -142.5t-114 -199t-39 -229t39 -229t114 -199.5t196.5 -143t273.5 -53.5q122 0 225.5 35t175.5 95t122.5 140.5t74.5 170t24 184.5z" />
    <glyph glyph-name="P" unicode="P" horiz-adv-x="1343" 
d="M199 1434h471q102 0 188.5 -13t164.5 -46t132.5 -83.5t86.5 -130t32 -182.5t-32 -183t-86.5 -131t-133 -83.5t-164.5 -46t-188 -13.5h-351v-522h-120v1434zM1151 979q0 79 -25 138.5t-67 97t-104 61t-129 32.5t-150 9h-354v-678h354q82 0 149 9t129 33t104.5 61.5
t67.5 97.5t25 139z" />
    <glyph glyph-name="Q" unicode="Q" horiz-adv-x="1687" 
d="M1591 -45l-80 -78l-227 227q-187 -127 -440 -127q-145 0 -269 42t-210.5 113.5t-147.5 166.5t-90 201t-29 217t29 217t90 201t147.5 166t210.5 113t269 42t268.5 -42t210 -113t147.5 -166t90 -201t29 -217q0 -153 -55.5 -295.5t-163.5 -247.5zM221 717q0 -119 39 -229
t114 -199.5t196.5 -143t273.5 -53.5q198 0 354 98l-285 285l78 78l293 -293q90 87 136 207t46 250q0 119 -39 229t-113.5 199t-196 142.5t-273.5 53.5t-273.5 -53.5t-196.5 -142.5t-114 -199t-39 -229z" />
    <glyph glyph-name="R" unicode="R" horiz-adv-x="1413" 
d="M319 0h-120v1434h551q78 0 150.5 -13.5t141.5 -45t119.5 -79t81.5 -122t31 -166.5q0 -99 -34.5 -176.5t-95 -126t-131 -76.5t-153.5 -39l510 -590h-151l-500 580h-400v-580zM322 1317v-621h436q59 0 113 9t106 32t90 57.5t61 89.5t23 124t-23 124t-61 89t-90 56
t-105.5 31t-113.5 9h-436z" />
    <glyph glyph-name="S" unicode="S" horiz-adv-x="1181" 
d="M111 1092q0 91 39 162t106 114t150.5 65.5t177.5 22.5q116 0 227.5 -26.5t194.5 -73.5v-123q-81 51 -192.5 79.5t-221.5 28.5q-76 0 -139 -14t-113 -42.5t-78.5 -76.5t-28.5 -112t30 -114t80.5 -83t116 -60t138 -50.5t144.5 -48t137.5 -58.5t116 -77t80.5 -108.5
t30 -148.5q0 -98 -41.5 -171.5t-114 -116.5t-161 -63.5t-191.5 -19.5q-271 0 -489 121v121q217 -127 481 -127q83 0 151 13.5t124 41.5t87 77t31 116q0 68 -30 121t-80.5 87.5t-115.5 63t-137.5 52t-145 48t-137.5 57t-115.5 74.5t-80.5 105.5t-30 143.5z" />
    <glyph glyph-name="T" unicode="T" horiz-adv-x="1226" 
d="M29 1434h1169v-117h-524v-1317h-121v1317h-524v117z" />
    <glyph glyph-name="U" unicode="U" horiz-adv-x="1538" 
d="M1235 1434h121v-922q0 -117 -31 -209t-84 -152.5t-128 -100t-160 -56.5t-183 -17q-99 0 -184 17t-160.5 56.5t-128.5 100t-84 152.5t-31 209v922h121v-918q0 -114 34.5 -197.5t99 -132t147 -71.5t186.5 -23t186.5 22.5t146 71.5t98 132.5t34.5 197.5v918z" />
    <glyph glyph-name="V" unicode="V" horiz-adv-x="1402" 
d="M764 0h-125l-608 1434h131l538 -1297l541 1297h131z" />
    <glyph glyph-name="W" unicode="W" horiz-adv-x="2043" 
d="M1872 1434h133l-455 -1434h-135l-393 1225l-395 -1225h-133l-455 1434h133l389 -1282l406 1275h110l406 -1275z" />
    <glyph glyph-name="X" unicode="X" horiz-adv-x="1288" 
d="M158 0h-146l559 737l-528 697h145l457 -600l457 600h143l-528 -697l559 -737h-143l-488 641z" />
    <glyph glyph-name="Y" unicode="Y" horiz-adv-x="1318" 
d="M721 0h-123v559l-563 875h135l489 -764l490 764h135l-563 -875v-559z" />
    <glyph glyph-name="Z" unicode="Z" horiz-adv-x="1187" 
d="M1122 0h-1059v109l887 1208h-858v117h1006v-109l-889 -1208h913v-117z" />
    <glyph glyph-name="bracketleft" unicode="[" horiz-adv-x="540" 
d="M492 -225h-342v1884h342v-117h-222v-1651h222v-116z" />
    <glyph glyph-name="backslash" unicode="\" horiz-adv-x="847" 
d="M774 -119h-88l-610 1671h88z" />
    <glyph glyph-name="bracketright" unicode="]" horiz-adv-x="542" 
d="M393 -225h-342v116h219v1651h-219v117h342v-1884z" />
    <glyph glyph-name="asciicircum" unicode="^" horiz-adv-x="1054" 
d="M236 799h-132l373 635h103l370 -635h-129l-293 506z" />
    <glyph glyph-name="underscore" unicode="_" horiz-adv-x="907" 
d="M907 -287h-907v111h907v-111z" />
    <glyph glyph-name="grave" unicode="`" horiz-adv-x="362" 
d="M330 1583h-129l-201 291h145z" />
    <glyph glyph-name="a" unicode="a" horiz-adv-x="1110" 
d="M932 178q0 -86 88 -86q32 0 76 14v-94q-55 -20 -107 -20q-69 0 -116 36.5t-54 114.5q-74 -80 -177.5 -123t-225.5 -43q-66 0 -126 17.5t-109 52t-78 91.5t-29 130q0 71 25.5 127t67 92t98.5 59.5t117 33.5t126 10q159 0 309 -43v65q0 132 -82 209.5t-231 77.5
q-188 0 -352 -70v115q175 62 364 62q196 0 306 -106.5t110 -301.5v-420zM193 274q0 -95 71.5 -145.5t173.5 -50.5q112 0 213 50t166 142v181q-153 41 -293 41q-64 0 -120.5 -11.5t-105 -35.5t-77 -68t-28.5 -103z" />
    <glyph glyph-name="b" unicode="b" horiz-adv-x="1265" 
d="M160 1434h116v-641q61 93 165.5 153t242.5 60q212 0 351 -144t139 -370t-139 -370.5t-351 -144.5q-139 0 -244.5 62t-175.5 164v-203h-104v1434zM1057 492q0 186 -110 296.5t-277 110.5q-137 0 -244 -79t-152 -195v-267q45 -116 152 -195t244 -79q167 0 277 111.5
t110 296.5z" />
    <glyph glyph-name="c" unicode="c" horiz-adv-x="1011" 
d="M92 485q0 130 46.5 233t123.5 164t169.5 92.5t191.5 31.5q179 0 297 -80v-113q-115 86 -283 86q-65 0 -125.5 -14.5t-116 -47t-96.5 -79.5t-65.5 -116.5t-24.5 -154.5q0 -100 35 -179t94 -126.5t132.5 -72.5t154.5 -25q170 0 305 80v-117q-140 -70 -322 -70
q-78 0 -151.5 19t-140 60t-116 99.5t-79 143.5t-29.5 186z" />
    <glyph glyph-name="d" unicode="d" horiz-adv-x="1265" 
d="M991 1434h115v-1434h-105v203q-69 -102 -174.5 -164t-244.5 -62q-211 0 -350.5 144.5t-139.5 370.5q0 225 139.5 369.5t350.5 144.5q139 0 243.5 -60t165.5 -153v641zM991 625q-45 116 -151.5 195t-243.5 79q-167 0 -277 -110.5t-110 -296.5q0 -185 110 -296.5
t277 -111.5q137 0 243.5 79t151.5 195v267z" />
    <glyph glyph-name="e" unicode="e" horiz-adv-x="1122" 
d="M92 492q0 122 42 222t112 162.5t155.5 96t176.5 33.5q78 0 145 -18t116 -49.5t88 -75t61.5 -94t36.5 -106t12 -112.5t-11 -113h-817q5 -91 43.5 -160.5t100 -111t136.5 -62t160 -20.5q185 0 322 80v-115q-135 -72 -338 -72q-110 0 -206 31.5t-171.5 92.5t-119.5 161.5
t-44 229.5zM924 541q5 44 -2 91t-31 95t-62 86t-101 62t-142 24q-99 0 -181.5 -40t-136.5 -123t-59 -195h715z" />
    <glyph glyph-name="f" unicode="f" horiz-adv-x="753" 
d="M340 0h-115v874h-178v109h178v139q0 91 28 158.5t76.5 104.5t105 54t122.5 17q137 0 242 -45v-108q-92 47 -215 47q-244 0 -244 -232v-135h397v-109h-397v-874z" />
    <glyph glyph-name="g" unicode="g" horiz-adv-x="1265" 
d="M92 492q0 225 139.5 369.5t350.5 144.5q139 0 244.5 -62t174.5 -164v203h105v-983q0 -121 -44 -214.5t-119 -148.5t-167 -82.5t-196 -27.5q-212 0 -394 92v113q184 -99 379 -99q69 0 130 12t116 40t94.5 69.5t62.5 104.5t23 141v195q-61 -96 -165.5 -157t-243.5 -61
q-211 0 -350.5 144.5t-139.5 370.5zM991 625q-45 116 -151.5 195t-243.5 79q-167 0 -277 -110.5t-110 -296.5q0 -185 110 -296.5t277 -111.5q136 0 243 75t152 185v281z" />
    <glyph glyph-name="h" unicode="h" 
d="M160 1434h116v-615q59 77 155.5 132t213.5 55q173 0 286 -110t113 -290v-606h-116v592q0 147 -82 227t-213 80q-117 0 -208.5 -65t-148.5 -160v-674h-116v1434z" />
    <glyph glyph-name="i" unicode="i" horiz-adv-x="448" 
d="M283 0h-117v983h117v-983zM301 1282q0 -38 -22.5 -58t-55.5 -20q-34 0 -57 20t-23 58q0 36 23 57t57 21q32 0 55 -21.5t23 -56.5z" />
    <glyph glyph-name="j" unicode="j" horiz-adv-x="446" 
d="M281 -205q0 -76 -23 -130.5t-62.5 -83t-84 -41.5t-95.5 -13q-84 0 -145 24v109q48 -22 117 -22q178 0 178 174v1171h115v-1188zM301 1282q0 -38 -23 -58t-57 -20q-33 0 -56.5 20t-23.5 58q0 35 24 56.5t56 21.5q34 0 57 -21t23 -57z" />
    <glyph glyph-name="k" unicode="k" horiz-adv-x="1042" 
d="M1034 0h-137l-399 449h-222v-449h-116v1434h116v-877h228l344 426h135l-387 -483z" />
    <glyph glyph-name="l" unicode="l" horiz-adv-x="448" 
d="M166 1495h117v-1495h-117v1495z" />
    <glyph glyph-name="m" unicode="m" horiz-adv-x="1824" 
d="M276 0h-116v983h104v-164q56 72 148.5 129.5t210.5 57.5q113 0 195.5 -50.5t123.5 -140.5q167 191 373 191q168 0 265 -107.5t97 -277.5v-621h-114v623q0 123 -70 199.5t-190 76.5q-103 0 -185.5 -56.5t-136.5 -133.5q6 -44 6 -88v-621h-117v623q0 123 -70 199.5
t-190 76.5q-57 0 -111 -20t-96 -53t-72.5 -66t-54.5 -70v-690z" />
    <glyph glyph-name="n" unicode="n" 
d="M264 807q58 80 158.5 139.5t222.5 59.5q173 0 286 -110t113 -290v-606h-116v592q0 147 -82 227t-213 80q-117 0 -208.5 -65t-148.5 -160v-674h-116v983h104v-176z" />
    <glyph glyph-name="o" unicode="o" horiz-adv-x="1218" 
d="M92 492q0 120 43.5 219.5t116 162.5t164.5 97.5t192 34.5q102 0 194.5 -34.5t165 -97.5t115.5 -162t43 -220t-43 -220t-115.5 -162.5t-165 -98t-194.5 -34.5q-100 0 -192 34.5t-164.5 98t-116 163t-43.5 219.5zM1010 492q0 124 -55 217t-145 139.5t-200 46.5
q-171 0 -286 -108.5t-115 -294.5t115 -295t286 -109q169 0 284.5 109t115.5 295z" />
    <glyph glyph-name="p" unicode="p" horiz-adv-x="1265" 
d="M264 780q70 102 175.5 164t244.5 62q212 0 351 -144t139 -370t-139 -370.5t-351 -144.5q-138 0 -242.5 60t-165.5 153v-641h-116v1434h104v-203zM1057 492q0 185 -110 296t-277 111q-137 0 -244 -79t-152 -195v-267q45 -116 152 -195t244 -79q167 0 277 111t110 297z" />
    <glyph glyph-name="q" unicode="q" horiz-adv-x="1265" 
d="M92 492q0 225 139.5 369.5t350.5 144.5q139 0 244.5 -62t174.5 -164v203h105v-1434h-115v641q-61 -93 -165.5 -153t-243.5 -60q-211 0 -350.5 144.5t-139.5 370.5zM991 625q-45 116 -151.5 195t-243.5 79q-167 0 -277 -111t-110 -296q0 -186 110 -297t277 -111
q137 0 243.5 79t151.5 195v267z" />
    <glyph glyph-name="r" unicode="r" horiz-adv-x="724" 
d="M264 756q56 113 174.5 184t259.5 64v-117q-155 12 -268.5 -70.5t-153.5 -216.5v-600h-116v983h104v-227z" />
    <glyph glyph-name="s" unicode="s" horiz-adv-x="944" 
d="M102 737q0 69 31 122.5t84 84.5t115 46.5t131 15.5q191 0 342 -84v-111q-61 39 -153.5 64.5t-180.5 25.5q-104 0 -178 -40.5t-74 -121.5q0 -52 36 -89.5t93 -59.5t126 -41.5t138.5 -42t126.5 -53t93 -84t36 -125.5q0 -57 -21 -102.5t-57 -76t-86.5 -50.5t-106 -29
t-118.5 -9q-103 0 -207.5 26.5t-171.5 70.5v114q72 -48 174.5 -76t198.5 -28q125 0 202 37t77 119q0 51 -36 88t-93 59.5t-126.5 41.5t-139 42.5t-126.5 54.5t-93 84.5t-36 126.5z" />
    <glyph glyph-name="t" unicode="t" horiz-adv-x="804" 
d="M217 1296l115 31v-344h411v-109h-411v-569q0 -115 55 -166t172 -51q113 0 215 45v-106q-107 -47 -246 -47q-145 0 -228 78t-83 227v589h-184v109h184v313z" />
    <glyph glyph-name="u" unicode="u" 
d="M915 983h117v-983h-106v176q-58 -81 -157.5 -140t-223.5 -59q-181 0 -289.5 108.5t-108.5 291.5v606h117v-592q0 -150 77.5 -228.5t215.5 -78.5q118 0 209 65t149 160v674z" />
    <glyph glyph-name="v" unicode="v" horiz-adv-x="1085" 
d="M920 983h129l-445 -983h-123l-446 983h129l379 -852z" />
    <glyph glyph-name="w" unicode="w" horiz-adv-x="1640" 
d="M1470 983h123l-354 -983h-125l-295 819l-295 -819h-123l-354 983h123l293 -852l303 846h106l304 -846z" />
    <glyph glyph-name="x" unicode="x" horiz-adv-x="999" 
d="M813 983h135l-381 -477l402 -506h-135l-334 422l-334 -422h-135l403 506l-383 477h135l314 -395z" />
    <glyph glyph-name="y" unicode="y" horiz-adv-x="1097" 
d="M569 129l367 854h123l-498 -1145q-73 -165 -159 -238t-193 -73q-50 0 -105 12v103q50 -13 91 -13q87 0 151 61t117 191l49 115l-483 987h123z" />
    <glyph glyph-name="z" unicode="z" horiz-adv-x="933" 
d="M96 983h738v-102l-625 -779h657v-102h-796v102l626 779h-600v102z" />
    <glyph glyph-name="braceleft" unicode="{" horiz-adv-x="591" 
d="M510 -123v-102q-137 -27 -207 31.5t-70 183.5v493q0 94 -53 141t-121 42v102q67 -5 120.5 41.5t53.5 140.5v494q0 126 70 184.5t207 30.5v-103q-87 13 -121.5 -26.5t-34.5 -132.5v-455q0 -98 -36.5 -156t-92.5 -69q56 -11 92.5 -69t36.5 -156v-455q0 -93 34.5 -133
t121.5 -27z" />
    <glyph glyph-name="bar" unicode="|" horiz-adv-x="419" 
d="M270 -205h-120v1864h120v-1864z" />
    <glyph glyph-name="braceright" unicode="}" horiz-adv-x="591" 
d="M358 -10q0 -126 -69.5 -184t-206.5 -31v102q87 -13 120.5 27t33.5 133v455q0 98 37 156t94 69q-57 11 -94 69t-37 156v455q0 93 -33.5 132.5t-120.5 26.5v103q137 28 206.5 -30.5t69.5 -184.5v-494q0 -94 53.5 -140.5t120.5 -41.5v-102q-68 5 -121 -42t-53 -141v-493z
" />
    <glyph glyph-name="asciitilde" unicode="~" horiz-adv-x="1198" 
d="M1055 768q3 -95 -51 -153t-148 -58q-49 0 -119 20t-129.5 43.5t-129.5 43.5t-118 20q-46 0 -72.5 -26.5t-25.5 -73.5h-110q-3 96 51.5 152.5t144.5 56.5q65 0 158 -31.5t185 -62.5t155 -31q46 0 72.5 25.5t25.5 74.5h111z" />
    <glyph glyph-name="exclamdown" unicode="&#xa1;" horiz-adv-x="413" 
d="M266 -444h-121l11 1046h102zM287 928q0 -37 -23 -57.5t-57 -20.5t-57 20.5t-23 57.5t23 57.5t57 20.5t57 -20.5t23 -57.5z" />
    <glyph glyph-name="cent" unicode="&#xa2;" horiz-adv-x="1042" 
d="M672 86q148 9 264 78v-117q-115 -58 -264 -67v-226h-103v226q-93 7 -175.5 41t-149.5 94.5t-106.5 155.5t-39.5 214q0 121 39.5 218t107 159t150 97.5t174.5 44.5v225h103v-225q149 -7 254 -78v-113q-101 76 -254 86v-813zM569 895q-72 -11 -133.5 -40t-112 -77.5
t-79.5 -123t-29 -167.5q0 -91 28.5 -164t78.5 -121t112 -76.5t135 -37.5v807z" />
    <glyph glyph-name="sterling" unicode="&#xa3;" horiz-adv-x="1234" 
d="M1149 0h-1071v117h72q69 0 109 48.5t40 133.5v334h-170v112h170v199q0 98 25.5 178t69.5 133.5t103.5 90t125 53t137.5 16.5q165 0 299 -78v-116q-132 82 -285 82q-72 0 -133.5 -20.5t-111.5 -62t-78.5 -113t-28.5 -165.5v-197h483v-112h-483v-334q0 -138 -74 -182h801
v-117z" />
    <glyph glyph-name="currency" unicode="&#xa4;" horiz-adv-x="1179" 
d="M356 397l-131 -131l-82 82l127 127q-84 100 -84 242q0 141 84 241l-127 127l82 82l131 -131q104 68 234 68q127 0 235 -68l131 131l82 -82l-129 -127q84 -100 84 -241q0 -142 -84 -242l129 -127l-82 -82l-131 131q-106 -67 -235 -67q-131 0 -234 67zM301 717
q0 -126 81.5 -202.5t205.5 -76.5q126 0 207.5 76t81.5 203t-81.5 202.5t-207.5 75.5q-124 0 -205.5 -76t-81.5 -202z" />
    <glyph glyph-name="yen" unicode="&#xa5;" horiz-adv-x="1333" 
d="M1130 1393h134l-480 -744h306v-102h-363v-152h363v-102h-363v-293h-123v293h-360v102h360v152h-360v102h303l-479 744h133l465 -723z" />
    <glyph glyph-name="brokenbar" unicode="&#xa6;" horiz-adv-x="456" 
d="M289 940h-121v719h121v-719zM289 -205h-121v719h121v-719z" />
    <glyph glyph-name="section" unicode="&#xa7;" horiz-adv-x="1007" 
d="M879 193q0 -88 -54.5 -149t-139 -87.5t-191.5 -26.5q-94 0 -191 25.5t-164 69.5v108q69 -46 166.5 -73t183.5 -27q123 0 198 38t75 119q0 35 -16 64t-38.5 47.5t-65 37t-75 29t-90.5 27.5q-3 1 -5 1.5t-4.5 1t-4.5 1.5q-46 13 -73 21t-68 23.5t-66 30t-54 37t-45 47.5
t-27 59.5t-11 74.5q0 154 184 269q-78 37 -121 91t-43 138q0 88 53 150t133.5 89t178.5 27q84 0 171 -22.5t152 -59.5v-108q-62 38 -150.5 63t-166.5 25q-107 0 -180.5 -42t-73.5 -120q0 -44 19.5 -75.5t72 -57t84 -36.5t114.5 -34q18 -5 27 -8q44 -12 71 -21t66 -24
t64 -29.5t52.5 -37t43.5 -47t26.5 -58.5t10.5 -74q0 -83 -50 -147t-142 -119q78 -37 121 -91.5t43 -139.5zM498 502q19 -5 56 -16.5t56 -16.5q76 28 129.5 84t53.5 121q0 31 -9 56.5t-28.5 45t-39.5 34t-53.5 28t-58.5 21.5t-67 20q-71 21 -127 39q-73 -26 -126 -84.5
t-53 -124.5q0 -37 16 -67.5t37 -49.5t62 -37.5t70 -28t82 -24.5z" />
    <glyph glyph-name="dieresis" unicode="&#xa8;" horiz-adv-x="595" 
d="M590 1712q0 -34 -24.5 -59t-59.5 -25t-60.5 25t-25.5 59t25.5 60t60.5 26t59.5 -26t24.5 -60zM178 1712q0 -34 -24.5 -59t-59.5 -25t-60.5 25t-25.5 59t25.5 60t60.5 26t59.5 -26t24.5 -60z" />
    <glyph glyph-name="copyright" unicode="&#xa9;" horiz-adv-x="1742" 
d="M1638 717q0 -143 -45 -265.5t-121 -208t-175 -147t-207 -90.5t-218 -29t-218.5 29t-208 90.5t-175.5 147t-121 208t-45 265.5t45 265.5t121 208t175.5 146.5t208 90t218.5 29t218 -29t207 -90t175 -146.5t121 -208t45 -265.5zM1174 375q-128 -70 -275 -70
q-59 0 -116.5 14.5t-110 46t-92.5 76.5t-64 112t-24 146q0 108 38 193t101 134.5t137 75t154 25.5q145 0 252 -69v-90q-104 69 -236 69q-53 0 -101.5 -10.5t-93.5 -36t-78 -63t-53 -95t-20 -128.5q0 -81 28 -142.5t75.5 -97t104.5 -53t122 -17.5q133 0 252 68v-88zM154 717
q0 -134 41.5 -248.5t112 -195t163 -137.5t194.5 -84t207 -27q104 0 206 27t194.5 84t163 137.5t112 195t41.5 248.5t-41.5 248.5t-112 195t-163 137.5t-194.5 84t-206 27q-105 0 -207 -27t-194.5 -84t-163 -137.5t-112 -195t-41.5 -248.5z" />
    <glyph glyph-name="guillemotleft" unicode="&#xab;" horiz-adv-x="946" 
d="M823 129h-125l-247 350v25l247 350h125l-256 -362zM471 129h-125l-248 350v25l248 350h125l-256 -362z" />
    <glyph glyph-name="logicalnot" unicode="&#xac;" horiz-adv-x="1185" 
d="M1030 582h-115v290h-780v111h895v-401z" />
    <glyph glyph-name="registered" unicode="&#xae;" horiz-adv-x="1742" 
d="M1638 717q0 -143 -45 -265.5t-121 -208t-175 -147t-207 -90.5t-218 -29t-218.5 29t-208 90.5t-175.5 147t-121 208t-45 265.5t45 265.5t121 208t175.5 146.5t208 90t218.5 29t218 -29t207 -90t175 -146.5t121 -208t45 -265.5zM154 717q0 -134 41.5 -248.5t112 -195
t163 -137.5t194.5 -84t207 -27q104 0 206 27t194.5 84t163 137.5t112 195t41.5 248.5t-41.5 248.5t-112 195t-163 137.5t-194.5 84t-206 27q-105 0 -207 -27t-194.5 -84t-163 -137.5t-112 -195t-41.5 -248.5zM680 311h-88v807h330q40 0 78.5 -6t80.5 -23.5t73 -44.5t51 -73
t20 -105q0 -180 -183 -229l232 -326h-103l-219 314q-14 -2 -43 -2h-229v-312zM680 1032v-323h233q27 0 46.5 1t48.5 5.5t49 15t40 27t30 44.5t10 64q0 166 -224 166h-233z" />
    <glyph glyph-name="macron" unicode="&#xaf;" horiz-adv-x="681" 
d="M55 1735h574v-107h-574v107z" />
    <glyph glyph-name="degree" unicode="&#xb0;" horiz-adv-x="804" 
d="M711 1163q0 -137 -90.5 -219t-217.5 -82q-126 0 -217.5 82t-91.5 219q0 136 91.5 218.5t217.5 82.5q127 0 217.5 -82.5t90.5 -218.5zM182 1163q0 -97 63 -156t158 -59q93 0 156.5 59t63.5 156t-63 155t-157 58q-95 0 -158 -58t-63 -155z" />
    <glyph glyph-name="plusminus" unicode="&#xb1;" horiz-adv-x="1179" 
d="M647 1210v-391h391v-110h-391v-394h-110v394h-394v110h394v391h110zM1038 0h-895v111h895v-111z" />
    <glyph glyph-name="acute" unicode="&#xb4;" horiz-adv-x="362" 
d="M182 1583h-127l185 291h145z" />
    <glyph glyph-name="paragraph" unicode="&#xb6;" horiz-adv-x="1265" 
d="M641 -451h-123v1039q-210 0 -329 111.5t-119 310.5t119 311.5t329 112.5h578v-1885h-123v1768h-332v-1768z" />
    <glyph glyph-name="periodcentered" unicode="&#xb7;" horiz-adv-x="436" 
d="M301 489q0 -37 -23.5 -58t-58.5 -21q-34 0 -58 21t-24 58t24 58.5t58 21.5q35 0 58.5 -21.5t23.5 -58.5z" />
    <glyph glyph-name="cedilla" unicode="&#xb8;" horiz-adv-x="436" 
d="M164 0h102l-39 -152q99 12 165 -25.5t67 -115.5q1 -86 -67.5 -133t-188.5 -47q-111 0 -201 41v100q83 -47 188 -47q83 0 125.5 25t40.5 65q0 51 -79.5 68t-165.5 -6z" />
    <glyph glyph-name="guillemotright" unicode="&#xbb;" horiz-adv-x="944" 
d="M598 129h-125l256 363l-256 362h125l248 -350v-25zM248 129h-125l256 363l-256 362h125l248 -350v-25z" />
    <glyph glyph-name="onequarter" unicode="&#xbc;" horiz-adv-x="1882" 
d="M1542 836h111v-555h157v-95h-157v-186h-101v186h-467v90zM1554 281v417l-342 -417h342zM444 -25h-57l936 1481h57zM326 1393h75v-740h152v-96h-442v96h190v631l-178 -65v96z" />
    <glyph glyph-name="onehalf" unicode="&#xbd;" horiz-adv-x="1794" 
d="M436 -25h-57l936 1481h57zM1147 770q118 80 268 80q130 0 207.5 -59t77.5 -164q0 -50 -19 -94t-56.5 -80.5t-72.5 -61.5t-88 -57q-8 -5 -38 -22.5t-39 -23.5t-34.5 -22t-34.5 -24t-27.5 -23.5t-25.5 -27.5t-17.5 -28t-14 -32.5t-4.5 -34.5h477v-96h-588v49q0 69 20 123
t67.5 98.5t77 65t96.5 59.5q12 7 18 11q103 62 133 89q67 59 67 134q0 61 -49.5 94t-140.5 33q-132 0 -260 -88v102zM317 1393h76v-740h152v-96h-443v96h191v631l-178 -65v96z" />
    <glyph glyph-name="threequarters" unicode="&#xbe;" horiz-adv-x="1990" 
d="M588 -25h-58l936 1481h58zM1651 836h110v-555h158v-95h-158v-186h-100v186h-467v90zM1663 281v417l-342 -417h342zM676 1188q0 -64 -34.5 -114.5t-90.5 -69.5q66 -20 112 -72t46 -139q0 -116 -86.5 -179t-219.5 -63q-168 0 -290 55v101q116 -62 282 -62q98 0 156.5 37.5
t58.5 116.5q0 149 -202 149h-129v96h116q89 0 136 37.5t47 98.5q0 65 -52.5 103t-146.5 38q-130 0 -252 -64v101q117 57 264 57q129 0 207 -62.5t78 -164.5z" />
    <glyph glyph-name="questiondown" unicode="&#xbf;" horiz-adv-x="983" 
d="M915 -354q-187 -113 -395 -113q-201 0 -326.5 89.5t-125.5 250.5q0 59 21.5 118.5t56.5 109t76.5 99t83.5 96.5t77 92t56.5 95.5t21.5 98.5h117q0 -74 -40 -150t-97 -140.5t-114 -128t-97 -137t-40 -143.5q0 -117 92 -175t257 -58q188 0 376 110v-114zM600 926
q0 -35 -24 -56.5t-58 -21.5q-35 0 -58.5 21t-23.5 57q0 38 23.5 59t58.5 21q34 0 58 -21t24 -59z" />
    <glyph glyph-name="Agrave" unicode="&#xc0;" horiz-adv-x="1460" 
d="M154 0h-131l639 1434h137l637 -1434h-131l-170 385h-809zM711 1264l-338 -764h712l-337 764q-2 5 -19 45q-9 -21 -18 -45zM836 1583h-129l-201 291h145z" />
    <glyph glyph-name="Aacute" unicode="&#xc1;" horiz-adv-x="1460" 
d="M154 0h-131l639 1434h137l637 -1434h-131l-170 385h-809zM711 1264l-338 -764h712l-337 764q-2 5 -19 45q-9 -21 -18 -45zM743 1583h-127l185 291h145z" />
    <glyph glyph-name="Acircumflex" unicode="&#xc2;" horiz-adv-x="1460" 
d="M154 0h-131l639 1434h137l637 -1434h-131l-170 385h-809zM711 1264l-338 -764h712l-337 764q-2 5 -19 45q-9 -21 -18 -45zM680 1866h104l267 -281h-133l-185 193l-184 -193h-133z" />
    <glyph glyph-name="Atilde" unicode="&#xc3;" horiz-adv-x="1460" 
d="M154 0h-131l639 1434h137l637 -1434h-131l-170 385h-809zM711 1264l-338 -764h712l-337 764q-2 5 -19 45q-9 -21 -18 -45zM1047 1774q12 -88 -31.5 -138.5t-116.5 -50.5q-51 0 -114.5 24.5t-119 49t-85.5 24.5q-36 0 -54.5 -24.5t-13.5 -63.5h-102q-13 87 30 139t113 52
q50 0 114 -24.5t120 -49t87 -24.5q76 0 70 86h103z" />
    <glyph glyph-name="Adieresis" unicode="&#xc4;" horiz-adv-x="1460" 
d="M154 0h-131l639 1434h137l637 -1434h-131l-170 385h-809zM711 1264l-338 -764h712l-337 764q-2 5 -19 45q-9 -21 -18 -45zM1016 1712q0 -34 -24.5 -59t-59.5 -25t-60.5 25t-25.5 59t25.5 60t60.5 26t59.5 -26t24.5 -60zM604 1712q0 -34 -24.5 -59t-59.5 -25t-60.5 25
t-25.5 59t25.5 60t60.5 26t59.5 -26t24.5 -60z" />
    <glyph glyph-name="Aring" unicode="&#xc5;" horiz-adv-x="1460" 
d="M154 0h-131l639 1434h137l637 -1434h-131l-170 385h-809zM711 1264l-338 -764h712l-337 764q-2 5 -19 45q-9 -21 -18 -45zM934 1739q0 -91 -62 -147t-147 -56q-87 0 -149 56t-62 147q0 88 62.5 143t148.5 55q85 0 147 -55t62 -143zM604 1737q0 -55 35.5 -87t85.5 -32
t85.5 32t35.5 87q0 53 -35.5 85.5t-85.5 32.5t-85.5 -32.5t-35.5 -85.5z" />
    <glyph glyph-name="AE" unicode="&#xc6;" horiz-adv-x="2031" 
d="M1143 664v-547h782v-117h-903v389h-641l-275 -389h-135l1002 1434h940v-117h-770v-537h708v-116h-708zM453 500h569v807z" />
    <glyph glyph-name="Ccedilla" unicode="&#xc7;" horiz-adv-x="1343" 
d="M1264 197v-121q-162 -87 -365 -99l-33 -129q98 12 163.5 -25.5t66.5 -115.5q1 -87 -66.5 -133.5t-189.5 -46.5q-111 0 -201 41v100q83 -47 188 -47q83 0 125.5 25t42.5 65q-1 51 -80.5 68t-164.5 -6l47 207q-105 7 -204.5 39.5t-189 93t-156.5 143t-106.5 198
t-38.5 248.5q0 145 42.5 269.5t114.5 212.5t168 150t202.5 92t218.5 30q223 0 401 -96v-123q-159 104 -383 104q-96 0 -187 -24t-173.5 -76t-145 -125.5t-99 -180t-36.5 -233.5q-1 -120 36.5 -222t100.5 -172t146.5 -120t175.5 -73t188 -23q231 0 392 105z" />
    <glyph glyph-name="Egrave" unicode="&#xc8;" horiz-adv-x="1271" 
d="M199 1434h952v-117h-832v-537h771v-116h-771v-547h846v-117h-966v1434zM793 1583h-129l-201 291h145z" />
    <glyph glyph-name="Eacute" unicode="&#xc9;" horiz-adv-x="1271" 
d="M199 1434h952v-117h-832v-537h771v-116h-771v-547h846v-117h-966v1434zM700 1583h-127l185 291h145z" />
    <glyph glyph-name="Ecircumflex" unicode="&#xca;" horiz-adv-x="1271" 
d="M199 1434h952v-117h-832v-537h771v-116h-771v-547h846v-117h-966v1434zM637 1866h104l267 -281h-134l-184 193l-184 -193h-133z" />
    <glyph glyph-name="Edieresis" unicode="&#xcb;" horiz-adv-x="1271" 
d="M199 1434h952v-117h-832v-537h771v-116h-771v-547h846v-117h-966v1434zM973 1712q0 -34 -24.5 -59t-59.5 -25t-60.5 25t-25.5 59t25.5 60t60.5 26t59.5 -26t24.5 -60zM561 1712q0 -34 -24.5 -59t-59.5 -25t-60.5 25t-25.5 59t25.5 60t60.5 26t59.5 -26t24.5 -60z" />
    <glyph glyph-name="Igrave" unicode="&#xcc;" horiz-adv-x="518" 
d="M199 1434h120v-1434h-120v1434zM371 1583h-129l-201 291h145z" />
    <glyph glyph-name="Iacute" unicode="&#xcd;" horiz-adv-x="518" 
d="M199 1434h120v-1434h-120v1434zM279 1583h-127l184 291h145z" />
    <glyph glyph-name="Icircumflex" unicode="&#xce;" horiz-adv-x="518" 
d="M199 1434h120v-1434h-120v1434zM215 1866h104l267 -281h-133l-185 193l-184 -193h-133z" />
    <glyph glyph-name="Idieresis" unicode="&#xcf;" horiz-adv-x="518" 
d="M199 1434h120v-1434h-120v1434zM551 1712q0 -34 -24.5 -59t-59.5 -25t-60.5 25t-25.5 59t25.5 60t60.5 26t59.5 -26t24.5 -60zM139 1712q0 -34 -24.5 -59t-59.5 -25t-60.5 25t-25.5 59t25.5 60t60.5 26t59.5 -26t24.5 -60z" />
    <glyph glyph-name="Eth" unicode="&#xd0;" horiz-adv-x="1511" 
d="M205 1434h444q187 0 333 -53.5t239 -150t140.5 -226.5t47.5 -287t-47.5 -287t-140.5 -226.5t-239 -150t-333 -53.5h-444v659h-166v111h166v664zM328 117h323q312 0 474.5 160.5t162.5 439.5t-162.5 439.5t-474.5 160.5h-323v-547h458v-111h-458v-542z" />
    <glyph glyph-name="Ntilde" unicode="&#xd1;" horiz-adv-x="1568" 
d="M319 0h-120v1434h110l940 -1227v123v1104h121v-1434h-110l-941 1229v-123v-1106zM1106 1774q12 -88 -31.5 -138.5t-116.5 -50.5q-51 0 -114.5 24.5t-119 49t-85.5 24.5q-36 0 -54.5 -24.5t-13.5 -63.5h-102q-13 87 30 139t113 52q50 0 114.5 -24.5t120.5 -49t87 -24.5
q76 0 70 86h102z" />
    <glyph glyph-name="Ograve" unicode="&#xd2;" horiz-adv-x="1687" 
d="M98 717q0 111 29 217t90 201t147.5 166t210.5 113t269 42t268.5 -42t210 -113t147.5 -166t90 -201t29 -217t-29 -217t-90 -201t-147.5 -166.5t-210 -113.5t-268.5 -42t-269 42t-210.5 113.5t-147.5 166.5t-90 201t-29 217zM1466 717q0 119 -39 229t-113.5 199t-196 142.5
t-273.5 53.5t-273.5 -53.5t-196.5 -142.5t-114 -199t-39 -229t39 -229t114 -199.5t196.5 -143t273.5 -53.5q122 0 225.5 35t175.5 95t122.5 140.5t74.5 170t24 184.5zM952 1583h-129l-200 291h145z" />
    <glyph glyph-name="Oacute" unicode="&#xd3;" horiz-adv-x="1687" 
d="M98 717q0 111 29 217t90 201t147.5 166t210.5 113t269 42t268.5 -42t210 -113t147.5 -166t90 -201t29 -217t-29 -217t-90 -201t-147.5 -166.5t-210 -113.5t-268.5 -42t-269 42t-210.5 113.5t-147.5 166.5t-90 201t-29 217zM1466 717q0 119 -39 229t-113.5 199t-196 142.5
t-273.5 53.5t-273.5 -53.5t-196.5 -142.5t-114 -199t-39 -229t39 -229t114 -199.5t196.5 -143t273.5 -53.5q122 0 225.5 35t175.5 95t122.5 140.5t74.5 170t24 184.5zM860 1583h-127l185 291h145z" />
    <glyph glyph-name="Ocircumflex" unicode="&#xd4;" horiz-adv-x="1687" 
d="M98 717q0 111 29 217t90 201t147.5 166t210.5 113t269 42t268.5 -42t210 -113t147.5 -166t90 -201t29 -217t-29 -217t-90 -201t-147.5 -166.5t-210 -113.5t-268.5 -42t-269 42t-210.5 113.5t-147.5 166.5t-90 201t-29 217zM1466 717q0 119 -39 229t-113.5 199t-196 142.5
t-273.5 53.5t-273.5 -53.5t-196.5 -142.5t-114 -199t-39 -229t39 -229t114 -199.5t196.5 -143t273.5 -53.5q122 0 225.5 35t175.5 95t122.5 140.5t74.5 170t24 184.5zM797 1866h104l266 -281h-133l-184 193l-184 -193h-134z" />
    <glyph glyph-name="Otilde" unicode="&#xd5;" horiz-adv-x="1687" 
d="M98 717q0 111 29 217t90 201t147.5 166t210.5 113t269 42t268.5 -42t210 -113t147.5 -166t90 -201t29 -217t-29 -217t-90 -201t-147.5 -166.5t-210 -113.5t-268.5 -42t-269 42t-210.5 113.5t-147.5 166.5t-90 201t-29 217zM1466 717q0 119 -39 229t-113.5 199t-196 142.5
t-273.5 53.5t-273.5 -53.5t-196.5 -142.5t-114 -199t-39 -229t39 -229t114 -199.5t196.5 -143t273.5 -53.5q122 0 225.5 35t175.5 95t122.5 140.5t74.5 170t24 184.5zM1163 1774q12 -89 -31 -139t-116 -50q-51 0 -115 24.5t-119.5 49t-85.5 24.5q-36 0 -54 -24.5t-13 -63.5
h-103q-13 87 30.5 139t113.5 52q50 0 114 -24.5t120 -49t87 -24.5q76 0 70 86h102z" />
    <glyph glyph-name="Odieresis" unicode="&#xd6;" horiz-adv-x="1687" 
d="M98 717q0 111 29 217t90 201t147.5 166t210.5 113t269 42t268.5 -42t210 -113t147.5 -166t90 -201t29 -217t-29 -217t-90 -201t-147.5 -166.5t-210 -113.5t-268.5 -42t-269 42t-210.5 113.5t-147.5 166.5t-90 201t-29 217zM1466 717q0 119 -39 229t-113.5 199t-196 142.5
t-273.5 53.5t-273.5 -53.5t-196.5 -142.5t-114 -199t-39 -229t39 -229t114 -199.5t196.5 -143t273.5 -53.5q122 0 225.5 35t175.5 95t122.5 140.5t74.5 170t24 184.5zM1133 1712q0 -34 -24.5 -59t-59.5 -25t-60.5 25t-25.5 59t25.5 60t60.5 26t59.5 -26t24.5 -60zM721 1712
q0 -34 -24.5 -59t-59.5 -25t-60.5 25t-25.5 59t25.5 60t60.5 26t59.5 -26t24.5 -60z" />
    <glyph glyph-name="multiply" unicode="&#xd7;" horiz-adv-x="937" 
d="M469 645l-268 -268l-74 76l266 266l-266 266l74 76l268 -266l266 266l76 -76l-268 -266l268 -266l-76 -76z" />
    <glyph glyph-name="Oslash" unicode="&#xd8;" horiz-adv-x="1687" 
d="M1499 1532l-172 -236q127 -104 194.5 -258.5t67.5 -320.5q0 -111 -29 -217t-90 -201t-147.5 -166.5t-210 -113.5t-268.5 -42q-227 0 -400 103l-131 -178h-116l168 233q-130 103 -198.5 258.5t-68.5 323.5q0 111 29 217t90 201t147.5 166t210.5 113t269 42q233 0 405 -104
l133 180h117zM844 1341q-152 0 -273.5 -53.5t-196.5 -142.5t-114 -199t-39 -229q0 -142 55 -270.5t160 -215.5l744 1022q-144 88 -336 88zM514 176q145 -84 330 -84q122 0 225.5 35t175.5 95t122.5 140.5t74.5 170t24 184.5q0 140 -53 267.5t-156 215.5z" />
    <glyph glyph-name="Ugrave" unicode="&#xd9;" horiz-adv-x="1538" 
d="M1235 1434h121v-922q0 -117 -31 -209t-84 -152.5t-128 -100t-160 -56.5t-183 -17q-99 0 -184 17t-160.5 56.5t-128.5 100t-84 152.5t-31 209v922h121v-918q0 -114 34.5 -197.5t99 -132t147 -71.5t186.5 -23t186.5 22.5t146 71.5t98 132.5t34.5 197.5v918zM877 1583h-129
l-201 291h145z" />
    <glyph glyph-name="Uacute" unicode="&#xda;" horiz-adv-x="1538" 
d="M1235 1434h121v-922q0 -117 -31 -209t-84 -152.5t-128 -100t-160 -56.5t-183 -17q-99 0 -184 17t-160.5 56.5t-128.5 100t-84 152.5t-31 209v922h121v-918q0 -114 34.5 -197.5t99 -132t147 -71.5t186.5 -23t186.5 22.5t146 71.5t98 132.5t34.5 197.5v918zM784 1583h-127
l185 291h145z" />
    <glyph glyph-name="Ucircumflex" unicode="&#xdb;" horiz-adv-x="1538" 
d="M1235 1434h121v-922q0 -117 -31 -209t-84 -152.5t-128 -100t-160 -56.5t-183 -17q-99 0 -184 17t-160.5 56.5t-128.5 100t-84 152.5t-31 209v922h121v-918q0 -114 34.5 -197.5t99 -132t147 -71.5t186.5 -23t186.5 22.5t146 71.5t98 132.5t34.5 197.5v918zM721 1866h104
l267 -281h-134l-184 193l-184 -193h-133z" />
    <glyph glyph-name="Udieresis" unicode="&#xdc;" horiz-adv-x="1538" 
d="M1235 1434h121v-922q0 -117 -31 -209t-84 -152.5t-128 -100t-160 -56.5t-183 -17q-99 0 -184 17t-160.5 56.5t-128.5 100t-84 152.5t-31 209v922h121v-918q0 -114 34.5 -197.5t99 -132t147 -71.5t186.5 -23t186.5 22.5t146 71.5t98 132.5t34.5 197.5v918zM1057 1712
q0 -34 -24.5 -59t-59.5 -25t-60.5 25t-25.5 59t25.5 60t60.5 26t59.5 -26t24.5 -60zM645 1712q0 -34 -24.5 -59t-59.5 -25t-60.5 25t-25.5 59t25.5 60t60.5 26t59.5 -26t24.5 -60z" />
    <glyph glyph-name="Yacute" unicode="&#xdd;" horiz-adv-x="1318" 
d="M721 0h-123v559l-563 875h135l489 -764l490 764h135l-563 -875v-559zM678 1583h-127l184 291h146z" />
    <glyph glyph-name="Thorn" unicode="&#xde;" horiz-adv-x="1341" 
d="M319 1171h351q604 0 604 -454q0 -455 -604 -455h-351v-262h-120v1434h120v-263zM322 377h354q82 0 149 9t129 33t104.5 61.5t67.5 97.5t25 139t-25 139.5t-67 98t-104 61t-129 32.5t-150 9h-354v-680z" />
    <glyph glyph-name="germandbls" unicode="&#xdf;" horiz-adv-x="1212" 
d="M1137 303q0 -82 -34.5 -146t-93.5 -102.5t-131 -58t-153 -19.5q-145 0 -260 56v102q110 -55 240 -55q65 0 120 13t100 39.5t71 72t26 106.5q0 49 -23.5 97t-58.5 84.5t-76.5 76t-76.5 71.5t-58.5 69.5t-23.5 72.5q0 38 16 74.5t38.5 66.5t45.5 62t39 74t16 88
q0 86 -72 146.5t-194 60.5q-142 0 -230 -82.5t-88 -229.5v-1042h-116v1024q0 203 118 317.5t316 114.5q181 1 281 -89.5t100 -207.5q0 -50 -16 -94.5t-38.5 -77t-45 -62t-38.5 -61t-16 -61.5q0 -37 32.5 -78.5t79 -83.5t93 -89t79 -112t32.5 -137z" />
    <glyph glyph-name="agrave" unicode="&#xe0;" horiz-adv-x="1110" 
d="M932 178q0 -86 88 -86q32 0 76 14v-94q-55 -20 -107 -20q-69 0 -116 36.5t-54 114.5q-74 -80 -177.5 -123t-225.5 -43q-66 0 -126 17.5t-109 52t-78 91.5t-29 130q0 71 25.5 127t67 92t98.5 59.5t117 33.5t126 10q159 0 309 -43v65q0 132 -82 209.5t-231 77.5
q-188 0 -352 -70v115q175 62 364 62q196 0 306 -106.5t110 -301.5v-420zM193 274q0 -95 71.5 -145.5t173.5 -50.5q112 0 213 50t166 142v181q-153 41 -293 41q-64 0 -120.5 -11.5t-105 -35.5t-77 -68t-28.5 -103zM614 1133h-129l-200 290h145z" />
    <glyph glyph-name="aacute" unicode="&#xe1;" horiz-adv-x="1110" 
d="M932 178q0 -86 88 -86q32 0 76 14v-94q-55 -20 -107 -20q-69 0 -116 36.5t-54 114.5q-74 -80 -177.5 -123t-225.5 -43q-66 0 -126 17.5t-109 52t-78 91.5t-29 130q0 71 25.5 127t67 92t98.5 59.5t117 33.5t126 10q159 0 309 -43v65q0 132 -82 209.5t-231 77.5
q-188 0 -352 -70v115q175 62 364 62q196 0 306 -106.5t110 -301.5v-420zM193 274q0 -95 71.5 -145.5t173.5 -50.5q112 0 213 50t166 142v181q-153 41 -293 41q-64 0 -120.5 -11.5t-105 -35.5t-77 -68t-28.5 -103zM522 1133h-127l185 290h145z" />
    <glyph glyph-name="acircumflex" unicode="&#xe2;" horiz-adv-x="1110" 
d="M932 178q0 -86 88 -86q32 0 76 14v-94q-55 -20 -107 -20q-69 0 -116 36.5t-54 114.5q-74 -80 -177.5 -123t-225.5 -43q-66 0 -126 17.5t-109 52t-78 91.5t-29 130q0 71 25.5 127t67 92t98.5 59.5t117 33.5t126 10q159 0 309 -43v65q0 132 -82 209.5t-231 77.5
q-188 0 -352 -70v115q175 62 364 62q196 0 306 -106.5t110 -301.5v-420zM193 274q0 -95 71.5 -145.5t173.5 -50.5q112 0 213 50t166 142v181q-153 41 -293 41q-64 0 -120.5 -11.5t-105 -35.5t-77 -68t-28.5 -103zM459 1415h104l266 -280h-133l-184 192l-184 -192h-133z" />
    <glyph glyph-name="atilde" unicode="&#xe3;" horiz-adv-x="1110" 
d="M932 178q0 -86 88 -86q32 0 76 14v-94q-55 -20 -107 -20q-69 0 -116 36.5t-54 114.5q-74 -80 -177.5 -123t-225.5 -43q-66 0 -126 17.5t-109 52t-78 91.5t-29 130q0 71 25.5 127t67 92t98.5 59.5t117 33.5t126 10q159 0 309 -43v65q0 132 -82 209.5t-231 77.5
q-188 0 -352 -70v115q175 62 364 62q196 0 306 -106.5t110 -301.5v-420zM193 274q0 -95 71.5 -145.5t173.5 -50.5q112 0 213 50t166 142v181q-153 41 -293 41q-64 0 -120.5 -11.5t-105 -35.5t-77 -68t-28.5 -103zM825 1323q12 -88 -31 -138t-116 -50q-51 0 -115 24.5
t-119.5 49t-85.5 24.5q-36 0 -54 -24.5t-13 -63.5h-103q-13 87 30.5 138.5t113.5 51.5q50 0 114 -24.5t120 -49t87 -24.5q76 0 70 86h102z" />
    <glyph glyph-name="adieresis" unicode="&#xe4;" horiz-adv-x="1110" 
d="M932 178q0 -86 88 -86q32 0 76 14v-94q-55 -20 -107 -20q-69 0 -116 36.5t-54 114.5q-74 -80 -177.5 -123t-225.5 -43q-66 0 -126 17.5t-109 52t-78 91.5t-29 130q0 71 25.5 127t67 92t98.5 59.5t117 33.5t126 10q159 0 309 -43v65q0 132 -82 209.5t-231 77.5
q-188 0 -352 -70v115q175 62 364 62q196 0 306 -106.5t110 -301.5v-420zM193 274q0 -95 71.5 -145.5t173.5 -50.5q112 0 213 50t166 142v181q-153 41 -293 41q-64 0 -120.5 -11.5t-105 -35.5t-77 -68t-28.5 -103zM795 1262q0 -34 -24.5 -59t-59.5 -25t-60.5 25t-25.5 59
t25.5 60t60.5 26t59.5 -26t24.5 -60zM383 1262q0 -34 -24.5 -59t-59.5 -25t-60.5 25t-25.5 59t25.5 60t60.5 26t59.5 -26t24.5 -60z" />
    <glyph glyph-name="aring" unicode="&#xe5;" horiz-adv-x="1110" 
d="M932 178q0 -86 88 -86q32 0 76 14v-94q-55 -20 -107 -20q-69 0 -116 36.5t-54 114.5q-74 -80 -177.5 -123t-225.5 -43q-66 0 -126 17.5t-109 52t-78 91.5t-29 130q0 71 25.5 127t67 92t98.5 59.5t117 33.5t126 10q159 0 309 -43v65q0 132 -82 209.5t-231 77.5
q-188 0 -352 -70v115q175 62 364 62q196 0 306 -106.5t110 -301.5v-420zM193 274q0 -95 71.5 -145.5t173.5 -50.5q112 0 213 50t166 142v181q-153 41 -293 41q-64 0 -120.5 -11.5t-105 -35.5t-77 -68t-28.5 -103zM713 1288q0 -91 -62 -147t-147 -56q-87 0 -149 56t-62 147
q0 88 62.5 143.5t148.5 55.5q85 0 147 -55.5t62 -143.5zM383 1286q0 -55 35.5 -87t85.5 -32t85.5 32t35.5 87q0 53 -36 86t-85 33t-85 -33t-36 -86z" />
    <glyph glyph-name="ae" unicode="&#xe6;" horiz-adv-x="1861" 
d="M934 188q-98 -108 -230.5 -159.5t-275.5 -51.5q-96 0 -174 30t-129 97.5t-51 163.5q0 88 38 152.5t103.5 100.5t141.5 52.5t165 16.5q175 0 322 -43v65q0 136 -85 211.5t-255 75.5q-188 0 -352 -70v115q175 62 364 62q169 0 271 -66t135 -192q57 123 169.5 190.5
t241.5 67.5q88 0 161.5 -24t123 -65.5t86 -97.5t52 -120t19.5 -133.5t-12 -137.5h-802q6 -87 44.5 -154.5t99.5 -108t134.5 -61t155.5 -20.5q78 0 162 21.5t147 58.5v-109q-64 -37 -154 -57.5t-180 -20.5q-133 0 -249.5 53.5t-186.5 157.5zM193 274q0 -96 74 -146t186 -50
q122 0 235.5 45.5t198.5 140.5q-35 84 -41 187q-160 41 -309 41q-69 0 -128 -11.5t-109 -35.5t-78.5 -68t-28.5 -103zM1333 899q-97 0 -178.5 -40.5t-135 -125.5t-58.5 -203h700q6 48 -1 97.5t-30 99t-60 87.5t-98.5 61.5t-138.5 23.5z" />
    <glyph glyph-name="ccedilla" unicode="&#xe7;" horiz-adv-x="1011" 
d="M930 164v-117q-124 -61 -279 -70l-33 -129q98 12 163.5 -25.5t66.5 -115.5q1 -87 -66.5 -133.5t-189.5 -46.5q-111 0 -201 41v100q83 -47 189 -47q83 0 125.5 25t42.5 65q-1 51 -81 68t-165 -6l47 209q-91 8 -171.5 42.5t-145 95t-102.5 154.5t-38 211q0 130 46.5 233
t123.5 164t169.5 92.5t191.5 31.5q179 0 297 -80v-113q-115 86 -283 86q-65 0 -125.5 -14.5t-116 -47t-96.5 -79.5t-65.5 -116.5t-24.5 -154.5q0 -100 35 -179t94 -126.5t132.5 -72.5t154.5 -25q170 0 305 80z" />
    <glyph glyph-name="egrave" unicode="&#xe8;" horiz-adv-x="1122" 
d="M92 492q0 122 42 222t112 162.5t155.5 96t176.5 33.5q78 0 145 -18t116 -49.5t88 -75t61.5 -94t36.5 -106t12 -112.5t-11 -113h-817q5 -91 43.5 -160.5t100 -111t136.5 -62t160 -20.5q185 0 322 80v-115q-135 -72 -338 -72q-110 0 -206 31.5t-171.5 92.5t-119.5 161.5
t-44 229.5zM924 541q5 44 -2 91t-31 95t-62 86t-101 62t-142 24q-99 0 -181.5 -40t-136.5 -123t-59 -195h715zM686 1133h-129l-201 290h146z" />
    <glyph glyph-name="eacute" unicode="&#xe9;" horiz-adv-x="1122" 
d="M92 492q0 122 42 222t112 162.5t155.5 96t176.5 33.5q78 0 145 -18t116 -49.5t88 -75t61.5 -94t36.5 -106t12 -112.5t-11 -113h-817q5 -91 43.5 -160.5t100 -111t136.5 -62t160 -20.5q185 0 322 80v-115q-135 -72 -338 -72q-110 0 -206 31.5t-171.5 92.5t-119.5 161.5
t-44 229.5zM924 541q5 44 -2 91t-31 95t-62 86t-101 62t-142 24q-99 0 -181.5 -40t-136.5 -123t-59 -195h715zM594 1133h-127l184 290h146z" />
    <glyph glyph-name="ecircumflex" unicode="&#xea;" horiz-adv-x="1122" 
d="M92 492q0 122 42 222t112 162.5t155.5 96t176.5 33.5q78 0 145 -18t116 -49.5t88 -75t61.5 -94t36.5 -106t12 -112.5t-11 -113h-817q5 -91 43.5 -160.5t100 -111t136.5 -62t160 -20.5q185 0 322 80v-115q-135 -72 -338 -72q-110 0 -206 31.5t-171.5 92.5t-119.5 161.5
t-44 229.5zM924 541q5 44 -2 91t-31 95t-62 86t-101 62t-142 24q-99 0 -181.5 -40t-136.5 -123t-59 -195h715zM530 1415h105l266 -280h-133l-184 192l-185 -192h-133z" />
    <glyph glyph-name="edieresis" unicode="&#xeb;" horiz-adv-x="1122" 
d="M92 492q0 122 42 222t112 162.5t155.5 96t176.5 33.5q78 0 145 -18t116 -49.5t88 -75t61.5 -94t36.5 -106t12 -112.5t-11 -113h-817q5 -91 43.5 -160.5t100 -111t136.5 -62t160 -20.5q185 0 322 80v-115q-135 -72 -338 -72q-110 0 -206 31.5t-171.5 92.5t-119.5 161.5
t-44 229.5zM924 541q5 44 -2 91t-31 95t-62 86t-101 62t-142 24q-99 0 -181.5 -40t-136.5 -123t-59 -195h715zM866 1262q0 -34 -24.5 -59t-59.5 -25t-60.5 25t-25.5 59t25.5 60t60.5 26t59.5 -26t24.5 -60zM455 1262q0 -34 -24.5 -59t-59.5 -25t-60.5 25t-25.5 59t25.5 60
t60.5 26t59.5 -26t24.5 -60z" />
    <glyph glyph-name="igrave" unicode="&#xec;" horiz-adv-x="448" 
d="M283 0h-117v983h117v-983zM338 1133h-113l-174 290h131z" />
    <glyph glyph-name="iacute" unicode="&#xed;" horiz-adv-x="448" 
d="M166 983h117v-983h-117v983zM240 1133h-127l184 290h145z" />
    <glyph glyph-name="icircumflex" unicode="&#xee;" horiz-adv-x="448" 
d="M174 1395h105l210 -260h-124l-138 172l-137 -172h-127zM166 983h117v-983h-117v983z" />
    <glyph glyph-name="idieresis" unicode="&#xef;" horiz-adv-x="448" 
d="M461 1262q0 -31 -24 -54.5t-56 -23.5q-31 0 -54.5 23.5t-23.5 54.5t23.5 55t54.5 24q32 0 56 -24t24 -55zM143 1262q0 -31 -22.5 -54.5t-54.5 -23.5t-55 23.5t-23 54.5t23 55t55 24t54.5 -24t22.5 -55zM166 983h117v-983h-117v983z" />
    <glyph glyph-name="eth" unicode="&#xf0;" horiz-adv-x="1216" 
d="M1106 551q0 -271 -139.5 -422.5t-370.5 -151.5q-219 0 -361.5 131.5t-142.5 346.5q0 198 138 328t331 130q155 0 277.5 -76t162.5 -210q0 15 -4 47q-41 424 -407 579l-213 -213l-68 68l180 180q-134 35 -280 35v111q189 0 364 -62l175 174l67 -67l-149 -150
q73 -36 135.5 -82.5t120 -115t97.5 -150.5t63.5 -192.5t23.5 -237.5zM209 455q0 -167 106.5 -267t280.5 -100q161 0 258.5 87.5t124.5 240.5q-3 119 -58.5 209t-144 135t-196.5 45q-160 0 -265.5 -97.5t-105.5 -252.5z" />
    <glyph glyph-name="ntilde" unicode="&#xf1;" 
d="M264 807q58 80 158.5 139.5t222.5 59.5q173 0 286 -110t113 -290v-606h-116v592q0 147 -82 227t-213 80q-117 0 -208.5 -65t-148.5 -160v-674h-116v983h104v-176zM918 1323q11 -88 -32 -138t-116 -50q-51 0 -114.5 24.5t-119 49t-85.5 24.5q-36 0 -54.5 -24.5
t-13.5 -63.5h-102q-13 87 30 138.5t113 51.5q50 0 114 -24.5t120 -49t87 -24.5q76 0 70 86h103z" />
    <glyph glyph-name="ograve" unicode="&#xf2;" horiz-adv-x="1218" 
d="M92 492q0 120 43.5 219.5t116 162.5t164.5 97.5t192 34.5q102 0 194.5 -34.5t165 -97.5t115.5 -162t43 -220t-43 -220t-115.5 -162.5t-165 -98t-194.5 -34.5q-100 0 -192 34.5t-164.5 98t-116 163t-43.5 219.5zM1010 492q0 124 -55 217t-145 139.5t-200 46.5
q-171 0 -286 -108.5t-115 -294.5t115 -295t286 -109q169 0 284.5 109t115.5 295zM717 1126h-129l-201 291h145z" />
    <glyph glyph-name="oacute" unicode="&#xf3;" horiz-adv-x="1218" 
d="M92 492q0 120 43.5 219.5t116 162.5t164.5 97.5t192 34.5q102 0 194.5 -34.5t165 -97.5t115.5 -162t43 -220t-43 -220t-115.5 -162.5t-165 -98t-194.5 -34.5q-100 0 -192 34.5t-164.5 98t-116 163t-43.5 219.5zM1010 492q0 124 -55 217t-145 139.5t-200 46.5
q-171 0 -286 -108.5t-115 -294.5t115 -295t286 -109q169 0 284.5 109t115.5 295zM625 1126h-127l184 291h145z" />
    <glyph glyph-name="ocircumflex" unicode="&#xf4;" horiz-adv-x="1218" 
d="M92 492q0 120 43.5 219.5t116 162.5t164.5 97.5t192 34.5q102 0 194.5 -34.5t165 -97.5t115.5 -162t43 -220t-43 -220t-115.5 -162.5t-165 -98t-194.5 -34.5q-100 0 -192 34.5t-164.5 98t-116 163t-43.5 219.5zM1010 492q0 124 -55 217t-145 139.5t-200 46.5
q-171 0 -286 -108.5t-115 -294.5t115 -295t286 -109q169 0 284.5 109t115.5 295zM561 1409h105l266 -281h-133l-185 193l-184 -193h-133z" />
    <glyph glyph-name="otilde" unicode="&#xf5;" horiz-adv-x="1218" 
d="M92 492q0 120 43.5 219.5t116 162.5t164.5 97.5t192 34.5q102 0 194.5 -34.5t165 -97.5t115.5 -162t43 -220t-43 -220t-115.5 -162.5t-165 -98t-194.5 -34.5q-100 0 -192 34.5t-164.5 98t-116 163t-43.5 219.5zM1010 492q0 124 -55 217t-145 139.5t-200 46.5
q-171 0 -286 -108.5t-115 -294.5t115 -295t286 -109q169 0 284.5 109t115.5 295zM928 1317q12 -88 -31.5 -138.5t-116.5 -50.5q-51 0 -114.5 25t-119 49.5t-85.5 24.5q-36 0 -54.5 -24.5t-13.5 -63.5h-102q-13 87 30 138.5t113 51.5q50 0 114.5 -24.5t120.5 -49t87 -24.5
q75 0 69 86h103z" />
    <glyph glyph-name="odieresis" unicode="&#xf6;" horiz-adv-x="1218" 
d="M92 492q0 120 43.5 219.5t116 162.5t164.5 97.5t192 34.5q102 0 194.5 -34.5t165 -97.5t115.5 -162t43 -220t-43 -220t-115.5 -162.5t-165 -98t-194.5 -34.5q-100 0 -192 34.5t-164.5 98t-116 163t-43.5 219.5zM1010 492q0 124 -55 217t-145 139.5t-200 46.5
q-171 0 -286 -108.5t-115 -294.5t115 -295t286 -109q169 0 284.5 109t115.5 295zM897 1255q0 -34 -24.5 -59t-59.5 -25t-60.5 25t-25.5 59t25.5 60t60.5 26t59.5 -26t24.5 -60zM485 1255q0 -34 -24.5 -59t-59.5 -25t-60.5 25t-25.5 59t25.5 60t60.5 26t59.5 -26t24.5 -60z
" />
    <glyph glyph-name="divide" unicode="&#xf7;" horiz-adv-x="1298" 
d="M1141 662h-983v110h983v-110zM729 258q0 -38 -22.5 -59t-57.5 -21t-58.5 21t-23.5 59q0 37 23.5 57.5t58.5 20.5t57.5 -20.5t22.5 -57.5zM729 1174q0 -38 -22.5 -59t-57.5 -21t-58.5 21t-23.5 59q0 37 23.5 57t58.5 20t57.5 -20t22.5 -57z" />
    <glyph glyph-name="oslash" unicode="&#xf8;" horiz-adv-x="1218" 
d="M1065 1112l-137 -207q93 -67 145.5 -172t52.5 -241q0 -121 -43 -220t-115.5 -162.5t-165 -98t-194.5 -34.5q-131 0 -250 58l-102 -156h-102l131 203q-90 66 -141.5 170.5t-51.5 239.5q0 120 43.5 219.5t116 162.5t164.5 97.5t192 34.5q135 0 248 -58l105 164h104z
M610 895q-171 0 -286 -108.5t-115 -294.5q0 -102 37.5 -183t103.5 -133l443 680q-86 39 -183 39zM422 129q84 -41 186 -41q171 0 286.5 109t115.5 295q0 202 -144 319z" />
    <glyph glyph-name="ugrave" unicode="&#xf9;" 
d="M915 983h117v-983h-106v176q-58 -81 -157.5 -140t-223.5 -59q-181 0 -289.5 108.5t-108.5 291.5v606h117v-592q0 -150 77.5 -228.5t215.5 -78.5q118 0 209 65t149 160v674zM705 1133h-130l-200 290h145z" />
    <glyph glyph-name="uacute" unicode="&#xfa;" 
d="M915 983h117v-983h-106v176q-58 -81 -157.5 -140t-223.5 -59q-181 0 -289.5 108.5t-108.5 291.5v606h117v-592q0 -150 77.5 -228.5t215.5 -78.5q118 0 209 65t149 160v674zM612 1133h-127l185 290h145z" />
    <glyph glyph-name="ucircumflex" unicode="&#xfb;" 
d="M915 983h117v-983h-106v176q-58 -81 -157.5 -140t-223.5 -59q-181 0 -289.5 108.5t-108.5 291.5v606h117v-592q0 -150 77.5 -228.5t215.5 -78.5q118 0 209 65t149 160v674zM549 1415h104l267 -280h-134l-184 192l-184 -192h-133z" />
    <glyph glyph-name="udieresis" unicode="&#xfc;" 
d="M915 983h117v-983h-106v176q-58 -81 -157.5 -140t-223.5 -59q-181 0 -289.5 108.5t-108.5 291.5v606h117v-592q0 -150 77.5 -228.5t215.5 -78.5q118 0 209 65t149 160v674zM885 1262q0 -34 -24.5 -59t-59.5 -25t-60.5 25t-25.5 59t25.5 60t60.5 26t59.5 -26t24.5 -60z
M473 1262q0 -34 -24.5 -59t-59.5 -25t-60.5 25t-25.5 59t25.5 60t60.5 26t59.5 -26t24.5 -60z" />
    <glyph glyph-name="yacute" unicode="&#xfd;" horiz-adv-x="1097" 
d="M569 129l367 854h123l-498 -1145q-73 -165 -159 -238t-193 -73q-50 0 -105 12v103q50 -13 91 -13q87 0 151 61t117 191l49 115l-483 987h123zM551 1133h-127l184 290h146z" />
    <glyph glyph-name="thorn" unicode="&#xfe;" horiz-adv-x="1265" 
d="M160 1434h116v-641q61 93 165.5 153t242.5 60q212 0 351 -144t139 -370t-139 -370.5t-351 -144.5q-138 0 -242.5 60t-165.5 153v-641h-116v1885zM1057 492q0 185 -110 296t-277 111q-137 0 -244 -79t-152 -195v-267q45 -116 152 -195t244 -79q167 0 277 111t110 297z" />
    <glyph glyph-name="ydieresis" unicode="&#xff;" horiz-adv-x="1097" 
d="M569 129l367 854h123l-498 -1145q-73 -165 -159 -238t-193 -73q-50 0 -105 12v103q50 -13 91 -13q87 0 151 61t117 191l49 115l-483 987h123zM823 1262q0 -34 -24.5 -59t-59.5 -25t-60.5 25t-25.5 59t25.5 60t60.5 26t59.5 -26t24.5 -60zM412 1262q0 -34 -24.5 -59
t-59.5 -25t-60.5 25t-25.5 59t25.5 60t60.5 26t59.5 -26t24.5 -60z" />
    <glyph glyph-name="Amacron" unicode="&#x100;" horiz-adv-x="1460" 
d="M154 0h-131l639 1434h137l637 -1434h-131l-170 385h-809zM711 1264l-338 -764h712l-337 764q-2 5 -19 45q-9 -21 -18 -45zM440 1735h574v-107h-574v107z" />
    <glyph glyph-name="amacron" unicode="&#x101;" horiz-adv-x="1110" 
d="M932 178q0 -86 88 -86q32 0 76 14v-94q-55 -20 -107 -20q-69 0 -116 36.5t-54 114.5q-74 -80 -177.5 -123t-225.5 -43q-66 0 -126 17.5t-109 52t-78 91.5t-29 130q0 71 25.5 127t67 92t98.5 59.5t117 33.5t126 10q159 0 309 -43v65q0 132 -82 209.5t-231 77.5
q-188 0 -352 -70v115q175 62 364 62q196 0 306 -106.5t110 -301.5v-420zM193 274q0 -95 71.5 -145.5t173.5 -50.5q112 0 213 50t166 142v181q-153 41 -293 41q-64 0 -120.5 -11.5t-105 -35.5t-77 -68t-28.5 -103zM219 1284h574v-106h-574v106z" />
    <glyph glyph-name="Abreve" unicode="&#x102;" horiz-adv-x="1460" 
d="M154 0h-131l639 1434h137l637 -1434h-131l-170 385h-809zM711 1264l-338 -764h712l-337 764q-2 5 -19 45q-9 -21 -18 -45zM1001 1669q-115 -84 -274 -84q-160 0 -272 84v117q122 -90 272 -90t274 90v-117z" />
    <glyph glyph-name="abreve" unicode="&#x103;" horiz-adv-x="1110" 
d="M932 178q0 -86 88 -86q32 0 76 14v-94q-55 -20 -107 -20q-69 0 -116 36.5t-54 114.5q-74 -80 -177.5 -123t-225.5 -43q-66 0 -126 17.5t-109 52t-78 91.5t-29 130q0 71 25.5 127t67 92t98.5 59.5t117 33.5t126 10q159 0 309 -43v65q0 132 -82 209.5t-231 77.5
q-188 0 -352 -70v115q175 62 364 62q196 0 306 -106.5t110 -301.5v-420zM193 274q0 -95 71.5 -145.5t173.5 -50.5q112 0 213 50t166 142v181q-153 41 -293 41q-64 0 -120.5 -11.5t-105 -35.5t-77 -68t-28.5 -103zM780 1219q-115 -84 -274 -84q-161 0 -273 84v116
q122 -90 273 -90q150 0 274 90v-116z" />
    <glyph glyph-name="Aogonek" unicode="&#x104;" horiz-adv-x="1460" 
d="M1225 -287q-2 -44 26 -68t82 -24q68 0 133 43v-94q-67 -43 -159 -43q-91 0 -142 47.5t-51 124.5q0 68 49 153.5t133 165.5l-161 367h-809l-172 -385h-131l639 1434h137l637 -1434q-93 -63 -152.5 -142.5t-58.5 -144.5zM711 1264l-338 -764h714l-339 764q-2 5 -19 45
q-9 -21 -18 -45z" />
    <glyph glyph-name="aogonek" unicode="&#x105;" horiz-adv-x="1110" 
d="M1096 106v-94q-94 -64 -153 -139.5t-58 -138.5q-2 -47 26.5 -74t81.5 -27q47 0 101 23v-92q-56 -27 -127 -27q-91 -1 -142 47.5t-51 124.5q0 70 46 144.5t130 142.5q-54 8 -89.5 44.5t-41.5 102.5q-74 -80 -177.5 -123t-225.5 -43q-66 0 -126 17.5t-109 52t-78 91.5
t-29 130q0 71 25.5 127t67 92t98.5 59.5t117 33.5t126 10q159 0 309 -43v65q0 132 -82 209.5t-231 77.5q-188 0 -352 -70v115q175 62 364 62q196 0 306 -106.5t110 -301.5v-420q0 -86 88 -86q32 0 76 14zM438 78q112 0 213 50t166 142v181q-153 41 -293 41
q-64 0 -120.5 -11.5t-105 -35.5t-77 -68t-28.5 -103q0 -95 71.5 -145.5t173.5 -50.5z" />
    <glyph glyph-name="Cacute" unicode="&#x106;" horiz-adv-x="1343" 
d="M102 702q0 145 42.5 269.5t114.5 212.5t168 150t202.5 92t218.5 30q223 0 401 -96v-123q-159 104 -383 104q-96 0 -187 -24t-173.5 -76t-145 -125.5t-99 -180t-36.5 -233.5q-1 -120 36.5 -222t100.5 -172t146.5 -120t175.5 -73t188 -23q231 0 392 105v-121
q-184 -99 -416 -99q-109 0 -215 28.5t-202.5 88.5t-170 144.5t-116.5 204t-42 259.5zM838 1583h-127l184 291h145z" />
    <glyph glyph-name="cacute" unicode="&#x107;" horiz-adv-x="1011" 
d="M92 485q0 130 46.5 233t123.5 164t169.5 92.5t191.5 31.5q179 0 297 -80v-113q-115 86 -283 86q-65 0 -125.5 -14.5t-116 -47t-96.5 -79.5t-65.5 -116.5t-24.5 -154.5q0 -100 35 -179t94 -126.5t132.5 -72.5t154.5 -25q170 0 305 80v-117q-140 -70 -322 -70
q-78 0 -151.5 19t-140 60t-116 99.5t-79 143.5t-29.5 186zM635 1133h-127l184 290h146z" />
    <glyph glyph-name="Cdotaccent" unicode="&#x10a;" horiz-adv-x="1343" 
d="M102 702q0 145 42.5 269.5t114.5 212.5t168 150t202.5 92t218.5 30q223 0 401 -96v-123q-159 104 -383 104q-96 0 -187 -24t-173.5 -76t-145 -125.5t-99 -180t-36.5 -233.5q-1 -120 36.5 -222t100.5 -172t146.5 -120t175.5 -73t188 -23q231 0 392 105v-121
q-184 -99 -416 -99q-109 0 -215 28.5t-202.5 88.5t-170 144.5t-116.5 204t-42 259.5zM721 1686q0 43 28 67.5t68 24.5t67 -24.5t27 -67.5q0 -44 -27 -69.5t-67 -25.5t-68 25.5t-28 69.5z" />
    <glyph glyph-name="cdotaccent" unicode="&#x10b;" horiz-adv-x="1011" 
d="M92 485q0 130 46.5 233t123.5 164t169.5 92.5t191.5 31.5q179 0 297 -80v-113q-115 86 -283 86q-65 0 -125.5 -14.5t-116 -47t-96.5 -79.5t-65.5 -116.5t-24.5 -154.5q0 -100 35 -179t94 -126.5t132.5 -72.5t154.5 -25q170 0 305 80v-117q-140 -70 -322 -70
q-78 0 -151.5 19t-140 60t-116 99.5t-79 143.5t-29.5 186zM518 1235q0 43 28 67.5t68 24.5t67.5 -24.5t27.5 -67.5q0 -44 -27.5 -69t-67.5 -25t-68 25t-28 69z" />
    <glyph glyph-name="Ccaron" unicode="&#x10c;" horiz-adv-x="1343" 
d="M102 702q0 145 42.5 269.5t114.5 212.5t168 150t202.5 92t218.5 30q223 0 401 -96v-123q-159 104 -383 104q-96 0 -187 -24t-173.5 -76t-145 -125.5t-99 -180t-36.5 -233.5q-1 -120 36.5 -222t100.5 -172t146.5 -120t175.5 -73t188 -23q231 0 392 105v-121
q-184 -99 -416 -99q-109 0 -215 28.5t-202.5 88.5t-170 144.5t-116.5 204t-42 259.5zM1145 1845l-266 -280h-105l-264 280h133l184 -192l185 192h133z" />
    <glyph glyph-name="ccaron" unicode="&#x10d;" horiz-adv-x="1011" 
d="M92 485q0 130 46.5 233t123.5 164t169.5 92.5t191.5 31.5q179 0 297 -80v-113q-115 86 -283 86q-65 0 -125.5 -14.5t-116 -47t-96.5 -79.5t-65.5 -116.5t-24.5 -154.5q0 -100 35 -179t94 -126.5t132.5 -72.5t154.5 -25q170 0 305 80v-117q-140 -70 -322 -70
q-78 0 -151.5 19t-140 60t-116 99.5t-79 143.5t-29.5 186zM942 1395l-266 -281h-105l-264 281h133l185 -193l184 193h133z" />
    <glyph glyph-name="Dcaron" unicode="&#x10e;" horiz-adv-x="1505" 
d="M199 1434h444q187 0 333 -53.5t239 -150t140.5 -226.5t47.5 -287t-47.5 -287t-140.5 -226.5t-239 -150t-333 -53.5h-444v1434zM1282 717q0 279 -162.5 439.5t-474.5 160.5h-323v-1200h323q312 0 474.5 160.5t162.5 439.5zM1020 1845l-266 -280h-105l-264 280h133
l184 -192l185 192h133z" />
    <glyph glyph-name="dcaron" unicode="&#x10f;" horiz-adv-x="1265" 
d="M1266 1434h114l-51 -353h-100zM991 1434h115v-1434h-105v203q-69 -102 -174.5 -164t-244.5 -62q-211 0 -350.5 144.5t-139.5 370.5q0 225 139.5 369.5t350.5 144.5q139 0 243.5 -60t165.5 -153v641zM991 625q-45 116 -151.5 195t-243.5 79q-167 0 -277 -110.5
t-110 -296.5q0 -185 110 -296.5t277 -111.5q137 0 243.5 79t151.5 195v267z" />
    <glyph glyph-name="Dcroat" unicode="&#x110;" horiz-adv-x="1511" 
d="M205 1434h444q187 0 333 -53.5t239 -150t140.5 -226.5t47.5 -287t-47.5 -287t-140.5 -226.5t-239 -150t-333 -53.5h-444v659h-166v111h166v664zM328 117h323q312 0 474.5 160.5t162.5 439.5t-162.5 439.5t-474.5 160.5h-323v-547h458v-111h-458v-542z" />
    <glyph glyph-name="dcroat" unicode="&#x111;" horiz-adv-x="1265" 
d="M1106 1278h145v-88h-145v-1190h-105v203q-69 -102 -174.5 -164t-244.5 -62q-211 0 -350.5 144.5t-139.5 370.5q0 225 139.5 369.5t350.5 144.5q139 0 243.5 -60t165.5 -153v397h-379v88h379v156h115v-156zM596 84q137 0 243.5 79t151.5 195v267q-45 116 -151.5 195
t-243.5 79q-167 0 -277 -110.5t-110 -296.5q0 -185 110 -296.5t277 -111.5z" />
    <glyph glyph-name="Emacron" unicode="&#x112;" horiz-adv-x="1271" 
d="M199 1434h952v-117h-832v-537h771v-116h-771v-547h846v-117h-966v1434zM397 1735h574v-107h-574v107z" />
    <glyph glyph-name="emacron" unicode="&#x113;" horiz-adv-x="1122" 
d="M92 492q0 122 42 222t112 162.5t155.5 96t176.5 33.5q78 0 145 -18t116 -49.5t88 -75t61.5 -94t36.5 -106t12 -112.5t-11 -113h-817q5 -91 43.5 -160.5t100 -111t136.5 -62t160 -20.5q185 0 322 80v-115q-135 -72 -338 -72q-110 0 -206 31.5t-171.5 92.5t-119.5 161.5
t-44 229.5zM924 541q5 44 -2 91t-31 95t-62 86t-101 62t-142 24q-99 0 -181.5 -40t-136.5 -123t-59 -195h715zM291 1284h573v-106h-573v106z" />
    <glyph glyph-name="Edotaccent" unicode="&#x116;" horiz-adv-x="1271" 
d="M199 1434h952v-117h-832v-537h771v-116h-771v-547h846v-117h-966v1434zM584 1686q0 43 28 67.5t68 24.5t67 -24.5t27 -67.5q0 -44 -27 -69.5t-67 -25.5t-68 25.5t-28 69.5z" />
    <glyph glyph-name="edotaccent" unicode="&#x117;" horiz-adv-x="1122" 
d="M92 492q0 122 42 222t112 162.5t155.5 96t176.5 33.5q78 0 145 -18t116 -49.5t88 -75t61.5 -94t36.5 -106t12 -112.5t-11 -113h-817q5 -91 43.5 -160.5t100 -111t136.5 -62t160 -20.5q185 0 322 80v-115q-135 -72 -338 -72q-110 0 -206 31.5t-171.5 92.5t-119.5 161.5
t-44 229.5zM924 541q5 44 -2 91t-31 95t-62 86t-101 62t-142 24q-99 0 -181.5 -40t-136.5 -123t-59 -195h715zM477 1235q0 43 28 67.5t68 24.5t67.5 -24.5t27.5 -67.5q0 -44 -27.5 -69t-67.5 -25t-68 25t-28 69z" />
    <glyph glyph-name="Eogonek" unicode="&#x118;" horiz-adv-x="1271" 
d="M1165 -348v-98q-66 -29 -141 -29q-91 -1 -142 47.5t-51 124.5q0 74 51.5 153.5t143.5 149.5h-827v1434h952v-117h-832v-537h771v-116h-771v-547h846v-117q-99 -63 -161.5 -139.5t-61.5 -139.5q-2 -46 27 -73t82 -27q57 0 114 31z" />
    <glyph glyph-name="eogonek" unicode="&#x119;" horiz-adv-x="1122" 
d="M948 -430q-67 -43 -160 -43q-91 -1 -141.5 46.5t-50.5 125.5q0 143 197 295q-87 -17 -160 -17q-110 0 -206 31.5t-171.5 92.5t-119.5 161.5t-44 229.5q0 122 42 222t112 162.5t155.5 96t176.5 33.5q78 0 145 -18t116 -49.5t88 -74.5t61.5 -93.5t36.5 -106.5t12 -113
t-11 -113h-817q5 -91 43.5 -160.5t100 -111t136.5 -62t160 -20.5q185 0 322 80v-115q-267 -201 -264 -328q-2 -45 26.5 -72t81.5 -28q73 3 133 43v-94zM586 899q-99 0 -181.5 -40t-136.5 -123t-59 -195h715q5 44 -2 91t-31 95t-62 86t-101 62t-142 24z" />
    <glyph glyph-name="Ecaron" unicode="&#x11a;" horiz-adv-x="1271" 
d="M199 1434h952v-117h-832v-537h771v-116h-771v-547h846v-117h-966v1434zM1008 1845l-267 -280h-104l-264 280h133l184 -192l184 192h134z" />
    <glyph glyph-name="ecaron" unicode="&#x11b;" horiz-adv-x="1122" 
d="M92 492q0 122 42 222t112 162.5t155.5 96t176.5 33.5q78 0 145 -18t116 -49.5t88 -75t61.5 -94t36.5 -106t12 -112.5t-11 -113h-817q5 -91 43.5 -160.5t100 -111t136.5 -62t160 -20.5q185 0 322 80v-115q-135 -72 -338 -72q-110 0 -206 31.5t-171.5 92.5t-119.5 161.5
t-44 229.5zM924 541q5 44 -2 91t-31 95t-62 86t-101 62t-142 24q-99 0 -181.5 -40t-136.5 -123t-59 -195h715zM901 1395l-266 -281h-105l-264 281h133l185 -193l184 193h133z" />
    <glyph glyph-name="Gbreve" unicode="&#x11e;" horiz-adv-x="1447" 
d="M100 717q0 147 42.5 270t115.5 208.5t170.5 145t206 87.5t223.5 28q234 0 424 -94v-123q-170 102 -408 102q-98 0 -190 -22t-176.5 -71t-147.5 -120t-100 -177t-37 -234q0 -133 38 -240t101 -177.5t149 -118.5t178.5 -68.5t193.5 -20.5q171 0 313 66v598h123v-682
q-208 -97 -445 -97q-120 0 -230 25t-210.5 82t-173.5 141t-116.5 210t-43.5 282zM1102 1669q-115 -84 -275 -84t-272 84v117q122 -90 272 -90q151 0 275 90v-117z" />
    <glyph glyph-name="gbreve" unicode="&#x11f;" horiz-adv-x="1265" 
d="M92 492q0 225 139.5 369.5t350.5 144.5q139 0 244.5 -62t174.5 -164v203h105v-983q0 -121 -44 -214.5t-119 -148.5t-167 -82.5t-196 -27.5q-212 0 -394 92v113q184 -99 379 -99q69 0 130 12t116 40t94.5 69.5t62.5 104.5t23 141v195q-61 -96 -165.5 -157t-243.5 -61
q-211 0 -350.5 144.5t-139.5 370.5zM991 625q-45 116 -151.5 195t-243.5 79q-167 0 -277 -110.5t-110 -296.5q0 -185 110 -296.5t277 -111.5q136 0 243 75t152 185v281zM868 1219q-115 -84 -274 -84q-160 0 -272 84v116q122 -90 272 -90t274 90v-116z" />
    <glyph glyph-name="Gdotaccent" unicode="&#x120;" horiz-adv-x="1447" 
d="M100 717q0 147 42.5 270t115.5 208.5t170.5 145t206 87.5t223.5 28q234 0 424 -94v-123q-170 102 -408 102q-98 0 -190 -22t-176.5 -71t-147.5 -120t-100 -177t-37 -234q0 -133 38 -240t101 -177.5t149 -118.5t178.5 -68.5t193.5 -20.5q171 0 313 66v598h123v-682
q-208 -97 -445 -97q-120 0 -230 25t-210.5 82t-173.5 141t-116.5 210t-43.5 282zM727 1686q0 43 28 67.5t68 24.5t67.5 -24.5t27.5 -67.5q0 -44 -27.5 -69.5t-67.5 -25.5t-68 25.5t-28 69.5z" />
    <glyph glyph-name="gdotaccent" unicode="&#x121;" horiz-adv-x="1265" 
d="M92 492q0 225 139.5 369.5t350.5 144.5q139 0 244.5 -62t174.5 -164v203h105v-983q0 -121 -44 -214.5t-119 -148.5t-167 -82.5t-196 -27.5q-212 0 -394 92v113q184 -99 379 -99q69 0 130 12t116 40t94.5 69.5t62.5 104.5t23 141v195q-61 -96 -165.5 -157t-243.5 -61
q-211 0 -350.5 144.5t-139.5 370.5zM991 625q-45 116 -151.5 195t-243.5 79q-167 0 -277 -110.5t-110 -296.5q0 -185 110 -296.5t277 -111.5q136 0 243 75t152 185v281zM494 1235q0 43 28 67.5t68 24.5t67 -24.5t27 -67.5q0 -44 -27 -69t-67 -25t-68 25t-28 69z" />
    <glyph glyph-name="Gcommaaccent" unicode="&#x122;" horiz-adv-x="1447" 
d="M100 717q0 147 42.5 270t115.5 208.5t170.5 145t206 87.5t223.5 28q234 0 424 -94v-123q-170 102 -408 102q-98 0 -190 -22t-176.5 -71t-147.5 -120t-100 -177t-37 -234q0 -133 38 -240t101 -177.5t149 -118.5t178.5 -68.5t193.5 -20.5q171 0 313 66v598h123v-682
q-208 -97 -445 -97q-120 0 -230 25t-210.5 82t-173.5 141t-116.5 210t-43.5 282zM858 -479h-102l47 368h117z" />
    <glyph glyph-name="gcommaaccent" unicode="&#x123;" horiz-adv-x="1265" 
d="M655 1122h-114l57 326h102zM92 492q0 225 139.5 369.5t350.5 144.5q139 0 244.5 -62t174.5 -164v203h105v-983q0 -121 -44 -214.5t-119 -148.5t-167 -82.5t-196 -27.5q-212 0 -394 92v113q184 -99 379 -99q69 0 130 12t116 40t94.5 69.5t62.5 104.5t23 141v195
q-61 -96 -165.5 -157t-243.5 -61q-211 0 -350.5 144.5t-139.5 370.5zM991 625q-45 116 -151.5 195t-243.5 79q-167 0 -277 -110.5t-110 -296.5q0 -185 110 -296.5t277 -111.5q136 0 243 75t152 185v281z" />
    <glyph glyph-name="Hbar" unicode="&#x126;" horiz-adv-x="1576" 
d="M324 0h-121v1044h-156v103h156v287h121v-287h929v287h121v-287h156v-103h-156v-1044h-121v662h-929v-662zM324 1044v-266h927v266h-927z" />
    <glyph glyph-name="hbar" unicode="&#x127;" 
d="M276 819q59 77 155.5 132t213.5 55q173 0 286 -110t113 -290v-606h-116v592q0 147 -82 227t-213 80q-117 0 -208.5 -65t-148.5 -160v-674h-116v1174h-135v90h135v170h116v-170h386v-90h-386v-355z" />
    <glyph glyph-name="Imacron" unicode="&#x12a;" horiz-adv-x="518" 
d="M199 1434h120v-1434h-120v1434zM-25 1735h574v-107h-574v107z" />
    <glyph glyph-name="imacron" unicode="&#x12b;" horiz-adv-x="448" 
d="M0 1300h451v-108h-451v108zM166 983h117v-983h-117v983z" />
    <glyph glyph-name="Iogonek" unicode="&#x12e;" horiz-adv-x="520" 
d="M152 -279q-2 -46 26.5 -73t81.5 -27q71 0 133 41v-100q-67 -37 -160 -37q-91 -1 -141.5 47.5t-50.5 124.5q0 125 160 317v1420h121v-1434q-167 -171 -170 -279z" />
    <glyph glyph-name="iogonek" unicode="&#x12f;" horiz-adv-x="448" 
d="M303 1282q0 -38 -23 -58t-57 -20q-33 0 -56.5 20t-23.5 58q0 35 24 56.5t56 21.5q34 0 57 -21t23 -57zM154 -279q-2 -46 26.5 -73t81.5 -27q71 0 133 41v-102q-63 -35 -159 -35q-91 -1 -142 47.5t-51 124.5q0 131 123 303v983h117v-983q-65 -89 -97.5 -154.5
t-31.5 -124.5z" />
    <glyph glyph-name="Idotaccent" unicode="&#x130;" horiz-adv-x="518" 
d="M199 1434h120v-1434h-120v1434zM162 1686q0 43 28 67.5t68 24.5t67 -24.5t27 -67.5q0 -44 -27 -69.5t-67 -25.5t-68 25.5t-28 69.5z" />
    <glyph glyph-name="dotlessi" unicode="&#x131;" horiz-adv-x="448" 
d="M166 983h117v-983h-117v983z" />
    <glyph glyph-name="IJ" unicode="&#x132;" horiz-adv-x="1574" 
d="M199 1434h120v-1434h-120v1434zM825 1434h564v-1041q0 -105 -34.5 -185.5t-97 -129.5t-144 -73.5t-179.5 -24.5q-227 0 -369 88v120q139 -92 348 -92q165 0 260 72t95 229v920h-443v117z" />
    <glyph glyph-name="ij" unicode="&#x133;" horiz-adv-x="894" 
d="M283 0h-117v983h117v-983zM301 1282q0 -38 -22.5 -58t-55.5 -20q-34 0 -57 20t-23 58q0 36 23 57t57 21q32 0 55 -21.5t23 -56.5zM729 -205q0 -76 -23 -130.5t-62.5 -83t-83.5 -41.5t-95 -13q-85 0 -146 24v109q48 -22 117 -22q178 0 178 174v1171h115v-1188zM750 1282
q0 -38 -23 -58t-57 -20q-33 0 -56.5 20t-23.5 58q0 35 24 56.5t56 21.5q34 0 57 -21t23 -57z" />
    <glyph glyph-name="Kcommaaccent" unicode="&#x136;" horiz-adv-x="1351" 
d="M319 0h-120v1434h120v-643h375l463 643h139l-501 -699l551 -735h-142l-506 676h-379v-676zM731 -459h-102l47 369h117z" />
    <glyph glyph-name="kcommaaccent" unicode="&#x137;" horiz-adv-x="1042" 
d="M1034 0h-137l-399 449h-222v-449h-116v1434h116v-877h228l344 426h135l-387 -483zM559 -459h-102l47 369h117z" />
    <glyph glyph-name="Lacute" unicode="&#x139;" horiz-adv-x="1181" 
d="M199 1434h120v-1317h830v-117h-950v1434zM289 1583h-127l184 291h146z" />
    <glyph glyph-name="lacute" unicode="&#x13a;" horiz-adv-x="448" 
d="M166 1495h117v-1495h-117v1495zM266 1589h-127l185 291h145z" />
    <glyph glyph-name="Lcommaaccent" unicode="&#x13b;" horiz-adv-x="1181" 
d="M199 1434h120v-1317h830v-117h-950v1434zM674 -459h-103l47 369h117z" />
    <glyph glyph-name="lcommaaccent" unicode="&#x13c;" horiz-adv-x="448" 
d="M166 1495h117v-1495h-117v1495zM227 -459h-102l47 369h117z" />
    <glyph glyph-name="Lcaron" unicode="&#x13d;" horiz-adv-x="1181" 
d="M764 1434h115l-52 -353h-100zM199 1434h120v-1317h830v-117h-950v1434z" />
    <glyph glyph-name="lcaron" unicode="&#x13e;" horiz-adv-x="448" 
d="M446 1495h115l-51 -352h-100zM166 1495h117v-1495h-117v1495z" />
    <glyph glyph-name="Ldot" unicode="&#x13f;" 
d="M811 702q0 -37 -23.5 -58t-58.5 -21q-34 0 -58 21t-24 58q0 38 24 59t58 21q35 0 58.5 -21t23.5 -59zM199 1434h120v-1317h830v-117h-950v1434z" />
    <glyph glyph-name="ldot" unicode="&#x140;" horiz-adv-x="546" 
d="M166 1495h117v-1495h-117v1495zM580 717q0 -37 -23.5 -58.5t-58.5 -21.5q-34 0 -58 21.5t-24 58.5t24 58.5t58 21.5q35 0 58.5 -21.5t23.5 -58.5z" />
    <glyph glyph-name="Lslash" unicode="&#x141;" horiz-adv-x="1193" 
d="M1161 0h-950v571l-178 -75v102l178 76v760h121v-713l456 194v-102l-456 -195v-501h829v-117z" />
    <glyph glyph-name="lslash" unicode="&#x142;" horiz-adv-x="536" 
d="M211 1495h117v-655l176 75v-102l-176 -78v-735h-117v690l-176 -76v103l176 78v700z" />
    <glyph glyph-name="Nacute" unicode="&#x143;" horiz-adv-x="1568" 
d="M319 0h-120v1434h110l940 -1227v123v1104h121v-1434h-110l-941 1229v-123v-1106zM803 1583h-127l184 291h146z" />
    <glyph glyph-name="nacute" unicode="&#x144;" 
d="M264 807q58 80 158.5 139.5t222.5 59.5q173 0 286 -110t113 -290v-606h-116v592q0 147 -82 227t-213 80q-117 0 -208.5 -65t-148.5 -160v-674h-116v983h104v-176zM614 1133h-127l185 290h145z" />
    <glyph glyph-name="Ncommaaccent" unicode="&#x145;" horiz-adv-x="1568" 
d="M319 0h-120v1434h110l940 -1227v123v1104h121v-1434h-110l-941 1229v-123v-1106zM807 -459h-102l47 369h116z" />
    <glyph glyph-name="ncommaaccent" unicode="&#x146;" 
d="M264 807q58 80 158.5 139.5t222.5 59.5q173 0 286 -110t113 -290v-606h-116v592q0 147 -82 227t-213 80q-117 0 -208.5 -65t-148.5 -160v-674h-116v983h104v-176zM610 -459h-102l47 369h117z" />
    <glyph glyph-name="Ncaron" unicode="&#x147;" horiz-adv-x="1568" 
d="M319 0h-120v1434h110l940 -1227v123v1104h121v-1434h-110l-941 1229v-123v-1106zM1110 1845l-266 -280h-105l-264 280h133l185 -192l184 192h133z" />
    <glyph glyph-name="ncaron" unicode="&#x148;" 
d="M264 807q58 80 158.5 139.5t222.5 59.5q173 0 286 -110t113 -290v-606h-116v592q0 147 -82 227t-213 80q-117 0 -208.5 -65t-148.5 -160v-674h-116v983h104v-176zM922 1395l-267 -281h-104l-264 281h133l184 -193l184 193h134z" />
    <glyph glyph-name="Eng" unicode="&#x14a;" horiz-adv-x="1568" 
d="M1370 -195q0 -141 -76 -208.5t-194 -67.5q-72 0 -146 22v113q52 -18 119 -18q176 0 176 174v194l-930 1215v-123v-1106h-120v1434h110l940 -1227v123v1104h121v-1629z" />
    <glyph glyph-name="eng" unicode="&#x14b;" 
d="M1044 -205q0 -76 -23 -130.5t-62.5 -83t-83.5 -41.5t-95 -13q-86 0 -147 24v109q59 -27 117 -27q78 0 128 42t50 137v780q0 147 -82 227t-213 80q-117 0 -208.5 -65t-148.5 -160v-674h-116v983h104v-176q58 80 158.5 139.5t222.5 59.5q173 0 286 -110t113 -290v-811z" />
    <glyph glyph-name="Omacron" unicode="&#x14c;" horiz-adv-x="1687" 
d="M98 717q0 111 29 217t90 201t147.5 166t210.5 113t269 42t268.5 -42t210 -113t147.5 -166t90 -201t29 -217t-29 -217t-90 -201t-147.5 -166.5t-210 -113.5t-268.5 -42t-269 42t-210.5 113.5t-147.5 166.5t-90 201t-29 217zM1466 717q0 119 -39 229t-113.5 199t-196 142.5
t-273.5 53.5t-273.5 -53.5t-196.5 -142.5t-114 -199t-39 -229t39 -229t114 -199.5t196.5 -143t273.5 -53.5q122 0 225.5 35t175.5 95t122.5 140.5t74.5 170t24 184.5zM557 1735h573v-107h-573v107z" />
    <glyph glyph-name="omacron" unicode="&#x14d;" horiz-adv-x="1218" 
d="M92 492q0 120 43.5 219.5t116 162.5t164.5 97.5t192 34.5q102 0 194.5 -34.5t165 -97.5t115.5 -162t43 -220t-43 -220t-115.5 -162.5t-165 -98t-194.5 -34.5q-100 0 -192 34.5t-164.5 98t-116 163t-43.5 219.5zM1010 492q0 124 -55 217t-145 139.5t-200 46.5
q-171 0 -286 -108.5t-115 -294.5t115 -295t286 -109q169 0 284.5 109t115.5 295zM322 1278h573v-107h-573v107z" />
    <glyph glyph-name="Ohungarumlaut" unicode="&#x150;" horiz-adv-x="1687" 
d="M98 717q0 111 29 217t90 201t147.5 166t210.5 113t269 42t268.5 -42t210 -113t147.5 -166t90 -201t29 -217t-29 -217t-90 -201t-147.5 -166.5t-210 -113.5t-268.5 -42t-269 42t-210.5 113.5t-147.5 166.5t-90 201t-29 217zM1466 717q0 119 -39 229t-113.5 199t-196 142.5
t-273.5 53.5t-273.5 -53.5t-196.5 -142.5t-114 -199t-39 -229t39 -229t114 -199.5t196.5 -143t273.5 -53.5q122 0 225.5 35t175.5 95t122.5 140.5t74.5 170t24 184.5zM1053 1595h-125l147 297h131zM739 1595h-125l148 297h131z" />
    <glyph glyph-name="ohungarumlaut" unicode="&#x151;" horiz-adv-x="1218" 
d="M92 492q0 120 43.5 219.5t116 162.5t164.5 97.5t192 34.5q102 0 194.5 -34.5t165 -97.5t115.5 -162t43 -220t-43 -220t-115.5 -162.5t-165 -98t-194.5 -34.5q-100 0 -192 34.5t-164.5 98t-116 163t-43.5 219.5zM1010 492q0 124 -55 217t-145 139.5t-200 46.5
q-171 0 -286 -108.5t-115 -294.5t115 -295t286 -109q169 0 284.5 109t115.5 295zM817 1139h-125l148 297h131zM504 1139h-125l147 297h131z" />
    <glyph glyph-name="OE" unicode="&#x152;" horiz-adv-x="2103" 
d="M1094 0q-104 -23 -250 -23q-145 0 -269 42t-210.5 113.5t-147.5 166.5t-90 201t-29 217t29 217t90 201t147.5 166t210.5 113t269 42q151 0 250 -22h891v-117h-771v-537h709v-116h-709v-547h783v-117h-903zM225 717q0 -125 41.5 -237t119 -199t198 -138t268.5 -51
q130 0 244 29v1192q-110 28 -244 28q-148 0 -268.5 -51t-198 -137.5t-119 -198.5t-41.5 -237z" />
    <glyph glyph-name="oe" unicode="&#x153;" horiz-adv-x="2021" 
d="M1059 266q-59 -138 -181 -213.5t-274 -75.5q-101 0 -192.5 34.5t-163 98t-114 162.5t-42.5 220t42.5 220t114 162t163 97.5t192.5 34.5q153 0 275.5 -75.5t179.5 -213.5q55 137 172 213t252 76q90 0 164.5 -24t125.5 -66t88.5 -98.5t53.5 -120.5t20.5 -133t-10.5 -136
h-807q6 -87 44.5 -154.5t99.5 -108t135 -61t155 -20.5q175 0 312 80v-109q-135 -78 -336 -78q-156 0 -284.5 73t-184.5 216zM209 492q0 -187 113 -295.5t284 -108.5q170 0 282.5 109t112.5 295t-112.5 294.5t-282.5 108.5q-171 0 -284 -108t-113 -295zM1489 899
q-71 0 -135.5 -24t-116 -68.5t-83.5 -116t-36 -160.5h705q5 47 -2 96t-30 98.5t-61 88t-100 62.5t-141 24z" />
    <glyph glyph-name="Racute" unicode="&#x154;" horiz-adv-x="1413" 
d="M319 0h-120v1434h551q78 0 150.5 -13.5t141.5 -45t119.5 -79t81.5 -122t31 -166.5q0 -99 -34.5 -176.5t-95 -126t-131 -76.5t-153.5 -39l510 -590h-151l-500 580h-400v-580zM322 1317v-621h436q59 0 113 9t106 32t90 57.5t61 89.5t23 124t-23 124t-61 89t-90 56
t-105.5 31t-113.5 9h-436zM709 1583h-127l184 291h145z" />
    <glyph glyph-name="racute" unicode="&#x155;" horiz-adv-x="724" 
d="M264 756q56 113 174.5 184t259.5 64v-117q-155 12 -268.5 -70.5t-153.5 -216.5v-600h-116v983h104v-227zM424 1133h-127l184 290h146z" />
    <glyph glyph-name="Rcommaaccent" unicode="&#x156;" horiz-adv-x="1413" 
d="M319 0h-120v1434h551q78 0 150.5 -13.5t141.5 -45t119.5 -79t81.5 -122t31 -166.5q0 -99 -34.5 -176.5t-95 -126t-131 -76.5t-153.5 -39l510 -590h-151l-500 580h-400v-580zM322 1317v-621h436q59 0 113 9t106 32t90 57.5t61 89.5t23 124t-23 124t-61 89t-90 56
t-105.5 31t-113.5 9h-436zM735 -459h-102l47 369h117z" />
    <glyph glyph-name="rcommaaccent" unicode="&#x157;" horiz-adv-x="724" 
d="M264 756q56 113 174.5 184t259.5 64v-117q-155 12 -268.5 -70.5t-153.5 -216.5v-600h-116v983h104v-227zM213 -459h-102l47 369h116z" />
    <glyph glyph-name="Rcaron" unicode="&#x158;" horiz-adv-x="1413" 
d="M319 0h-120v1434h551q78 0 150.5 -13.5t141.5 -45t119.5 -79t81.5 -122t31 -166.5q0 -99 -34.5 -176.5t-95 -126t-131 -76.5t-153.5 -39l510 -590h-151l-500 580h-400v-580zM322 1317v-621h436q59 0 113 9t106 32t90 57.5t61 89.5t23 124t-23 124t-61 89t-90 56
t-105.5 31t-113.5 9h-436zM1016 1845l-266 -280h-105l-264 280h133l184 -192l185 192h133z" />
    <glyph glyph-name="rcaron" unicode="&#x159;" horiz-adv-x="724" 
d="M264 756q56 113 174.5 184t259.5 64v-117q-155 12 -268.5 -70.5t-153.5 -216.5v-600h-116v983h104v-227zM731 1395l-266 -281h-105l-264 281h133l185 -193l184 193h133z" />
    <glyph glyph-name="Sacute" unicode="&#x15a;" horiz-adv-x="1181" 
d="M111 1092q0 91 39 162t106 114t150.5 65.5t177.5 22.5q116 0 227.5 -26.5t194.5 -73.5v-123q-81 51 -192.5 79.5t-221.5 28.5q-76 0 -139 -14t-113 -42.5t-78.5 -76.5t-28.5 -112t30 -114t80.5 -83t116 -60t138 -50.5t144.5 -48t137.5 -58.5t116 -77t80.5 -108.5
t30 -148.5q0 -98 -41.5 -171.5t-114 -116.5t-161 -63.5t-191.5 -19.5q-271 0 -489 121v121q217 -127 481 -127q83 0 151 13.5t124 41.5t87 77t31 116q0 68 -30 121t-80.5 87.5t-115.5 63t-137.5 52t-145 48t-137.5 57t-115.5 74.5t-80.5 105.5t-30 143.5zM586 1583h-127
l184 291h145z" />
    <glyph glyph-name="sacute" unicode="&#x15b;" horiz-adv-x="944" 
d="M102 737q0 69 31 122.5t84 84.5t115 46.5t131 15.5q191 0 342 -84v-111q-61 39 -153.5 64.5t-180.5 25.5q-104 0 -178 -40.5t-74 -121.5q0 -52 36 -89.5t93 -59.5t126 -41.5t138.5 -42t126.5 -53t93 -84t36 -125.5q0 -57 -21 -102.5t-57 -76t-86.5 -50.5t-106 -29
t-118.5 -9q-103 0 -207.5 26.5t-171.5 70.5v114q72 -48 174.5 -76t198.5 -28q125 0 202 37t77 119q0 51 -36 88t-93 59.5t-126.5 41.5t-139 42.5t-126.5 54.5t-93 84.5t-36 126.5zM475 1133h-127l184 290h146z" />
    <glyph glyph-name="Scedilla" unicode="&#x15e;" horiz-adv-x="1179" 
d="M233 1096q0 -64 30 -114t80.5 -83t116 -60t138 -50.5t144.5 -48t137.5 -58.5t116 -77t80.5 -108.5t30 -148.5q0 -90 -35 -159.5t-97 -112.5t-139.5 -67t-170.5 -29l-33 -132q98 12 163 -25.5t66 -115.5q1 -87 -66.5 -133.5t-187.5 -46.5q-113 0 -200 41v100
q83 -47 188 -47q83 0 124.5 25t41.5 65q0 51 -80 68t-166 -6l47 204q-249 6 -452 121v121q217 -127 481 -127q83 0 151 13.5t124 41.5t87 77t31 116q0 68 -30 121t-80.5 87.5t-115.5 63t-137.5 52t-145 48t-137.5 57t-115.5 74.5t-80.5 105.5t-30 143.5q0 91 39 162t106 114
t150.5 65.5t177.5 22.5q116 0 227.5 -26.5t194.5 -73.5v-123q-81 51 -192.5 79.5t-221.5 28.5q-76 0 -139 -14t-113 -42.5t-78.5 -76.5t-28.5 -112z" />
    <glyph glyph-name="scedilla" unicode="&#x15f;" horiz-adv-x="944" 
d="M219 739q0 -52 36 -89.5t93 -59.5t126 -41.5t138.5 -42t126.5 -53t93 -84t36 -125.5q0 -123 -90 -188t-235 -76l-29 -132q98 12 163 -25.5t66 -115.5q1 -87 -66.5 -133.5t-187.5 -46.5q-113 0 -200 41v100q83 -47 188 -47q83 0 124.5 25t41.5 65q0 51 -80 68t-166 -6
l45 204q-94 5 -187.5 31t-154.5 66v114q72 -48 174.5 -76t198.5 -28q125 0 202 37t77 119q0 51 -36 88t-93 59.5t-126.5 41.5t-139 42.5t-126.5 54.5t-93 84.5t-36 126.5q0 69 31 122.5t84 84.5t115 46.5t131 15.5q191 0 342 -84v-111q-61 39 -153.5 64.5t-180.5 25.5
q-104 0 -178 -40.5t-74 -121.5z" />
    <glyph glyph-name="Scaron" unicode="&#x160;" horiz-adv-x="1181" 
d="M111 1092q0 91 39 162t106 114t150.5 65.5t177.5 22.5q116 0 227.5 -26.5t194.5 -73.5v-123q-81 51 -192.5 79.5t-221.5 28.5q-76 0 -139 -14t-113 -42.5t-78.5 -76.5t-28.5 -112t30 -114t80.5 -83t116 -60t138 -50.5t144.5 -48t137.5 -58.5t116 -77t80.5 -108.5
t30 -148.5q0 -98 -41.5 -171.5t-114 -116.5t-161 -63.5t-191.5 -19.5q-271 0 -489 121v121q217 -127 481 -127q83 0 151 13.5t124 41.5t87 77t31 116q0 68 -30 121t-80.5 87.5t-115.5 63t-137.5 52t-145 48t-137.5 57t-115.5 74.5t-80.5 105.5t-30 143.5zM893 1845
l-266 -280h-105l-264 280h133l184 -192l185 192h133z" />
    <glyph glyph-name="scaron" unicode="&#x161;" horiz-adv-x="944" 
d="M102 737q0 69 31 122.5t84 84.5t115 46.5t131 15.5q191 0 342 -84v-111q-61 39 -153.5 64.5t-180.5 25.5q-104 0 -178 -40.5t-74 -121.5q0 -52 36 -89.5t93 -59.5t126 -41.5t138.5 -42t126.5 -53t93 -84t36 -125.5q0 -57 -21 -102.5t-57 -76t-86.5 -50.5t-106 -29
t-118.5 -9q-103 0 -207.5 26.5t-171.5 70.5v114q72 -48 174.5 -76t198.5 -28q125 0 202 37t77 119q0 51 -36 88t-93 59.5t-126.5 41.5t-139 42.5t-126.5 54.5t-93 84.5t-36 126.5zM782 1395l-266 -281h-104l-265 281h134l184 -193l184 193h133z" />
    <glyph glyph-name="Tcommaaccent" unicode="&#x162;" horiz-adv-x="1226" 
d="M29 1434h1169v-117h-524v-1317h-121v1317h-524v117zM614 -459h-102l47 369h117z" />
    <glyph glyph-name="tcommaaccent" unicode="&#x163;" horiz-adv-x="804" 
d="M217 1296l115 31v-344h411v-109h-411v-569q0 -115 55 -166t172 -51q113 0 215 45v-106q-107 -47 -246 -47q-145 0 -228 78t-83 227v589h-184v109h184v313zM500 -459h-103l47 369h117z" />
    <glyph glyph-name="Tcaron" unicode="&#x164;" horiz-adv-x="1226" 
d="M29 1434h1169v-117h-524v-1317h-121v1317h-524v117zM942 1845l-266 -280h-105l-264 280h133l185 -192l184 192h133z" />
    <glyph glyph-name="tcaron" unicode="&#x165;" horiz-adv-x="804" 
d="M539 1495h114l-51 -340h-100zM217 1296l115 31v-344h411v-109h-411v-569q0 -115 55 -166t172 -51q113 0 215 45v-106q-107 -47 -246 -47q-145 0 -228 78t-83 227v589h-184v109h184v313z" />
    <glyph glyph-name="Tbar" unicode="&#x166;" horiz-adv-x="1247" 
d="M684 0h-121v670h-262v102h262v545h-524v117h1169v-117h-524v-545h262v-102h-262v-670z" />
    <glyph glyph-name="tbar" unicode="&#x167;" horiz-adv-x="804" 
d="M332 305q0 -115 55 -166t172 -51q113 0 215 45v-106q-107 -47 -246 -47q-145 0 -228 78t-83 227v229h-104v102h104v258h-184v109h184v313l115 31v-344h411v-109h-411v-258h330v-102h-330v-209z" />
    <glyph glyph-name="Umacron" unicode="&#x16a;" horiz-adv-x="1538" 
d="M1235 1434h121v-922q0 -117 -31 -209t-84 -152.5t-128 -100t-160 -56.5t-183 -17q-99 0 -184 17t-160.5 56.5t-128.5 100t-84 152.5t-31 209v922h121v-918q0 -114 34.5 -197.5t99 -132t147 -71.5t186.5 -23t186.5 22.5t146 71.5t98 132.5t34.5 197.5v918zM481 1735h574
v-107h-574v107z" />
    <glyph glyph-name="umacron" unicode="&#x16b;" 
d="M915 983h117v-983h-106v176q-58 -81 -157.5 -140t-223.5 -59q-181 0 -289.5 108.5t-108.5 291.5v606h117v-592q0 -150 77.5 -228.5t215.5 -78.5q118 0 209 65t149 160v674zM309 1284h574v-106h-574v106z" />
    <glyph glyph-name="Uring" unicode="&#x16e;" horiz-adv-x="1538" 
d="M1235 1434h121v-922q0 -117 -31 -209t-84 -152.5t-128 -100t-160 -56.5t-183 -17q-99 0 -184 17t-160.5 56.5t-128.5 100t-84 152.5t-31 209v922h121v-918q0 -114 34.5 -197.5t99 -132t147 -71.5t186.5 -23t186.5 22.5t146 71.5t98 132.5t34.5 197.5v918zM975 1739
q0 -91 -62 -147t-147 -56q-87 0 -149 56t-62 147q0 88 62.5 143t148.5 55q85 0 147 -55t62 -143zM645 1737q0 -55 35.5 -87t85.5 -32t85.5 32t35.5 87q0 53 -35.5 85.5t-85.5 32.5t-85.5 -32.5t-35.5 -85.5z" />
    <glyph glyph-name="uring" unicode="&#x16f;" 
d="M915 983h117v-983h-106v176q-58 -81 -157.5 -140t-223.5 -59q-181 0 -289.5 108.5t-108.5 291.5v606h117v-592q0 -150 77.5 -228.5t215.5 -78.5q118 0 209 65t149 160v674zM803 1288q0 -91 -62 -147t-147 -56q-87 0 -149 56t-62 147q0 88 62.5 143.5t148.5 55.5
q85 0 147 -55.5t62 -143.5zM473 1286q0 -55 35.5 -87t85.5 -32t85.5 32t35.5 87q0 53 -36 86t-85 33t-85 -33t-36 -86z" />
    <glyph glyph-name="Uhungarumlaut" unicode="&#x170;" horiz-adv-x="1538" 
d="M1235 1434h121v-922q0 -117 -31 -209t-84 -152.5t-128 -100t-160 -56.5t-183 -17q-99 0 -184 17t-160.5 56.5t-128.5 100t-84 152.5t-31 209v922h121v-918q0 -114 34.5 -197.5t99 -132t147 -71.5t186.5 -23t186.5 22.5t146 71.5t98 132.5t34.5 197.5v918zM977 1595h-125
l147 297h131zM664 1595h-125l147 297h131z" />
    <glyph glyph-name="uhungarumlaut" unicode="&#x171;" 
d="M915 983h117v-983h-106v176q-58 -81 -157.5 -140t-223.5 -59q-181 0 -289.5 108.5t-108.5 291.5v606h117v-592q0 -150 77.5 -228.5t215.5 -78.5q118 0 209 65t149 160v674zM805 1145h-125l147 297h131zM492 1145h-125l147 297h131z" />
    <glyph glyph-name="Uogonek" unicode="&#x172;" horiz-adv-x="1538" 
d="M1143 -432q-67 -43 -160 -43q-91 -1 -141.5 47.5t-50.5 124.5q0 68 42.5 151t112.5 150q-80 -21 -176 -21q-99 0 -184 17t-160.5 56.5t-128.5 100t-84 152.5t-31 209v922h121v-918q0 -114 34.5 -197.5t99 -132t147 -71.5t186.5 -23t186.5 22.5t146 71.5t98 132.5
t34.5 197.5v918h121v-922q0 -297 -197 -434q-127 -87 -192.5 -186t-65.5 -171q0 -46 29 -73t82 -27q69 0 131 41v-94z" />
    <glyph glyph-name="uogonek" unicode="&#x173;" 
d="M1032 983v-983q-92 -62 -149 -139.5t-56 -141.5q-1 -46 26 -72t77 -26t102 25v-97q-61 -22 -129 -22q-89 0 -137.5 46t-48.5 122q0 151 209 342v139q-58 -81 -157.5 -140t-223.5 -59q-181 0 -289.5 108.5t-108.5 291.5v606h117v-592q0 -150 77.5 -228.5t215.5 -78.5
q118 0 209 65t149 160v674h117z" />
    <glyph glyph-name="Wcircumflex" unicode="&#x174;" horiz-adv-x="2056" 
d="M1878 1434h133l-455 -1434h-135l-393 1225l-395 -1225h-133l-455 1434h133l389 -1282l406 1275h110l406 -1275zM981 1866h104l267 -281h-133l-185 193l-184 -193h-133z" />
    <glyph glyph-name="wcircumflex" unicode="&#x175;" horiz-adv-x="1640" 
d="M1470 983h123l-354 -983h-125l-295 819l-295 -819h-123l-354 983h123l293 -852l303 846h106l304 -846zM772 1415h105l266 -280h-133l-185 192l-184 -192h-133z" />
    <glyph glyph-name="Ycircumflex" unicode="&#x176;" horiz-adv-x="1318" 
d="M721 0h-123v559l-563 875h135l489 -764l490 764h135l-563 -875v-559zM614 1866h105l266 -281h-133l-184 193l-185 -193h-133z" />
    <glyph glyph-name="ycircumflex" unicode="&#x177;" horiz-adv-x="1097" 
d="M569 129l367 854h123l-498 -1145q-73 -165 -159 -238t-193 -73q-50 0 -105 12v103q50 -13 91 -13q87 0 151 61t117 191l49 115l-483 987h123zM487 1415h105l266 -280h-133l-184 192l-185 -192h-133z" />
    <glyph glyph-name="Ydieresis" unicode="&#x178;" horiz-adv-x="1318" 
d="M721 0h-123v559l-563 875h135l489 -764l490 764h135l-563 -875v-559zM950 1712q0 -34 -24.5 -59t-59.5 -25t-60.5 25t-25.5 59t25.5 60t60.5 26t59.5 -26t24.5 -60zM539 1712q0 -34 -24.5 -59t-59.5 -25t-60.5 25t-25.5 59t25.5 60t60.5 26t59.5 -26t24.5 -60z" />
    <glyph glyph-name="Zacute" unicode="&#x179;" horiz-adv-x="1187" 
d="M1122 0h-1059v109l887 1208h-858v117h1006v-109l-889 -1208h913v-117zM621 1583h-127l184 291h145z" />
    <glyph glyph-name="zacute" unicode="&#x17a;" horiz-adv-x="933" 
d="M96 983h738v-102l-625 -779h657v-102h-796v102l626 779h-600v102zM496 1133h-127l184 290h145z" />
    <glyph glyph-name="Zdotaccent" unicode="&#x17b;" horiz-adv-x="1187" 
d="M1122 0h-1059v109l887 1208h-858v117h1006v-109l-889 -1208h913v-117zM504 1686q0 43 28 67.5t68 24.5t67 -24.5t27 -67.5q0 -44 -27 -69.5t-67 -25.5t-68 25.5t-28 69.5z" />
    <glyph glyph-name="zdotaccent" unicode="&#x17c;" horiz-adv-x="933" 
d="M96 983h738v-102l-625 -779h657v-102h-796v102l626 779h-600v102zM379 1235q0 43 28 67.5t68 24.5t67 -24.5t27 -67.5q0 -44 -27 -69t-67 -25t-68 25t-28 69z" />
    <glyph glyph-name="Zcaron" unicode="&#x17d;" horiz-adv-x="1187" 
d="M1122 0h-1059v109l887 1208h-858v117h1006v-109l-889 -1208h913v-117zM928 1845l-266 -280h-105l-264 280h133l184 -192l185 192h133z" />
    <glyph glyph-name="zcaron" unicode="&#x17e;" horiz-adv-x="933" 
d="M96 983h738v-102l-625 -779h657v-102h-796v102l626 779h-600v102zM803 1395l-266 -281h-105l-264 281h133l184 -193l185 193h133z" />
    <glyph glyph-name="Scommaaccent" unicode="&#x218;" horiz-adv-x="1181" 
d="M111 1092q0 91 39 162t106 114t150.5 65.5t177.5 22.5q116 0 227.5 -26.5t194.5 -73.5v-123q-81 51 -192.5 79.5t-221.5 28.5q-76 0 -139 -14t-113 -42.5t-78.5 -76.5t-28.5 -112t30 -114t80.5 -83t116 -60t138 -50.5t144.5 -48t137.5 -58.5t116 -77t80.5 -108.5
t30 -148.5q0 -98 -41.5 -171.5t-114 -116.5t-161 -63.5t-191.5 -19.5q-271 0 -489 121v121q217 -127 481 -127q83 0 151 13.5t124 41.5t87 77t31 116q0 68 -30 121t-80.5 87.5t-115.5 63t-137.5 52t-145 48t-137.5 57t-115.5 74.5t-80.5 105.5t-30 143.5zM600 -459h-102
l47 369h117z" />
    <glyph glyph-name="scommaaccent" unicode="&#x219;" horiz-adv-x="944" 
d="M102 737q0 69 31 122.5t84 84.5t115 46.5t131 15.5q191 0 342 -84v-111q-61 39 -153.5 64.5t-180.5 25.5q-104 0 -178 -40.5t-74 -121.5q0 -52 36 -89.5t93 -59.5t126 -41.5t138.5 -42t126.5 -53t93 -84t36 -125.5q0 -57 -21 -102.5t-57 -76t-86.5 -50.5t-106 -29
t-118.5 -9q-103 0 -207.5 26.5t-171.5 70.5v114q72 -48 174.5 -76t198.5 -28q125 0 202 37t77 119q0 51 -36 88t-93 59.5t-126.5 41.5t-139 42.5t-126.5 54.5t-93 84.5t-36 126.5zM489 -459h-102l47 369h117z" />
    <glyph glyph-name="uni021A" unicode="&#x21a;" horiz-adv-x="1226" 
d="M29 1434h1169v-117h-524v-1317h-121v1317h-524v117zM614 -459h-102l47 369h117z" />
    <glyph glyph-name="uni021B" unicode="&#x21b;" horiz-adv-x="804" 
d="M217 1296l115 31v-344h411v-109h-411v-569q0 -115 55 -166t172 -51q113 0 215 45v-106q-107 -47 -246 -47q-145 0 -228 78t-83 227v589h-184v109h184v313zM500 -459h-103l47 369h117z" />
    <glyph glyph-name="circumflex" unicode="&#x2c6;" horiz-adv-x="612" 
d="M254 1866h104l267 -281h-133l-185 193l-184 -193h-133z" />
    <glyph glyph-name="caron" unicode="&#x2c7;" horiz-adv-x="612" 
d="M625 1845l-267 -280h-104l-264 280h133l184 -192l185 192h133z" />
    <glyph glyph-name="breve" unicode="&#x2d8;" horiz-adv-x="673" 
d="M610 1669q-115 -84 -274 -84q-161 0 -273 84v117q122 -90 273 -90q150 0 274 90v-117z" />
    <glyph glyph-name="dotaccent" unicode="&#x2d9;" horiz-adv-x="206" 
d="M8 1686q0 43 28 67.5t68 24.5t67.5 -24.5t27.5 -67.5q0 -44 -27.5 -69.5t-67.5 -25.5t-68 25.5t-28 69.5z" />
    <glyph glyph-name="ring" unicode="&#x2da;" horiz-adv-x="436" 
d="M428 1739q0 -91 -62 -147t-147 -56q-87 0 -149 56t-62 147q0 88 62.5 143t148.5 55q85 0 147 -55t62 -143zM98 1737q0 -55 35.5 -87t85.5 -32t85.5 32t35.5 87q0 53 -35.5 85.5t-85.5 32.5t-85.5 -32.5t-35.5 -85.5z" />
    <glyph glyph-name="ogonek" unicode="&#x2db;" horiz-adv-x="430" 
d="M213 0h139q-94 -64 -153 -140t-58 -139q-2 -46 27 -73t82 -27q71 0 133 41v-94q-67 -43 -160 -43q-91 -1 -141.5 47.5t-50.5 124.5q0 74 48 153.5t134 149.5z" />
    <glyph glyph-name="tilde" unicode="&#x2dc;" horiz-adv-x="681" 
d="M659 1774q12 -89 -31 -139t-116 -50q-51 0 -114.5 24.5t-119 49t-85.5 24.5q-36 0 -54.5 -24.5t-13.5 -63.5h-102q-13 87 30 139t113 52q50 0 114 -24.5t120 -49t87 -24.5q76 0 70 86h102z" />
    <glyph glyph-name="hungarumlaut" unicode="&#x2dd;" horiz-adv-x="702" 
d="M494 1595h-125l147 297h131zM180 1595h-125l148 297h131z" />
    <glyph glyph-name="uni0326" unicode="&#x326;" horiz-adv-x="245" 
d="M143 -459h-102l47 369h117z" />
    <glyph glyph-name="uni0401" unicode="&#x401;" horiz-adv-x="1267" 
d="M973 1712q0 -34 -24.5 -59t-59.5 -25t-60.5 25t-25.5 59t25.5 60t60.5 26t59.5 -26t24.5 -60zM561 1712q0 -34 -24.5 -59t-59.5 -25t-60.5 25t-25.5 59t25.5 60t60.5 26t59.5 -26t24.5 -60zM199 1434h952v-117h-832v-537h771v-116h-771v-547h846v-117h-966v1434z" />
    <glyph glyph-name="uni0410" unicode="&#x410;" horiz-adv-x="1460" 
d="M154 0h-131l639 1434h137l637 -1434h-131l-170 385h-809zM711 1264l-338 -764h712l-337 764q-2 5 -19 45q-9 -21 -18 -45z" />
    <glyph glyph-name="uni0411" unicode="&#x411;" horiz-adv-x="1355" 
d="M319 836h394q75 0 139.5 -7t131 -23.5t118 -48t92 -76t62.5 -111.5t22 -152t-22 -152t-62.5 -111.5t-92 -76t-118 -48t-131 -23.5t-139.5 -7h-514v1434h970v-117h-850v-481zM322 117h397q76 0 133 5.5t117 24t98.5 50.5t63 88t24.5 133t-25 133t-63.5 88t-98.5 50.5
t-117 24t-132 5.5h-397v-602z" />
    <glyph glyph-name="uni0412" unicode="&#x412;" horiz-adv-x="1402" 
d="M199 1434h557q225 0 355 -91t130 -270q0 -133 -74.5 -214t-183.5 -105q56 -12 106 -35.5t99.5 -64.5t79 -109.5t30.5 -155.5q0 -80 -25 -144t-68.5 -105t-95 -70t-115.5 -43.5t-119 -20.5t-115 -6h-561v1434zM1176 401q0 73 -26.5 127t-65 84t-93 48t-99.5 23t-95 5h-475
v-571h415q49 0 87 2t86 8.5t83 18t71.5 33t59.5 50.5t37.5 73t14.5 99zM1118 1057q0 138 -95.5 199t-274.5 61h-426v-514h485q63 0 117.5 14t98.5 43.5t69.5 79.5t25.5 117z" />
    <glyph glyph-name="uni0413" unicode="&#x413;" horiz-adv-x="1161" 
d="M319 0h-120v1434h934v-117h-814v-1317z" />
    <glyph glyph-name="uni0414" unicode="&#x414;" horiz-adv-x="1552" 
d="M154 -348h-117v465h162q69 124 119 283.5t77.5 334t40.5 346.5t13 353h860v-1317h178v-465h-117v348h-1216v-348zM573 1317q-27 -802 -237 -1200h852v1200h-615z" />
    <glyph glyph-name="uni0415" unicode="&#x415;" horiz-adv-x="1267" 
d="M199 1434h952v-117h-832v-537h771v-116h-771v-547h846v-117h-966v1434z" />
    <glyph glyph-name="uni0416" unicode="&#x416;" horiz-adv-x="1914" 
d="M158 0h-140l480 735l-430 699h139l387 -643h303v643h121v-643h301l389 643h139l-430 -699l479 -735h-139l-440 676h-299v-676h-121v676h-301z" />
    <glyph glyph-name="uni0417" unicode="&#x417;" horiz-adv-x="1243" 
d="M1141 385q0 -88 -33 -158.5t-87.5 -116.5t-128 -76.5t-150.5 -43.5t-158 -13q-280 0 -502 89v122q205 -96 493 -96q66 0 126.5 9t119.5 31t101.5 55.5t69 87.5t26.5 122q0 66 -26 118t-67.5 84t-99.5 52.5t-117 28.5t-124 8h-283v115h270q176 0 281.5 70.5t105.5 195.5
q0 94 -54.5 156.5t-143 89t-207.5 26.5q-128 0 -232.5 -23t-214.5 -75v123q202 90 455 90q149 0 264 -39.5t185.5 -125.5t70.5 -208q0 -130 -78 -216t-206 -117q65 -10 122 -34.5t109 -66.5t82.5 -110t30.5 -154z" />
    <glyph glyph-name="uni0418" unicode="&#x418;" horiz-adv-x="1568" 
d="M1370 0h-121v1106v123l-940 -1229h-110v1434h120v-1104v-123l941 1227h110v-1434z" />
    <glyph glyph-name="uni0419" unicode="&#x419;" horiz-adv-x="1568" 
d="M1249 0h121v1434h-110l-941 -1227v123v1104h-120v-1434h110l940 1229v-123v-1106zM1057 1669q-115 -84 -275 -84t-272 84v117q122 -90 272 -90q151 0 275 90v-117z" />
    <glyph glyph-name="uni041A" unicode="&#x41a;" horiz-adv-x="1351" 
d="M319 0h-120v1434h120v-643h375l463 643h139l-501 -699l551 -735h-142l-506 676h-379v-676z" />
    <glyph glyph-name="uni041B" unicode="&#x41b;" horiz-adv-x="1515" 
d="M471 1434h846v-1434h-121v1317h-608q-11 -131 -17.5 -205t-19 -194.5t-23.5 -191.5t-28 -172t-36 -162t-44 -135.5t-55.5 -117.5t-68 -83t-83 -58t-98.5 -18q-56 0 -115 20v117q44 -17 96 -17q45 0 83.5 24t68.5 66.5t55.5 106.5t44.5 137t35.5 166.5t28.5 187.5
t22.5 206t19 215.5t17.5 222.5v2z" />
    <glyph glyph-name="uni041C" unicode="&#x41c;" horiz-adv-x="1845" 
d="M1544 1434h103v-1434h-121v1200l-565 -835h-76l-566 835v-1200h-120v1434h102l623 -920z" />
    <glyph glyph-name="uni041D" unicode="&#x41d;" horiz-adv-x="1568" 
d="M1249 1434h121v-1434h-121v662h-930v-662h-120v1434h120v-656h930v656z" />
    <glyph glyph-name="uni041E" unicode="&#x41e;" horiz-adv-x="1687" 
d="M98 717q0 111 29 217t90 201t147.5 166t210.5 113t269 42t268.5 -42t210 -113t147.5 -166t90 -201t29 -217t-29 -217t-90 -201t-147.5 -166.5t-210 -113.5t-268.5 -42t-269 42t-210.5 113.5t-147.5 166.5t-90 201t-29 217zM1466 717q0 119 -39 229t-113.5 199t-196 142.5
t-273.5 53.5t-273.5 -53.5t-196.5 -142.5t-114 -199t-39 -229t39 -229t114 -199.5t196.5 -143t273.5 -53.5q122 0 225.5 35t175.5 95t122.5 140.5t74.5 170t24 184.5z" />
    <glyph glyph-name="uni041F" unicode="&#x41f;" horiz-adv-x="1538" 
d="M319 0h-120v1434h1140v-1434h-120v1317h-900v-1317z" />
    <glyph glyph-name="uni0420" unicode="&#x420;" horiz-adv-x="1345" 
d="M199 1434h471q102 0 188.5 -13t164.5 -46t132.5 -83.5t86.5 -130t32 -182.5t-32 -183t-86.5 -131t-133 -83.5t-164.5 -46t-188 -13.5h-351v-522h-120v1434zM1151 979q0 79 -25 138.5t-67 97t-104 61t-129 32.5t-150 9h-354v-678h354q82 0 149 9t129 33t104.5 61.5
t67.5 97.5t25 139z" />
    <glyph glyph-name="uni0421" unicode="&#x421;" horiz-adv-x="1351" 
d="M102 702q0 145 42.5 269.5t114.5 212.5t168 150t202.5 92t218.5 30q223 0 401 -96v-123q-159 104 -383 104q-96 0 -187 -24t-173.5 -76t-145 -125.5t-99 -180t-36.5 -233.5q-1 -120 36.5 -222t100.5 -172t146.5 -120t175.5 -73t188 -23q231 0 392 105v-121
q-184 -99 -416 -99q-109 0 -215 28.5t-202.5 88.5t-170 144.5t-116.5 204t-42 259.5z" />
    <glyph glyph-name="uni0422" unicode="&#x422;" horiz-adv-x="1226" 
d="M29 1434h1169v-117h-524v-1317h-121v1317h-524v117z" />
    <glyph glyph-name="uni0423" unicode="&#x423;" horiz-adv-x="1284" 
d="M745 326q-50 -102 -103.5 -172.5t-109 -108t-108.5 -53t-115 -15.5q-89 0 -178 25v115q94 -25 158 -25q97 0 170.5 47t142.5 174l25 52l-604 1069h135l534 -955l465 955h131z" />
    <glyph glyph-name="uni0424" unicode="&#x424;" horiz-adv-x="1748" 
d="M936 -74h-123v189q-346 6 -549 163.5t-203 438.5t203 438.5t549 163.5v188h123v-188q346 -6 549 -163.5t203 -438.5t-203 -438.5t-549 -163.5v-189zM184 717q0 -227 164 -356t465 -136v983q-301 -7 -465 -136t-164 -355zM936 1208v-983q303 7 466 136t163 356t-163 355.5
t-466 135.5z" />
    <glyph glyph-name="uni0425" unicode="&#x425;" horiz-adv-x="1288" 
d="M158 0h-146l559 737l-528 697h145l457 -600l457 600h143l-528 -697l559 -737h-143l-488 641z" />
    <glyph glyph-name="uni0426" unicode="&#x426;" horiz-adv-x="1585" 
d="M1520 -348h-117l2 348h-1206v1434h120v-1317h902v1317h122v-1317h177v-465z" />
    <glyph glyph-name="uni0427" unicode="&#x427;" horiz-adv-x="1392" 
d="M1194 0h-123v580q-218 -76 -442 -76q-253 3 -392 125.5t-139 359.5v445h121v-451q0 -185 114.5 -272.5t323.5 -89.5q209 -3 414 75v738h123v-1434z" />
    <glyph glyph-name="uni0428" unicode="&#x428;" horiz-adv-x="2172" 
d="M1974 0h-1775v1434h120v-1317h707v1317h121v-1317h706v1317h121v-1434z" />
    <glyph glyph-name="uni0429" unicode="&#x429;" horiz-adv-x="2217" 
d="M2152 -348h-116l2 348h-1839v1434h120v-1317h707v1317h121v-1317h706v1317h121v-1317h178v-465z" />
    <glyph glyph-name="uni042A" unicode="&#x42a;" horiz-adv-x="1546" 
d="M870 0h-471v1317h-372v117h493v-525h350q605 0 605 -454q0 -103 -32 -182.5t-86.5 -130t-133 -83.5t-165 -46t-188.5 -13zM520 793v-676h354q83 0 150 9t129.5 32.5t104.5 61t67 97t25 138.5t-25 138.5t-67.5 97t-105 61t-129.5 32.5t-149 9h-354z" />
    <glyph glyph-name="uni042B" unicode="&#x42b;" horiz-adv-x="1779" 
d="M670 0h-471v1434h120v-525h351q604 0 604 -454q0 -103 -32 -182.5t-86.5 -130t-132.5 -83.5t-164.5 -46t-188.5 -13zM322 793v-676h354q83 0 150 9t129 32.5t104 61t67 97t25 138.5t-25 138.5t-67.5 97t-104.5 61t-129 32.5t-149 9h-354zM1581 0h-121v1434h121v-1434z
" />
    <glyph glyph-name="uni042C" unicode="&#x42c;" horiz-adv-x="1345" 
d="M670 0h-471v1434h120v-525h351q604 0 604 -454q0 -103 -32 -182.5t-86.5 -130t-132.5 -83.5t-164.5 -46t-188.5 -13zM322 793v-676h354q83 0 150 9t129 32.5t104 61t67 97t25 138.5t-25 138.5t-67.5 97t-104.5 61t-129 32.5t-149 9h-354z" />
    <glyph glyph-name="uni042D" unicode="&#x42d;" horiz-adv-x="1343" 
d="M94 1360q178 96 406 96q110 0 216 -29t202 -90.5t168 -148t114.5 -211.5t42.5 -272t-43 -269.5t-115 -206t-168.5 -141.5t-202.5 -84.5t-218 -26.5q-221 0 -402 99v125q168 -109 385 -109q95 0 183.5 20t170 64.5t143.5 109t100.5 160.5t43.5 213h-786v115h784
q-9 140 -67 251t-147.5 178.5t-197 102.5t-223.5 35q-106 0 -209 -27t-180 -77v123z" />
    <glyph glyph-name="uni042E" unicode="&#x42e;" horiz-adv-x="2220" 
d="M2122 717q0 -111 -29 -217t-90 -201t-147.5 -166.5t-210.5 -113.5t-269 -42q-138 0 -256 38t-202.5 103t-146.5 152.5t-95 185.5t-41 203h-316v-659h-120v1434h120v-660h316q8 105 41 203t95 185.5t146.5 152.5t202.5 103t256 38q145 0 269 -42t210.5 -113t147.5 -166
t90 -201t29 -217zM756 717q0 -95 24 -184.5t74.5 -170t122.5 -140.5t175.5 -95t225.5 -35q152 0 273.5 53.5t196.5 143t114 199.5t39 229t-39 229t-114 199t-196.5 142.5t-273.5 53.5t-273.5 -53.5t-196 -142.5t-113.5 -199t-39 -229z" />
    <glyph glyph-name="uni042F" unicode="&#x42f;" horiz-adv-x="1396" 
d="M215 0h-147l432 555q-171 37 -273 146t-102 286q0 111 43.5 198t119 140.5t172.5 81t208 27.5h530v-1434h-121v539h-442zM250 987q0 -110 56 -186t147 -111t209 -35h413v662h-413q-118 0 -209 -34.5t-147 -110.5t-56 -185z" />
    <glyph glyph-name="uni0430" unicode="&#x430;" horiz-adv-x="1118" 
d="M932 178q0 -86 88 -86q32 0 76 14v-94q-55 -20 -107 -20q-69 0 -116 36.5t-54 114.5q-74 -80 -177.5 -123t-225.5 -43q-66 0 -126 17.5t-109 52t-78 91.5t-29 130q0 71 25.5 127t67 92t98.5 59.5t117 33.5t126 10q159 0 309 -43v65q0 132 -82 209.5t-231 77.5
q-188 0 -352 -70v115q175 62 364 62q196 0 306 -106.5t110 -301.5v-420zM193 274q0 -95 71.5 -145.5t173.5 -50.5q112 0 213 50t166 142v181q-153 41 -293 41q-64 0 -120.5 -11.5t-105 -35.5t-77 -68t-28.5 -103z" />
    <glyph glyph-name="uni0431" unicode="&#x431;" horiz-adv-x="1202" 
d="M1110 461q0 -222 -137 -353t-361 -131q-227 0 -367.5 153.5t-140.5 414.5q0 234 85 408t223 261q77 47 157 77.5t140 43.5t116 25.5t105 35t88 60.5v-123q-46 -37 -109.5 -59t-121 -32t-143 -38.5t-165.5 -75.5q-191 -117 -258 -421q55 108 166 171.5t242 63.5
q98 0 185.5 -34.5t153 -96.5t104 -152.5t38.5 -197.5zM221 485q0 -172 107.5 -284.5t281.5 -112.5q176 0 280.5 103.5t104.5 267.5q0 163 -105 267.5t-276 104.5q-155 0 -265.5 -97.5t-127.5 -248.5z" />
    <glyph glyph-name="uni0432" unicode="&#x432;" horiz-adv-x="1116" 
d="M700 0h-540v983h520q136 0 218.5 -69t82.5 -191q0 -80 -40.5 -138.5t-109.5 -82.5q79 -21 131 -81t52 -155q0 -126 -83 -196t-231 -70zM274 446v-344h408q215 0 215 170q0 174 -207 174h-416zM274 881v-332h396q92 0 142 40.5t50 123.5q0 85 -53.5 126.5t-142.5 41.5
h-392z" />
    <glyph glyph-name="uni0433" unicode="&#x433;" horiz-adv-x="899" 
d="M276 0h-116v983h706v-109h-590v-874z" />
    <glyph glyph-name="uni0434" unicode="&#x434;" horiz-adv-x="1273" 
d="M166 -272h-113v376h129q95 181 137 386.5t41 492.5h703v-879h143v-376h-114v272h-926v-272zM471 879q-3 -242 -43.5 -424t-120.5 -351h641v775h-477z" />
    <glyph glyph-name="uni0435" unicode="&#x435;" horiz-adv-x="1118" 
d="M92 492q0 122 42 222t112 162.5t155.5 96t176.5 33.5q78 0 145 -18t116 -49.5t88 -75t61.5 -94t36.5 -106t12 -112.5t-11 -113h-817q5 -91 43.5 -160.5t100 -111t136.5 -62t160 -20.5q185 0 322 80v-115q-135 -72 -338 -72q-110 0 -206 31.5t-171.5 92.5t-119.5 161.5
t-44 229.5zM924 541q5 44 -2 91t-31 95t-62 86t-101 62t-142 24q-99 0 -181.5 -40t-136.5 -123t-59 -195h715z" />
    <glyph glyph-name="uni0436" unicode="&#x436;" horiz-adv-x="1507" 
d="M1489 0h-131l-375 442h-172v-442h-115v442h-172l-374 -442h-132l414 500l-362 483h129l329 -434h168v434h115v-434h168l330 434h129l-363 -483z" />
    <glyph glyph-name="uni0437" unicode="&#x437;" horiz-adv-x="964" 
d="M866 262q0 -140 -117 -212.5t-311 -72.5q-205 0 -356 74v111q66 -34 160.5 -56t183.5 -22q66 0 121 9.5t102.5 30t74 59t26.5 91.5q0 47 -21 82t-56.5 53.5t-74 27.5t-80.5 9h-229v107h229q98 5 154.5 44.5t56.5 115.5q0 92 -83.5 139t-215.5 47q-176 0 -334 -74v109
q168 74 346 74q188 0 296 -74.5t108 -206.5q0 -88 -50 -146t-139 -77q88 -22 148.5 -85.5t60.5 -156.5z" />
    <glyph glyph-name="uni0438" unicode="&#x438;" horiz-adv-x="1202" 
d="M260 0h-100v983h116v-797l666 797h100v-983h-114v797z" />
    <glyph glyph-name="uni0439" unicode="&#x439;" horiz-adv-x="1202" 
d="M874 1227q-115 -84 -274 -84q-160 0 -272 84v108q122 -90 272 -90t274 90v-108zM260 0h-100v983h116v-797l666 797h100v-983h-114v797z" />
    <glyph glyph-name="uni043A" unicode="&#x43a;" horiz-adv-x="1048" 
d="M276 0h-116v983h116v-426h228l344 426h135l-387 -483l438 -500h-137l-399 449h-222v-449z" />
    <glyph glyph-name="uni043B" unicode="&#x43b;" horiz-adv-x="1208" 
d="M471 874q-9 -171 -23.5 -301t-41 -244.5t-63 -187t-91 -114t-125.5 -41.5q-54 0 -104 18v94q30 -12 69 -12q129 0 189.5 225.5t74.5 671.5h693v-983h-115v874h-463z" />
    <glyph glyph-name="uni043C" unicode="&#x43c;" horiz-adv-x="1366" 
d="M270 0h-110v983h127l397 -582l397 582h125v-983h-110v811l-369 -539h-86l-371 539v-811z" />
    <glyph glyph-name="uni043D" unicode="&#x43d;" horiz-adv-x="1189" 
d="M276 0h-116v983h116v-438h639v438h115v-983h-115v438h-639v-438z" />
    <glyph glyph-name="uni043E" unicode="&#x43e;" horiz-adv-x="1218" 
d="M92 492q0 120 43.5 219.5t116 162.5t164.5 97.5t192 34.5q102 0 194.5 -34.5t165 -97.5t115.5 -162t43 -220t-43 -220t-115.5 -162.5t-165 -98t-194.5 -34.5q-100 0 -192 34.5t-164.5 98t-116 163t-43.5 219.5zM1010 492q0 124 -55 217t-145 139.5t-200 46.5
q-171 0 -286 -108.5t-115 -294.5t115 -295t286 -109q169 0 284.5 109t115.5 295z" />
    <glyph glyph-name="uni043F" unicode="&#x43f;" horiz-adv-x="1189" 
d="M276 0h-116v983h870v-983h-115v874h-639v-874z" />
    <glyph glyph-name="uni0440" unicode="&#x440;" horiz-adv-x="1265" 
d="M264 780q70 102 175.5 164t244.5 62q212 0 351 -144t139 -370t-139 -370.5t-351 -144.5q-138 0 -242.5 60t-165.5 153v-641h-116v1434h104v-203zM1057 492q0 185 -110 296t-277 111q-137 0 -244 -79t-152 -195v-267q45 -116 152 -195t244 -79q167 0 277 111t110 297z" />
    <glyph glyph-name="uni0441" unicode="&#x441;" horiz-adv-x="1019" 
d="M92 485q0 130 46.5 233t123.5 164t169.5 92.5t191.5 31.5q179 0 297 -80v-113q-115 86 -283 86q-65 0 -125.5 -14.5t-116 -47t-96.5 -79.5t-65.5 -116.5t-24.5 -154.5q0 -100 35 -179t94 -126.5t132.5 -72.5t154.5 -25q170 0 305 80v-117q-140 -70 -322 -70
q-78 0 -151.5 19t-140 60t-116 99.5t-79 143.5t-29.5 186z" />
    <glyph glyph-name="uni0442" unicode="&#x442;" horiz-adv-x="944" 
d="M530 0h-116v874h-381v109h878v-109h-381v-874z" />
    <glyph glyph-name="uni0443" unicode="&#x443;" horiz-adv-x="1097" 
d="M569 129l367 854h123l-498 -1145q-73 -165 -159 -238t-193 -73q-50 0 -105 12v103q50 -13 91 -13q87 0 151 61t117 191l49 115l-483 987h123z" />
    <glyph glyph-name="uni0444" unicode="&#x444;" horiz-adv-x="1460" 
d="M788 -451h-116v428q-254 5 -418 144t-164 371q0 155 77 271.5t208 178t297 64.5v428h116v-428q165 -3 296 -64t208.5 -178t77.5 -272t-77.5 -272t-208.5 -178.5t-296 -64.5v-428zM207 492q0 -188 128.5 -297.5t336.5 -114.5v823q-209 -5 -337 -114t-128 -297zM788 903
v-823q210 5 337.5 114t127.5 298q0 188 -127.5 297t-337.5 114z" />
    <glyph glyph-name="uni0445" unicode="&#x445;" horiz-adv-x="999" 
d="M813 983h135l-381 -477l402 -506h-135l-334 422l-334 -422h-135l403 506l-383 477h135l314 -395z" />
    <glyph glyph-name="uni0446" unicode="&#x446;" horiz-adv-x="1222" 
d="M1153 -272h-113v272h-880v983h116v-874h619v874h115v-874h143v-381z" />
    <glyph glyph-name="uni0447" unicode="&#x447;" horiz-adv-x="1064" 
d="M905 0h-117v358q-133 -57 -313 -57t-283.5 87t-103.5 263v332h117v-324q0 -134 78 -192.5t225 -58.5q157 0 280 53v522h117v-983z" />
    <glyph glyph-name="uni0448" unicode="&#x448;" horiz-adv-x="1665" 
d="M1505 0h-1345v983h116v-874h498v874h117v-874h498v874h116v-983z" />
    <glyph glyph-name="uni0449" unicode="&#x449;" horiz-adv-x="1716" 
d="M1647 -272h-113v272h-1374v983h116v-874h498v874h117v-874h498v874h116v-874h142v-381z" />
    <glyph glyph-name="uni044A" unicode="&#x44a;" horiz-adv-x="1198" 
d="M426 625h334q170 0 272.5 -88t102.5 -224q0 -137 -102 -225t-273 -88h-451v881h-274v102h391v-358zM426 104h319q127 0 200 55.5t73 153.5q0 97 -73.5 152t-199.5 55h-319v-416z" />
    <glyph glyph-name="uni044B" unicode="&#x44b;" horiz-adv-x="1456" 
d="M610 0h-450v983h116v-358h334q170 0 272.5 -88t102.5 -224q0 -137 -102 -225t-273 -88zM274 520v-416h320q126 0 199 55.5t73 153.5q0 97 -73 152t-199 55h-320zM1296 0h-116v983h116v-983z" />
    <glyph glyph-name="uni044C" unicode="&#x44c;" horiz-adv-x="1050" 
d="M610 0h-450v983h116v-358h334q170 0 272.5 -88t102.5 -224q0 -137 -102 -225t-273 -88zM274 520v-416h320q126 0 199 55.5t73 153.5q0 97 -73 152t-199 55h-320z" />
    <glyph glyph-name="uni044D" unicode="&#x44d;" horiz-adv-x="1034" 
d="M942 479q0 -129 -44.5 -229t-119 -158t-162.5 -86.5t-184 -28.5q-187 0 -344 86v109q153 -88 324 -88q81 0 150.5 19t127.5 58.5t93.5 110.5t39.5 166h-544v107h544q-6 74 -33 134t-68 100.5t-95.5 68t-113 39.5t-122.5 12q-74 0 -152.5 -24t-140.5 -66v109
q136 88 305 88q102 0 195.5 -31.5t171.5 -93t125 -165.5t47 -237z" />
    <glyph glyph-name="uni044E" unicode="&#x44e;" horiz-adv-x="1665" 
d="M1573 492q0 -121 -43 -220t-115.5 -162.5t-164.5 -98t-193 -34.5q-128 0 -239 52t-187 159t-88 250h-267v-438h-116v983h116v-438h267q12 143 88 250t187 159t239 52q101 0 193 -34.5t164.5 -97.5t115.5 -162t43 -220zM655 492q0 -186 115.5 -295t286.5 -109
q169 0 284 109t115 295t-115 294.5t-284 108.5q-111 0 -201.5 -46.5t-145.5 -139.5t-55 -217z" />
    <glyph glyph-name="uni044F" unicode="&#x44f;" horiz-adv-x="1107" 
d="M205 0h-137l292 377q-118 29 -182.5 109t-64.5 188q0 134 98 221.5t268 87.5h469v-983h-117v365h-346zM229 674q0 -94 69.5 -149.5t190.5 -55.5h345v410h-345q-122 0 -191 -55t-69 -150z" />
    <glyph glyph-name="uni0451" unicode="&#x451;" horiz-adv-x="1118" 
d="M866 1262q0 -34 -24.5 -59t-59.5 -25t-60.5 25t-25.5 59t25.5 60t60.5 26t59.5 -26t24.5 -60zM455 1262q0 -34 -24.5 -59t-59.5 -25t-60.5 25t-25.5 59t25.5 60t60.5 26t59.5 -26t24.5 -60zM92 492q0 122 42 222t112 162.5t155.5 96t176.5 33.5q78 0 145 -18t116 -49.5
t88 -75t61.5 -94t36.5 -106t12 -112.5t-11 -113h-817q5 -91 43.5 -160.5t100 -111t136.5 -62t160 -20.5q185 0 322 80v-115q-135 -72 -338 -72q-110 0 -206 31.5t-171.5 92.5t-119.5 161.5t-44 229.5zM924 541q5 44 -2 91t-31 95t-62 86t-101 62t-142 24q-99 0 -181.5 -40
t-136.5 -123t-59 -195h715z" />
    <glyph glyph-name="Wgrave" unicode="&#x1e80;" horiz-adv-x="2056" 
d="M1878 1434h133l-455 -1434h-135l-393 1225l-395 -1225h-133l-455 1434h133l389 -1282l406 1275h110l406 -1275zM1137 1583h-129l-201 291h145z" />
    <glyph glyph-name="wgrave" unicode="&#x1e81;" horiz-adv-x="1640" 
d="M1470 983h123l-354 -983h-125l-295 819l-295 -819h-123l-354 983h123l293 -852l303 846h106l304 -846zM928 1133h-129l-201 290h145z" />
    <glyph glyph-name="Wacute" unicode="&#x1e82;" horiz-adv-x="2056" 
d="M1878 1434h133l-455 -1434h-135l-393 1225l-395 -1225h-133l-455 1434h133l389 -1282l406 1275h110l406 -1275zM1044 1583h-126l184 291h145z" />
    <glyph glyph-name="wacute" unicode="&#x1e83;" horiz-adv-x="1640" 
d="M1470 983h123l-354 -983h-125l-295 819l-295 -819h-123l-354 983h123l293 -852l303 846h106l304 -846zM836 1133h-127l184 290h145z" />
    <glyph glyph-name="Wdieresis" unicode="&#x1e84;" horiz-adv-x="2056" 
d="M1878 1434h133l-455 -1434h-135l-393 1225l-395 -1225h-133l-455 1434h133l389 -1282l406 1275h110l406 -1275zM1317 1712q0 -34 -24.5 -59t-59.5 -25t-60.5 25t-25.5 59t25.5 60t60.5 26t59.5 -26t24.5 -60zM905 1712q0 -34 -24.5 -59t-59.5 -25t-60.5 25t-25.5 59
t25.5 60t60.5 26t59.5 -26t24.5 -60z" />
    <glyph glyph-name="wdieresis" unicode="&#x1e85;" horiz-adv-x="1640" 
d="M1470 983h123l-354 -983h-125l-295 819l-295 -819h-123l-354 983h123l293 -852l303 846h106l304 -846zM1108 1262q0 -34 -24.5 -59t-59.5 -25t-60.5 25t-25.5 59t25.5 60t60.5 26t59.5 -26t24.5 -60zM696 1262q0 -34 -24.5 -59t-59.5 -25t-60.5 25t-25.5 59t25.5 60
t60.5 26t59.5 -26t24.5 -60z" />
    <glyph glyph-name="Ygrave" unicode="&#x1ef2;" horiz-adv-x="1318" 
d="M721 0h-123v559l-563 875h135l489 -764l490 764h135l-563 -875v-559zM770 1583h-129l-201 291h146z" />
    <glyph glyph-name="ygrave" unicode="&#x1ef3;" horiz-adv-x="1097" 
d="M569 129l367 854h123l-498 -1145q-73 -165 -159 -238t-193 -73q-50 0 -105 12v103q50 -13 91 -13q87 0 151 61t117 191l49 115l-483 987h123zM643 1133h-129l-201 290h146z" />
    <glyph glyph-name="endash" unicode="&#x2013;" horiz-adv-x="1169" 
d="M1032 449h-895v110h895v-110z" />
    <glyph glyph-name="emdash" unicode="&#x2014;" horiz-adv-x="1550" 
d="M1413 449h-1276v110h1276v-110z" />
    <glyph glyph-name="quoteleft" unicode="&#x2018;" horiz-adv-x="419" 
d="M225 977h-123l136 457h96z" />
    <glyph glyph-name="quoteright" unicode="&#x2019;" horiz-adv-x="411" 
d="M203 977h-97l109 457h123z" />
    <glyph glyph-name="quotesinglbase" unicode="&#x201a;" horiz-adv-x="440" 
d="M156 -301h-97l109 459h123z" />
    <glyph glyph-name="quotedblleft" unicode="&#x201c;" horiz-adv-x="694" 
d="M500 977h-123l135 457h96zM225 977h-123l136 457h96z" />
    <glyph glyph-name="quotedblright" unicode="&#x201d;" horiz-adv-x="686" 
d="M477 977h-96l108 457h123zM203 977h-97l109 457h123z" />
    <glyph glyph-name="quotedblbase" unicode="&#x201e;" horiz-adv-x="714" 
d="M430 -301h-96l108 459h123zM156 -301h-97l109 459h123z" />
    <glyph glyph-name="dagger" unicode="&#x2020;" horiz-adv-x="1021" 
d="M571 -451h-120v1317h-383v117h383v451h120v-451h383v-117h-383v-1317z" />
    <glyph glyph-name="daggerdbl" unicode="&#x2021;" horiz-adv-x="1077" 
d="M600 -451h-123v641h-381v115h381v561h-381v117h381v451h123v-451h381v-117h-381v-561h381v-115h-381v-641z" />
    <glyph glyph-name="bullet" unicode="&#x2022;" horiz-adv-x="638" 
d="M186 717q0 60 38 94.5t93 34.5q57 0 95.5 -34.5t38.5 -94.5t-38.5 -94.5t-95.5 -34.5q-55 0 -93 34.5t-38 94.5z" />
    <glyph glyph-name="ellipsis" unicode="&#x2026;" horiz-adv-x="1095" 
d="M967 63q0 -37 -23.5 -58t-58.5 -21q-34 0 -58 21t-24 58t24 58.5t58 21.5q35 0 58.5 -21.5t23.5 -58.5zM293 63q0 -37 -23.5 -58t-58.5 -21q-34 0 -58 21t-24 58t24 58.5t58 21.5q35 0 58.5 -21.5t23.5 -58.5zM631 63q0 -37 -23.5 -58t-58.5 -21q-34 0 -58 21t-24 58
t24 58.5t58 21.5q35 0 58.5 -21.5t23.5 -58.5z" />
    <glyph glyph-name="perthousand" unicode="&#x2030;" horiz-adv-x="2588" 
d="M547 -123h-117l838 1679h116zM713 1147q0 -144 -93.5 -226.5t-226.5 -82.5q-135 0 -229 82.5t-94 226.5t94 226.5t229 82.5q133 0 226.5 -82.5t93.5 -226.5zM180 1147q0 -93 58.5 -150t154.5 -57q94 0 151.5 57.5t57.5 149.5t-57.5 149.5t-151.5 57.5q-96 0 -154.5 -57
t-58.5 -150zM1743 287q0 -144 -93.5 -227t-226.5 -83q-135 0 -229 83t-94 227t94 226.5t229 82.5q133 0 226.5 -82.5t93.5 -226.5zM1210 287q0 -93 58.5 -150t154.5 -57q94 0 151.5 57.5t57.5 149.5t-57.5 149.5t-151.5 57.5q-96 0 -154.5 -57t-58.5 -150zM2519 287
q0 -144 -93 -227t-226 -83q-135 0 -229.5 83t-94.5 227t94.5 226.5t229.5 82.5q133 0 226 -82.5t93 -226.5zM1987 287q0 -93 58.5 -150t154.5 -57q94 0 151 57t57 150t-57 150t-151 57q-96 0 -154.5 -57t-58.5 -150z" />
    <glyph glyph-name="guilsinglleft" unicode="&#x2039;" horiz-adv-x="593" 
d="M471 129h-125l-248 350v25l248 350h125l-256 -362z" />
    <glyph glyph-name="guilsinglright" unicode="&#x203a;" horiz-adv-x="593" 
d="M248 129h-125l256 363l-256 362h125l248 -350v-25z" />
    <glyph glyph-name="fraction" unicode="&#x2044;" horiz-adv-x="342" 
d="M-266 -25h-58l936 1481h58z" />
    <glyph glyph-name="Euro" unicode="&#x20ac;" horiz-adv-x="1501" 
d="M1376 76q-184 -99 -403 -99q-117 0 -228.5 34t-207 98.5t-166.5 166t-101 228.5h-182v102h164q-4 54 -4 86q0 48 6 94h-166v103h184q41 166 149.5 287.5t250.5 180t301 58.5q222 0 403 -96v-123q-162 104 -383 104q-132 0 -250 -44.5t-211 -139.5t-133 -227h734v-103
h-754q-8 -41 -8 -94q0 -32 4 -86h758v-102h-734q39 -133 133 -228t213 -139.5t252 -44.5q215 0 379 105v-121z" />
    <glyph glyph-name="trademark" unicode="&#x2122;" horiz-adv-x="1359" 
d="M698 915h-71v519h82l202 -291l205 291h82v-519h-72v416l-194 -276h-41l-193 276v-416zM346 915h-74v451h-180v68h434v-68h-180v-451z" />
    <glyph glyph-name="oneeighth" unicode="&#x215b;" horiz-adv-x="1849" 
d="M1128 635q0 86 79.5 150.5t226.5 64.5q136 0 222 -67t89 -162q2 -59 -27.5 -115t-87.5 -96q144 -70 144 -197q0 -95 -85 -161t-249 -66q-162 0 -251 70t-89 173q0 63 35.5 124t105.5 102q-113 70 -113 180zM1446 377q-79 21 -117 37q-62 -29 -94.5 -76.5t-32.5 -95.5
q0 -76 63 -119t179 -43q101 0 164 35.5t63 93.5q0 29 -13 53t-26.5 38t-50 30t-53 21.5t-66.5 20.5q-5 2 -8.5 3t-7.5 2zM1645 602q0 65 -57 109.5t-154 44.5q-91 0 -146 -34.5t-55 -86.5q0 -20 6 -37.5t13 -30t23 -24.5t26.5 -19t33.5 -16.5t34 -13t38 -12t35 -11.5
q71 -18 104 -29q48 31 73.5 74t25.5 86zM424 -25h-57l936 1481h57zM319 1393h76v-740h152v-96h-443v96h191v631l-178 -65v96z" />
    <glyph glyph-name="threeeighths" unicode="&#x215c;" horiz-adv-x="1941" 
d="M1219 635q0 86 79 150.5t226 64.5q136 0 222 -67t89 -162q2 -59 -27.5 -115t-87.5 -96q144 -70 144 -197q0 -95 -85 -161t-249 -66q-162 0 -251 70t-89 173q0 63 35.5 124t105.5 102q-112 69 -112 180zM1536 377q-79 21 -117 37q-62 -29 -94.5 -76.5t-32.5 -95.5
q0 -76 63 -119t179 -43q101 0 164 35.5t63 93.5q0 29 -13 53t-26.5 38t-50 30t-53 21.5t-66.5 20.5q-5 2 -8.5 3t-7.5 2zM1735 602q0 65 -57 109.5t-154 44.5q-91 0 -146 -34.5t-55 -86.5q0 -20 6 -37.5t13 -30t23 -24.5t26.5 -19t33.5 -16.5t34 -13t38 -12t35 -11.5
q71 -18 104 -29q48 31 73.5 74t25.5 86zM535 -25h-58l936 1481h57zM670 1188q0 -64 -34.5 -114.5t-90.5 -69.5q66 -20 111.5 -72t45.5 -139q0 -117 -86 -179.5t-219 -62.5q-169 0 -291 55v101q116 -62 283 -62q98 0 156.5 37.5t58.5 116.5q0 149 -203 149h-129v96h117
q89 0 135.5 37.5t46.5 98.5q0 65 -52 103t-146 38q-130 0 -252 -64v101q117 57 264 57q129 0 207 -62.5t78 -164.5z" />
    <glyph glyph-name="fiveeighths" unicode="&#x215d;" horiz-adv-x="1921" 
d="M1198 635q0 86 79 150.5t226 64.5q136 0 222.5 -67.5t89.5 -161.5q2 -59 -27.5 -115t-87.5 -96q143 -70 143 -197q0 -95 -85 -161t-249 -66q-162 0 -251 70t-89 173q0 63 36 124t106 102q-113 70 -113 180zM1516 377q-79 21 -117 37q-62 -29 -94.5 -76.5t-32.5 -95.5
q0 -76 62.5 -119t178.5 -43q101 0 164.5 35.5t63.5 93.5q0 29 -13 53t-26.5 38t-50 30t-53 21.5t-66.5 20.5q-5 2 -8.5 3t-7.5 2zM1714 602q0 65 -57 109.5t-154 44.5q-90 0 -145 -34.5t-55 -86.5q0 -20 6 -37.5t13 -29.5t23 -24.5t26 -19.5t33.5 -16.5t33.5 -13t37.5 -12
t35.5 -11.5q76 -20 105 -29q48 31 73 74t25 86zM514 -25h-57l936 1481h57zM152 1393h501v-97h-403l-17 -239q75 20 144 20q62 0 116.5 -14.5t100.5 -44.5t73 -83.5t27 -125.5q0 -124 -91 -195t-232 -71q-156 0 -269 55v98q109 -59 256 -59q106 0 169 44t63 128
q0 174 -248 174q-114 0 -217 -39z" />
    <glyph glyph-name="seveneighths" unicode="&#x215e;" horiz-adv-x="1724" 
d="M309 -25h-57l936 1481h57zM999 635q0 86 79.5 150.5t226.5 64.5q136 0 222 -67t89 -162q2 -59 -27.5 -115t-87.5 -96q144 -70 144 -197q0 -95 -85 -161t-249 -66q-162 0 -251 70t-89 173q0 63 35.5 124t105.5 102q-113 70 -113 180zM1317 377q-79 21 -117 37
q-62 -29 -94.5 -76.5t-32.5 -95.5q0 -76 63 -119t179 -43q101 0 164 35.5t63 93.5q0 29 -13 53t-26.5 38t-50 30t-53 21.5t-66.5 20.5q-5 2 -8.5 3t-7.5 2zM1516 602q0 65 -57 109.5t-154 44.5q-91 0 -146 -34.5t-55 -86.5q0 -20 6 -37.5t13 -30t23 -24.5t26.5 -19
t33.5 -16.5t34 -13t38 -12t35 -11.5q71 -18 104 -29q48 31 73.5 74t25.5 86zM322 557h-111l332 739h-467v97h577v-93z" />
    <glyph glyph-name="partialdiff" unicode="&#x2202;" horiz-adv-x="1216" 
d="M1106 551q0 -271 -139.5 -422.5t-370.5 -151.5q-219 0 -361.5 131.5t-142.5 346.5q0 198 138 328t331 130q155 0 277.5 -76t162.5 -210q0 15 -4 47q-17 143 -72 257t-131.5 186t-176 120t-200 67.5t-208.5 18.5v111q110 0 215 -21t206.5 -64t187 -115t150.5 -167
t101.5 -227t36.5 -289zM207 455q0 -167 106.5 -267t280.5 -100q161 0 258.5 87.5t124.5 240.5q-3 119 -58.5 209t-144 135t-196.5 45q-160 0 -265.5 -97.5t-105.5 -252.5z" />
    <glyph glyph-name="emptyset" unicode="&#x2205;" horiz-adv-x="1673" 
d="M1489 1434l-150 -174q113 -103 176.5 -244t63.5 -299q0 -150 -59 -287t-158 -236.5t-236.5 -158t-287.5 -58.5q-258 0 -461 160l-117 -137h-76l150 174q-111 103 -174.5 244.5t-63.5 298.5q0 150 59 287t158.5 236t237 157.5t287.5 58.5q258 0 458 -160l117 138h76z
M838 1393q-137 0 -262.5 -54t-216 -144.5t-144 -215.5t-53.5 -262q0 -144 57 -272t158 -222l876 1024q-179 146 -415 146zM420 186q185 -145 418 -145q137 0 262.5 54t215.5 144.5t143.5 215.5t53.5 262q0 143 -57 270.5t-158 222.5z" />
    <glyph glyph-name="product" unicode="&#x220f;" horiz-adv-x="1515" 
d="M399 -451h-123v1768h-200v117h1366v-117h-203v-1768h-121v1768h-719v-1768z" />
    <glyph glyph-name="summation" unicode="&#x2211;" horiz-adv-x="1155" 
d="M1051 0h-969v70l563 647l-563 647v70h965v-117h-768l512 -586v-29l-512 -585h772v-117z" />
    <glyph glyph-name="minus" unicode="&#x2212;" horiz-adv-x="1054" 
d="M911 655h-768v111h768v-111z" />
    <glyph glyph-name="radical" unicode="&#x221a;" horiz-adv-x="1486" 
d="M733 0h-108l-369 866h-199v117h277l348 -842l680 1456h127z" />
    <glyph glyph-name="infinity" unicode="&#x221e;" horiz-adv-x="1710" 
d="M856 825q41 60 76.5 102t84 83.5t107.5 62.5t127 21q147 0 247.5 -98t100.5 -263t-100.5 -262.5t-247.5 -97.5q-69 0 -128.5 21t-108.5 62t-84 83t-76 102q-42 -61 -77 -102t-83.5 -82.5t-107.5 -62.5t-127 -21q-148 0 -248 97.5t-100 262.5t100 263t248 98
q69 0 128.5 -21t108 -63t83.5 -83t77 -102zM793 731q-32 49 -53.5 78.5t-54 66.5t-61.5 57.5t-68 35t-81 14.5q-107 0 -177.5 -64.5t-70.5 -185.5t70.5 -185.5t177.5 -64.5q42 0 81 14t68.5 34.5t61.5 56.5t54.5 66.5t52.5 76.5zM1483 733q0 121 -70.5 185.5t-177.5 64.5
q-52 0 -97 -18.5t-85 -58t-68 -76t-67 -95.5q40 -61 68 -97.5t68.5 -76.5t85 -59t95.5 -19q107 0 177.5 64.5t70.5 185.5z" />
    <glyph glyph-name="integral" unicode="&#x222b;" horiz-adv-x="833" 
d="M358 1327q0 65 18 116.5t47 84t69 54t80.5 30t84.5 8.5q87 0 158 -29v-108q-69 26 -145 26q-37 0 -68.5 -8t-61.5 -27.5t-47.5 -58t-17.5 -92.5v-1503q0 -65 -18 -116.5t-47 -84t-69 -54t-80.5 -30t-84.5 -8.5q-87 0 -158 29v108q65 -26 134 -26q42 0 75 7.5t64.5 26
t49 57t17.5 95.5v1503z" />
    <glyph glyph-name="approxequal" unicode="&#x2248;" horiz-adv-x="1200" 
d="M1057 979q3 -94 -51.5 -151.5t-147.5 -57.5q-74 0 -249 62.5t-247 62.5q-47 0 -73 -26t-25 -74h-110q-3 97 51 153t145 56q79 0 250.5 -61.5t247.5 -61.5q46 0 72.5 25t25.5 73h111zM1057 676q3 -94 -51.5 -151.5t-147.5 -57.5q-74 0 -249 62.5t-247 62.5q-47 0 -73 -26
t-25 -74h-110q-3 97 51 152.5t145 55.5q65 0 158 -30.5t185 -61t155 -30.5q46 0 72.5 25t25.5 73h111z" />
    <glyph glyph-name="notequal" unicode="&#x2260;" horiz-adv-x="1124" 
d="M340 268h-104l126 207h-219v111h287l160 262h-447v110h514l127 207h103l-127 -207h221v-110h-287l-162 -262h449v-111h-514z" />
    <glyph glyph-name="lessequal" unicode="&#x2264;" horiz-adv-x="1083" 
d="M901 485v-114l-754 319v119l754 319v-114l-635 -264zM901 0h-754v111h754v-111z" />
    <glyph glyph-name="greaterequal" unicode="&#x2265;" horiz-adv-x="1083" 
d="M936 690l-754 -319v114l635 265l-635 264v114l754 -319v-119zM936 0h-754v111h754v-111z" />
    <glyph glyph-name="lozenge" unicode="&#x25ca;" horiz-adv-x="1134" 
d="M633 0h-129l-428 717l428 717h129l426 -717zM207 717l360 -594l363 594l-363 594z" />
    <glyph glyph-name="i.loclTRK" horiz-adv-x="448" 
d="M166 983h117v-983h-117v983zM123 1235q0 43 28 67.5t68 24.5t67 -24.5t27 -67.5q0 -44 -27 -69t-67 -25t-68 25t-28 69z" />
    <glyph glyph-name="a.ss01" horiz-adv-x="1263" 
d="M999 203q-152 -226 -415 -226q-212 0 -353 145t-141 370t140.5 369.5t353.5 144.5q263 0 415 -226v203h105v-983h-105v203zM207 492q0 -186 111.5 -297t277.5 -111q138 0 243 78.5t150 195.5v267q-45 117 -150 195.5t-243 78.5q-166 0 -277.5 -111.5t-111.5 -295.5z" />
    <glyph glyph-name="aacute.ss01" horiz-adv-x="1263" 
d="M999 203q-152 -226 -415 -226q-212 0 -353 145t-141 370t140.5 369.5t353.5 144.5q263 0 415 -226v203h105v-983h-105v203zM207 492q0 -186 111.5 -297t277.5 -111q138 0 243 78.5t150 195.5v267q-45 117 -150 195.5t-243 78.5q-166 0 -277.5 -111.5t-111.5 -295.5z
M653 1133h-127l185 290h145z" />
    <glyph glyph-name="abreve.ss01" horiz-adv-x="1263" 
d="M999 203q-152 -226 -415 -226q-212 0 -353 145t-141 370t140.5 369.5t353.5 144.5q263 0 415 -226v203h105v-983h-105v203zM207 492q0 -186 111.5 -297t277.5 -111q138 0 243 78.5t150 195.5v267q-45 117 -150 195.5t-243 78.5q-166 0 -277.5 -111.5t-111.5 -295.5z
M911 1219q-115 -84 -274 -84q-160 0 -272 84v116q122 -90 272 -90t274 90v-116z" />
    <glyph glyph-name="acircumflex.ss01" horiz-adv-x="1263" 
d="M999 203q-152 -226 -415 -226q-212 0 -353 145t-141 370t140.5 369.5t353.5 144.5q263 0 415 -226v203h105v-983h-105v203zM207 492q0 -186 111.5 -297t277.5 -111q138 0 243 78.5t150 195.5v267q-45 117 -150 195.5t-243 78.5q-166 0 -277.5 -111.5t-111.5 -295.5z
M590 1415h104l267 -280h-134l-184 192l-184 -192h-133z" />
    <glyph glyph-name="adieresis.ss01" horiz-adv-x="1263" 
d="M999 203q-152 -226 -415 -226q-212 0 -353 145t-141 370t140.5 369.5t353.5 144.5q263 0 415 -226v203h105v-983h-105v203zM207 492q0 -186 111.5 -297t277.5 -111q138 0 243 78.5t150 195.5v267q-45 117 -150 195.5t-243 78.5q-166 0 -277.5 -111.5t-111.5 -295.5z
M926 1262q0 -34 -24.5 -59t-59.5 -25t-60.5 25t-25.5 59t25.5 60t60.5 26t59.5 -26t24.5 -60zM514 1262q0 -34 -24.5 -59t-59.5 -25t-60.5 25t-25.5 59t25.5 60t60.5 26t59.5 -26t24.5 -60z" />
    <glyph glyph-name="agrave.ss01" horiz-adv-x="1263" 
d="M999 203q-152 -226 -415 -226q-212 0 -353 145t-141 370t140.5 369.5t353.5 144.5q263 0 415 -226v203h105v-983h-105v203zM207 492q0 -186 111.5 -297t277.5 -111q138 0 243 78.5t150 195.5v267q-45 117 -150 195.5t-243 78.5q-166 0 -277.5 -111.5t-111.5 -295.5z
M745 1133h-129l-200 290h145z" />
    <glyph glyph-name="amacron.ss01" horiz-adv-x="1263" 
d="M999 203q-152 -226 -415 -226q-212 0 -353 145t-141 370t140.5 369.5t353.5 144.5q263 0 415 -226v203h105v-983h-105v203zM207 492q0 -186 111.5 -297t277.5 -111q138 0 243 78.5t150 195.5v267q-45 117 -150 195.5t-243 78.5q-166 0 -277.5 -111.5t-111.5 -295.5z
M350 1284h574v-106h-574v106z" />
    <glyph glyph-name="aogonek.ss01" horiz-adv-x="1263" 
d="M207 492q0 -186 111.5 -297t277.5 -111q138 0 243 78.5t150 195.5v267q-45 117 -150 195.5t-243 78.5q-166 0 -277.5 -111.5t-111.5 -295.5zM1104 0q-90 -64 -146 -142.5t-55 -140.5q-2 -44 26 -70t77 -26q52 0 98 21v-91q-53 -26 -125 -26q-87 -1 -136.5 46t-49.5 124
q0 154 206 348v160q-152 -226 -415 -226q-212 0 -353 145t-141 370t140.5 369.5t353.5 144.5q263 0 415 -226v203h105v-983z" />
    <glyph glyph-name="aring.ss01" horiz-adv-x="1263" 
d="M999 203q-152 -226 -415 -226q-212 0 -353 145t-141 370t140.5 369.5t353.5 144.5q263 0 415 -226v203h105v-983h-105v203zM207 492q0 -186 111.5 -297t277.5 -111q138 0 243 78.5t150 195.5v267q-45 117 -150 195.5t-243 78.5q-166 0 -277.5 -111.5t-111.5 -295.5z
M844 1288q0 -91 -62 -147t-147 -56q-87 0 -149 56t-62 147q0 88 62.5 143.5t148.5 55.5q85 0 147 -55.5t62 -143.5zM514 1286q0 -55 35.5 -87t85.5 -32t85.5 32t35.5 87q0 53 -36 86t-85 33t-85 -33t-36 -86z" />
    <glyph glyph-name="atilde.ss01" horiz-adv-x="1263" 
d="M999 203q-152 -226 -415 -226q-212 0 -353 145t-141 370t140.5 369.5t353.5 144.5q263 0 415 -226v203h105v-983h-105v203zM207 492q0 -186 111.5 -297t277.5 -111q138 0 243 78.5t150 195.5v267q-45 117 -150 195.5t-243 78.5q-166 0 -277.5 -111.5t-111.5 -295.5z
M956 1323q12 -88 -31 -138t-116 -50q-51 0 -115 24.5t-119.5 49t-85.5 24.5q-36 0 -54 -24.5t-13 -63.5h-103q-13 87 30.5 138.5t113.5 51.5q50 0 114 -24.5t120 -49t87 -24.5q76 0 70 86h102z" />
    <glyph glyph-name="ae.ss01" horiz-adv-x="2033" 
d="M999 203q-152 -226 -415 -226q-212 0 -353 145t-141 370t140.5 369.5t353.5 144.5q263 0 415 -226v203h105v-225q57 119 163.5 183.5t233.5 64.5q89 0 162.5 -24t124 -66t87.5 -98t52 -120t19.5 -133t-11.5 -137h-817q6 -87 44.5 -154.5t100.5 -108t137 -61t159 -20.5
t169 21.5t148 58.5v-109q-135 -78 -326 -78q-151 0 -269 62.5t-177 187.5v-227h-105v203zM207 492q0 -186 111.5 -297t277.5 -111q138 0 243 78.5t150 195.5v267q-45 117 -150 195.5t-243 78.5q-166 0 -277.5 -111.5t-111.5 -295.5zM1495 899q-100 0 -182 -40.5t-136 -125.5
t-59 -203h715q5 47 -2 96t-31 98.5t-62 88t-101 62.5t-142 24z" />
    <glyph glyph-name="y.ss01" 
d="M1032 -6q-2 -100 -31.5 -181t-77.5 -133.5t-113 -87.5t-133 -50t-142 -15q-98 0 -191.5 21.5t-153.5 56.5v108q57 -37 146.5 -58.5t183.5 -21.5q78 0 145 18.5t125.5 58t92 112.5t32.5 172v170q-60 -77 -156 -132t-214 -55q-181 0 -289.5 108.5t-108.5 291.5v606h117
v-592q0 -150 77.5 -228.5t215.5 -78.5q118 0 209 65t149 160v674h117v-989z" />
    <glyph glyph-name="yacute.ss01" 
d="M1032 -6q-2 -100 -31.5 -181t-77.5 -133.5t-113 -87.5t-133 -50t-142 -15q-98 0 -191.5 21.5t-153.5 56.5v108q57 -37 146.5 -58.5t183.5 -21.5q78 0 145 18.5t125.5 58t92 112.5t32.5 172v170q-60 -77 -156 -132t-214 -55q-181 0 -289.5 108.5t-108.5 291.5v606h117
v-592q0 -150 77.5 -228.5t215.5 -78.5q118 0 209 65t149 160v674h117v-989zM612 1133h-127l185 290h145z" />
    <glyph glyph-name="ycircumflex.ss01" 
d="M1032 -6q-2 -100 -31.5 -181t-77.5 -133.5t-113 -87.5t-133 -50t-142 -15q-98 0 -191.5 21.5t-153.5 56.5v108q57 -37 146.5 -58.5t183.5 -21.5q78 0 145 18.5t125.5 58t92 112.5t32.5 172v170q-60 -77 -156 -132t-214 -55q-181 0 -289.5 108.5t-108.5 291.5v606h117
v-592q0 -150 77.5 -228.5t215.5 -78.5q118 0 209 65t149 160v674h117v-989zM549 1415h104l267 -280h-134l-184 192l-184 -192h-133z" />
    <glyph glyph-name="ydieresis.ss01" 
d="M1032 -6q-2 -100 -31.5 -181t-77.5 -133.5t-113 -87.5t-133 -50t-142 -15q-98 0 -191.5 21.5t-153.5 56.5v108q57 -37 146.5 -58.5t183.5 -21.5q78 0 145 18.5t125.5 58t92 112.5t32.5 172v170q-60 -77 -156 -132t-214 -55q-181 0 -289.5 108.5t-108.5 291.5v606h117
v-592q0 -150 77.5 -228.5t215.5 -78.5q118 0 209 65t149 160v674h117v-989zM885 1262q0 -34 -24.5 -59t-59.5 -25t-60.5 25t-25.5 59t25.5 60t60.5 26t59.5 -26t24.5 -60zM473 1262q0 -34 -24.5 -59t-59.5 -25t-60.5 25t-25.5 59t25.5 60t60.5 26t59.5 -26t24.5 -60z" />
    <glyph glyph-name="ygrave.ss01" 
d="M1032 -6q-2 -100 -31.5 -181t-77.5 -133.5t-113 -87.5t-133 -50t-142 -15q-98 0 -191.5 21.5t-153.5 56.5v108q57 -37 146.5 -58.5t183.5 -21.5q78 0 145 18.5t125.5 58t92 112.5t32.5 172v170q-60 -77 -156 -132t-214 -55q-181 0 -289.5 108.5t-108.5 291.5v606h117
v-592q0 -150 77.5 -228.5t215.5 -78.5q118 0 209 65t149 160v674h117v-989zM705 1133h-130l-200 290h145z" />
    <glyph glyph-name="f_b" horiz-adv-x="1968" 
d="M979 793q61 93 165 153t242 60q212 0 351 -144t139 -370t-139 -370.5t-351 -144.5q-139 0 -243.5 61.5t-175.5 164.5v-203h-105v1288q-124 62 -266 62q-116 0 -186 -58.5t-70 -169.5v-139h346v-109h-346v-874h-115v874h-178v109h178v139q0 159 102.5 246.5t262.5 87.5
q145 0 272 -59v10l117 31v-645zM977 358q45 -116 151.5 -195t243.5 -79q167 0 277 111.5t110 296.5q0 186 -110 296.5t-277 110.5q-137 0 -243.5 -79t-151.5 -195v-267z" />
    <glyph glyph-name="f_f_b" horiz-adv-x="2603" 
d="M1614 793q61 93 165 153t242 60q212 0 351 -144t139 -370t-139 -370.5t-351 -144.5q-139 0 -243.5 61.5t-175.5 164.5v-203h-105v1303q-124 59 -266 59q-118 0 -187 -60t-69 -180v-139h346v-109h-346v-874h-115v874h-520v-874h-115v874h-178v109h178v113
q0 159 103.5 246.5t267.5 87.5q91 0 165.5 -23.5t158.5 -73.5q98 137 305 137q145 0 272 -59v8l117 31v-657zM858 983v139q0 64 19 119q-64 42 -127 61t-148 19q-121 0 -191.5 -57t-70.5 -168v-113h518zM1612 358q45 -116 151.5 -195t243.5 -79q167 0 277 111.5t110 296.5
q0 186 -110 296.5t-277 110.5q-137 0 -243.5 -79t-151.5 -195v-267z" />
    <glyph glyph-name="f_f_h" horiz-adv-x="2529" 
d="M1614 819q59 77 155 132t213 55q173 0 286.5 -110t113.5 -290v-606h-117v592q0 147 -82 227t-213 80q-117 0 -207.5 -65t-148.5 -160v-674h-117v1303q-124 59 -266 59q-118 0 -187 -60t-69 -180v-139h346v-109h-346v-874h-115v874h-520v-874h-115v874h-178v109h178v113
q0 159 103.5 246.5t267.5 87.5q91 0 165.5 -23.5t158.5 -73.5q98 137 305 137q145 0 272 -59v8l117 31v-631zM858 983v139q0 64 19 119q-64 42 -127 61t-148 19q-121 0 -191.5 -57t-70.5 -168v-113h518z" />
    <glyph glyph-name="f_f_j" horiz-adv-x="1759" 
d="M1593 -205q0 -76 -23 -130.5t-62.5 -83t-83.5 -41.5t-95 -13q-85 0 -147 24v109q59 -27 116 -27q78 0 128.5 42t50.5 137v1062h-502v-874h-115v874h-520v-874h-115v874h-178v109h178v113q0 159 103.5 246.5t267.5 87.5q91 0 165.5 -23.5t158.5 -73.5q46 68 126 102.5
t179 34.5q155 0 307 -79v-117q-150 88 -301 88q-117 0 -186.5 -58.5t-69.5 -173.5v-147h618v-1188zM340 1096v-113h518v147q0 58 16 111q-65 42 -126.5 61t-145.5 19q-121 0 -191.5 -57t-70.5 -168z" />
    <glyph glyph-name="f_f_k" horiz-adv-x="2379" 
d="M2320 983l-387 -483l439 -500h-138l-399 449h-221v-449h-117v1303q-124 59 -266 59q-118 0 -187 -60t-69 -180v-139h346v-109h-346v-874h-115v874h-520v-874h-115v874h-178v109h178v113q0 159 103.5 246.5t267.5 87.5q91 0 165.5 -23.5t158.5 -73.5q98 137 305 137
q145 0 272 -59v8l117 31v-893h227l344 426h135zM858 983v139q0 64 19 119q-64 42 -127 61t-148 19q-121 0 -191.5 -57t-70.5 -168v-113h518z" />
    <glyph glyph-name="f_h" horiz-adv-x="1894" 
d="M979 819q59 77 155.5 132t213.5 55q173 0 286 -110t113 -290v-606h-117v592q0 147 -82 227t-213 80q-117 0 -207.5 -65t-148.5 -160v-674h-117v1288q-124 62 -266 62q-116 0 -186 -58.5t-70 -169.5v-139h346v-109h-346v-874h-115v874h-178v109h178v139q0 159 102.5 246.5
t262.5 87.5q145 0 272 -59v10l117 31v-619z" />
    <glyph glyph-name="f_i" horiz-adv-x="1124" 
d="M340 983h618v-983h-116v874h-502v-874h-115v874h-178v109h178v139q0 159 102.5 246.5t262.5 87.5q153 0 307 -80v-116q-154 90 -301 90q-116 0 -186 -58.5t-70 -169.5v-139z" />
    <glyph glyph-name="f_j" horiz-adv-x="1124" 
d="M340 983h618v-1188q0 -76 -23 -130.5t-62.5 -83t-83.5 -41.5t-95 -13q-86 0 -147 24v109q59 -27 117 -27q78 0 128 42t50 137v1062h-502v-874h-115v874h-178v109h178v139q0 159 102.5 246.5t262.5 87.5q153 0 307 -80v-116q-154 90 -301 90q-116 0 -186 -58.5t-70 -169.5
v-139z" />
    <glyph glyph-name="f_k" horiz-adv-x="1744" 
d="M1686 983l-388 -483l439 -500h-138l-399 449h-221v-449h-117v1288q-124 62 -266 62q-116 0 -186 -58.5t-70 -169.5v-139h346v-109h-346v-874h-115v874h-178v109h178v139q0 159 102.5 246.5t262.5 87.5q145 0 272 -59v10l117 31v-881h227l344 426h136z" />
    <glyph glyph-name="f_l" horiz-adv-x="1144" 
d="M862 1397v10l117 31v-1438h-117v1288q-124 62 -266 62q-116 0 -186 -58.5t-70 -169.5v-139h346v-109h-346v-874h-115v874h-178v109h178v139q0 159 102.5 246.5t262.5 87.5q145 0 272 -59z" />
    <glyph glyph-name="uni0414.loclBGR" horiz-adv-x="1619" 
d="M172 -348h-117v465h152l534 1317h138l534 -1317h152v-465h-117v348h-1276v-348zM811 1298l-473 -1181h946z" />
    <glyph glyph-name="uni041B.loclBGR" horiz-adv-x="1390" 
d="M633 1434h125l608 -1434h-131l-541 1296l-538 -1296h-131z" />
    <glyph glyph-name="uni0424.loclBGR" horiz-adv-x="1837" 
d="M979 -211h-121v197q-173 6 -316 63.5t-240 154.5t-150.5 229t-53.5 284t53.5 284t150.5 229t240 154.5t316 63.5v197h121v-197q172 -6 315 -64t240.5 -154.5t151 -228.5t53.5 -284t-53.5 -284t-151 -228.5t-240.5 -154.5t-315 -64v-197zM221 717q0 -257 168.5 -430
t468.5 -185v1229q-152 -6 -274 -56t-200.5 -133t-120.5 -191.5t-42 -233.5zM979 1331v-1229q200 8 346.5 93t218.5 220t72 302q0 99 -26.5 189t-79.5 165.5t-128.5 131.5t-178.5 89.5t-224 38.5z" />
    <glyph glyph-name="uni0432.loclBGR" horiz-adv-x="1185" 
d="M1001 1122q0 -218 -225 -317q143 -27 232.5 -134.5t89.5 -260.5q0 -186 -128 -309.5t-341 -123.5q-107 0 -195.5 34t-155.5 101t-104 174t-37 244v261q0 318 126.5 491.5t365.5 173.5q167 0 269.5 -96.5t102.5 -237.5zM887 1114q0 95 -70.5 165.5t-187.5 70.5
q-175 0 -275 -133t-100 -426v-21l342 59q144 25 217.5 104.5t73.5 180.5zM256 530q0 -226 99.5 -336t273.5 -110q158 0 255 90t97 236q0 159 -107 251t-276 62l-344 -59z" />
    <glyph glyph-name="uni0433.loclBGR" horiz-adv-x="968" 
d="M868 74q-67 -44 -171.5 -70.5t-207.5 -26.5q-87 0 -158.5 15t-129 46.5t-89.5 85.5t-32 126q0 79 37 133.5t96 82.5t130.5 46.5t143 33t130.5 34.5t96 58.5t37 96.5q0 84 -75.5 124t-187.5 40q-181 0 -354 -88v111q175 84 363 84q73 0 137 -15.5t117.5 -47t84.5 -86
t31 -126.5q0 -78 -37 -133t-96 -83t-130 -46.5t-142.5 -33t-130.5 -34t-96 -57.5t-37 -96q0 -164 299 -164q96 0 198 28t174 76v-114z" />
    <glyph glyph-name="uni0434.loclBGR" horiz-adv-x="1265" 
d="M92 492q0 225 139.5 369.5t350.5 144.5q139 0 244.5 -62t174.5 -164v203h105v-983q0 -121 -44 -214.5t-119 -148.5t-167 -82.5t-196 -27.5q-212 0 -394 92v113q184 -99 379 -99q69 0 130 12t116 40t94.5 69.5t62.5 104.5t23 141v195q-61 -96 -165.5 -157t-243.5 -61
q-211 0 -350.5 144.5t-139.5 370.5zM991 625q-45 116 -151.5 195t-243.5 79q-167 0 -277 -110.5t-110 -296.5q0 -185 110 -296.5t277 -111.5q136 0 243 75t152 185v281z" />
    <glyph glyph-name="uni0436.loclBGR" horiz-adv-x="1507" 
d="M150 0h-132l414 500l-362 483h129l329 -434h168v885h115v-885h168l330 434h129l-363 -483l414 -500h-131l-375 442h-172v-442h-115v442h-172z" />
    <glyph glyph-name="uni0438.loclBGR" 
d="M915 983h117v-983h-106v176q-58 -81 -157.5 -140t-223.5 -59q-181 0 -289.5 108.5t-108.5 291.5v606h117v-592q0 -150 77.5 -228.5t215.5 -78.5q118 0 209 65t149 160v674z" />
    <glyph glyph-name="uni0439.loclBGR" 
d="M872 1227q-115 -84 -274 -84q-160 0 -272 84v108q122 -90 272 -90t274 90v-108zM915 983h117v-983h-106v176q-58 -81 -157.5 -140t-223.5 -59q-181 0 -289.5 108.5t-108.5 291.5v606h117v-592q0 -150 77.5 -228.5t215.5 -78.5q118 0 209 65t149 160v674z" />
    <glyph glyph-name="uni043A.loclBGR" horiz-adv-x="1048" 
d="M1034 0h-137l-399 449h-222v-449h-116v1434h116v-877h228l344 426h135l-387 -483z" />
    <glyph glyph-name="uni043B.loclBGR" horiz-adv-x="1085" 
d="M1049 0h-129l-377 852l-379 -852h-129l446 983h123z" />
    <glyph glyph-name="uni043F.loclBGR" 
d="M264 807q58 80 158.5 139.5t222.5 59.5q173 0 286 -110t113 -290v-606h-116v592q0 147 -82 227t-213 80q-117 0 -208.5 -65t-148.5 -160v-674h-116v983h104v-176z" />
    <glyph glyph-name="uni0442.loclBGR" horiz-adv-x="1824" 
d="M276 0h-116v983h104v-164q56 72 148.5 129.5t210.5 57.5q113 0 195.5 -50.5t123.5 -140.5q167 191 373 191q168 0 265 -107.5t97 -277.5v-621h-114v623q0 123 -70 199.5t-190 76.5q-103 0 -185.5 -56.5t-136.5 -133.5q6 -44 6 -88v-621h-117v623q0 123 -70 199.5
t-190 76.5q-57 0 -111 -20t-96 -53t-72.5 -66t-54.5 -70v-690z" />
    <glyph glyph-name="uni0446.loclBGR" horiz-adv-x="1249" 
d="M1032 193q0 -101 101 -101h53v-364h-107v264q-153 14 -164 172q-59 -78 -155 -132.5t-215 -54.5q-181 0 -289.5 108.5t-108.5 291.5v606h117v-592q0 -150 77.5 -228.5t215.5 -78.5q118 0 209 65t149 160v674h117v-790z" />
    <glyph glyph-name="uni0448.loclBGR" horiz-adv-x="1824" 
d="M1548 983h117v-983h-104v164q-56 -72 -148.5 -129.5t-210.5 -57.5q-113 0 -195.5 50.5t-123.5 140.5q-167 -191 -373 -191q-168 0 -265.5 107.5t-97.5 277.5v621h115v-623q0 -123 70 -199.5t190 -76.5q103 0 185.5 56.5t136.5 133.5q-6 43 -6 88v621h116v-623
q0 -123 70 -199.5t190 -76.5q57 0 111 20t96 53t72.5 66t54.5 70v690z" />
    <glyph glyph-name="uni0449.loclBGR" horiz-adv-x="1884" 
d="M1665 193q0 -101 100 -101h56v-364h-109v264q-146 14 -162 160q-58 -70 -147 -122.5t-201 -52.5t-194.5 50t-126.5 137q-163 -187 -369 -187q-168 0 -266.5 108t-98.5 277v621h117v-623q0 -123 70 -199.5t190 -76.5q101 0 183 56t139 134q-8 39 -8 88v621h116v-623
q0 -123 70 -199.5t190 -76.5q57 0 111 20t96 53t72.5 66t54.5 70v690h117v-790z" />
    <glyph glyph-name="uni044E.loclBGR" horiz-adv-x="1665" 
d="M1573 492q0 -121 -43 -220t-115.5 -162.5t-164.5 -98t-193 -34.5q-128 0 -239 52t-187 159t-88 250h-267v-438h-116v1434h116v-889h267q12 143 88 250t187 159t239 52q101 0 193 -34.5t164.5 -97.5t115.5 -162t43 -220zM655 492q0 -186 115.5 -295t286.5 -109
q169 0 284 109t115 295t-115 294.5t-284 108.5q-111 0 -201.5 -46.5t-145.5 -139.5t-55 -217z" />
    <glyph glyph-name="uni0430.ss01" horiz-adv-x="1263" 
d="M999 203q-152 -226 -415 -226q-212 0 -353 145t-141 370t140.5 369.5t353.5 144.5q263 0 415 -226v203h105v-983h-105v203zM207 492q0 -186 111.5 -297t277.5 -111q138 0 243 78.5t150 195.5v267q-45 117 -150 195.5t-243 78.5q-166 0 -277.5 -111.5t-111.5 -295.5z" />
    <glyph glyph-name="uni0437.ss01" horiz-adv-x="935" 
d="M778 672q0 -104 -53 -184t-178 -134q144 -24 234.5 -130.5t90.5 -260.5q0 -134 -66.5 -234.5t-178 -151t-252.5 -50.5q-202 0 -342 94v111q139 -99 327 -99q172 0 284 86t112 244t-110.5 252t-274.5 57l-129 -28v108l145 33q149 36 212 107.5t63 173.5q0 111 -77.5 172
t-195.5 61q-178 0 -330 -94v108q155 95 338 95q162 0 271.5 -90t109.5 -246z" />
    <glyph glyph-name="uni0443.ss01" 
d="M1032 -6q-2 -100 -31.5 -181t-77.5 -133.5t-113 -87.5t-133 -50t-142 -15q-98 0 -191.5 21.5t-153.5 56.5v108q57 -37 146.5 -58.5t183.5 -21.5q78 0 145 18.5t125.5 58t92 112.5t32.5 172v170q-60 -77 -156 -132t-214 -55q-181 0 -289.5 108.5t-108.5 291.5v606h117
v-592q0 -150 77.5 -228.5t215.5 -78.5q118 0 209 65t149 160v674h117v-989z" />
    <glyph glyph-name="zero.osf" horiz-adv-x="1341" 
d="M1241 532q0 -103 -37 -201t-105.5 -177.5t-179.5 -128t-247 -48.5q-137 0 -248.5 48.5t-180.5 128t-106 177.5t-37 201q0 83 22.5 162.5t70 150.5t114 125t161 85.5t204.5 31.5t203.5 -31.5t160 -85.5t113.5 -125t69.5 -150.5t22.5 -162.5zM223 532q0 -86 29.5 -164
t84 -140t141.5 -99t194 -37q106 0 192.5 37t141 99t83.5 140t29 164t-29 164t-83.5 140.5t-141 99.5t-192.5 37q-107 0 -194 -37t-141.5 -99.5t-84 -140.5t-29.5 -164z" />
    <glyph glyph-name="one.osf" horiz-adv-x="864" 
d="M453 1065h88v-948h272v-117h-698v117h305v817l-305 -115v117z" />
    <glyph glyph-name="two.osf" horiz-adv-x="1081" 
d="M973 0h-877v76q0 45 11 84.5t26 68.5t46 58.5t53.5 47t68 41.5t70 34.5t78 33.5t75.5 33q18 8 61.5 27t64.5 29.5t56.5 29.5t54 36t39 41t29.5 52.5t9 61.5q0 98 -85 159.5t-212 61.5q-194 0 -402 -121v121q192 112 410 112q175 0 293.5 -92t118.5 -243q0 -33 -7 -63.5
t-17.5 -55t-29.5 -48.5t-36 -41t-45 -36.5t-48 -32t-53 -29t-53 -25.5t-55.5 -24.5t-51.5 -23.5q-23 -10 -64 -28.5t-63 -28.5t-55.5 -26.5t-51.5 -28.5t-40.5 -30t-34 -34.5t-19.5 -37.5t-8 -44l744 2v-117z" />
    <glyph glyph-name="three.osf" horiz-adv-x="1107" 
d="M954 715q0 -110 -61.5 -197.5t-165.5 -116.5q55 -14 103 -40.5t90.5 -68.5t67 -105.5t24.5 -141.5q0 -76 -26.5 -141t-72.5 -111t-106.5 -78.5t-129.5 -48.5t-142 -16q-258 0 -439 90v121q176 -97 428 -97q73 0 138 17.5t118 51t84 90t31 128.5q0 61 -19 109.5t-51 80.5
t-76 53.5t-91 30.5t-99 9h-186v117l174 -2q134 -1 212.5 73.5t78.5 182.5q0 123 -90 196.5t-242 73.5q-195 0 -385 -103v119q181 96 401 96q190 0 311 -103.5t121 -268.5z" />
    <glyph glyph-name="four.osf" horiz-adv-x="1214" 
d="M770 1065h131v-954h260v-113h-260v-326h-121v326h-741v108zM780 111v782l-598 -782h598z" />
    <glyph glyph-name="five.osf" horiz-adv-x="1087" 
d="M184 1065h756v-117h-641l-31 -479q131 41 260 41q90 0 171.5 -23.5t152.5 -72.5t113.5 -135t42.5 -199q0 -97 -39.5 -179t-107 -136.5t-159 -84.5t-194.5 -30q-220 0 -406 94v115q186 -97 392 -97q171 0 281 85.5t110 232.5q0 70 -22.5 125.5t-60.5 91t-90 59t-107 33.5
t-116 10q-168 0 -350 -65z" />
    <glyph glyph-name="six.osf" horiz-adv-x="1200" 
d="M233 686q191 170 429 170q82 0 160 -27.5t143.5 -79t105 -136t39.5 -189.5t-38 -191t-102 -141t-146 -85t-173 -30q-261 0 -399.5 183.5t-138.5 505.5q0 190 49.5 337t134 235t189 132.5t223.5 44.5q161 0 305 -78v-114q-145 77 -303 77q-70 0 -135 -20t-127 -66.5
t-108.5 -116t-76 -175t-31.5 -236.5zM238 559q20 -227 127 -348t278 -121q68 0 129 20t109.5 59.5t77 104t28.5 146.5q0 86 -30 150.5t-81.5 101t-112.5 54t-130 17.5q-105 0 -209 -47.5t-186 -136.5z" />
    <glyph glyph-name="seven.osf" horiz-adv-x="987" 
d="M45 1065h916v-109l-594 -1284h-131l589 1276h-780v117z" />
    <glyph glyph-name="eight.osf" horiz-adv-x="1259" 
d="M158 1067q0 66 30.5 127t87 111t148 80t203.5 30q104 0 194 -31.5t150 -83.5t94.5 -118.5t36.5 -137.5q1 -107 -54 -202t-159 -166q262 -112 262 -330q0 -72 -31.5 -137t-92.5 -117.5t-162 -83.5t-230 -31q-244 0 -385 115t-141 287q0 110 66.5 214.5t189.5 172.5
q-207 110 -207 301zM633 657q-52 17 -166 60q-113 -56 -175.5 -143t-62.5 -183q0 -139 109 -220t299 -81q174 0 283.5 72t109.5 178q0 52 -16.5 91.5t-43 67t-74.5 53t-96.5 44.5t-123.5 46q-10 3 -15 5t-13 5t-15 5zM981 1024q0 113 -98.5 196t-257.5 83q-153 0 -248.5 -69
t-95.5 -167q0 -36 10 -67.5t25 -55.5t43.5 -46.5t53.5 -38.5t67 -34t72 -29.5t81 -29.5q26 -8 76 -24t77 -25q93 61 144 140t51 167z" />
    <glyph glyph-name="nine.osf" horiz-adv-x="1173" 
d="M76 641q0 139 65.5 242.5t168 153.5t225.5 50q260 0 399 -183t139 -505q0 -153 -33 -279t-89 -212t-132.5 -145t-162 -86t-179.5 -27q-164 0 -305 78v114q147 -78 303 -78q69 0 134 20t127 67t108 116t75 174.5t31 235.5q-186 -168 -426 -168q-82 0 -160 27.5t-143.5 79
t-105 136t-39.5 189.5zM199 645q0 -86 30 -150.5t81.5 -101t112.5 -54t130 -17.5q104 0 206.5 47t186.5 135q-20 229 -126 350t-277 121q-68 0 -129 -20t-109.5 -59.5t-77 -104t-28.5 -146.5z" />
    <glyph glyph-name="zero.sinf" horiz-adv-x="888" 
d="M813 213q0 -194 -93 -313t-276 -119t-275.5 119t-92.5 313t92.5 313t275.5 119t276 -119t93 -313zM178 213q0 -161 65.5 -248.5t200.5 -87.5t201 87.5t66 248.5t-66 248.5t-201 87.5t-200.5 -87.5t-65.5 -248.5z" />
    <glyph glyph-name="one.sinf" horiz-adv-x="544" 
d="M281 631h75v-740h152v-96h-442v96h190v631l-178 -65v96z" />
    <glyph glyph-name="two.sinf" horiz-adv-x="722" 
d="M92 565q118 80 268 80q130 0 207.5 -59t77.5 -164q0 -50 -19 -94t-56.5 -80.5t-72 -62t-87.5 -56.5q-9 -5 -38 -22.5t-39 -23.5t-34.5 -21.5t-34.5 -24t-28 -24t-25.5 -27.5l-17.5 -28t-14 -32.5t-5 -34.5h477v-96h-588v49q0 69 20 123t67.5 98.5t77 65t96.5 59.5
q4 3 6 4t5.5 3t6.5 4q103 62 133 88q68 59 68 135q0 61 -50 94t-141 33q-132 0 -260 -88v102z" />
    <glyph glyph-name="three.sinf" horiz-adv-x="739" 
d="M635 418q0 -64 -34.5 -115t-90.5 -70q66 -21 112 -72t46 -138q0 -116 -86.5 -179t-219.5 -63q-168 0 -290 55v101q116 -62 282 -62q98 0 156.5 37.5t58.5 116.5q0 149 -202 149h-129v96h116q89 0 136 37.5t47 98.5q0 65 -52.5 103t-146.5 38q-130 0 -252 -64v101
q117 57 264 57q129 0 207 -62.5t78 -164.5z" />
    <glyph glyph-name="four.sinf" horiz-adv-x="813" 
d="M498 631h110v-555h158v-94h-158v-187h-100v187h-467v90zM510 76v418l-342 -418h342z" />
    <glyph glyph-name="five.sinf" horiz-adv-x="731" 
d="M125 631h502v-96h-404l-16 -240q75 20 143 20q62 0 116.5 -14.5t101 -44.5t73.5 -83.5t27 -125.5q0 -124 -91.5 -195t-232.5 -71q-155 0 -268 55v98q109 -59 256 -59q106 0 168.5 44t62.5 128q0 174 -248 174q-114 0 -217 -39z" />
    <glyph glyph-name="six.sinf" horiz-adv-x="786" 
d="M180 236q121 79 262 79q72 0 135 -28t106.5 -89t43.5 -145q0 -129 -85 -200.5t-214 -71.5q-177 0 -264.5 110t-87.5 308q0 222 104.5 334t274.5 112q113 0 202 -47v-98q-85 49 -200 49t-192 -75t-85 -238zM180 135q12 -130 73.5 -195t166.5 -65q92 0 148.5 42t56.5 132
q0 91 -58.5 131.5t-150.5 40.5q-134 0 -236 -86z" />
    <glyph glyph-name="seven.sinf" horiz-adv-x="649" 
d="M283 -205h-111l332 740h-467v96h577v-92z" />
    <glyph glyph-name="eight.sinf" horiz-adv-x="817" 
d="M100 430q0 86 79.5 150.5t226.5 64.5q136 0 222 -67t89 -162q2 -59 -27.5 -115t-87.5 -96q143 -70 143 -197q0 -95 -84.5 -161t-248.5 -66q-162 0 -251 70.5t-89 173.5q0 63 35.5 123.5t105.5 101.5q-113 70 -113 180zM418 172q-79 21 -117 37q-62 -29 -94.5 -76.5
t-32.5 -95.5q0 -76 63 -119t179 -43q101 0 164 35.5t63 93.5q0 29 -13 53t-26.5 38t-50 30t-53 21.5t-66.5 20.5q-11 3 -16 5zM616 397q0 65 -56.5 109.5t-153.5 44.5q-91 0 -146 -34.5t-55 -86.5q0 -20 6 -37.5t13 -30t23 -24.5t26.5 -19t33.5 -16.5t34 -13t38 -12
t35 -11.5q86 -22 104 -28q48 31 73 73.5t25 85.5z" />
    <glyph glyph-name="nine.sinf" horiz-adv-x="786" 
d="M59 373q0 128 86 200t215 72q175 0 263 -110t88 -308q0 -222 -104.5 -334t-274.5 -112q-114 0 -203 47v98q88 -49 201 -49q55 0 100.5 16.5t84.5 52t63 98t28 146.5q-121 -79 -260 -79q-73 0 -136.5 28t-107 89t-43.5 145zM367 551q-92 0 -148.5 -42t-56.5 -132
q0 -91 58.5 -131.5t150.5 -40.5q134 0 235 88q-12 129 -73.5 193.5t-165.5 64.5z" />
    <glyph glyph-name="zero.sups" horiz-adv-x="888" 
d="M813 1188q0 -194 -93 -313t-276 -119t-275.5 119t-92.5 313t92.5 313t275.5 119t276 -119t93 -313zM178 1188q0 -161 65.5 -248.5t200.5 -87.5t201 87.5t66 248.5t-66 248.5t-201 87.5t-200.5 -87.5t-65.5 -248.5z" />
    <glyph glyph-name="one.sups" horiz-adv-x="544" 
d="M281 1597h75v-739h152v-96h-442v96h190v631l-178 -66v97z" />
    <glyph glyph-name="two.sups" horiz-adv-x="724" 
d="M92 1540q118 80 268 80q130 0 207.5 -59t77.5 -164q0 -50 -19 -94t-56.5 -80.5t-72 -62t-87.5 -56.5q-9 -5 -38 -22.5t-39 -23.5t-34.5 -21.5t-34.5 -24t-28 -24t-25.5 -27.5l-17.5 -28t-14 -32.5t-5 -34.5h477v-96h-588v49q0 69 20 123t67.5 98.5t77 65t96.5 59.5
q4 3 6 4t5.5 3t6.5 4q103 62 133 88q68 59 68 135q0 61 -50 94t-141 33q-132 0 -260 -88v102z" />
    <glyph glyph-name="three.sups" horiz-adv-x="739" 
d="M635 1393q0 -64 -34.5 -115t-90.5 -70q66 -20 112 -72t46 -139q0 -116 -86.5 -178.5t-219.5 -62.5q-168 0 -290 55v100q114 -61 282 -61q98 0 156.5 37.5t58.5 116.5q0 149 -202 149h-129v96h116q89 0 136 37t47 98q0 65 -52.5 103.5t-146.5 38.5q-130 0 -252 -64v101
q117 57 264 57q129 0 207 -62.5t78 -164.5z" />
    <glyph glyph-name="four.sups" horiz-adv-x="813" 
d="M498 1597h110v-555h158v-94h-158v-186h-100v186h-467v90zM510 1042v418l-342 -418h342z" />
    <glyph glyph-name="five.sups" horiz-adv-x="731" 
d="M125 1597h502v-96h-404l-16 -239q75 20 143 20q62 0 116.5 -14.5t101 -44.5t73.5 -83.5t27 -125.5q0 -124 -91.5 -195t-232.5 -71q-155 0 -268 55v98q109 -59 256 -59q106 0 168.5 44t62.5 128q0 174 -248 174q-114 0 -217 -39z" />
    <glyph glyph-name="six.sups" horiz-adv-x="786" 
d="M180 1210q122 80 262 80q72 0 135 -28t106.5 -89t43.5 -145q0 -129 -85 -200.5t-214 -71.5q-177 0 -264.5 110t-87.5 308q0 222 104.5 334t274.5 112q113 0 202 -47v-98q-85 49 -200 49q-54 0 -100.5 -17t-85.5 -52.5t-63 -98t-28 -146.5zM180 1110q12 -130 73.5 -195
t166.5 -65q92 0 148.5 42t56.5 132q0 91 -58.5 131.5t-150.5 40.5q-134 0 -236 -86z" />
    <glyph glyph-name="seven.sups" horiz-adv-x="649" 
d="M283 762h-111l332 739h-467v96h577v-92z" />
    <glyph glyph-name="eight.sups" horiz-adv-x="817" 
d="M100 1405q0 86 79.5 150.5t226.5 64.5q136 0 222 -67t89 -162q2 -59 -27.5 -115t-87.5 -96q143 -70 143 -197q0 -95 -84.5 -161t-248.5 -66q-162 0 -251 70t-89 173q0 63 35.5 124t105.5 102q-113 70 -113 180zM418 1147q-79 21 -117 37q-62 -29 -94.5 -76.5t-32.5 -95.5
q0 -76 63 -119t179 -43q101 0 164 35.5t63 93.5q0 29 -13 53t-26.5 38t-50 30t-53 21.5t-66.5 20.5q-11 3 -16 5zM616 1372q0 65 -56.5 109.5t-153.5 44.5q-91 0 -146 -34.5t-55 -86.5q0 -20 6 -37.5t13 -30t23 -24.5t26.5 -19t33.5 -16.5t34 -13t38 -12t35 -11.5
q71 -18 104 -29q48 31 73 74t25 86z" />
    <glyph glyph-name="nine.sups" horiz-adv-x="786" 
d="M59 1348q0 128 86 200t215 72q175 0 263 -110t88 -308q0 -222 -104.5 -334t-274.5 -112q-114 0 -203 47v98q88 -49 201 -49q55 0 100.5 16.5t84.5 52t63 98t28 146.5q-122 -80 -260 -80q-72 0 -136 28t-107.5 89.5t-43.5 145.5zM367 1526q-92 0 -148.5 -42t-56.5 -132
q0 -91 58.5 -131.5t150.5 -40.5q134 0 235 88q-12 129 -73.5 193.5t-165.5 64.5z" />
    <glyph glyph-name="zero.tf" horiz-adv-x="1275" 
d="M1198 696q0 -156 -36.5 -287t-106 -227.5t-176.5 -150.5t-242 -54t-242 54t-176 150.5t-105 227.5t-36 287q0 211 62 371t190 254t307 94q135 0 242 -53.5t176.5 -150t106 -227.5t36.5 -288zM201 696q0 -281 113.5 -442.5t322.5 -161.5q211 0 324.5 161.5t113.5 442.5
t-113.5 442.5t-324.5 161.5q-209 0 -322.5 -161.5t-113.5 -442.5z" />
    <glyph glyph-name="one.tf" horiz-adv-x="1275" 
d="M653 1393h88v-1276h437v-117h-1031v117h474v1145l-410 -152v117z" />
    <glyph glyph-name="two.tf" horiz-adv-x="1275" 
d="M168 1284q199 131 455 131q223 0 353 -94.5t130 -263.5q0 -69 -22 -131t-56.5 -108.5t-91 -93t-109.5 -80t-127 -73.5q-178 -95 -247 -147q-162 -121 -179 -275q-2 -17 -2 -34l867 2v-117h-1000v61q0 55 10 106t24.5 92.5t41 81.5t51 70t63 62t67.5 53t75 49t75 43.5
t77 40.5q60 32 98.5 54.5t85 53.5t74.5 59.5t53.5 64.5t37 78t11.5 90q0 116 -96.5 180t-272.5 64q-232 0 -446 -140v121z" />
    <glyph glyph-name="three.tf" horiz-adv-x="1275" 
d="M1090 1042q0 -110 -63 -197t-173 -116q58 -14 107.5 -40.5t92.5 -68.5t68 -105.5t25 -141.5q0 -189 -141.5 -292.5t-370.5 -103.5q-288 0 -500 97v121q210 -106 490 -103q190 0 297.5 71t107.5 216q0 148 -107.5 215.5t-289.5 67.5h-221v116l209 -2q175 -1 262.5 71.5
t87.5 184.5q0 121 -97.5 196t-279.5 75q-225 0 -434 -107v119q202 100 448 100q222 0 352 -104.5t130 -268.5z" />
    <glyph glyph-name="four.tf" horiz-adv-x="1275" 
d="M829 1393h134v-955h260v-112h-260v-326h-121v326h-797v108zM842 438v791l-645 -791h645z" />
    <glyph glyph-name="five.tf" horiz-adv-x="1275" 
d="M229 1393h850v-117h-735l-31 -479q134 41 297 41q88 0 165 -14t146.5 -46.5t119.5 -81.5t79 -122.5t29 -165.5q0 -197 -149 -314t-390 -117q-271 0 -463 95v114q190 -96 449 -96q199 0 314.5 84t115.5 234q0 87 -35 150.5t-99.5 99.5t-143.5 52.5t-177 16.5
q-199 0 -387 -65z" />
    <glyph glyph-name="six.tf" horiz-adv-x="1275" 
d="M244 682q213 174 469 174q89 0 171.5 -27t150 -79t107.5 -136.5t40 -189.5q0 -140 -66.5 -243t-176 -153.5t-245.5 -50.5q-190 0 -319.5 85t-190.5 237.5t-61 366.5q0 192 46 337.5t130.5 234.5t196 133t249.5 44q176 0 320 -78v-114q-145 77 -317 77q-85 0 -158 -20.5
t-137 -67t-109 -117t-71.5 -175.5t-28.5 -238zM248 557q22 -230 133.5 -348.5t304.5 -118.5q107 0 189 34t133 110t51 186q0 86 -30.5 150.5t-84 101t-118.5 54t-142 17.5q-121 0 -234.5 -47.5t-201.5 -138.5z" />
    <glyph glyph-name="seven.tf" horiz-adv-x="1275" 
d="M127 1393h1044v-109l-641 -1284h-131l637 1276h-909v117z" />
    <glyph glyph-name="eight.tf" horiz-adv-x="1275" 
d="M135 1067q0 66 31 127t90 111t157.5 80t221.5 30q116 0 212.5 -31.5t159 -83.5t97.5 -118.5t37 -137.5q2 -110 -53 -206.5t-160 -161.5q262 -112 262 -330q0 -73 -33 -137.5t-97.5 -117t-172 -83.5t-244.5 -31q-136 0 -244 32.5t-175 88t-102.5 127.5t-35.5 154
q0 113 65.5 217.5t190.5 169.5q-207 110 -207 301zM647 653q-114 31 -201 64q-115 -51 -177 -139t-62 -187q0 -138 112.5 -219.5t325.5 -81.5q191 0 307.5 71.5t116.5 178.5q0 56 -24 101t-53 73t-92.5 55.5t-102 39.5t-122.5 36q-19 5 -28 8zM1018 1024q0 115 -103 197
t-284 82q-173 0 -274 -68t-101 -168q0 -55 22.5 -99t54 -71.5t84.5 -52t93.5 -38t101.5 -30.5q19 -5 29 -8q24 -7 85.5 -24t94.5 -27q95 54 146 134t51 173z" />
    <glyph glyph-name="nine.tf" horiz-adv-x="1275" 
d="M94 969q0 106 38.5 191.5t105 140.5t154 84.5t188.5 29.5q284 0 428.5 -181.5t144.5 -506.5q0 -192 -46.5 -337.5t-130.5 -234.5t-196 -133.5t-250 -44.5q-178 0 -319 78v115q147 -78 315 -78q86 0 159 20.5t137 67t108.5 117.5t71 176t28.5 238q-210 -174 -467 -174
q-89 0 -171.5 27t-150 79t-107.5 136.5t-40 189.5zM217 973q0 -86 30.5 -150.5t84 -101.5t118.5 -54.5t142 -17.5q119 0 232.5 47.5t201.5 137.5q-20 229 -132.5 349t-305.5 120q-106 0 -187.5 -34t-132.5 -110t-51 -186z" />
    <glyph glyph-name="zero.tosf" horiz-adv-x="1275" 
d="M1208 532q0 -82 -22.5 -161.5t-70 -150.5t-114 -125t-160.5 -86t-204 -32q-136 0 -247 48.5t-179.5 128t-105.5 177.5t-37 201q0 83 22.5 162.5t69.5 150.5t113.5 125t160 85.5t203.5 31.5t204 -31.5t160.5 -85.5t113.5 -125t70 -150.5t23 -162.5zM190 532q0 -86 29 -164
t84 -140t141.5 -99t192.5 -37q107 0 194 37t141.5 99t83.5 140t29 164t-29 164t-83.5 140.5t-141.5 99.5t-194 37q-106 0 -192.5 -37t-141 -99.5t-84 -140.5t-29.5 -164z" />
    <glyph glyph-name="one.tosf" horiz-adv-x="1275" 
d="M651 1065h88v-948h437v-117h-1031v117h473v817l-409 -152v117z" />
    <glyph glyph-name="two.tosf" horiz-adv-x="1275" 
d="M1126 0h-985v76q0 54 17 102t42.5 83.5t67.5 67t80 53t93.5 42.5t94.5 33.5t95 27.5q95 26 152 46.5t107.5 51t72.5 70.5t22 95q0 104 -95 165.5t-263 61.5q-239 0 -443 -139v120q191 131 451 131q217 0 345 -91.5t128 -247.5q0 -63 -22.5 -114.5t-57.5 -87t-95 -67
t-117.5 -52.5t-143.5 -46l-80 -25t-78 -27t-76 -31.5t-64 -35.5t-54 -42.5t-33 -48.5t-13 -56l852 2v-117z" />
    <glyph glyph-name="three.tosf" horiz-adv-x="1275" 
d="M1079 715q0 -110 -62.5 -197.5t-170.5 -116.5q57 -14 106.5 -40.5t92 -68.5t67.5 -105.5t25 -141.5q0 -127 -67 -217.5t-179.5 -134t-259.5 -43.5q-295 0 -492 90v121q198 -100 484 -97q185 0 291 71.5t106 215.5q0 101 -53 166t-137.5 91t-200.5 26h-213v117l200 -2
q172 -1 259.5 72t87.5 184q0 121 -97.5 195.5t-275.5 74.5q-228 0 -426 -101v119q193 94 442 94q217 0 345 -104.5t128 -267.5z" />
    <glyph glyph-name="four.tosf" horiz-adv-x="1275" 
d="M821 1065h133v-954h271v-113h-271v-326h-120v326h-797v108zM834 111v790l-646 -790h646z" />
    <glyph glyph-name="five.tosf" horiz-adv-x="1275" 
d="M238 1065h837v-117h-723l-30 -479q134 41 294 41q84 0 159 -14t143 -47t117.5 -81.5t78.5 -122t29 -165.5q0 -197 -146.5 -313.5t-382.5 -116.5q-268 0 -458 94v115q192 -97 446 -97q194 0 306 84t112 234q0 87 -35 150.5t-98 99.5t-140.5 52.5t-171.5 16.5
q-194 0 -382 -65z" />
    <glyph glyph-name="six.tosf" horiz-adv-x="1275" 
d="M244 682q213 174 469 174q89 0 171.5 -27t150 -79t107.5 -136.5t40 -189.5q0 -140 -66.5 -243t-176 -153.5t-245.5 -50.5q-190 0 -319.5 85t-190.5 237.5t-61 366.5q0 192 46 337.5t130.5 234.5t196 133t249.5 44q176 0 320 -78v-114q-145 77 -317 77q-85 0 -158 -20.5
t-137 -67t-109 -117t-71.5 -175.5t-28.5 -238zM248 557q22 -230 133.5 -348.5t304.5 -118.5q107 0 189 34t133 110t51 186q0 86 -30.5 150.5t-84 101t-118.5 54t-142 17.5q-121 0 -234.5 -47.5t-201.5 -138.5z" />
    <glyph glyph-name="seven.tosf" horiz-adv-x="1275" 
d="M125 1065h1044v-109l-641 -1284h-131l637 1276h-909v117z" />
    <glyph glyph-name="eight.tosf" horiz-adv-x="1275" 
d="M135 1067q0 66 31 127t90 111t157.5 80t221.5 30q116 0 212.5 -31.5t159 -83.5t97.5 -118.5t37 -137.5q2 -110 -53 -206.5t-160 -161.5q262 -112 262 -330q0 -73 -33 -137.5t-97.5 -117t-172 -83.5t-244.5 -31q-136 0 -244 32.5t-175 88t-102.5 127.5t-35.5 154
q0 113 65.5 217.5t190.5 169.5q-207 110 -207 301zM649 653q-111 30 -200 64q-115 -51 -177.5 -139t-62.5 -187q0 -138 112.5 -219.5t325.5 -81.5q191 0 307.5 71.5t116.5 178.5q0 56 -24 101t-53 73t-92.5 55.5t-102 39.5t-122.5 36q-19 5 -28 8zM1020 1024q0 115 -103 197
t-284 82q-173 0 -274 -68t-101 -168q0 -55 22.5 -99t54 -71.5t84.5 -52t93.5 -38t101.5 -30.5q19 -5 29 -8q24 -7 85.5 -24t94.5 -27q95 54 146 134t51 173z" />
    <glyph glyph-name="nine.tosf" horiz-adv-x="1275" 
d="M94 641q0 106 38.5 191.5t105 140.5t154 84.5t188.5 29.5q284 0 428.5 -181.5t144.5 -506.5q0 -192 -46.5 -337.5t-130.5 -234.5t-196 -133t-250 -44q-178 0 -319 78v114q147 -78 315 -78q86 0 159 20.5t137 67t108.5 117.5t71 176t28.5 238q-210 -174 -467 -174
q-89 0 -171.5 27t-150 79t-107.5 136.5t-40 189.5zM217 645q0 -86 30.5 -150.5t84 -101t118.5 -54t142 -17.5q119 0 232.5 47.5t201.5 136.5q-20 229 -132.5 349t-305.5 120q-106 0 -187.5 -34t-132.5 -110t-51 -186z" />
    <glyph glyph-name="zero.dnom" horiz-adv-x="888" 
d="M813 418q0 -194 -93 -313t-276 -119t-275.5 119t-92.5 313t92.5 313t275.5 119t276 -119t93 -313zM178 418q0 -161 65.5 -248.5t200.5 -87.5t201 87.5t66 248.5t-66 248.5t-201 87.5t-200.5 -87.5t-65.5 -248.5z" />
    <glyph glyph-name="one.dnom" horiz-adv-x="544" 
d="M281 836h75v-740h152v-96h-442v96h190v631l-178 -65v96z" />
    <glyph glyph-name="two.dnom" horiz-adv-x="722" 
d="M92 770q118 80 268 80q130 0 207.5 -59t77.5 -164q0 -50 -19 -94t-56.5 -80.5t-72 -62t-87.5 -56.5q-9 -5 -38 -22.5t-39 -23.5t-34.5 -21.5t-34.5 -24t-28 -24t-25.5 -27.5l-17.5 -28t-14 -32.5t-5 -34.5h477v-96h-588v49q0 69 20 123t67.5 98.5t77 65t96.5 59.5
q4 3 6 4t5.5 3t6.5 4q103 62 133 88q68 59 68 135q0 61 -50 94t-141 33q-132 0 -260 -88v102z" />
    <glyph glyph-name="three.dnom" horiz-adv-x="739" 
d="M635 623q0 -64 -34.5 -115t-90.5 -70q66 -20 112 -72t46 -139q0 -116 -86.5 -178.5t-219.5 -62.5q-168 0 -290 55v100q114 -61 282 -61q99 0 157 37t58 116q0 150 -202 150h-129v96h116q89 0 136 37t47 98q0 65 -52.5 103.5t-146.5 38.5q-130 0 -252 -64v101
q117 57 264 57q129 0 207 -62.5t78 -164.5z" />
    <glyph glyph-name="four.dnom" horiz-adv-x="813" 
d="M498 836h110v-555h158v-95h-158v-186h-100v186h-467v90zM510 281v417l-342 -417h342z" />
    <glyph glyph-name="five.dnom" horiz-adv-x="731" 
d="M125 836h502v-97h-404l-16 -239q75 20 143 20q62 0 116.5 -14.5t101 -44.5t73.5 -83.5t27 -125.5q0 -124 -91.5 -195t-232.5 -71q-155 0 -268 55v98q109 -59 256 -59q106 0 168.5 44t62.5 128q0 174 -248 174q-114 0 -217 -39z" />
    <glyph glyph-name="six.dnom" horiz-adv-x="786" 
d="M180 440q122 80 262 80q72 0 135 -28t106.5 -89t43.5 -145q0 -129 -85 -200.5t-214 -71.5q-177 0 -264.5 109.5t-87.5 307.5q0 222 104.5 334.5t274.5 112.5q113 0 202 -47v-98q-85 49 -200 49q-54 0 -100.5 -17t-85.5 -52.5t-63 -98t-28 -146.5zM180 340
q12 -130 73.5 -195t166.5 -65q92 0 148.5 42t56.5 132q0 91 -58.5 131.5t-150.5 40.5q-134 0 -236 -86z" />
    <glyph glyph-name="seven.dnom" horiz-adv-x="649" 
d="M283 0h-111l332 739h-467v97h577v-93z" />
    <glyph glyph-name="eight.dnom" horiz-adv-x="817" 
d="M100 635q0 86 79.5 150.5t226.5 64.5q136 0 222 -67t89 -162q2 -59 -27.5 -115t-87.5 -96q143 -70 143 -197q0 -95 -84.5 -161t-248.5 -66q-162 0 -251 70t-89 173q0 63 35.5 124t105.5 102q-113 70 -113 180zM418 377q-79 21 -117 37q-62 -29 -94.5 -76.5t-32.5 -95.5
q0 -76 63 -119t179 -43q101 0 164 35.5t63 93.5q0 29 -13 53t-26.5 38t-50 30t-53 21.5t-66.5 20.5q-5 2 -8.5 3t-7.5 2zM616 602q0 65 -56.5 109.5t-153.5 44.5q-91 0 -146 -34.5t-55 -86.5q0 -20 6 -37.5t13 -30t23 -24.5t26.5 -19t33.5 -16.5t34 -13t38 -12t35 -11.5
q71 -18 104 -29q48 31 73 74t25 86z" />
    <glyph glyph-name="nine.dnom" horiz-adv-x="786" 
d="M59 578q0 128 86 200t215 72q175 0 263 -110t88 -308q0 -222 -104.5 -334t-274.5 -112q-114 0 -203 47v98q88 -49 201 -49q55 0 100.5 16.5t84.5 52t63 98t28 146.5q-122 -80 -260 -80q-72 0 -136 28t-107.5 89.5t-43.5 145.5zM367 756q-92 0 -148.5 -42t-56.5 -132
q0 -91 58.5 -131.5t150.5 -40.5q134 0 235 88q-12 129 -73.5 193.5t-165.5 64.5z" />
    <glyph glyph-name="zero.numr" horiz-adv-x="888" 
d="M813 983q0 -194 -93 -313t-276 -119t-275.5 119t-92.5 313t92.5 313t275.5 119t276 -119t93 -313zM178 983q0 -161 65.5 -248.5t200.5 -87.5t201 87.5t66 248.5t-66 248.5t-201 87.5t-200.5 -87.5t-65.5 -248.5z" />
    <glyph glyph-name="one.numr" horiz-adv-x="544" 
d="M281 1393h75v-740h152v-96h-442v96h190v631l-178 -65v96z" />
    <glyph glyph-name="two.numr" horiz-adv-x="724" 
d="M92 1335q118 80 268 80q130 0 207.5 -59t77.5 -164q0 -50 -19 -94t-56.5 -80.5t-72 -62t-87.5 -56.5q-11 -6 -38.5 -22.5t-38.5 -23.5t-34.5 -21.5t-34 -23.5l-28 -24t-26 -27t-18 -28t-13.5 -32.5t-5 -34.5h477v-97h-588v49q0 69 20 123t67.5 98.5t77 65t96.5 59.5
q4 3 6 4t5.5 3t6.5 4q103 62 133 88q68 59 68 135q0 61 -50 94t-141 33q-132 0 -260 -88v102z" />
    <glyph glyph-name="three.numr" horiz-adv-x="739" 
d="M635 1188q0 -64 -34.5 -114.5t-90.5 -69.5q66 -20 112 -72t46 -139q0 -116 -86.5 -179t-219.5 -63q-168 0 -290 55v101q116 -62 282 -62q98 0 156.5 37.5t58.5 116.5q0 149 -202 149h-129v96h116q89 0 136 37.5t47 98.5q0 65 -52.5 103t-146.5 38q-130 0 -252 -64v101
q117 57 264 57q129 0 207 -62.5t78 -164.5z" />
    <glyph glyph-name="four.numr" horiz-adv-x="813" 
d="M498 1393h110v-555h158v-95h-158v-186h-100v186h-467v91zM510 838v417l-342 -417h342z" />
    <glyph glyph-name="five.numr" horiz-adv-x="731" 
d="M125 1393h502v-97h-404l-16 -239q75 20 143 20q62 0 116.5 -14.5t101 -44.5t73.5 -83.5t27 -125.5q0 -124 -91.5 -195t-232.5 -71q-155 0 -268 55v98q109 -59 256 -59q106 0 168.5 44t62.5 128q0 174 -248 174q-114 0 -217 -39z" />
    <glyph glyph-name="six.numr" horiz-adv-x="786" 
d="M180 1006q121 79 262 79q72 0 135 -28t106.5 -89t43.5 -145q0 -129 -85 -200.5t-214 -71.5q-177 0 -264.5 110t-87.5 308q0 222 104.5 334t274.5 112q113 0 202 -47v-98q-85 49 -200 49t-192 -75t-85 -238zM180 905q12 -130 73.5 -195t166.5 -65q92 0 148.5 42t56.5 132
q0 91 -58.5 131.5t-150.5 40.5q-134 0 -236 -86z" />
    <glyph glyph-name="seven.numr" horiz-adv-x="649" 
d="M283 557h-111l332 739h-467v97h577v-93z" />
    <glyph glyph-name="eight.numr" horiz-adv-x="817" 
d="M100 1200q0 86 79.5 150.5t226.5 64.5q136 0 222 -67t89 -162q2 -59 -27.5 -115t-87.5 -96q143 -70 143 -197q0 -95 -84.5 -161t-248.5 -66q-162 0 -251 70.5t-89 173.5q0 63 35.5 123.5t105.5 101.5q-113 70 -113 180zM418 942q-79 21 -117 37q-62 -29 -94.5 -76.5
t-32.5 -95.5q0 -76 63 -119t179 -43q101 0 164 35.5t63 93.5q0 29 -13 53t-26.5 38t-50 30t-53 21.5t-66.5 20.5q-11 3 -16 5zM616 1167q0 65 -56.5 109.5t-153.5 44.5q-91 0 -146 -34.5t-55 -86.5q0 -20 6 -37.5t13 -30t23 -24.5t26.5 -19t33.5 -16.5t34 -13t38 -12
t35 -11.5q86 -22 104 -28q48 31 73 73.5t25 85.5z" />
    <glyph glyph-name="nine.numr" horiz-adv-x="786" 
d="M59 1143q0 128 86 200t215 72q175 0 263 -110t88 -308q0 -222 -104.5 -334t-274.5 -112q-114 0 -203 47v98q88 -49 201 -49q54 0 100.5 17t85 52.5t62.5 98t28 146.5q-122 -80 -260 -80q-73 0 -136.5 28t-107 89t-43.5 145zM367 1321q-92 0 -148.5 -42t-56.5 -132
q0 -91 58.5 -131.5t150.5 -40.5q134 0 235 88q-12 129 -73.5 193.5t-165.5 64.5z" />
    <glyph glyph-name="emdash.case" horiz-adv-x="1558" 
d="M1417 662h-1276v110h1276v-110z" />
    <glyph glyph-name="endash.case" horiz-adv-x="1177" 
d="M1036 662h-895v110h895v-110z" />
    <glyph glyph-name="hyphen.case" horiz-adv-x="1001" 
d="M141 772h719v-110h-719v110z" />
    <glyph glyph-name="guillemotleft.case" horiz-adv-x="978" 
d="M840 354h-125l-248 351v24l248 350h125l-256 -362zM487 354h-125l-247 351v24l247 350h125l-256 -362z" />
    <glyph glyph-name="guillemotright.case" horiz-adv-x="976" 
d="M614 354h-125l256 363l-256 362h125l248 -350v-24zM264 354h-125l256 363l-256 362h125l248 -350v-24z" />
    <glyph glyph-name="guilsinglleft.case" horiz-adv-x="626" 
d="M487 354h-125l-247 351v24l247 350h125l-256 -362z" />
    <glyph glyph-name="guilsinglright.case" horiz-adv-x="626" 
d="M264 354h-125l256 363l-256 362h125l248 -350v-24z" />
    <glyph glyph-name="cent.tf" horiz-adv-x="1275" 
d="M780 84q150 9 273 80v-117q-122 -61 -273 -67v-226h-102v226q-72 6 -138.5 28.5t-126 64.5t-103.5 99.5t-69.5 138t-25.5 174.5q0 96 26 177.5t70 139.5t103.5 101t125.5 66.5t138 31.5v228h102v-223q161 -10 262 -80v-113q-105 79 -262 86v-815zM678 893
q-71 -11 -131.5 -40.5t-109.5 -77.5t-77 -122t-28 -166q0 -89 28 -161.5t76.5 -120.5t109.5 -77.5t132 -39.5v805z" />
    <glyph glyph-name="currency.tf" horiz-adv-x="1275" 
d="M403 397l-172 -172l-81 82l167 168q-84 97 -84 242q0 144 84 241l-167 168l81 82l172 -172q100 68 234 68q133 0 233 -68l172 172l82 -82l-168 -168q84 -97 84 -241q0 -145 -84 -242l168 -168l-82 -82l-172 172q-98 -67 -233 -67q-136 0 -234 67zM348 717
q0 -126 81.5 -202.5t205.5 -76.5q126 0 207.5 76t81.5 203t-81.5 202.5t-207.5 75.5q-124 0 -205.5 -76t-81.5 -202z" />
    <glyph glyph-name="dollar.tf" horiz-adv-x="1275" 
d="M688 -266h-102v246q-243 16 -428 118v121q107 -63 236.5 -95t256.5 -32q381 0 381 242q0 61 -24.5 109.5t-67 80t-99 58.5t-120 45.5t-130.5 40t-130.5 42t-120 53t-99 71t-67 96.5t-24.5 131q0 86 35 153t96 108.5t137.5 64.5t165.5 28v244h102v-244q209 -12 365 -100
v-123q-81 51 -192.5 79.5t-221.5 28.5q-79 0 -142.5 -12.5t-115 -39t-79.5 -73t-28 -110.5t30 -113t81.5 -81t117.5 -57t139.5 -46.5t146.5 -44t139 -55t117.5 -74t81.5 -106t30 -146.5q0 -95 -37 -166.5t-102.5 -113.5t-147.5 -62.5t-180 -22.5v-243z" />
    <glyph glyph-name="Euro.tf" horiz-adv-x="1275" 
d="M350 504q40 -132 138 -227.5t220.5 -140t256.5 -44.5q124 0 243 39v-113q-128 -41 -268 -41q-158 0 -303.5 58t-259.5 180.5t-154 288.5h-182v102h164q-4 54 -4 84q0 50 6 96h-166v103h184q32 125 105 226.5t169.5 166t207 99t223.5 34.5q140 0 268 -41v-112
q-116 38 -244 38t-247 -45t-215.5 -140t-137.5 -226h656v-103h-680q-6 -46 -6 -96q0 -30 4 -84h682v-102h-660z" />
    <glyph glyph-name="sterling.tf" horiz-adv-x="1275" 
d="M1182 0h-1100v117h84q63 0 100 46.5t37 121.5v348h-156v112h156v199q0 122 39 214.5t108 147.5t154.5 82t186.5 27q168 0 299 -78v-116q-132 82 -285 82q-82 0 -149 -20.5t-119.5 -62t-81.5 -112.5t-29 -166v-197h483v-112h-483v-348q0 -127 -66 -168h822v-117z" />
    <glyph glyph-name="yen.tf" horiz-adv-x="1275" 
d="M1085 1393h136l-467 -746h309v-102h-365v-150h365v-102h-365v-293h-120v293h-361v102h361v150h-361v102h307l-469 746h135l449 -723z" />
    </font>
</defs>
</svg>
