<?xml version="1.0" standalone="no"?>
<!DOCTYPE svg PUBLIC "-//W3C//DTD SVG 1.1//EN" "http://www.w3.org/Graphics/SVG/1.1/DTD/svg11.dtd" >
<svg xmlns="http://www.w3.org/2000/svg" xmlns:xlink="http://www.w3.org/1999/xlink" version="1.1">
<metadata>
Created by FontForge 20170731 at Wed Oct 28 19:45:34 2020
 By Aleksey,,,
Copyright (c) 2014 by Fontfabric. All rights reserved.
</metadata>
<defs>
<font id="MullerBlack" horiz-adv-x="1218" >
  <font-face 
    font-family="Muller Black"
    font-weight="900"
    font-stretch="normal"
    units-per-em="2048"
    panose-1="0 0 0 0 0 0 0 0 0 0"
    ascent="1597"
    descent="-451"
    x-height="983"
    cap-height="1434"
    bbox="-338 -651 2822 2019"
    underline-thickness="102"
    underline-position="-358"
    unicode-range="U+0020-25CA"
  />
<missing-glyph horiz-adv-x="372" 
 />
    <glyph glyph-name="f_f" unicode="ff" horiz-adv-x="1574" 
d="M1579 1128q-54 31 -123 31q-52 0 -86.5 -25t-34.5 -77v-74h215v-344h-215v-639h-432v639h-282v-639h-433v639h-139v344h139v47q0 106 37.5 188t102.5 131.5t148 75t179 25.5q182 0 336 -72q113 129 350 129q134 0 238 -34v-345zM621 983h284v61v46q-61 34 -143 34
q-64 0 -102.5 -29.5t-38.5 -82.5v-29z" />
    <glyph glyph-name="f_f_i" unicode="ffi" horiz-adv-x="2111" 
d="M621 0h-433v639h-139v344h139v47q0 106 37.5 188t102.5 131.5t148 75t179 25.5q190 0 367 -82q142 139 418 139q185 0 395 -67v-336q-165 55 -303 55q-91 0 -144 -33t-53 -100v-43h693v-983h-431v639h-262v-639h-432v639h-282v-639zM621 1012v-29h284v57v52
q-63 32 -149 32q-61 0 -98 -29.5t-37 -82.5z" />
    <glyph glyph-name="f_f_l" unicode="ffl" horiz-adv-x="2140" 
d="M1370 1497q159 0 316 -55l370 41v-1483h-432v1122q-78 28 -139 25q-68 0 -109 -30.5t-41 -94.5v-39h183v-344h-183v-639h-432v639h-282v-639h-433v639h-139v344h139v47q0 106 37.5 188t102.5 131.5t148 75t179 25.5q188 0 365 -82q126 129 350 129zM905 983v59v50
q-63 32 -149 32q-61 0 -98 -29.5t-37 -82.5v-29h284z" />
    <glyph glyph-name=".notdef" horiz-adv-x="372" 
 />
    <glyph glyph-name=".null" horiz-adv-x="0" 
 />
    <glyph glyph-name="nonmarkingreturn" horiz-adv-x="682" 
 />
    <glyph glyph-name="space" unicode=" " horiz-adv-x="372" 
 />
    <glyph glyph-name="exclam" unicode="!" horiz-adv-x="632" 
d="M498 563h-363l-49 871h461zM557 199q0 -113 -68.5 -172.5t-171.5 -59.5q-102 0 -170.5 59.5t-68.5 172.5q0 112 68.5 171.5t170.5 59.5q103 0 171.5 -59t68.5 -172z" />
    <glyph glyph-name="quotedbl" unicode="&#x22;" horiz-adv-x="995" 
d="M877 887h-306v547h375zM389 887h-305v547h375z" />
    <glyph glyph-name="numbersign" unicode="#" horiz-adv-x="1495" 
d="M500 0h-377l59 258h-125v291h195l70 297h-162v291h231l62 258h376l-59 -258h166l59 258h379l-61 -258h125v-291h-193l-71 -297h161v-291h-229l-62 -258h-378l61 258h-166zM700 846l-71 -297h166l69 297h-164z" />
    <glyph glyph-name="dollar" unicode="$" horiz-adv-x="1302" 
d="M809 -244h-324v219q-228 27 -405 127v428q128 -84 264 -126t256 -42q92 0 128 16.5t36 53.5q0 23 -23.5 41t-63.5 31.5t-91.5 26.5t-108.5 30t-114 38t-108.5 55t-91.5 77t-63.5 107.5t-23.5 142.5q0 182 111.5 292.5t297.5 139.5v223h324v-223q211 -29 356 -106v-410
q-104 66 -229.5 102t-245.5 35q-127 0 -127 -63q0 -26 29.5 -46.5t77.5 -33t110 -29.5t126 -35t126 -51t110 -76t77.5 -112t29.5 -156q0 -111 -32.5 -194.5t-93 -136t-137.5 -82.5t-177 -42v-221z" />
    <glyph glyph-name="percent" unicode="%" horiz-adv-x="1968" 
d="M698 -123h-260l838 1679h260zM877 1077q0 -95 -33 -170.5t-90.5 -122.5t-131.5 -71.5t-159 -24.5q-86 0 -160.5 24.5t-132 71.5t-90.5 122.5t-33 170.5t33 170.5t90.5 122.5t132 71.5t160.5 24.5q85 0 159 -24.5t131.5 -71.5t90.5 -122.5t33 -170.5zM360 1077
q0 -44 23 -75t78 -31t77.5 31t22.5 75t-23 75.5t-77 31.5q-55 0 -78 -31.5t-23 -75.5zM1921 356q0 -95 -33 -170.5t-90.5 -122.5t-132 -71.5t-160.5 -24.5q-115 0 -206.5 41.5t-149 131.5t-57.5 216q0 95 33 171t90 123.5t131 72.5t159 25q86 0 160.5 -25t132 -72.5
t90.5 -123.5t33 -171zM1405 356q0 -44 22.5 -75t77.5 -31t78 31t23 75t-23.5 76.5t-77.5 32.5t-77 -32t-23 -77z" />
    <glyph glyph-name="ampersand" unicode="&#x26;" horiz-adv-x="1533" 
d="M1280 274l274 -274h-448l-80 76q-207 -109 -461 -109q-233 0 -370.5 106.5t-137.5 276.5q0 72 23 133.5t65 108.5t88 82t105 67q-156 168 -156 322q0 178 142 290.5t374 112.5q216 0 348 -109t132 -274q0 -54 -18.5 -104t-47.5 -89.5t-72 -77.5t-84.5 -65t-91.5 -55
l170 -170q60 102 60 215h376q0 -118 -49 -238.5t-141 -224.5zM799 1075q0 44 -28 71.5t-79 27.5q-58 0 -92.5 -33.5t-34.5 -79.5q0 -36 22 -72.5t68 -87.5q144 86 144 174zM469 395q0 -55 42 -84.5t120 -29.5q77 0 153 30l-225 217q-90 -61 -90 -133z" />
    <glyph glyph-name="quotesingle" unicode="'" horiz-adv-x="507" 
d="M389 887h-305v547h375z" />
    <glyph glyph-name="parenleft" unicode="(" horiz-adv-x="714" 
d="M375 1663h313q-213 -477 -213 -946t213 -946h-313q-148 199 -235 449.5t-87 496.5t87 496.5t235 449.5z" />
    <glyph glyph-name="parenright" unicode=")" horiz-adv-x="714" 
d="M27 1663h315q146 -200 233 -450.5t87 -495.5t-87 -495.5t-233 -450.5h-315q96 212 154.5 455.5t58.5 490.5t-58.5 490.5t-154.5 455.5z" />
    <glyph glyph-name="asterisk" unicode="*" horiz-adv-x="1091" 
d="M547 791l-119 -246l-309 211l170 153l-238 47l137 357l207 -125l-41 246h383l-39 -246l205 125l137 -357l-235 -47l168 -153l-309 -211z" />
    <glyph glyph-name="plus" unicode="+" horiz-adv-x="1130" 
d="M737 891h336v-344h-336v-336h-344v336h-336v344h336v334h344v-334z" />
    <glyph glyph-name="comma" unicode="," horiz-adv-x="585" 
d="M299 -293h-324l146 629h414z" />
    <glyph glyph-name="hyphen" unicode="-" horiz-adv-x="983" 
d="M92 659h799v-333h-799v333z" />
    <glyph glyph-name="period" unicode="." horiz-adv-x="581" 
d="M530 199q0 -113 -68 -172.5t-171 -59.5q-102 0 -171 59.5t-69 172.5q0 112 69 171.5t171 59.5q103 0 171 -59t68 -172z" />
    <glyph glyph-name="slash" unicode="/" horiz-adv-x="1021" 
d="M340 -125h-301l647 1684h301z" />
    <glyph glyph-name="zero" unicode="0" horiz-adv-x="1447" 
d="M66 696q0 120 23 226t74 199t126.5 160t186.5 105.5t249 38.5q137 0 248 -38.5t186.5 -105.5t126 -160t73.5 -199t23 -226t-23 -226t-73.5 -199t-126 -160t-186.5 -105.5t-248 -38.5q-138 0 -249 38.5t-186.5 105.5t-126.5 160t-74 199t-23 226zM911 696q0 169 -45 245.5
t-141 76.5q-97 0 -142.5 -76.5t-45.5 -245.5t45 -245t143 -76q96 0 141 76t45 245z" />
    <glyph glyph-name="one" unicode="1" horiz-adv-x="1034" 
d="M436 1393h344v-1006h215v-387h-909v387h238v559l-226 -84v402z" />
    <glyph glyph-name="two" unicode="2" horiz-adv-x="1271" 
d="M113 1276q236 149 522 149q113 0 209 -25t174 -77t123 -141t45 -207q0 -59 -15 -111.5t-38 -92t-59 -78t-69.5 -65t-78.5 -57.5q-24 -16 -75 -49.5t-75 -50.5t-53.5 -41t-44.5 -43h510v-385h-1118v191q1 82 24.5 154t52 118.5t88 99.5t94 77.5t107.5 71.5q19 13 29 19
q33 22 87.5 54t79.5 48.5t46.5 43.5t21.5 57q0 43 -35 65.5t-98 22.5q-219 0 -454 -176v428z" />
    <glyph glyph-name="three" unicode="3" horiz-adv-x="1241" 
d="M1122 1026q0 -103 -57 -183t-162 -116q122 -32 199.5 -118t77.5 -224q0 -90 -33 -162.5t-88.5 -119.5t-132.5 -78t-160.5 -44.5t-177.5 -13.5q-273 0 -506 88v406q199 -107 455 -107q194 3 194 101q0 37 -32 57t-91 20h-248l2 351h203q113 -3 113 67q0 84 -166 84
q-90 0 -205 -34.5t-201 -90.5v396q95 57 222.5 88.5t259.5 31.5q110 0 204 -23t169 -69t118 -125t43 -182z" />
    <glyph glyph-name="four" unicode="4" horiz-adv-x="1386" 
d="M692 1393h463v-840h174v-367h-174v-186h-426v186h-692v377zM729 553v326l-260 -326h260z" />
    <glyph glyph-name="five" unicode="5" horiz-adv-x="1239" 
d="M172 1393h946v-385l-534 2l-11 -142q75 11 123 11q78 0 146.5 -14t130.5 -46.5t106.5 -82t70.5 -124t26 -168.5q0 -104 -36.5 -187.5t-97.5 -136.5t-144.5 -88.5t-172.5 -50t-188 -14.5q-122 0 -244 25t-217 69v385q68 -45 175.5 -72.5t209.5 -27.5q109 0 176.5 32
t67.5 95q0 64 -71.5 95.5t-203.5 29.5q-173 0 -307 -41z" />
    <glyph glyph-name="six" unicode="6" horiz-adv-x="1376" 
d="M526 827q146 82 320 82q76 0 145.5 -17t130 -53t104.5 -88t69.5 -126t25.5 -162q0 -126 -46.5 -223t-127 -155.5t-181.5 -88t-218 -29.5q-350 0 -516 191t-166 544q0 150 38 272t103.5 205t156 139t192.5 81.5t216 25.5q244 0 430 -92v-366q-163 96 -334 96
q-69 0 -122 -11t-98.5 -37t-76 -73t-45.5 -115zM524 528q19 -117 70 -166t129 -49q65 0 108 34.5t43 96.5q0 69 -48 102.5t-124 33.5q-85 0 -178 -52z" />
    <glyph glyph-name="seven" unicode="7" horiz-adv-x="1210" 
d="M45 1393h1137v-299l-520 -1094h-510l479 1008h-586v385z" />
    <glyph glyph-name="eight" unicode="8" horiz-adv-x="1368" 
d="M113 1010q0 78 33 150t99.5 132.5t180 96.5t260.5 36q141 0 254 -35.5t180 -94t101.5 -127.5t33.5 -142q-1 -101 -45 -166t-127 -121q105 -56 164.5 -138.5t59.5 -207.5q0 -86 -36.5 -160.5t-109.5 -135t-196.5 -95.5t-284.5 -35q-133 0 -239.5 23t-176.5 62t-116.5 93
t-66.5 112.5t-20 123.5q0 109 60 197.5t143 134.5q-151 119 -151 297zM707 524q-114 35 -142 45q-43 -54 -43 -127q2 -56 46 -94.5t132 -38.5q68 0 106 27t38 67q0 46 -34 71t-103 50zM821 981q-2 45 -38.5 73.5t-108.5 28.5q-60 0 -93.5 -24.5t-33.5 -59.5q0 -45 36.5 -69
t110.5 -47q89 -29 90 -29q40 69 37 127z" />
    <glyph glyph-name="nine" unicode="9" horiz-adv-x="1376" 
d="M55 930q0 125 47 222.5t128 155.5t182 87.5t217 29.5q350 0 516 -191t166 -544q0 -150 -38 -272t-103.5 -205t-156 -139t-192.5 -81.5t-217 -25.5q-246 0 -428 92v367q159 -96 332 -96q142 0 227.5 52t114.5 183q-146 -82 -320 -82q-96 0 -180 28t-151 81.5t-105.5 140.5
t-38.5 197zM653 1079q-64 0 -106.5 -34.5t-42.5 -96.5q0 -69 47 -102t123 -33q87 0 178 51q-19 118 -69.5 166.5t-129.5 48.5z" />
    <glyph glyph-name="colon" unicode=":" horiz-adv-x="604" 
d="M532 760q0 -109 -65.5 -166t-165.5 -57q-97 0 -163 57.5t-66 165.5q0 109 65.5 166t163.5 57q100 0 165.5 -56.5t65.5 -166.5zM532 190q0 -110 -65.5 -166.5t-165.5 -56.5q-98 0 -163.5 57t-65.5 166q0 108 66 166t163 58q100 0 165.5 -57.5t65.5 -166.5z" />
    <glyph glyph-name="semicolon" unicode=";" horiz-adv-x="626" 
d="M313 -293h-323l145 629h414zM563 772q0 -113 -68 -172t-171 -59q-102 0 -171 59.5t-69 171.5q0 113 69 172.5t171 59.5q103 0 171 -59.5t68 -172.5z" />
    <glyph glyph-name="less" unicode="&#x3c;" horiz-adv-x="1048" 
d="M936 600v-375l-870 277v430l870 276v-374l-520 -117z" />
    <glyph glyph-name="equal" unicode="=" horiz-adv-x="1284" 
d="M1157 782h-1030v332h1030v-332zM1157 319h-1030v332h1030v-332z" />
    <glyph glyph-name="greater" unicode="&#x3e;" horiz-adv-x="1048" 
d="M983 502l-870 -277v375l522 117l-522 117v374l870 -276v-430z" />
    <glyph glyph-name="question" unicode="?" horiz-adv-x="1040" 
d="M657 526h-401q0 58 19.5 112.5t49 93t63.5 76.5t63.5 65t49 56t19.5 52q0 84 -133 84q-73 0 -162.5 -26.5t-154.5 -63.5v401q188 90 409 90q82 0 152.5 -10t138.5 -36t115.5 -67t76.5 -107t29 -152q0 -77 -34.5 -150t-83.5 -128.5t-98 -105t-83.5 -97.5t-34.5 -87z
M698 199q0 -113 -68 -172.5t-171 -59.5q-102 0 -171 59.5t-69 172.5q0 112 69 171.5t171 59.5q103 0 171 -59t68 -172z" />
    <glyph glyph-name="at" unicode="@" horiz-adv-x="2138" 
d="M55 492q0 152 41 294t126 266t205 216t288.5 145t365.5 53q144 0 271.5 -28.5t226 -78.5t180.5 -118.5t138.5 -148t95.5 -167.5t57 -175.5t18 -174.5q0 -137 -37 -245t-102.5 -176.5t-153 -104t-190.5 -35.5q-268 0 -368 185q-38 -57 -105.5 -94t-161.5 -37
q-78 0 -142.5 26t-107 68t-72 97.5t-42.5 113.5t-13 116q0 59 12.5 116t40.5 112t69 97t103 67.5t138 25.5q161 0 254 -116v92h313v-471q0 -117 94 -117q31 0 53 17t33.5 42t18.5 65t8.5 74t1.5 82q0 79 -22.5 156.5t-73 151.5t-122 130.5t-178.5 91t-235 34.5
q-153 0 -280 -53.5t-208.5 -144t-126 -206.5t-44.5 -243q0 -137 41 -247t111 -183.5t168 -122t208 -70t236 -21.5q204 0 436 72v-328q-207 -73 -448 -73q-181 0 -346 38t-306.5 117.5t-245 193t-162.5 274t-59 350.5zM1178 575q-19 31 -49 48.5t-64 17.5q-68 0 -99.5 -46
t-31.5 -108q0 -59 31.5 -105t99.5 -46q71 0 113 65v174z" />
    <glyph glyph-name="A" unicode="A" horiz-adv-x="1566" 
d="M473 0h-479l536 1434h508l535 -1434h-479l-62 190h-495zM745 838l-100 -306h281l-101 306q-29 97 -41 184q-10 -74 -39 -184z" />
    <glyph glyph-name="B" unicode="B" horiz-adv-x="1433" 
d="M109 1434h716q508 0 508 -363q0 -230 -205 -309q263 -80 263 -352q0 -410 -584 -410h-698v1434zM920 465q0 57 -35.5 87t-102.5 30h-200v-234h200q67 0 102.5 30t35.5 87zM879 979q0 47 -30.5 76.5t-88.5 29.5h-178v-211l178 -2q57 0 88 30.5t31 76.5z" />
    <glyph glyph-name="C" unicode="C" horiz-adv-x="1331" 
d="M51 702q-1 158 43 288t119 217t176.5 146.5t213.5 86t233 26.5q229 0 421 -86v-422q-63 43 -154 71t-183 28q-77 0 -143.5 -20t-121.5 -61t-86.5 -111t-31.5 -163q0 -81 31.5 -144t84.5 -100.5t118 -56t138 -18.5q112 0 208 26.5t151 75.5v-432q-192 -86 -420 -86
q-125 0 -239 26t-216.5 83t-178 141t-119.5 208.5t-44 276.5z" />
    <glyph glyph-name="D" unicode="D" horiz-adv-x="1523" 
d="M109 1434h618q189 0 332.5 -52.5t232.5 -149t133.5 -226t44.5 -289.5t-44.5 -289.5t-133.5 -226t-232.5 -149t-332.5 -52.5h-618v1434zM985 717q0 168 -69 243.5t-201 75.5h-133v-639h133q132 0 201 75.5t69 244.5z" />
    <glyph glyph-name="E" unicode="E" horiz-adv-x="1273" 
d="M109 1434h1085v-373h-612v-166h538v-348h-538v-170h624v-377h-1097v1434z" />
    <glyph glyph-name="F" unicode="F" horiz-adv-x="1232" 
d="M109 1434h1062v-414h-589v-176h530v-402h-530v-442h-473v1434z" />
    <glyph glyph-name="G" unicode="G" horiz-adv-x="1421" 
d="M49 717q0 153 44 279.5t119.5 212t177.5 144.5t215.5 86t236.5 27q250 0 463 -86v-422q-72 45 -175 71t-202 26q-81 0 -150 -19t-124.5 -58t-87 -106t-31.5 -155q0 -77 22 -137.5t55 -95t76 -57t80 -30.5t72 -8q25 0 57 4v408h442v-738q-246 -96 -487 -96
q-126 0 -242.5 28.5t-219 89t-178 147.5t-119.5 211.5t-44 273.5z" />
    <glyph glyph-name="H" unicode="H" horiz-adv-x="1550" 
d="M971 1434h471v-1434h-471v510h-389v-510h-473v1434h473v-510h389v510z" />
    <glyph glyph-name="I" unicode="I" horiz-adv-x="690" 
d="M109 1434h473v-1434h-473v1434z" />
    <glyph glyph-name="J" unicode="J" horiz-adv-x="1062" 
d="M164 1434h803v-936q0 -117 -32.5 -209t-85.5 -150t-127.5 -95.5t-152.5 -53t-166 -15.5q-221 0 -372 62v418q117 -52 248 -52q215 0 215 154v463h-330v414z" />
    <glyph glyph-name="K" unicode="K" horiz-adv-x="1490" 
d="M582 0h-473v1434h473v-508h118l287 508h520l-436 -711l445 -723h-521l-305 512h-108v-512z" />
    <glyph glyph-name="L" unicode="L" 
d="M109 1434h473v-1020h612v-414h-1085v1434z" />
    <glyph glyph-name="M" unicode="M" horiz-adv-x="1857" 
d="M1329 1434h420v-1434h-461v655l-235 -364h-248l-236 366v-657h-460v1434h419l400 -627z" />
    <glyph glyph-name="N" unicode="N" horiz-adv-x="1562" 
d="M582 0h-473v1434h399l485 -674q-12 103 -12 246v428h473v-1434h-399l-486 672q13 -112 13 -242v-430z" />
    <glyph glyph-name="O" unicode="O" horiz-adv-x="1650" 
d="M49 717q0 156 49.5 291t144 237.5t244.5 161.5t338 59t338 -59t245 -161.5t144.5 -237.5t49.5 -291t-49.5 -291t-144.5 -238t-245 -162t-338 -59t-338 59t-244.5 162t-144 238t-49.5 291zM1116 717q0 149 -77 235t-214 86t-213.5 -86t-76.5 -235t76.5 -235.5t213.5 -86.5
t214 86.5t77 235.5z" />
    <glyph glyph-name="P" unicode="P" horiz-adv-x="1411" 
d="M109 1434h626q643 0 643 -531q0 -528 -643 -528h-153v-375h-473v1434zM909 903q0 141 -178 141h-149v-280h149q178 0 178 139z" />
    <glyph glyph-name="Q" unicode="Q" horiz-adv-x="1650" 
d="M1602 139l-273 -241l-139 139q-159 -70 -365 -70q-188 0 -338 59t-244.5 162t-144 238t-49.5 291t49.5 291t144 237.5t244.5 161.5t338 59t338 -59t245 -161.5t144.5 -237.5t49.5 -291q0 -261 -129 -449zM522 717q0 -155 81.5 -243.5t219.5 -88.5q29 0 41 2l-121 121
l236 233l133 -133q14 46 14 109q0 156 -82 245t-221 89q-138 0 -219.5 -89.5t-81.5 -244.5z" />
    <glyph glyph-name="R" unicode="R" horiz-adv-x="1492" 
d="M582 0h-473v1434h665q96 0 181 -14.5t165 -51t137.5 -93t92 -145.5t34.5 -202q0 -305 -245 -428l368 -500h-520l-295 424h-110v-424zM582 1049v-271h182q68 0 106.5 37t38.5 98t-38.5 98.5t-106.5 37.5h-182z" />
    <glyph glyph-name="S" unicode="S" horiz-adv-x="1300" 
d="M70 1022q0 110 44 196t121.5 139.5t178 81t219.5 27.5q142 0 282 -31t244 -87v-410q-104 66 -229.5 102t-245.5 35q-127 0 -127 -63q0 -24 24 -43t64 -33.5t92.5 -29.5t110 -34t115 -42.5t110 -59.5t92.5 -81t64 -111t24 -146q0 -107 -31.5 -189t-85 -133.5t-132 -84
t-164 -45.5t-189.5 -13q-327 0 -569 135v428q128 -84 264 -126t258 -42q91 0 126.5 16.5t35.5 53.5q0 29 -38.5 52t-100 42t-135.5 41.5t-148 59t-135.5 85t-100 128.5t-38.5 182z" />
    <glyph glyph-name="T" unicode="T" horiz-adv-x="1290" 
d="M25 1434h1241v-414h-385v-1020h-471v1020h-385v414z" />
    <glyph glyph-name="U" unicode="U" horiz-adv-x="1515" 
d="M952 1434h471v-877q0 -129 -37 -231t-99 -168t-148.5 -110t-180.5 -62.5t-200 -18.5t-200 18.5t-181 62.5t-149 110t-99 168t-37 231v877h473v-854q0 -189 193 -189q194 0 194 189v854z" />
    <glyph glyph-name="V" unicode="V" horiz-adv-x="1525" 
d="M1006 0h-484l-526 1434h502l266 -879l264 879h502z" />
    <glyph glyph-name="W" unicode="W" horiz-adv-x="2277" 
d="M1759 1434h510l-432 -1434h-508l-190 723l-189 -723h-510l-432 1434h508l205 -865l223 865h389l221 -865z" />
    <glyph glyph-name="X" unicode="X" horiz-adv-x="1497" 
d="M512 0h-551l492 739l-467 695h551l213 -371l211 371h550l-467 -695l492 -739h-551l-235 403z" />
    <glyph glyph-name="Y" unicode="Y" horiz-adv-x="1542" 
d="M1006 0h-469v489l-545 945h534l246 -543l246 543h534l-546 -945v-489z" />
    <glyph glyph-name="Z" unicode="Z" horiz-adv-x="1323" 
d="M1262 0h-1207v301l533 719h-500v414h1149v-301l-532 -719h557v-414z" />
    <glyph glyph-name="bracketleft" unicode="[" horiz-adv-x="788" 
d="M733 -225h-631v1884h631v-371h-203v-1141h203v-372z" />
    <glyph glyph-name="backslash" unicode="\" horiz-adv-x="1019" 
d="M983 -125h-301l-647 1684h301z" />
    <glyph glyph-name="bracketright" unicode="]" horiz-adv-x="788" 
d="M686 -225h-631v372h203v1141h-203v371h631v-1884z" />
    <glyph glyph-name="asciicircum" unicode="^" horiz-adv-x="1355" 
d="M487 659h-440l440 775h381l441 -775h-441l-190 367z" />
    <glyph glyph-name="underscore" unicode="_" horiz-adv-x="1067" 
d="M1067 -416h-1067v346h1067v-346z" />
    <glyph glyph-name="grave" unicode="`" horiz-adv-x="729" 
d="M674 1540h-375l-250 336h422z" />
    <glyph glyph-name="a" unicode="a" horiz-adv-x="1177" 
d="M1073 311q0 -53 57 -53q15 0 39 4v-252q-85 -37 -217 -37q-171 0 -245 105q-136 -111 -328 -111q-146 0 -244 78t-98 219q0 72 26 129t67.5 92t99 58t116 32t123.5 9q105 0 195 -19v23q0 108 -195 108q-164 0 -354 -69v323q218 66 403 66q106 0 188 -13t153 -45.5
t116.5 -86t71.5 -137t26 -195.5v-228zM578 387q-51 0 -87 -21t-36 -67q0 -36 27.5 -57t68.5 -21q63 0 113 33v121q-34 12 -86 12z" />
    <glyph glyph-name="b" unicode="b" horiz-adv-x="1280" 
d="M84 1434h432v-510q99 92 268 92q113 0 201.5 -43.5t142 -118t80.5 -166.5t27 -196t-27 -196.5t-80.5 -167t-142 -118t-201.5 -43.5q-103 0 -185 42t-136 110v-119h-379v1434zM791 492q0 73 -38.5 125.5t-111.5 52.5q-42 0 -77.5 -21t-49.5 -49v-217q16 -29 50.5 -49.5
t76.5 -20.5q73 0 111.5 53t38.5 126z" />
    <glyph glyph-name="c" unicode="c" horiz-adv-x="1001" 
d="M43 465q0 115 33 209.5t88 157.5t131 106.5t159 62.5t173 19q153 0 303 -59v-355q-110 56 -225 56q-95 0 -156.5 -41t-61.5 -129q0 -85 59 -125.5t150 -40.5q141 0 244 49v-352q-163 -56 -342 -56q-110 0 -207 29t-176 86.5t-125.5 156t-46.5 226.5z" />
    <glyph glyph-name="d" unicode="d" horiz-adv-x="1280" 
d="M766 1434h430v-1434h-379v119q-52 -67 -133.5 -109.5t-185.5 -42.5q-92 0 -168 29t-128 78t-88 116.5t-52.5 143t-16.5 158.5q0 104 27 196t80.5 166.5t142.5 118t203 43.5q166 0 268 -92v510zM768 600q-16 29 -50.5 49.5t-76.5 20.5q-74 0 -111.5 -52.5t-37.5 -125.5
q0 -74 37.5 -126.5t111.5 -52.5q42 0 76.5 20.5t50.5 49.5v217z" />
    <glyph glyph-name="e" unicode="e" horiz-adv-x="1120" 
d="M43 498q0 111 34 201.5t88.5 148t125.5 96.5t141 55.5t139 16.5q92 0 169.5 -19.5t132.5 -54t96.5 -82t65 -102.5t34.5 -117t9 -124t-15 -124h-606q25 -60 102 -91.5t178 -31.5q162 0 283 39v-291q-148 -51 -358 -51q-97 0 -185.5 18.5t-168.5 59.5t-138 102t-92.5 151
t-34.5 200zM713 592q9 50 -20.5 94.5t-98.5 44.5q-64 0 -102.5 -39t-38.5 -100h260z" />
    <glyph glyph-name="f" unicode="f" horiz-adv-x="860" 
d="M621 0h-433v639h-139v344h139v82q0 90 26 161t67.5 115t98.5 73t114.5 40.5t119.5 11.5q147 0 250 -39v-329q-56 32 -123 32q-52 0 -86 -24t-34 -76v-47h215v-344h-215v-639z" />
    <glyph glyph-name="g" unicode="g" horiz-adv-x="1280" 
d="M45 504q0 83 16.5 157t52.5 139.5t88 113t128 75t168 27.5q104 0 185.5 -42.5t133.5 -109.5v119h379v-920q0 -118 -33 -212t-89 -156t-133.5 -102.5t-163 -58t-181.5 -17.5q-244 0 -446 84v356q166 -90 368 -90q248 0 248 168v49q-101 -94 -268 -94q-114 0 -203 42
t-142.5 114.5t-80.5 163t-27 194.5zM768 606q-16 29 -50.5 49.5t-76.5 20.5q-74 0 -111.5 -52.5t-37.5 -125.5q0 -74 37.5 -126.5t111.5 -52.5q42 0 76.5 20.5t50.5 49.5v217z" />
    <glyph glyph-name="h" unicode="h" 
d="M84 1434h432v-504q113 86 248 86q97 0 172.5 -32.5t120 -87.5t66.5 -121t22 -140v-635h-432v561q0 47 -26.5 70.5t-68.5 23.5q-64 0 -102 -49v-606h-432v1434z" />
    <glyph glyph-name="i" unicode="i" horiz-adv-x="600" 
d="M516 0h-432v983h432v-983zM524 1300q0 -107 -64 -162t-161 -55q-96 0 -160.5 55t-64.5 162q0 105 64.5 160.5t160.5 55.5q97 0 161 -55.5t64 -160.5z" />
    <glyph glyph-name="j" unicode="j" horiz-adv-x="600" 
d="M516 -104q0 -100 -33.5 -175t-92.5 -118.5t-131.5 -64.5t-158.5 -21q-122 0 -204 30v351q46 -11 84 -11q104 0 104 109v987h432v-1087zM526 1300q0 -107 -64 -162t-161 -55q-96 0 -160.5 55t-64.5 162q0 105 64.5 160.5t160.5 55.5q97 0 161 -55.5t64 -160.5z" />
    <glyph glyph-name="k" unicode="k" horiz-adv-x="1220" 
d="M1233 0h-469l-186 332h-62v-332h-432v1434h432v-766h64l174 315h469l-303 -485z" />
    <glyph glyph-name="l" unicode="l" horiz-adv-x="600" 
d="M84 1495h432v-1495h-432v1495z" />
    <glyph glyph-name="m" unicode="m" horiz-adv-x="1771" 
d="M510 0h-426v983h379v-92q46 51 129 88t172 37q193 0 280 -131q60 60 141 95.5t167 35.5q94 0 163 -32t108 -89t57 -126t18 -151v-618h-426v584q0 35 -20.5 53t-53.5 18q-47 0 -90 -37v-28v-590h-426v584q0 35 -20.5 53t-51.5 18q-56 0 -100 -47v-608z" />
    <glyph glyph-name="n" unicode="n" 
d="M463 885q131 131 301 131q97 0 172.5 -32.5t120 -87.5t66.5 -121t22 -140v-635h-432v561q0 47 -26.5 70.5t-68.5 23.5q-64 0 -102 -49v-606h-432v983h379v-98z" />
    <glyph glyph-name="o" unicode="o" 
d="M43 492q0 129 45 230.5t123 165t179 96t218 32.5t218.5 -32.5t180.5 -96t124 -165t45 -230.5q0 -104 -29.5 -190.5t-82 -147.5t-124 -103.5t-155.5 -63t-177 -20.5q-117 0 -218 33t-179 96t-123 165t-45 231zM754 492q0 76 -34.5 121.5t-111.5 45.5q-75 0 -109 -46
t-34 -121t34 -121.5t109 -46.5q77 0 111.5 46t34.5 122z" />
    <glyph glyph-name="p" unicode="p" horiz-adv-x="1280" 
d="M463 864q54 68 136 110t185 42q113 0 201.5 -43.5t142 -118t80.5 -166.5t27 -196t-27 -196.5t-80.5 -167t-142 -118t-201.5 -43.5q-166 0 -268 92v-510h-432v1434h379v-119zM791 492q0 73 -38.5 125.5t-111.5 52.5q-42 0 -76.5 -20.5t-50.5 -49.5v-217q14 -28 49.5 -49
t77.5 -21q73 0 111.5 53t38.5 126z" />
    <glyph glyph-name="q" unicode="q" horiz-adv-x="1280" 
d="M45 492q0 104 27 196t80.5 166.5t142.5 118t203 43.5q104 0 185.5 -42.5t133.5 -109.5v119h379v-1434h-430v510q-102 -92 -268 -92q-92 0 -168 29t-128 78t-88 116.5t-52.5 143t-16.5 158.5zM768 600q-16 29 -50.5 49.5t-76.5 20.5q-74 0 -111.5 -52.5t-37.5 -125.5
q0 -74 37.5 -126.5t111.5 -52.5q42 0 76.5 20.5t50.5 49.5v217z" />
    <glyph glyph-name="r" unicode="r" horiz-adv-x="858" 
d="M463 868q123 164 366 136v-406q-83 27 -175.5 12.5t-137.5 -63.5v-547h-432v983h379v-115z" />
    <glyph glyph-name="s" unicode="s" horiz-adv-x="1005" 
d="M57 700q0 70 25 125.5t66 90.5t99.5 58t121 32.5t133.5 9.5q207 0 387 -84v-303q-64 39 -151.5 64.5t-159.5 25.5t-72 -35q0 -21 25.5 -36.5t66 -27.5t89.5 -26t98.5 -37t90 -55t66 -86.5t25.5 -124.5q0 -74 -27 -131t-71.5 -93t-108 -59t-131.5 -32t-148 -9
q-252 0 -411 86v330q77 -55 175 -82t179 -27q53 0 74.5 9t21.5 28t-25.5 34.5t-66.5 27.5t-90 26.5t-98.5 38.5t-90.5 56t-66.5 85t-25.5 121z" />
    <glyph glyph-name="t" unicode="t" horiz-adv-x="890" 
d="M172 1247l432 101v-365h219v-344h-219v-227q0 -93 117 -93q67 0 117 17v-332q-144 -39 -277 -39q-61 0 -114 10t-105 36t-88.5 67t-59 108.5t-22.5 155.5v297h-137v344h137v264z" />
    <glyph glyph-name="u" unicode="u" 
d="M702 983h433v-983h-379v98q-131 -131 -303 -131q-97 0 -172.5 32.5t-119 87.5t-65.5 121t-22 140v635h432v-561q0 -48 25.5 -71t68.5 -23q64 0 102 49v606z" />
    <glyph glyph-name="v" unicode="v" horiz-adv-x="1226" 
d="M770 983h453l-381 -983h-457l-381 983h455l155 -571z" />
    <glyph glyph-name="w" unicode="w" horiz-adv-x="1728" 
d="M1274 983h440l-303 -983h-420l-127 485l-127 -485h-420l-303 983h441l112 -547l133 547h328l133 -547z" />
    <glyph glyph-name="x" unicode="x" horiz-adv-x="1169" 
d="M719 983h455l-328 -494l340 -489h-463l-137 225l-137 -225h-465l340 489l-326 494h453l135 -235z" />
    <glyph glyph-name="y" unicode="y" horiz-adv-x="1236" 
d="M641 444l150 539h438l-375 -1042q-151 -422 -524 -422q-92 0 -215 35v348q82 -21 145 -21q124 0 182 113l-450 989h446z" />
    <glyph glyph-name="z" unicode="z" horiz-adv-x="1034" 
d="M86 983h862v-254l-336 -385h365v-344h-922v254l338 385h-307v344z" />
    <glyph glyph-name="braceleft" unicode="{" horiz-adv-x="841" 
d="M784 115v-340q-274 -64 -435 34.5t-161 319.5v291q0 37 -11.5 61.5t-34.5 36t-47 15.5t-58 4v362q34 0 56.5 3.5t46.5 14t36 35t12 62.5v291q0 221 161 319.5t435 34.5v-340q-93 18 -130.5 -23.5t-37.5 -140.5v-201q0 -107 -59 -170.5t-149 -66.5q89 -3 148.5 -67
t59.5 -171v-200q0 -99 37.5 -140.5t130.5 -23.5z" />
    <glyph glyph-name="bar" unicode="|" horiz-adv-x="632" 
d="M530 -205h-428v1864h428v-1864z" />
    <glyph glyph-name="braceright" unicode="}" horiz-adv-x="841" 
d="M653 129q0 -221 -161 -319.5t-435 -34.5v340q93 -18 130.5 23.5t37.5 140.5v200q0 107 59.5 171t149.5 67q-90 3 -149.5 66.5t-59.5 170.5v201q0 99 -37.5 140.5t-130.5 23.5v340q274 64 435 -34.5t161 -319.5v-291q0 -38 12 -62.5t36.5 -35t47 -14t56.5 -3.5v-362
q-34 0 -58 -4t-47 -15.5t-35 -36t-12 -61.5v-291z" />
    <glyph glyph-name="asciitilde" unicode="~" horiz-adv-x="1239" 
d="M1159 885q28 -209 -54 -314.5t-237 -105.5q-65 0 -149 25t-151.5 49.5t-92.5 23.5q-54 0 -43 -84h-340q-14 108 2 190.5t57.5 132.5t98.5 74.5t129 24.5q68 0 151.5 -24.5t150 -49t95.5 -24.5q54 0 43 82h340z" />
    <glyph glyph-name="exclamdown" unicode="&#xa1;" horiz-adv-x="614" 
d="M537 -451h-461l49 871h362zM547 784q0 -113 -68.5 -172t-171.5 -59q-102 0 -170.5 59.5t-68.5 171.5q0 114 68.5 173t170.5 59q104 0 172 -59t68 -173z" />
    <glyph glyph-name="cent" unicode="&#xa2;" horiz-adv-x="1044" 
d="M809 334q75 11 139 41v-352q-81 -25 -139 -37v-232h-191v213h-12q-110 0 -207 29t-176 86.5t-125.5 156t-46.5 226.5q0 113 31.5 206t85 156t127 106.5t154 64t169.5 22.5v209h191v-230q73 -16 129 -38v-355q-64 31 -129 45v-317zM618 649q-122 -34 -122 -157
q0 -122 122 -156v313z" />
    <glyph glyph-name="sterling" unicode="&#xa3;" horiz-adv-x="1247" 
d="M1182 0h-1114v369h43q59 0 92 36.5t33 98.5v45h-138v307h140v66q0 128 42 226.5t116 158t169.5 89t208.5 29.5q192 0 359 -71v-357q-112 76 -252 76q-90 0 -142.5 -43.5t-52.5 -126.5v-47h338v-307h-338v-39q0 -91 -59 -141h555v-369z" />
    <glyph glyph-name="currency" unicode="&#xa4;" horiz-adv-x="1146" 
d="M369 340l-123 -123l-174 174l110 111q-55 93 -55 215q0 124 55 217l-110 113l172 174l127 -127q93 41 202 41t205 -41l125 129l172 -176l-112 -115q55 -93 55 -215q0 -123 -53 -215l110 -111l-174 -174l-123 123q-93 -41 -205 -41q-111 0 -204 41zM469 717q0 -41 26 -71
t78 -30q50 0 76.5 30t26.5 71t-26.5 71.5t-76.5 30.5q-52 0 -78 -30.5t-26 -71.5z" />
    <glyph glyph-name="yen" unicode="&#xa5;" horiz-adv-x="1558" 
d="M1012 1393h504l-379 -656h190v-225h-313v-80h313v-225h-313v-207h-469v207h-312v225h312v80h-312v225h189l-379 656h504l231 -510z" />
    <glyph glyph-name="brokenbar" unicode="&#xa6;" horiz-adv-x="649" 
d="M539 860h-428v799h428v-799zM539 -205h-428v799h428v-799z" />
    <glyph glyph-name="section" unicode="&#xa7;" horiz-adv-x="1085" 
d="M1006 250q0 -88 -40 -153t-111 -101t-157 -53t-190 -17q-229 0 -391 86v326q79 -54 172 -80.5t174 -26.5q54 0 75 8.5t21 28.5q0 12 -9 21.5t-32.5 19.5t-41.5 16t-58 17.5t-60 17.5q-46 15 -81.5 31t-74.5 41.5t-64.5 55.5t-42.5 74t-17 97q0 165 149 250
q-141 98 -141 242q0 67 24.5 121t67 90t102 59.5t125.5 34t142 10.5q201 0 381 -84v-299q-66 37 -155 61.5t-169 24.5q-67 0 -67 -34q0 -14 12.5 -25.5t37.5 -22t51 -19t66.5 -21t69.5 -23.5q51 -18 90.5 -40t76 -55t56 -80.5t19.5 -107.5q0 -160 -135 -258
q125 -90 125 -233zM510 637q34 -15 100 -33q46 34 49 70q3 44 -65 74q-44 20 -115 43q-48 -29 -51 -76q-3 -50 82 -78z" />
    <glyph glyph-name="dieresis" unicode="&#xa8;" horiz-adv-x="894" 
d="M883 1708q0 -88 -56.5 -142.5t-142.5 -54.5q-85 0 -141 54.5t-56 142.5t56 142.5t141 54.5q86 0 142.5 -54.5t56.5 -142.5zM410 1708q0 -88 -56.5 -142.5t-142.5 -54.5q-85 0 -141 54.5t-56 142.5t56 142.5t141 54.5q86 0 142.5 -54.5t56.5 -142.5z" />
    <glyph glyph-name="copyright" unicode="&#xa9;" horiz-adv-x="1697" 
d="M1636 717q0 -146 -41.5 -269.5t-115 -211t-173 -149t-215.5 -91t-243 -29.5q-159 0 -299.5 48t-250 138.5t-173.5 236t-64 327.5t64 327t173.5 236t250 138.5t299.5 47.5q127 0 243 -29.5t215.5 -90.5t173 -148.5t115 -211t41.5 -269.5zM1184 365q-76 -40 -140 -55
t-167 -15q-80 0 -156 23.5t-141.5 70t-105.5 127t-40 184.5q0 91 25.5 165t68.5 124t103 84.5t127.5 50t142.5 15.5q168 0 283 -70v-252q-92 55 -209 55q-51 0 -91 -13.5t-68 -48.5t-28 -89q0 -85 55 -122.5t136 -37.5q119 0 205 57v-253zM211 717q0 -119 34.5 -220
t94.5 -173t140.5 -122.5t173.5 -75t194 -24.5t194.5 24.5t174.5 75t141 122.5t94.5 173t34.5 220q0 148 -52.5 267t-142 193.5t-203.5 114t-241 39.5t-240 -39.5t-202.5 -114t-142 -193.5t-52.5 -267z" />
    <glyph glyph-name="guillemotleft" unicode="&#xab;" horiz-adv-x="1376" 
d="M1331 66h-430l-280 389v73l280 390h430l-301 -426zM758 66h-430l-279 389v73l279 390h430l-299 -426z" />
    <glyph glyph-name="logicalnot" unicode="&#xac;" horiz-adv-x="1185" 
d="M1087 403h-356v234h-657v346h1013v-580z" />
    <glyph glyph-name="registered" unicode="&#xae;" horiz-adv-x="1689" 
d="M1628 717q0 -145 -41 -267.5t-114 -210.5t-171.5 -150t-214.5 -92t-243 -30q-126 0 -241.5 30t-214.5 92t-171.5 150t-114 210.5t-41.5 267.5t41.5 267.5t114 210t171.5 149.5t214.5 92t241.5 30q127 0 243 -30t214.5 -92t171.5 -149.5t114 -210t41 -267.5zM211 717
q0 -148 51.5 -267t139.5 -193.5t201 -113.5t241 -39q102 0 195.5 24t173.5 74.5t138.5 122t92 172.5t33.5 220t-33.5 220t-92 172.5t-138.5 121.5t-173.5 74t-195.5 24q-128 0 -241 -39t-201 -113t-139.5 -193t-51.5 -267zM782 324h-274v798h401q68 0 126.5 -15.5t107.5 -48
t77.5 -90t28.5 -134.5q0 -179 -141 -244l203 -266h-303l-164 227h-15h-47v-227zM782 891v-137h105q37 0 58.5 17.5t21.5 51.5q0 33 -22 50.5t-58 17.5h-105z" />
    <glyph glyph-name="macron" unicode="&#xaf;" horiz-adv-x="737" 
d="M-6 1827h743v-297h-743v297z" />
    <glyph glyph-name="degree" unicode="&#xb0;" horiz-adv-x="911" 
d="M870 1083q0 -190 -114 -291.5t-299 -101.5t-300.5 101.5t-115.5 291.5q0 179 116.5 281t299.5 102q184 0 298.5 -101.5t114.5 -281.5zM350 1079q0 -48 28 -77t79 -29t77.5 28.5t26.5 77.5q0 48 -26.5 76.5t-77.5 28.5t-79 -29t-28 -76z" />
    <glyph glyph-name="plusminus" unicode="&#xb1;" horiz-adv-x="1191" 
d="M768 1407v-311h336v-344h-336v-314h-344v314h-336v344h336v311h344zM1104 0h-1016v344h1016v-344z" />
    <glyph glyph-name="acute" unicode="&#xb4;" horiz-adv-x="710" 
d="M420 1540h-375l201 336h424z" />
    <glyph glyph-name="paragraph" unicode="&#xb6;" horiz-adv-x="1701" 
d="M981 -451h-442v961q-231 0 -361.5 122t-130.5 339q0 218 130.5 340.5t361.5 122.5h1034v-1885h-443v1471h-149v-1471z" />
    <glyph glyph-name="periodcentered" unicode="&#xb7;" horiz-adv-x="593" 
d="M537 487q0 -113 -68.5 -172t-171.5 -59q-102 0 -171 59.5t-69 171.5q0 113 69 172.5t171 59.5q103 0 171.5 -59.5t68.5 -172.5z" />
    <glyph glyph-name="cedilla" unicode="&#xb8;" horiz-adv-x="471" 
d="M102 0h260l-28 -88q188 -25 188 -184q0 -56 -27 -98t-73 -66.5t-102 -36.5t-119 -12q-145 0 -242 39v215q76 -31 160 -31q117 0 117 51q0 35 -54.5 45.5t-126.5 3.5z" />
    <glyph glyph-name="guillemotright" unicode="&#xbb;" horiz-adv-x="1372" 
d="M1047 66h-433l301 426l-301 426h433l276 -390v-73zM477 66h-432l301 426l-301 426h432l277 -390v-73z" />
    <glyph glyph-name="onequarter" unicode="&#xbc;" horiz-adv-x="1873" 
d="M1442 836h278v-504h103v-219h-103v-113h-256v113h-415v225zM1464 332v196l-155 -196h155zM512 -33h-123l946 1499h123zM301 1393h207v-605h141v-231h-575v231h159v336l-151 -51v242z" />
    <glyph glyph-name="onehalf" unicode="&#xbd;" horiz-adv-x="1810" 
d="M506 -33h-123l946 1499h123zM1110 766q142 90 313 90q68 0 125.5 -15t104.5 -46.5t73.5 -85.5t26.5 -125q0 -82 -41 -136.5t-115 -105.5q-15 -10 -44.5 -29.5t-44.5 -30t-32.5 -25t-27.5 -26.5h305v-231h-670l2 115q0 52 15.5 97.5t34 74.5t57 62t61 48.5t68.5 44.5
q19 12 52.5 31.5t48 29t27.5 25.5t13 33q0 53 -80 53q-134 0 -272 -106v258zM295 1393h207v-605h141v-231h-575v231h159v336l-151 -51v242z" />
    <glyph glyph-name="threequarters" unicode="&#xbe;" horiz-adv-x="1976" 
d="M614 -33h-122l946 1499h123zM1544 836h279v-504h102v-219h-102v-113h-256v113h-416v225zM1567 332v196l-156 -196h156zM692 1188q0 -63 -34 -111t-99 -69q74 -21 121 -72t47 -133q0 -67 -29.5 -117.5t-81 -79t-113 -42t-132.5 -13.5q-150 0 -303 57v244q134 -71 280 -68
q47 0 78 15.5t31 44.5q0 47 -74 47h-147l2 211l118 -2q68 0 68 41q0 51 -98 51q-54 0 -123.5 -21t-120.5 -55v238q123 73 289 73q66 0 122.5 -14t101.5 -41.5t71 -74.5t26 -109z" />
    <glyph glyph-name="questiondown" unicode="&#xbf;" horiz-adv-x="1026" 
d="M965 -393q-192 -90 -412 -90q-82 0 -152 10t-137.5 36t-115 67t-76.5 107t-29 152q0 77 34.5 150t83.5 128.5t98 105t83.5 97.5t34.5 87h401q0 -58 -19.5 -112.5t-49 -93t-63.5 -76t-63.5 -64.5t-49 -55.5t-19.5 -51.5q0 -86 131 -86q74 0 163.5 26.5t156.5 63.5v-401z
M815 784q0 -112 -69 -171.5t-171 -59.5q-103 0 -171 59t-68 172q0 114 67.5 173t171.5 59q103 0 171.5 -59t68.5 -173z" />
    <glyph glyph-name="Agrave" unicode="&#xc0;" horiz-adv-x="1566" 
d="M473 0h-479l536 1434h508l535 -1434h-479l-62 190h-495zM745 838l-100 -306h281l-101 306q-29 97 -41 184q-10 -74 -39 -184zM1016 1540h-375l-250 336h422z" />
    <glyph glyph-name="Aacute" unicode="&#xc1;" horiz-adv-x="1566" 
d="M473 0h-479l536 1434h508l535 -1434h-479l-62 190h-495zM745 838l-100 -306h281l-101 306q-29 97 -41 184q-10 -74 -39 -184zM928 1540h-375l201 336h424z" />
    <glyph glyph-name="Acircumflex" unicode="&#xc2;" horiz-adv-x="1566" 
d="M473 0h-479l536 1434h508l535 -1434h-479l-62 190h-495zM745 838l-100 -306h281l-101 306q-29 97 -41 184q-10 -74 -39 -184zM594 1880h379l262 -350h-358l-93 117l-92 -117h-360z" />
    <glyph glyph-name="Atilde" unicode="&#xc3;" horiz-adv-x="1566" 
d="M473 0h-479l536 1434h508l535 -1434h-479l-62 190h-495zM745 838l-100 -306h281l-101 306q-29 97 -41 184q-10 -74 -39 -184zM1194 1872q40 -151 -29 -260t-204 -109q-59 0 -116 21.5t-99 43t-64 21.5q-29 0 -37.5 -24t-1.5 -49h-272q-40 151 28.5 259.5t204.5 108.5
q58 0 115 -21.5t98.5 -43t63.5 -21.5q30 0 38.5 23.5t2.5 50.5h272z" />
    <glyph glyph-name="Adieresis" unicode="&#xc4;" horiz-adv-x="1566" 
d="M473 0h-479l536 1434h508l535 -1434h-479l-62 190h-495zM745 838l-100 -306h281l-101 306q-29 97 -41 184q-10 -74 -39 -184zM1221 1708q0 -88 -56.5 -142.5t-142.5 -54.5q-85 0 -141 54.5t-56 142.5t56 142.5t141 54.5q86 0 142.5 -54.5t56.5 -142.5zM748 1708
q0 -88 -56.5 -142.5t-142.5 -54.5q-85 0 -141 54.5t-56 142.5t56 142.5t141 54.5q86 0 142.5 -54.5t56.5 -142.5z" />
    <glyph glyph-name="Aring" unicode="&#xc5;" horiz-adv-x="1566" 
d="M473 0h-479l536 1434h508l535 -1434h-479l-62 190h-495zM745 838l-100 -306h281l-101 306q-29 97 -41 184q-10 -74 -39 -184zM1079 1755q0 -128 -82.5 -199t-208.5 -71q-122 0 -205 71t-83 199q0 121 83.5 192.5t204.5 71.5q125 0 208 -71t83 -193zM721 1753
q0 -31 18 -51.5t52 -20.5t51.5 20.5t17.5 51.5t-17.5 50.5t-51.5 19.5t-52 -19.5t-18 -50.5z" />
    <glyph glyph-name="AE" unicode="&#xc6;" horiz-adv-x="2105" 
d="M1464 547v-170h574v-377h-1034v195h-441l-117 -195h-477l879 1434h1177v-373h-561v-166h488v-348h-488zM758 532h248v422z" />
    <glyph glyph-name="Ccedilla" unicode="&#xc7;" horiz-adv-x="1333" 
d="M1268 485v-432q-133 -60 -275 -78l-20 -63q188 -25 188 -184q0 -73 -48 -123t-118 -70t-157 -20q-143 0 -240 39v215q76 -31 160 -31q116 0 116 51q0 35 -54 45.5t-126 3.5l39 133q-111 12 -210 45.5t-186.5 93.5t-150 142t-99 197.5t-36.5 252.5q-1 158 43 288t119 217
t176.5 146.5t213.5 86t233 26.5q229 0 421 -86v-422q-63 43 -154 71t-183 28q-77 0 -143.5 -20t-121.5 -61t-86.5 -111t-31.5 -163q0 -81 31.5 -144t84.5 -100.5t118 -56t138 -18.5q112 0 208 26.5t151 75.5z" />
    <glyph glyph-name="Egrave" unicode="&#xc8;" horiz-adv-x="1273" 
d="M109 1434h1085v-373h-612v-166h538v-348h-538v-170h624v-377h-1097v1434zM887 1540h-375l-250 336h422z" />
    <glyph glyph-name="Eacute" unicode="&#xc9;" horiz-adv-x="1273" 
d="M109 1434h1085v-373h-612v-166h538v-348h-538v-170h624v-377h-1097v1434zM799 1540h-375l201 336h424z" />
    <glyph glyph-name="Ecircumflex" unicode="&#xca;" horiz-adv-x="1273" 
d="M109 1434h1085v-373h-612v-166h538v-348h-538v-170h624v-377h-1097v1434zM465 1880h379l262 -350h-358l-93 117l-92 -117h-360z" />
    <glyph glyph-name="Edieresis" unicode="&#xcb;" horiz-adv-x="1273" 
d="M109 1434h1085v-373h-612v-166h538v-348h-538v-170h624v-377h-1097v1434zM1092 1708q0 -88 -56.5 -142.5t-142.5 -54.5q-85 0 -141 54.5t-56 142.5t56 142.5t141 54.5q86 0 142.5 -54.5t56.5 -142.5zM618 1708q0 -88 -56 -142.5t-142 -54.5q-85 0 -141 54.5t-56 142.5
t56 142.5t141 54.5q86 0 142 -54.5t56 -142.5z" />
    <glyph glyph-name="Igrave" unicode="&#xcc;" horiz-adv-x="690" 
d="M109 1434h473v-1434h-473v1434zM575 1540h-374l-250 336h422z" />
    <glyph glyph-name="Iacute" unicode="&#xcd;" horiz-adv-x="690" 
d="M109 1434h473v-1434h-473v1434zM487 1540h-374l200 336h424z" />
    <glyph glyph-name="Icircumflex" unicode="&#xce;" horiz-adv-x="690" 
d="M109 1434h473v-1434h-473v1434zM154 1880h378l263 -350h-359l-92 117l-92 -117h-361z" />
    <glyph glyph-name="Idieresis" unicode="&#xcf;" horiz-adv-x="690" 
d="M109 1434h473v-1434h-473v1434zM780 1708q0 -88 -56 -142.5t-142 -54.5q-85 0 -141 54.5t-56 142.5t56 142.5t141 54.5q86 0 142 -54.5t56 -142.5zM307 1708q0 -88 -56 -142.5t-142 -54.5q-85 0 -141 54.5t-56 142.5t56 142.5t141 54.5q86 0 142 -54.5t56 -142.5z" />
    <glyph glyph-name="Eth" unicode="&#xd0;" horiz-adv-x="1554" 
d="M137 1434h619q189 0 332.5 -52.5t233 -149t134.5 -226t45 -289.5t-45 -289.5t-134.5 -226t-233 -149t-332.5 -52.5h-619v575h-121v279h121v580zM610 397h133q132 0 201.5 76t69.5 244t-69.5 243.5t-201.5 75.5h-133v-182h207v-279h-207v-178z" />
    <glyph glyph-name="Ntilde" unicode="&#xd1;" horiz-adv-x="1562" 
d="M582 0h-473v1434h399l485 -674q-12 103 -12 246v428h473v-1434h-399l-486 672q13 -112 13 -242v-430zM1180 1872q40 -151 -29.5 -260t-204.5 -109q-59 0 -116 21.5t-98.5 43t-63.5 21.5q-29 0 -37.5 -24t-1.5 -49h-273q-40 151 29 259.5t205 108.5q58 0 115 -21.5t98 -43
t63 -21.5q30 0 38.5 23.5t2.5 50.5h273z" />
    <glyph glyph-name="Ograve" unicode="&#xd2;" horiz-adv-x="1650" 
d="M49 717q0 156 49.5 291t144 237.5t244.5 161.5t338 59t338 -59t245 -161.5t144.5 -237.5t49.5 -291t-49.5 -291t-144.5 -238t-245 -162t-338 -59t-338 59t-244.5 162t-144 238t-49.5 291zM1116 717q0 149 -77 235t-214 86t-213.5 -86t-76.5 -235t76.5 -235.5t213.5 -86.5
t214 86.5t77 235.5zM1055 1540h-375l-250 336h422z" />
    <glyph glyph-name="Oacute" unicode="&#xd3;" horiz-adv-x="1650" 
d="M49 717q0 156 49.5 291t144 237.5t244.5 161.5t338 59t338 -59t245 -161.5t144.5 -237.5t49.5 -291t-49.5 -291t-144.5 -238t-245 -162t-338 -59t-338 59t-244.5 162t-144 238t-49.5 291zM1116 717q0 149 -77 235t-214 86t-213.5 -86t-76.5 -235t76.5 -235.5t213.5 -86.5
t214 86.5t77 235.5zM967 1540h-375l201 336h424z" />
    <glyph glyph-name="Ocircumflex" unicode="&#xd4;" horiz-adv-x="1650" 
d="M49 717q0 156 49.5 291t144 237.5t244.5 161.5t338 59t338 -59t245 -161.5t144.5 -237.5t49.5 -291t-49.5 -291t-144.5 -238t-245 -162t-338 -59t-338 59t-244.5 162t-144 238t-49.5 291zM1116 717q0 149 -77 235t-214 86t-213.5 -86t-76.5 -235t76.5 -235.5t213.5 -86.5
t214 86.5t77 235.5zM633 1880h379l262 -350h-359l-92 117l-92 -117h-360z" />
    <glyph glyph-name="Otilde" unicode="&#xd5;" horiz-adv-x="1650" 
d="M49 717q0 156 49.5 291t144 237.5t244.5 161.5t338 59t338 -59t245 -161.5t144.5 -237.5t49.5 -291t-49.5 -291t-144.5 -238t-245 -162t-338 -59t-338 59t-244.5 162t-144 238t-49.5 291zM1116 717q0 149 -77 235t-214 86t-213.5 -86t-76.5 -235t76.5 -235.5t213.5 -86.5
t214 86.5t77 235.5zM1233 1872q40 -151 -29.5 -260t-204.5 -109q-59 0 -116 21.5t-98.5 43t-63.5 21.5q-29 0 -37.5 -24t-1.5 -49h-272q-40 151 28.5 259.5t204.5 108.5q58 0 115 -21.5t98.5 -43t63.5 -21.5q30 0 38.5 23.5t2.5 50.5h272z" />
    <glyph glyph-name="Odieresis" unicode="&#xd6;" horiz-adv-x="1650" 
d="M49 717q0 156 49.5 291t144 237.5t244.5 161.5t338 59t338 -59t245 -161.5t144.5 -237.5t49.5 -291t-49.5 -291t-144.5 -238t-245 -162t-338 -59t-338 59t-244.5 162t-144 238t-49.5 291zM1116 717q0 149 -77 235t-214 86t-213.5 -86t-76.5 -235t76.5 -235.5t213.5 -86.5
t214 86.5t77 235.5zM1260 1708q0 -88 -56.5 -142.5t-142.5 -54.5q-85 0 -141 54.5t-56 142.5t56 142.5t141 54.5q86 0 142.5 -54.5t56.5 -142.5zM786 1708q0 -88 -56 -142.5t-142 -54.5q-85 0 -141 54.5t-56 142.5t56 142.5t141 54.5q86 0 142 -54.5t56 -142.5z" />
    <glyph glyph-name="multiply" unicode="&#xd7;" horiz-adv-x="1077" 
d="M539 489l-252 -249l-226 225l250 250l-250 252l226 225l252 -250l249 250l228 -225l-252 -252l252 -250l-228 -225z" />
    <glyph glyph-name="Oslash" unicode="&#xd8;" horiz-adv-x="1650" 
d="M1522 1532l-168 -236q122 -101 185 -251t63 -328q0 -156 -49.5 -291t-144.5 -238t-245 -162t-338 -59q-206 0 -370 74l-99 -139h-225l168 233q-123 103 -186.5 254t-63.5 328q0 156 49.5 291t144 237.5t244.5 161.5t338 59q218 0 373 -73l98 139h226zM825 1038
q-137 0 -213.5 -86t-76.5 -235q0 -110 45 -189l352 494q-53 16 -107 16zM721 414q49 -19 102 -19q137 0 214 86.5t77 235.5q0 113 -45 184z" />
    <glyph glyph-name="Ugrave" unicode="&#xd9;" horiz-adv-x="1515" 
d="M952 1434h471v-877q0 -129 -37 -231t-99 -168t-148.5 -110t-180.5 -62.5t-200 -18.5t-200 18.5t-181 62.5t-149 110t-99 168t-37 231v877h473v-854q0 -189 193 -189q194 0 194 189v854zM989 1540h-375l-249 336h421z" />
    <glyph glyph-name="Uacute" unicode="&#xda;" horiz-adv-x="1515" 
d="M952 1434h471v-877q0 -129 -37 -231t-99 -168t-148.5 -110t-180.5 -62.5t-200 -18.5t-200 18.5t-181 62.5t-149 110t-99 168t-37 231v877h473v-854q0 -189 193 -189q194 0 194 189v854zM901 1540h-375l201 336h424z" />
    <glyph glyph-name="Ucircumflex" unicode="&#xdb;" horiz-adv-x="1515" 
d="M952 1434h471v-877q0 -129 -37 -231t-99 -168t-148.5 -110t-180.5 -62.5t-200 -18.5t-200 18.5t-181 62.5t-149 110t-99 168t-37 231v877h473v-854q0 -189 193 -189q194 0 194 189v854zM567 1880h379l262 -350h-358l-92 117l-92 -117h-361z" />
    <glyph glyph-name="Udieresis" unicode="&#xdc;" horiz-adv-x="1515" 
d="M952 1434h471v-877q0 -129 -37 -231t-99 -168t-148.5 -110t-180.5 -62.5t-200 -18.5t-200 18.5t-181 62.5t-149 110t-99 168t-37 231v877h473v-854q0 -189 193 -189q194 0 194 189v854zM1194 1708q0 -88 -56.5 -142.5t-142.5 -54.5q-85 0 -140.5 54.5t-55.5 142.5
t55.5 142.5t140.5 54.5q86 0 142.5 -54.5t56.5 -142.5zM721 1708q0 -88 -56.5 -142.5t-142.5 -54.5q-85 0 -140.5 54.5t-55.5 142.5t55.5 142.5t140.5 54.5q86 0 142.5 -54.5t56.5 -142.5z" />
    <glyph glyph-name="Yacute" unicode="&#xdd;" horiz-adv-x="1542" 
d="M1006 0h-469v489l-545 945h534l246 -543l246 543h534l-546 -945v-489zM905 1540h-375l201 336h424z" />
    <glyph glyph-name="Thorn" unicode="&#xde;" horiz-adv-x="1413" 
d="M582 1247h153q643 0 643 -530q0 -527 -643 -531h-153v-186h-473v1434h473v-187zM582 578h149q178 0 178 139t-178 139h-149v-278z" />
    <glyph glyph-name="germandbls" unicode="&#xdf;" horiz-adv-x="1265" 
d="M1241 283q0 -80 -29.5 -142t-82 -99.5t-118.5 -56t-143 -18.5q-124 0 -260 49v334q57 -31 117 -31q42 0 68 18t26 52q0 25 -23 57t-56.5 65.5t-66.5 69t-56 79t-23 85.5q0 43 16 82t36 64t36 62.5t16 78.5q0 40 -24 64t-64 24q-44 0 -69 -26t-25 -70v-1024h-432v973
q0 228 135.5 360t386.5 133q101 1 185.5 -21t139 -57.5t92.5 -81.5t54.5 -92.5t16.5 -91.5q0 -54 -22.5 -106t-49.5 -85t-49.5 -72.5t-22.5 -72.5q0 -34 30 -75t73 -84t85.5 -92t72.5 -115.5t30 -136.5z" />
    <glyph glyph-name="agrave" unicode="&#xe0;" horiz-adv-x="1177" 
d="M1073 311q0 -53 57 -53q15 0 39 4v-252q-85 -37 -217 -37q-171 0 -245 105q-136 -111 -328 -111q-146 0 -244 78t-98 219q0 72 26 129t67.5 92t99 58t116 32t123.5 9q105 0 195 -19v23q0 108 -195 108q-164 0 -354 -69v323q218 66 403 66q106 0 188 -13t153 -45.5
t116.5 -86t71.5 -137t26 -195.5v-228zM578 387q-51 0 -87 -21t-36 -67q0 -36 27.5 -57t68.5 -21q63 0 113 33v121q-34 12 -86 12zM786 1110h-374l-250 336h422z" />
    <glyph glyph-name="aacute" unicode="&#xe1;" horiz-adv-x="1177" 
d="M1073 311q0 -53 57 -53q15 0 39 4v-252q-85 -37 -217 -37q-171 0 -245 105q-136 -111 -328 -111q-146 0 -244 78t-98 219q0 72 26 129t67.5 92t99 58t116 32t123.5 9q105 0 195 -19v23q0 108 -195 108q-164 0 -354 -69v323q218 66 403 66q106 0 188 -13t153 -45.5
t116.5 -86t71.5 -137t26 -195.5v-228zM578 387q-51 0 -87 -21t-36 -67q0 -36 27.5 -57t68.5 -21q63 0 113 33v121q-34 12 -86 12zM698 1110h-374l200 336h424z" />
    <glyph glyph-name="acircumflex" unicode="&#xe2;" horiz-adv-x="1177" 
d="M1073 311q0 -53 57 -53q15 0 39 4v-252q-85 -37 -217 -37q-171 0 -245 105q-136 -111 -328 -111q-146 0 -244 78t-98 219q0 72 26 129t67.5 92t99 58t116 32t123.5 9q105 0 195 -19v23q0 108 -195 108q-164 0 -354 -69v323q218 66 403 66q106 0 188 -13t153 -45.5
t116.5 -86t71.5 -137t26 -195.5v-228zM578 387q-51 0 -87 -21t-36 -67q0 -36 27.5 -57t68.5 -21q63 0 113 33v121q-34 12 -86 12zM365 1450h378l263 -350h-359l-92 117l-92 -117h-361z" />
    <glyph glyph-name="atilde" unicode="&#xe3;" horiz-adv-x="1177" 
d="M1073 311q0 -53 57 -53q15 0 39 4v-252q-85 -37 -217 -37q-171 0 -245 105q-136 -111 -328 -111q-146 0 -244 78t-98 219q0 72 26 129t67.5 92t99 58t116 32t123.5 9q105 0 195 -19v23q0 108 -195 108q-164 0 -354 -69v323q218 66 403 66q106 0 188 -13t153 -45.5
t116.5 -86t71.5 -137t26 -195.5v-228zM578 387q-51 0 -87 -21t-36 -67q0 -36 27.5 -57t68.5 -21q63 0 113 33v121q-34 12 -86 12zM965 1442q40 -151 -29.5 -260t-204.5 -109q-59 0 -116 21.5t-98.5 43t-63.5 21.5q-29 0 -37.5 -24.5t-1.5 -49.5h-273q-40 151 29 260t205 109
q58 0 115 -21.5t98 -43t63 -21.5q30 0 38.5 23.5t2.5 50.5h273z" />
    <glyph glyph-name="adieresis" unicode="&#xe4;" horiz-adv-x="1177" 
d="M1073 311q0 -53 57 -53q15 0 39 4v-252q-85 -37 -217 -37q-171 0 -245 105q-136 -111 -328 -111q-146 0 -244 78t-98 219q0 72 26 129t67.5 92t99 58t116 32t123.5 9q105 0 195 -19v23q0 108 -195 108q-164 0 -354 -69v323q218 66 403 66q106 0 188 -13t153 -45.5
t116.5 -86t71.5 -137t26 -195.5v-228zM578 387q-51 0 -87 -21t-36 -67q0 -36 27.5 -57t68.5 -21q63 0 113 33v121q-34 12 -86 12zM991 1278q0 -88 -56 -142.5t-142 -54.5q-85 0 -141 54.5t-56 142.5t56 142.5t141 54.5q86 0 142 -54.5t56 -142.5zM518 1278
q0 -88 -56.5 -142.5t-142.5 -54.5q-85 0 -140.5 54.5t-55.5 142.5t55.5 142.5t140.5 54.5q86 0 142.5 -54.5t56.5 -142.5z" />
    <glyph glyph-name="aring" unicode="&#xe5;" horiz-adv-x="1177" 
d="M1073 311q0 -53 57 -53q15 0 39 4v-252q-85 -37 -217 -37q-171 0 -245 105q-136 -111 -328 -111q-146 0 -244 78t-98 219q0 72 26 129t67.5 92t99 58t116 32t123.5 9q105 0 195 -19v23q0 108 -195 108q-164 0 -354 -69v323q218 66 403 66q106 0 188 -13t153 -45.5
t116.5 -86t71.5 -137t26 -195.5v-228zM578 387q-51 0 -87 -21t-36 -67q0 -36 27.5 -57t68.5 -21q63 0 113 33v121q-34 12 -86 12zM850 1325q0 -128 -82.5 -199t-208.5 -71q-122 0 -205.5 71t-83.5 199q0 121 84 192.5t205 71.5q125 0 208 -71t83 -193zM492 1323
q0 -31 17.5 -51.5t51.5 -20.5t52 20.5t18 51.5t-18 50.5t-52 19.5t-51.5 -19.5t-17.5 -50.5z" />
    <glyph glyph-name="ae" unicode="&#xe6;" horiz-adv-x="1710" 
d="M842 104q-96 -70 -200 -103.5t-247 -33.5q-97 0 -177 32t-131.5 101t-51.5 164q0 74 25.5 131t67.5 92.5t100.5 58t119.5 31.5t131 9q105 0 205 -21v23q0 106 -205 106q-170 0 -360 -69v325q214 66 405 66q246 0 346 -111q137 111 326 111q83 0 154 -20t122.5 -55
t91 -82.5t62.5 -103t34.5 -117t9.5 -123.5t-15 -122h-606q25 -60 102 -91.5t178 -31.5q169 0 281 37v-291q-152 -49 -355 -49q-267 0 -413 137zM465 299q0 -37 27 -56.5t67 -19.5q84 0 166 56q-19 62 -25 98q-58 12 -102 12q-54 0 -93.5 -21t-39.5 -69zM1184 733
q-63 0 -102.5 -39.5t-39.5 -99.5h261q9 49 -21 94t-98 45z" />
    <glyph glyph-name="ccedilla" unicode="&#xe7;" horiz-adv-x="1001" 
d="M940 375v-352q-132 -39 -192 -46l-21 -65q191 -26 191 -184q0 -73 -48.5 -123t-119 -70t-156.5 -20q-142 0 -242 39v215q76 -31 162 -31q115 0 115 51q0 35 -54 45.5t-126 3.5l40 135q-94 14 -172.5 49.5t-141 94t-97.5 147.5t-35 201q0 115 33 209.5t88 157.5t131 106.5
t159 62.5t173 19q153 0 303 -59v-355q-110 56 -225 56q-95 0 -156.5 -41t-61.5 -129q0 -85 59 -125.5t150 -40.5q141 0 244 49z" />
    <glyph glyph-name="egrave" unicode="&#xe8;" horiz-adv-x="1120" 
d="M43 498q0 111 34 201.5t88.5 148t125.5 96.5t141 55.5t139 16.5q92 0 169.5 -19.5t132.5 -54t96.5 -82t65 -102.5t34.5 -117t9 -124t-15 -124h-606q25 -60 102 -91.5t178 -31.5q162 0 283 39v-291q-148 -51 -358 -51q-97 0 -185.5 18.5t-168.5 59.5t-138 102t-92.5 151
t-34.5 200zM713 592q9 50 -20.5 94.5t-98.5 44.5q-64 0 -102.5 -39t-38.5 -100h260zM797 1090h-375l-250 335h422z" />
    <glyph glyph-name="eacute" unicode="&#xe9;" horiz-adv-x="1120" 
d="M43 498q0 111 34 201.5t88.5 148t125.5 96.5t141 55.5t139 16.5q92 0 169.5 -19.5t132.5 -54t96.5 -82t65 -102.5t34.5 -117t9 -124t-15 -124h-606q25 -60 102 -91.5t178 -31.5q162 0 283 39v-291q-148 -51 -358 -51q-97 0 -185.5 18.5t-168.5 59.5t-138 102t-92.5 151
t-34.5 200zM713 592q9 50 -20.5 94.5t-98.5 44.5q-64 0 -102.5 -39t-38.5 -100h260zM709 1090h-375l201 335h423z" />
    <glyph glyph-name="ecircumflex" unicode="&#xea;" horiz-adv-x="1120" 
d="M43 498q0 111 34 201.5t88.5 148t125.5 96.5t141 55.5t139 16.5q92 0 169.5 -19.5t132.5 -54t96.5 -82t65 -102.5t34.5 -117t9 -124t-15 -124h-606q25 -60 102 -91.5t178 -31.5q162 0 283 39v-291q-148 -51 -358 -51q-97 0 -185.5 18.5t-168.5 59.5t-138 102t-92.5 151
t-34.5 200zM713 592q9 50 -20.5 94.5t-98.5 44.5q-64 0 -102.5 -39t-38.5 -100h260zM375 1430h379l262 -351h-359l-92 117l-92 -117h-360z" />
    <glyph glyph-name="edieresis" unicode="&#xeb;" horiz-adv-x="1120" 
d="M43 498q0 111 34 201.5t88.5 148t125.5 96.5t141 55.5t139 16.5q92 0 169.5 -19.5t132.5 -54t96.5 -82t65 -102.5t34.5 -117t9 -124t-15 -124h-606q25 -60 102 -91.5t178 -31.5q162 0 283 39v-291q-148 -51 -358 -51q-97 0 -185.5 18.5t-168.5 59.5t-138 102t-92.5 151
t-34.5 200zM713 592q9 50 -20.5 94.5t-98.5 44.5q-64 0 -102.5 -39t-38.5 -100h260zM1001 1257q0 -88 -56 -142t-142 -54q-85 0 -141 54t-56 142t56 142.5t141 54.5q86 0 142 -54.5t56 -142.5zM528 1257q0 -88 -56 -142t-142 -54q-85 0 -141 54t-56 142t56 142.5t141 54.5
q86 0 142 -54.5t56 -142.5z" />
    <glyph glyph-name="igrave" unicode="&#xec;" horiz-adv-x="600" 
d="M516 0h-432v983h432v-983zM510 1090h-375l-166 335h422z" />
    <glyph glyph-name="iacute" unicode="&#xed;" horiz-adv-x="600" 
d="M84 983h432v-983h-432v983zM440 1090h-374l200 335h424z" />
    <glyph glyph-name="icircumflex" unicode="&#xee;" horiz-adv-x="600" 
d="M111 1430h378l220 -351h-338l-72 127l-72 -127h-338zM84 983h432v-983h-432v983z" />
    <glyph glyph-name="idieresis" unicode="&#xef;" horiz-adv-x="600" 
d="M694 1257q0 -83 -53.5 -134.5t-134.5 -51.5q-80 0 -133.5 51.5t-53.5 134.5t53.5 135t133.5 52q81 0 134.5 -52t53.5 -135zM262 1257q0 -83 -53 -134.5t-133 -51.5t-133.5 51.5t-53.5 134.5t53.5 135t133.5 52t133 -52t53 -135zM84 983h432v-983h-432v983z" />
    <glyph glyph-name="eth" unicode="&#xf0;" horiz-adv-x="1179" 
d="M1126 594q0 -137 -28.5 -245t-77.5 -179t-118.5 -117t-147.5 -66t-168 -20q-115 0 -211.5 28.5t-171.5 84.5t-117.5 148t-42.5 212q0 106 33.5 190t91 136.5t130 80t153.5 27.5q190 0 278 -110q0 38 -12 78q-31 126 -160 213l-137 -137l-137 141l79 78q-79 20 -184 20
v332q257 0 449 -88l135 135l137 -139l-96 -97q155 -118 239 -297.5t84 -408.5zM457 434q0 -59 31.5 -99t97.5 -40q64 0 95.5 40t31.5 99q0 58 -31.5 97.5t-95.5 39.5q-66 0 -97.5 -39.5t-31.5 -97.5z" />
    <glyph glyph-name="ntilde" unicode="&#xf1;" 
d="M463 885q131 131 301 131q97 0 172.5 -32.5t120 -87.5t66.5 -121t22 -140v-635h-432v561q0 47 -26.5 70.5t-68.5 23.5q-64 0 -102 -49v-606h-432v983h379v-98zM995 1421q40 -151 -29 -259.5t-204 -108.5q-59 0 -116 21.5t-99 43t-64 21.5q-29 0 -37.5 -24.5t-1.5 -49.5
h-272q-40 151 29 260t205 109q58 0 115 -21.5t98 -43t63 -21.5q30 0 38.5 23t2.5 50h272z" />
    <glyph glyph-name="ograve" unicode="&#xf2;" 
d="M43 492q0 129 45 230.5t123 165t179 96t218 32.5t218.5 -32.5t180.5 -96t124 -165t45 -230.5q0 -104 -29.5 -190.5t-82 -147.5t-124 -103.5t-155.5 -63t-177 -20.5q-117 0 -218 33t-179 96t-123 165t-45 231zM754 492q0 76 -34.5 121.5t-111.5 45.5q-75 0 -109 -46
t-34 -121t34 -121.5t109 -46.5q77 0 111.5 46t34.5 122zM840 1081h-375l-250 336h422z" />
    <glyph glyph-name="oacute" unicode="&#xf3;" 
d="M43 492q0 129 45 230.5t123 165t179 96t218 32.5t218.5 -32.5t180.5 -96t124 -165t45 -230.5q0 -104 -29.5 -190.5t-82 -147.5t-124 -103.5t-155.5 -63t-177 -20.5q-117 0 -218 33t-179 96t-123 165t-45 231zM754 492q0 76 -34.5 121.5t-111.5 45.5q-75 0 -109 -46
t-34 -121t34 -121.5t109 -46.5q77 0 111.5 46t34.5 122zM752 1081h-375l201 336h423z" />
    <glyph glyph-name="ocircumflex" unicode="&#xf4;" 
d="M43 492q0 129 45 230.5t123 165t179 96t218 32.5t218.5 -32.5t180.5 -96t124 -165t45 -230.5q0 -104 -29.5 -190.5t-82 -147.5t-124 -103.5t-155.5 -63t-177 -20.5q-117 0 -218 33t-179 96t-123 165t-45 231zM754 492q0 76 -34.5 121.5t-111.5 45.5q-75 0 -109 -46
t-34 -121t34 -121.5t109 -46.5q77 0 111.5 46t34.5 122zM418 1421h379l262 -350h-359l-92 117l-92 -117h-360z" />
    <glyph glyph-name="otilde" unicode="&#xf5;" 
d="M43 492q0 129 45 230.5t123 165t179 96t218 32.5t218.5 -32.5t180.5 -96t124 -165t45 -230.5q0 -104 -29.5 -190.5t-82 -147.5t-124 -103.5t-155.5 -63t-177 -20.5q-117 0 -218 33t-179 96t-123 165t-45 231zM754 492q0 76 -34.5 121.5t-111.5 45.5q-75 0 -109 -46
t-34 -121t34 -121.5t109 -46.5q77 0 111.5 46t34.5 122zM1018 1413q40 -151 -29.5 -260t-204.5 -109q-59 0 -116 21.5t-98.5 43t-63.5 21.5q-29 0 -37.5 -24t-1.5 -49h-272q-40 151 28.5 259.5t204.5 108.5q58 0 115 -21.5t98.5 -43t63.5 -21.5q30 0 38 23.5t2 50.5h273z
" />
    <glyph glyph-name="odieresis" unicode="&#xf6;" 
d="M43 492q0 129 45 230.5t123 165t179 96t218 32.5t218.5 -32.5t180.5 -96t124 -165t45 -230.5q0 -104 -29.5 -190.5t-82 -147.5t-124 -103.5t-155.5 -63t-177 -20.5q-117 0 -218 33t-179 96t-123 165t-45 231zM754 492q0 76 -34.5 121.5t-111.5 45.5q-75 0 -109 -46
t-34 -121t34 -121.5t109 -46.5q77 0 111.5 46t34.5 122zM1044 1249q0 -88 -56 -142t-142 -54q-85 0 -141 54t-56 142t56 142.5t141 54.5q86 0 142 -54.5t56 -142.5zM571 1249q0 -88 -56 -142t-142 -54q-85 0 -141 54t-56 142t56 142.5t141 54.5q86 0 142 -54.5t56 -142.5z
" />
    <glyph glyph-name="divide" unicode="&#xf7;" horiz-adv-x="1140" 
d="M1085 551h-1030v334h1030v-334zM811 238q0 -114 -68 -173t-172 -59q-102 0 -170.5 59t-68.5 173q0 112 68.5 170.5t170.5 58.5q104 0 172 -58t68 -171zM811 1200q0 -114 -68 -172.5t-172 -58.5q-103 0 -171 58.5t-68 172.5q0 112 68.5 171t170.5 59q104 0 172 -58.5
t68 -171.5z" />
    <glyph glyph-name="oslash" unicode="&#xf8;" 
d="M1055 1112l-115 -178q111 -66 173.5 -177t62.5 -265q0 -104 -29.5 -190.5t-82 -147.5t-124 -103.5t-155.5 -63t-177 -20.5q-144 0 -254 45l-90 -143h-100l115 180q-110 64 -173 176.5t-63 266.5q0 129 45 230.5t123 165t179 96t218 32.5q145 0 258 -45l90 141h99z
M608 659q-75 0 -109 -46t-34 -121q0 -64 27 -111l170 270q-19 8 -54 8zM559 330q42 -6 51 -6q77 0 111.5 46t34.5 122q0 56 -27 108z" />
    <glyph glyph-name="ugrave" unicode="&#xf9;" 
d="M702 983h433v-983h-379v98q-131 -131 -303 -131q-97 0 -172.5 32.5t-119 87.5t-65.5 121t-22 140v635h432v-561q0 -48 25.5 -71t68.5 -23q64 0 102 49v606zM836 1090h-375l-250 335h422z" />
    <glyph glyph-name="uacute" unicode="&#xfa;" 
d="M702 983h433v-983h-379v98q-131 -131 -303 -131q-97 0 -172.5 32.5t-119 87.5t-65.5 121t-22 140v635h432v-561q0 -48 25.5 -71t68.5 -23q64 0 102 49v606zM748 1090h-375l200 335h424z" />
    <glyph glyph-name="ucircumflex" unicode="&#xfb;" 
d="M702 983h433v-983h-379v98q-131 -131 -303 -131q-97 0 -172.5 32.5t-119 87.5t-65.5 121t-22 140v635h432v-561q0 -48 25.5 -71t68.5 -23q64 0 102 49v606zM414 1430h379l262 -351h-359l-92 117l-92 -117h-360z" />
    <glyph glyph-name="udieresis" unicode="&#xfc;" 
d="M702 983h433v-983h-379v98q-131 -131 -303 -131q-97 0 -172.5 32.5t-119 87.5t-65.5 121t-22 140v635h432v-561q0 -48 25.5 -71t68.5 -23q64 0 102 49v606zM1040 1257q0 -88 -56 -142t-142 -54q-85 0 -141 54t-56 142t56 142.5t141 54.5q86 0 142 -54.5t56 -142.5z
M567 1257q0 -88 -56 -142t-142 -54q-85 0 -141 54t-56 142t56 142.5t141 54.5q86 0 142 -54.5t56 -142.5z" />
    <glyph glyph-name="yacute" unicode="&#xfd;" horiz-adv-x="1236" 
d="M641 444l150 539h438l-375 -1042q-151 -422 -524 -422q-92 0 -215 35v348q82 -21 145 -21q124 0 182 113l-450 989h446zM745 1090h-374l200 335h424z" />
    <glyph glyph-name="thorn" unicode="&#xfe;" horiz-adv-x="1280" 
d="M84 1434h432v-521q106 103 272 103q114 0 202 -44t140 -119t78.5 -166.5t26.5 -194.5q0 -105 -27.5 -198t-81 -167t-140.5 -117t-198 -43q-166 0 -272 99v-517h-432v1885zM791 492q0 73 -37.5 125.5t-110.5 52.5q-44 0 -79.5 -21.5t-49.5 -52.5v-209q20 -29 54.5 -49
t74.5 -21q71 -1 109.5 51t38.5 124z" />
    <glyph glyph-name="ydieresis" unicode="&#xff;" horiz-adv-x="1236" 
d="M641 444l150 539h438l-375 -1042q-151 -422 -524 -422q-92 0 -215 35v348q82 -21 145 -21q124 0 182 113l-450 989h446zM1038 1257q0 -88 -56 -142t-142 -54q-85 0 -141 54t-56 142t56 142.5t141 54.5q86 0 142 -54.5t56 -142.5zM565 1257q0 -88 -56 -142t-142 -54
q-85 0 -141 54t-56 142t56 142.5t141 54.5q86 0 142 -54.5t56 -142.5z" />
    <glyph glyph-name="Amacron" unicode="&#x100;" horiz-adv-x="1566" 
d="M473 0h-479l536 1434h508l535 -1434h-479l-62 190h-495zM745 838l-100 -306h281l-101 306q-29 97 -41 184q-10 -74 -39 -184zM416 1839h743v-297h-743v297z" />
    <glyph glyph-name="amacron" unicode="&#x101;" horiz-adv-x="1177" 
d="M1073 311q0 -53 57 -53q15 0 39 4v-252q-85 -37 -217 -37q-171 0 -245 105q-136 -111 -328 -111q-146 0 -244 78t-98 219q0 72 26 129t67.5 92t99 58t116 32t123.5 9q105 0 195 -19v23q0 108 -195 108q-164 0 -354 -69v323q218 66 403 66q106 0 188 -13t153 -45.5
t116.5 -86t71.5 -137t26 -195.5v-228zM578 387q-51 0 -87 -21t-36 -67q0 -36 27.5 -57t68.5 -21q63 0 113 33v121q-34 12 -86 12zM186 1409h744v-297h-744v297z" />
    <glyph glyph-name="Abreve" unicode="&#x102;" horiz-adv-x="1566" 
d="M473 0h-479l536 1434h508l535 -1434h-479l-62 190h-495zM745 838l-100 -306h281l-101 306q-29 97 -41 184q-10 -74 -39 -184zM1157 1622q-156 -104 -371 -104q-214 0 -370 104v293q153 -94 370 -94q218 0 371 94v-293z" />
    <glyph glyph-name="abreve" unicode="&#x103;" horiz-adv-x="1177" 
d="M1073 311q0 -53 57 -53q15 0 39 4v-252q-85 -37 -217 -37q-171 0 -245 105q-136 -111 -328 -111q-146 0 -244 78t-98 219q0 72 26 129t67.5 92t99 58t116 32t123.5 9q105 0 195 -19v23q0 108 -195 108q-164 0 -354 -69v323q218 66 403 66q106 0 188 -13t153 -45.5
t116.5 -86t71.5 -137t26 -195.5v-228zM578 387q-51 0 -87 -21t-36 -67q0 -36 27.5 -57t68.5 -21q63 0 113 33v121q-34 12 -86 12zM928 1192q-158 -105 -371 -105t-371 105v293q153 -94 371 -94t371 94v-293z" />
    <glyph glyph-name="Aogonek" unicode="&#x104;" horiz-adv-x="1566" 
d="M1573 0q-54 -38 -83.5 -80.5t-29.5 -73.5q0 -49 53 -49q27 3 50 15v-246q-93 -52 -207 -49q-123 2 -201 60t-78 159q2 71 44.5 141.5t121.5 122.5h-149l-62 190h-495l-64 -190h-479l536 1434h508zM745 838l-100 -306h281l-101 306q-29 97 -41 184q-10 -74 -39 -184z" />
    <glyph glyph-name="aogonek" unicode="&#x105;" horiz-adv-x="1177" 
d="M1169 262v-252q-54 -39 -83 -81.5t-29 -73.5q0 -48 53 -48q23 0 49 11v-254q-84 -37 -198 -37q-128 0 -195.5 61t-65.5 154q0 62 37.5 128t100.5 120q-83 21 -131 88q-136 -111 -328 -111q-146 0 -244 78t-98 219q0 72 26 129t67.5 92t99 58t116 32t123.5 9
q105 0 195 -19v23q0 108 -195 108q-164 0 -354 -69v323q218 66 403 66q106 0 188 -13t153 -45.5t116.5 -86t71.5 -137t26 -195.5v-228q0 -53 57 -53q15 0 39 4zM551 221q63 0 113 33v121q-34 12 -86 12q-51 0 -87 -21t-36 -67q0 -36 27.5 -57t68.5 -21z" />
    <glyph glyph-name="Cacute" unicode="&#x106;" horiz-adv-x="1331" 
d="M51 702q-1 158 43 288t119 217t176.5 146.5t213.5 86t233 26.5q229 0 421 -86v-422q-63 43 -154 71t-183 28q-77 0 -143.5 -20t-121.5 -61t-86.5 -111t-31.5 -163q0 -81 31.5 -144t84.5 -100.5t118 -56t138 -18.5q112 0 208 26.5t151 75.5v-432q-192 -86 -420 -86
q-125 0 -239 26t-216.5 83t-178 141t-119.5 208.5t-44 276.5zM971 1540h-375l201 336h424z" />
    <glyph glyph-name="cacute" unicode="&#x107;" horiz-adv-x="1001" 
d="M43 465q0 115 33 209.5t88 157.5t131 106.5t159 62.5t173 19q153 0 303 -59v-355q-110 56 -225 56q-95 0 -156.5 -41t-61.5 -129q0 -85 59 -125.5t150 -40.5q141 0 244 49v-352q-163 -56 -342 -56q-110 0 -207 29t-176 86.5t-125.5 156t-46.5 226.5zM709 1090h-375
l201 335h423z" />
    <glyph glyph-name="Cdotaccent" unicode="&#x10a;" horiz-adv-x="1331" 
d="M51 702q-1 158 43 288t119 217t176.5 146.5t213.5 86t233 26.5q229 0 421 -86v-422q-63 43 -154 71t-183 28q-77 0 -143.5 -20t-121.5 -61t-86.5 -111t-31.5 -163q0 -81 31.5 -144t84.5 -100.5t118 -56t138 -18.5q112 0 208 26.5t151 75.5v-432q-192 -86 -420 -86
q-125 0 -239 26t-216.5 83t-178 141t-119.5 208.5t-44 276.5zM623 1718q0 99 59 150t149 51q91 0 150 -51t59 -150q0 -100 -59 -151t-150 -51q-90 0 -149 51t-59 151z" />
    <glyph glyph-name="cdotaccent" unicode="&#x10b;" horiz-adv-x="1001" 
d="M43 465q0 115 33 209.5t88 157.5t131 106.5t159 62.5t173 19q153 0 303 -59v-355q-110 56 -225 56q-95 0 -156.5 -41t-61.5 -129q0 -85 59 -125.5t150 -40.5q141 0 244 49v-352q-163 -56 -342 -56q-110 0 -207 29t-176 86.5t-125.5 156t-46.5 226.5zM360 1268
q0 99 59.5 149.5t149.5 50.5q91 0 150 -50.5t59 -149.5q0 -100 -59 -151.5t-150 -51.5q-90 0 -149.5 51.5t-59.5 151.5z" />
    <glyph glyph-name="Ccaron" unicode="&#x10c;" horiz-adv-x="1331" 
d="M51 702q-1 158 43 288t119 217t176.5 146.5t213.5 86t233 26.5q229 0 421 -86v-422q-63 43 -154 71t-183 28q-77 0 -143.5 -20t-121.5 -61t-86.5 -111t-31.5 -163q0 -81 31.5 -144t84.5 -100.5t118 -56t138 -18.5q112 0 208 26.5t151 75.5v-432q-192 -86 -420 -86
q-125 0 -239 26t-216.5 83t-178 141t-119.5 208.5t-44 276.5zM1284 1890l-270 -350h-379l-270 350h358l100 -125l103 125h358z" />
    <glyph glyph-name="ccaron" unicode="&#x10d;" horiz-adv-x="1001" 
d="M43 465q0 115 33 209.5t88 157.5t131 106.5t159 62.5t173 19q153 0 303 -59v-355q-110 56 -225 56q-95 0 -156.5 -41t-61.5 -129q0 -85 59 -125.5t150 -40.5q141 0 244 49v-352q-163 -56 -342 -56q-110 0 -207 29t-176 86.5t-125.5 156t-46.5 226.5zM1022 1440l-270 -350
h-379l-271 350h359l100 -125l103 125h358z" />
    <glyph glyph-name="Dcaron" unicode="&#x10e;" horiz-adv-x="1523" 
d="M109 1434h618q189 0 332.5 -52.5t232.5 -149t133.5 -226t44.5 -289.5t-44.5 -289.5t-133.5 -226t-232.5 -149t-332.5 -52.5h-618v1434zM985 717q0 168 -69 243.5t-201 75.5h-133v-639h133q132 0 201 75.5t69 244.5zM1184 1890l-271 -350h-378l-271 350h359l100 -125
l102 125h359z" />
    <glyph glyph-name="dcaron" unicode="&#x10f;" horiz-adv-x="1280" 
d="M1298 1434h342l-79 -441h-295zM766 1434h430v-1434h-379v119q-52 -67 -133.5 -109.5t-185.5 -42.5q-92 0 -168 29t-128 78t-88 116.5t-52.5 143t-16.5 158.5q0 104 27 196t80.5 166.5t142.5 118t203 43.5q166 0 268 -92v510zM768 600q-16 29 -50.5 49.5t-76.5 20.5
q-74 0 -111.5 -52.5t-37.5 -125.5q0 -74 37.5 -126.5t111.5 -52.5q42 0 76.5 20.5t50.5 49.5v217z" />
    <glyph glyph-name="Dcroat" unicode="&#x110;" horiz-adv-x="1554" 
d="M137 1434h619q189 0 332.5 -52.5t233 -149t134.5 -226t45 -289.5t-45 -289.5t-134.5 -226t-233 -149t-332.5 -52.5h-619v575h-121v279h121v580zM610 397h133q132 0 201.5 76t69.5 244t-69.5 243.5t-201.5 75.5h-133v-182h207v-279h-207v-178z" />
    <glyph glyph-name="dcroat" unicode="&#x111;" horiz-adv-x="1280" 
d="M1196 1307h133v-211h-133v-1096h-379v119q-52 -67 -133.5 -109.5t-185.5 -42.5q-92 0 -168 29t-128 78t-88 116.5t-52.5 143t-16.5 158.5q0 104 27 196t80.5 166.5t142.5 118t203 43.5q166 0 268 -92v172h-246v211h246v127h430v-127zM641 313q42 0 76.5 20.5t50.5 49.5
v217q-16 29 -50.5 49.5t-76.5 20.5q-74 0 -111.5 -52.5t-37.5 -125.5q0 -74 37.5 -126.5t111.5 -52.5z" />
    <glyph glyph-name="Emacron" unicode="&#x112;" horiz-adv-x="1273" 
d="M109 1434h1085v-373h-612v-166h538v-348h-538v-170h624v-377h-1097v1434zM287 1839h743v-297h-743v297z" />
    <glyph glyph-name="emacron" unicode="&#x113;" horiz-adv-x="1120" 
d="M43 498q0 111 34 201.5t88.5 148t125.5 96.5t141 55.5t139 16.5q92 0 169.5 -19.5t132.5 -54t96.5 -82t65 -102.5t34.5 -117t9 -124t-15 -124h-606q25 -60 102 -91.5t178 -31.5q162 0 283 39v-291q-148 -51 -358 -51q-97 0 -185.5 18.5t-168.5 59.5t-138 102t-92.5 151
t-34.5 200zM713 592q9 50 -20.5 94.5t-98.5 44.5q-64 0 -102.5 -39t-38.5 -100h260zM197 1389h743v-297h-743v297z" />
    <glyph glyph-name="Edotaccent" unicode="&#x116;" horiz-adv-x="1273" 
d="M109 1434h1085v-373h-612v-166h538v-348h-538v-170h624v-377h-1097v1434zM451 1718q0 99 59 150t149 51q91 0 150 -51t59 -150q0 -100 -59 -151t-150 -51q-90 0 -149 51t-59 151z" />
    <glyph glyph-name="edotaccent" unicode="&#x117;" horiz-adv-x="1120" 
d="M43 498q0 111 34 201.5t88.5 148t125.5 96.5t141 55.5t139 16.5q92 0 169.5 -19.5t132.5 -54t96.5 -82t65 -102.5t34.5 -117t9 -124t-15 -124h-606q25 -60 102 -91.5t178 -31.5q162 0 283 39v-291q-148 -51 -358 -51q-97 0 -185.5 18.5t-168.5 59.5t-138 102t-92.5 151
t-34.5 200zM713 592q9 50 -20.5 94.5t-98.5 44.5q-64 0 -102.5 -39t-38.5 -100h260zM360 1268q0 99 59.5 149.5t149.5 50.5q91 0 150 -50.5t59 -149.5q0 -100 -59 -151.5t-150 -51.5q-90 0 -149.5 51.5t-59.5 151.5z" />
    <glyph glyph-name="Eogonek" unicode="&#x118;" horiz-adv-x="1273" 
d="M1206 377v-377q-54 -39 -83 -82t-29 -74q0 -47 53 -47q26 0 49 10v-253q-84 -37 -199 -37q-128 0 -195 61t-65 154q0 69 45.5 141.5t118.5 126.5h-792v1434h1085v-373h-612v-166h538v-348h-538v-170h624z" />
    <glyph glyph-name="eogonek" unicode="&#x119;" horiz-adv-x="1122" 
d="M981 -446q-84 -37 -199 -37q-126 0 -194 61t-66 154q0 61 36 123.5t101 111.5q-37 0 -81 6q-111 8 -205.5 43t-169.5 98t-117.5 161.5t-42.5 222.5q0 111 34 201.5t88.5 148t125.5 96.5t141 55.5t139 16.5q92 0 169.5 -19.5t132.5 -54t96.5 -82t65 -102.5t34.5 -117
t9 -124t-15 -124h-606q25 -60 102 -91.5t178 -31.5q162 0 283 39v-291q-70 -39 -106.5 -86t-36.5 -86q0 -49 55 -49q26 0 49 10v-253zM594 731q-64 0 -102.5 -39t-38.5 -100h260q9 50 -20.5 94.5t-98.5 44.5z" />
    <glyph glyph-name="Ecaron" unicode="&#x11a;" horiz-adv-x="1273" 
d="M109 1434h1085v-373h-612v-166h538v-348h-538v-170h624v-377h-1097v1434zM1112 1890l-270 -350h-379l-270 350h358l100 -125l103 125h358z" />
    <glyph glyph-name="ecaron" unicode="&#x11b;" horiz-adv-x="1120" 
d="M43 498q0 111 34 201.5t88.5 148t125.5 96.5t141 55.5t139 16.5q92 0 169.5 -19.5t132.5 -54t96.5 -82t65 -102.5t34.5 -117t9 -124t-15 -124h-606q25 -60 102 -91.5t178 -31.5q162 0 283 39v-291q-148 -51 -358 -51q-97 0 -185.5 18.5t-168.5 59.5t-138 102t-92.5 151
t-34.5 200zM713 592q9 50 -20.5 94.5t-98.5 44.5q-64 0 -102.5 -39t-38.5 -100h260zM1022 1440l-270 -350h-379l-271 350h359l100 -125l103 125h358z" />
    <glyph glyph-name="Gbreve" unicode="&#x11e;" horiz-adv-x="1421" 
d="M49 717q0 153 44 279.5t119.5 212t177.5 144.5t215.5 86t236.5 27q250 0 463 -86v-422q-72 45 -175 71t-202 26q-81 0 -150 -19t-124.5 -58t-87 -106t-31.5 -155q0 -77 22 -137.5t55 -95t76 -57t80 -30.5t72 -8q25 0 57 4v408h442v-738q-246 -96 -487 -96
q-126 0 -242.5 28.5t-219 89t-178 147.5t-119.5 211.5t-44 273.5zM1167 1622q-156 -104 -370 -104q-215 0 -371 104v293q153 -94 371 -94q217 0 370 94v-293z" />
    <glyph glyph-name="gbreve" unicode="&#x11f;" horiz-adv-x="1280" 
d="M45 504q0 83 16.5 157t52.5 139.5t88 113t128 75t168 27.5q104 0 185.5 -42.5t133.5 -109.5v119h379v-920q0 -118 -33 -212t-89 -156t-133.5 -102.5t-163 -58t-181.5 -17.5q-244 0 -446 84v356q166 -90 368 -90q248 0 248 168v49q-101 -94 -268 -94q-114 0 -203 42
t-142.5 114.5t-80.5 163t-27 194.5zM768 606q-16 29 -50.5 49.5t-76.5 20.5q-74 0 -111.5 -52.5t-37.5 -125.5q0 -74 37.5 -126.5t111.5 -52.5q42 0 76.5 20.5t50.5 49.5v217zM989 1171q-156 -104 -371 -104q-214 0 -370 104v293q153 -94 370 -94q218 0 371 94v-293z" />
    <glyph glyph-name="Gdotaccent" unicode="&#x120;" horiz-adv-x="1421" 
d="M49 717q0 153 44 279.5t119.5 212t177.5 144.5t215.5 86t236.5 27q250 0 463 -86v-422q-72 45 -175 71t-202 26q-81 0 -150 -19t-124.5 -58t-87 -106t-31.5 -155q0 -77 22 -137.5t55 -95t76 -57t80 -30.5t72 -8q25 0 57 4v408h442v-738q-246 -96 -487 -96
q-126 0 -242.5 28.5t-219 89t-178 147.5t-119.5 211.5t-44 273.5zM590 1718q0 99 59.5 150t149.5 51q91 0 150 -51t59 -150q0 -100 -59 -151t-150 -51q-90 0 -149.5 51t-59.5 151z" />
    <glyph glyph-name="gdotaccent" unicode="&#x121;" horiz-adv-x="1280" 
d="M45 504q0 83 16.5 157t52.5 139.5t88 113t128 75t168 27.5q104 0 185.5 -42.5t133.5 -109.5v119h379v-920q0 -118 -33 -212t-89 -156t-133.5 -102.5t-163 -58t-181.5 -17.5q-244 0 -446 84v356q166 -90 368 -90q248 0 248 168v49q-101 -94 -268 -94q-114 0 -203 42
t-142.5 114.5t-80.5 163t-27 194.5zM768 606q-16 29 -50.5 49.5t-76.5 20.5q-74 0 -111.5 -52.5t-37.5 -125.5q0 -74 37.5 -126.5t111.5 -52.5q42 0 76.5 20.5t50.5 49.5v217zM412 1268q0 99 59.5 149.5t149.5 50.5q91 0 149.5 -50.5t58.5 -149.5q0 -100 -58.5 -151.5
t-149.5 -51.5q-90 0 -149.5 51.5t-59.5 151.5z" />
    <glyph glyph-name="Gcommaaccent" unicode="&#x122;" horiz-adv-x="1421" 
d="M49 717q0 153 44 279.5t119.5 212t177.5 144.5t215.5 86t236.5 27q250 0 463 -86v-422q-72 45 -175 71t-202 26q-81 0 -150 -19t-124.5 -58t-87 -106t-31.5 -155q0 -77 22 -137.5t55 -95t76 -57t80 -30.5t72 -8q25 0 57 4v408h442v-738q-246 -96 -487 -96
q-126 0 -242.5 28.5t-219 89t-178 147.5t-119.5 211.5t-44 273.5zM895 -651h-332l82 520h391z" />
    <glyph glyph-name="gcommaaccent" unicode="&#x123;" horiz-adv-x="1280" 
d="M805 1090h-354l108 442h307zM45 504q0 83 16.5 157t52.5 139.5t88 113t128 75t168 27.5q104 0 185.5 -42.5t133.5 -109.5v119h379v-920q0 -118 -33 -212t-89 -156t-133.5 -102.5t-163 -58t-181.5 -17.5q-244 0 -446 84v356q166 -90 368 -90q248 0 248 168v49
q-101 -94 -268 -94q-114 0 -203 42t-142.5 114.5t-80.5 163t-27 194.5zM768 606q-16 29 -50.5 49.5t-76.5 20.5q-74 0 -111.5 -52.5t-37.5 -125.5q0 -74 37.5 -126.5t111.5 -52.5q42 0 76.5 20.5t50.5 49.5v217z" />
    <glyph glyph-name="Hbar" unicode="&#x126;" horiz-adv-x="1619" 
d="M614 0h-471v1059h-135v215h135v160h471v-160h390v160h473v-160h135v-215h-135v-1059h-473v518h-390v-518zM614 1059v-146h390v146h-390z" />
    <glyph glyph-name="hbar" unicode="&#x127;" horiz-adv-x="1216" 
d="M514 930q112 86 250 86q97 0 172.5 -32.5t119 -87.5t65.5 -121t22 -140v-635h-430v561q0 47 -26.5 70.5t-68.5 23.5q-61 0 -104 -49v-606h-430v1096h-121v211h121v127h430v-127h250v-211h-250v-166z" />
    <glyph glyph-name="Imacron" unicode="&#x12a;" horiz-adv-x="690" 
d="M109 1434h473v-1434h-473v1434zM-25 1839h744v-297h-744v297z" />
    <glyph glyph-name="imacron" unicode="&#x12b;" horiz-adv-x="600" 
d="M-2 1399h602v-271h-602v271zM84 983h432v-983h-432v983z" />
    <glyph glyph-name="Iogonek" unicode="&#x12e;" horiz-adv-x="690" 
d="M582 1434v-1434q-54 -39 -83.5 -82t-29.5 -74q0 -47 53 -47q26 0 49 10v-253q-84 -37 -198 -37q-128 0 -195 61t-65 154q0 69 45 142t118 126h-167v1434h473z" />
    <glyph glyph-name="iogonek" unicode="&#x12f;" horiz-adv-x="600" 
d="M524 1300q0 -107 -64 -162t-161 -55q-96 0 -160.5 55t-64.5 162q0 105 64.5 160.5t160.5 55.5q97 0 161 -55.5t64 -160.5zM219 0h-135v983h432v-983h-2q-54 -39 -83.5 -82t-29.5 -74q0 -47 54 -47q26 0 49 10v-243q-84 -47 -199 -47q-127 0 -193.5 61t-66.5 154
q0 70 47 142.5t127 125.5z" />
    <glyph glyph-name="Idotaccent" unicode="&#x130;" horiz-adv-x="690" 
d="M109 1434h473v-1434h-473v1434zM139 1718q0 99 59.5 150t149.5 51q91 0 150 -51t59 -150q0 -100 -59 -151t-150 -51q-90 0 -149.5 51t-59.5 151z" />
    <glyph glyph-name="dotlessi" unicode="&#x131;" horiz-adv-x="600" 
d="M84 983h432v-983h-432v983z" />
    <glyph glyph-name="IJ" unicode="&#x132;" horiz-adv-x="1753" 
d="M109 1434h473v-1434h-473v1434zM854 1434h803v-936q0 -117 -32 -209t-85.5 -150t-127.5 -95.5t-152 -53t-166 -15.5q-222 0 -373 62v418q117 -52 248 -52q215 0 215 154v463h-330v414z" />
    <glyph glyph-name="ij" unicode="&#x133;" horiz-adv-x="1200" 
d="M516 0h-432v983h432v-983zM524 1300q0 -107 -64 -162t-161 -55q-96 0 -160.5 55t-64.5 162q0 105 64.5 160.5t160.5 55.5q97 0 161 -55.5t64 -160.5zM1116 -104q0 -100 -33.5 -175t-92.5 -118.5t-131.5 -64.5t-158.5 -21q-122 0 -204 30v351q46 -11 84 -11q104 0 104 109
v987h432v-1087zM1126 1300q0 -107 -64 -162t-161 -55q-96 0 -160.5 55t-64.5 162q0 105 64.5 160.5t160.5 55.5q97 0 161 -55.5t64 -160.5z" />
    <glyph glyph-name="Kcommaaccent" unicode="&#x136;" horiz-adv-x="1490" 
d="M582 0h-473v1434h473v-508h118l287 508h520l-436 -711l445 -723h-521l-305 512h-108v-512zM834 -631h-332l82 520h391z" />
    <glyph glyph-name="kcommaaccent" unicode="&#x137;" horiz-adv-x="1220" 
d="M1233 0h-469l-186 332h-62v-332h-432v1434h432v-766h64l174 315h469l-303 -485zM705 -631h-332l82 520h391z" />
    <glyph glyph-name="Lacute" unicode="&#x139;" 
d="M109 1434h473v-1020h612v-414h-1085v1434zM489 1540h-374l200 336h424z" />
    <glyph glyph-name="lacute" unicode="&#x13a;" horiz-adv-x="600" 
d="M84 1495h432v-1495h-432v1495zM455 1597h-375l201 336h424z" />
    <glyph glyph-name="Lcommaaccent" unicode="&#x13b;" 
d="M109 1434h473v-1020h612v-414h-1085v1434zM723 -631h-332l82 520h391z" />
    <glyph glyph-name="lcommaaccent" unicode="&#x13c;" horiz-adv-x="600" 
d="M84 1495h432v-1495h-432v1495zM348 -631h-332l82 520h391z" />
    <glyph glyph-name="Lcaron" unicode="&#x13d;" horiz-adv-x="1224" 
d="M797 1434h342l-80 -476h-295zM109 1434h473v-1020h612v-414h-1085v1434z" />
    <glyph glyph-name="lcaron" unicode="&#x13e;" horiz-adv-x="600" 
d="M618 1495h343l-80 -475h-295zM84 1495h432v-1495h-432v1495z" />
    <glyph glyph-name="Ldot" unicode="&#x13f;" horiz-adv-x="1245" 
d="M1126 852q0 -101 -61.5 -154t-153.5 -53q-91 0 -152 53.5t-61 153.5q0 102 61 155.5t152 53.5q92 0 153.5 -53.5t61.5 -155.5zM109 1434h473v-1020h612v-414h-1085v1434z" />
    <glyph glyph-name="ldot" unicode="&#x140;" horiz-adv-x="1050" 
d="M84 1495h432v-1495h-432v1495zM1065 717q0 -113 -68.5 -172.5t-171.5 -59.5q-102 0 -170.5 59.5t-68.5 172.5q0 112 68.5 171.5t170.5 59.5q103 0 171.5 -59t68.5 -172z" />
    <glyph glyph-name="Lslash" unicode="&#x141;" horiz-adv-x="1329" 
d="M1305 0h-1086v449l-164 -58v381l164 57v605h473v-439l266 97v-381l-266 -97v-200h613v-414z" />
    <glyph glyph-name="lslash" unicode="&#x142;" horiz-adv-x="821" 
d="M195 1495h432v-567l145 55v-321l-145 -54v-608h-432v438l-146 -55v322l146 55v735z" />
    <glyph glyph-name="Nacute" unicode="&#x143;" horiz-adv-x="1562" 
d="M582 0h-473v1434h399l485 -674q-12 103 -12 246v428h473v-1434h-399l-486 672q13 -112 13 -242v-430zM913 1540h-374l200 336h424z" />
    <glyph glyph-name="nacute" unicode="&#x144;" 
d="M463 885q131 131 301 131q97 0 172.5 -32.5t120 -87.5t66.5 -121t22 -140v-635h-432v561q0 47 -26.5 70.5t-68.5 23.5q-64 0 -102 -49v-606h-432v983h379v-98zM729 1090h-375l201 335h424z" />
    <glyph glyph-name="Ncommaaccent" unicode="&#x145;" horiz-adv-x="1562" 
d="M582 0h-473v1434h399l485 -674q-12 103 -12 246v428h473v-1434h-399l-486 672q13 -112 13 -242v-430zM895 -631h-332l82 520h391z" />
    <glyph glyph-name="ncommaaccent" unicode="&#x146;" 
d="M463 885q131 131 301 131q97 0 172.5 -32.5t120 -87.5t66.5 -121t22 -140v-635h-432v561q0 47 -26.5 70.5t-68.5 23.5q-64 0 -102 -49v-606h-432v983h379v-98zM682 -631h-332l82 520h391z" />
    <glyph glyph-name="Ncaron" unicode="&#x147;" horiz-adv-x="1562" 
d="M582 0h-473v1434h399l485 -674q-12 103 -12 246v428h473v-1434h-399l-486 672q13 -112 13 -242v-430zM1227 1890l-271 -350h-378l-271 350h359l100 -125l102 125h359z" />
    <glyph glyph-name="ncaron" unicode="&#x148;" 
d="M463 885q131 131 301 131q97 0 172.5 -32.5t120 -87.5t66.5 -121t22 -140v-635h-432v561q0 47 -26.5 70.5t-68.5 23.5q-64 0 -102 -49v-606h-432v983h379v-98zM1042 1440l-270 -350h-379l-270 350h358l101 -125l102 125h358z" />
    <glyph glyph-name="Eng" unicode="&#x14a;" horiz-adv-x="1562" 
d="M1454 -23q0 -215 -112 -333.5t-312 -118.5q-63 0 -176 22v355q28 -8 51 -8q47 0 74 27t27 73v74l-437 604q13 -112 13 -242v-430h-473v1434h399l485 -674q-12 103 -12 246v428h473v-1457z" />
    <glyph glyph-name="eng" unicode="&#x14b;" 
d="M1145 -104q0 -86 -24 -153.5t-62.5 -109t-91 -68.5t-105 -37.5t-108.5 -10.5q-111 0 -179 30v324q24 -6 52 -6q86 0 86 102v594q0 47 -26.5 70.5t-68.5 23.5q-64 0 -102 -49v-606h-432v983h379v-98q131 131 301 131q97 0 172.5 -32.5t120 -87.5t66.5 -121t22 -140v-739z
" />
    <glyph glyph-name="Omacron" unicode="&#x14c;" horiz-adv-x="1650" 
d="M49 717q0 156 49.5 291t144 237.5t244.5 161.5t338 59t338 -59t245 -161.5t144.5 -237.5t49.5 -291t-49.5 -291t-144.5 -238t-245 -162t-338 -59t-338 59t-244.5 162t-144 238t-49.5 291zM1116 717q0 149 -77 235t-214 86t-213.5 -86t-76.5 -235t76.5 -235.5t213.5 -86.5
t214 86.5t77 235.5zM455 1839h743v-297h-743v297z" />
    <glyph glyph-name="omacron" unicode="&#x14d;" 
d="M43 492q0 129 45 230.5t123 165t179 96t218 32.5t218.5 -32.5t180.5 -96t124 -165t45 -230.5q0 -104 -29.5 -190.5t-82 -147.5t-124 -103.5t-155.5 -63t-177 -20.5q-117 0 -218 33t-179 96t-123 165t-45 231zM754 492q0 76 -34.5 121.5t-111.5 45.5q-75 0 -109 -46
t-34 -121t34 -121.5t109 -46.5q77 0 111.5 46t34.5 122zM240 1380h743v-297h-743v297z" />
    <glyph glyph-name="Ohungarumlaut" unicode="&#x150;" horiz-adv-x="1650" 
d="M49 717q0 156 49.5 291t144 237.5t244.5 161.5t338 59t338 -59t245 -161.5t144.5 -237.5t49.5 -291t-49.5 -291t-144.5 -238t-245 -162t-338 -59t-338 59t-244.5 162t-144 238t-49.5 291zM1116 717q0 149 -77 235t-214 86t-213.5 -86t-76.5 -235t76.5 -235.5t213.5 -86.5
t214 86.5t77 235.5zM1190 1542h-348l174 344h375zM743 1542h-348l158 344h373z" />
    <glyph glyph-name="ohungarumlaut" unicode="&#x151;" 
d="M43 492q0 129 45 230.5t123 165t179 96t218 32.5t218.5 -32.5t180.5 -96t124 -165t45 -230.5q0 -104 -29.5 -190.5t-82 -147.5t-124 -103.5t-155.5 -63t-177 -20.5q-117 0 -218 33t-179 96t-123 165t-45 231zM754 492q0 76 -34.5 121.5t-111.5 45.5q-75 0 -109 -46
t-34 -121t34 -121.5t109 -46.5q77 0 111.5 46t34.5 122zM975 1083h-348l174 344h375zM528 1083h-348l158 344h373z" />
    <glyph glyph-name="OE" unicode="&#x152;" horiz-adv-x="2101" 
d="M1038 0q-109 -33 -247 -33t-257.5 38.5t-207.5 107t-151 162t-94.5 206t-31.5 236.5q0 155 50.5 291t143 238t234.5 161t314 59q138 0 247 -32h983v-373h-538v-166h465v-348h-465v-170h551v-377h-996zM532 717q0 -67 18.5 -122.5t49 -92.5t71 -62.5t84.5 -37t89 -11.5
q95 0 182 35v582q-84 34 -182 34q-58 0 -111.5 -18.5t-99.5 -56t-73.5 -102t-27.5 -148.5z" />
    <glyph glyph-name="oe" unicode="&#x153;" horiz-adv-x="1843" 
d="M961 131q-60 -82 -158 -123t-221 -41q-112 0 -208.5 33t-170.5 96.5t-116 165t-42 230.5t42 230.5t116 165t170.5 96t208.5 32.5q241 0 372 -158q71 82 168 120t203 38q100 0 181 -26.5t135 -73t91 -107t52.5 -131t15.5 -142.5t-16 -143h-604q25 -60 102 -91.5t176 -31.5
q174 0 283 39v-291q-151 -51 -344 -51q-293 0 -436 164zM467 492q0 -75 34 -121.5t109 -46.5q77 0 111.5 46t34.5 122t-34.5 121.5t-111.5 45.5q-75 0 -109 -46t-34 -121zM1315 731q-63 0 -102 -40t-39 -101h260q9 51 -21 96t-98 45z" />
    <glyph glyph-name="Racute" unicode="&#x154;" horiz-adv-x="1492" 
d="M582 0h-473v1434h665q96 0 181 -14.5t165 -51t137.5 -93t92 -145.5t34.5 -202q0 -305 -245 -428l368 -500h-520l-295 424h-110v-424zM582 1049v-271h182q68 0 106.5 37t38.5 98t-38.5 98.5t-106.5 37.5h-182zM860 1540h-375l201 336h424z" />
    <glyph glyph-name="racute" unicode="&#x155;" horiz-adv-x="858" 
d="M463 868q123 164 366 136v-406q-83 27 -175.5 12.5t-137.5 -63.5v-547h-432v983h379v-115zM586 1090h-375l201 335h424z" />
    <glyph glyph-name="Rcommaaccent" unicode="&#x156;" horiz-adv-x="1492" 
d="M582 0h-473v1434h665q96 0 181 -14.5t165 -51t137.5 -93t92 -145.5t34.5 -202q0 -305 -245 -428l368 -500h-520l-295 424h-110v-424zM582 1049v-271h182q68 0 106.5 37t38.5 98t-38.5 98.5t-106.5 37.5h-182zM829 -631h-331l82 520h391z" />
    <glyph glyph-name="rcommaaccent" unicode="&#x157;" horiz-adv-x="858" 
d="M463 868q123 164 366 136v-406q-83 27 -175.5 12.5t-137.5 -63.5v-547h-432v983h379v-115zM344 -631h-332l82 520h391z" />
    <glyph glyph-name="Rcaron" unicode="&#x158;" horiz-adv-x="1492" 
d="M582 0h-473v1434h665q96 0 181 -14.5t165 -51t137.5 -93t92 -145.5t34.5 -202q0 -305 -245 -428l368 -500h-520l-295 424h-110v-424zM582 1049v-271h182q68 0 106.5 37t38.5 98t-38.5 98.5t-106.5 37.5h-182zM1174 1890l-271 -350h-379l-270 350h358l101 -125l102 125
h359z" />
    <glyph glyph-name="rcaron" unicode="&#x159;" horiz-adv-x="858" 
d="M463 868q123 164 366 136v-406q-83 27 -175.5 12.5t-137.5 -63.5v-547h-432v983h379v-115zM899 1440l-270 -350h-379l-270 350h358l100 -125l103 125h358z" />
    <glyph glyph-name="Sacute" unicode="&#x15a;" horiz-adv-x="1300" 
d="M70 1022q0 110 44 196t121.5 139.5t178 81t219.5 27.5q142 0 282 -31t244 -87v-410q-104 66 -229.5 102t-245.5 35q-127 0 -127 -63q0 -24 24 -43t64 -33.5t92.5 -29.5t110 -34t115 -42.5t110 -59.5t92.5 -81t64 -111t24 -146q0 -107 -31.5 -189t-85 -133.5t-132 -84
t-164 -45.5t-189.5 -13q-327 0 -569 135v428q128 -84 264 -126t258 -42q91 0 126.5 16.5t35.5 53.5q0 29 -38.5 52t-100 42t-135.5 41.5t-148 59t-135.5 85t-100 128.5t-38.5 182zM766 1540h-375l201 336h424z" />
    <glyph glyph-name="sacute" unicode="&#x15b;" horiz-adv-x="1005" 
d="M57 700q0 70 25 125.5t66 90.5t99.5 58t121 32.5t133.5 9.5q207 0 387 -84v-303q-64 39 -151.5 64.5t-159.5 25.5t-72 -35q0 -21 25.5 -36.5t66 -27.5t89.5 -26t98.5 -37t90 -55t66 -86.5t25.5 -124.5q0 -74 -27 -131t-71.5 -93t-108 -59t-131.5 -32t-148 -9
q-252 0 -411 86v330q77 -55 175 -82t179 -27q53 0 74.5 9t21.5 28t-25.5 34.5t-66.5 27.5t-90 26.5t-98.5 38.5t-90.5 56t-66.5 85t-25.5 121zM637 1090h-375l201 335h424z" />
    <glyph glyph-name="Scedilla" unicode="&#x15e;" horiz-adv-x="1300" 
d="M557 1012q0 -24 24 -43t64 -33.5t92.5 -29.5t110 -34t115 -42.5t110 -59.5t92.5 -81t64 -111t24 -146q0 -406 -454 -457l-21 -63q189 -26 189 -184q0 -73 -48.5 -123t-119 -70t-156.5 -20q-142 0 -242 39v215q76 -31 162 -31q117 0 117 51q0 35 -55 45.5t-127 3.5l39 133
q-265 22 -455 131v428q128 -84 264 -126t258 -42q91 0 126.5 16.5t35.5 53.5q0 29 -38.5 52t-100 42t-135.5 41.5t-148 59t-135.5 85t-100 128.5t-38.5 182q0 110 44 196t121.5 139.5t178 81t219.5 27.5q142 0 282 -31t244 -87v-410q-104 66 -229.5 102t-245.5 35
q-127 0 -127 -63z" />
    <glyph glyph-name="scedilla" unicode="&#x15f;" horiz-adv-x="1005" 
d="M506 684q0 -21 25.5 -36.5t66 -27.5t89.5 -26t98.5 -37t90 -55t66 -86.5t25.5 -124.5q0 -254 -305 -309l-23 -70q188 -25 188 -184q0 -56 -27 -98t-73 -66.5t-102 -36.5t-119 -12q-145 0 -242 39v215q76 -31 160 -31q117 0 117 51q0 35 -54.5 45.5t-126.5 3.5l39 131
q-191 9 -329 84v330q77 -55 175 -82t179 -27q53 0 74.5 9t21.5 28t-25.5 34.5t-66.5 27.5t-90 26.5t-98.5 38.5t-90.5 56t-66.5 85t-25.5 121q0 70 25 125.5t66 90.5t99.5 58t121 32.5t133.5 9.5q207 0 387 -84v-303q-64 39 -151.5 64.5t-159.5 25.5t-72 -35z" />
    <glyph glyph-name="Scaron" unicode="&#x160;" horiz-adv-x="1300" 
d="M70 1022q0 110 44 196t121.5 139.5t178 81t219.5 27.5q142 0 282 -31t244 -87v-410q-104 66 -229.5 102t-245.5 35q-127 0 -127 -63q0 -24 24 -43t64 -33.5t92.5 -29.5t110 -34t115 -42.5t110 -59.5t92.5 -81t64 -111t24 -146q0 -107 -31.5 -189t-85 -133.5t-132 -84
t-164 -45.5t-189.5 -13q-327 0 -569 135v428q128 -84 264 -126t258 -42q91 0 126.5 16.5t35.5 53.5q0 29 -38.5 52t-100 42t-135.5 41.5t-148 59t-135.5 85t-100 128.5t-38.5 182zM1079 1890l-270 -350h-379l-270 350h358l100 -125l103 125h358z" />
    <glyph glyph-name="scaron" unicode="&#x161;" horiz-adv-x="1005" 
d="M57 700q0 70 25 125.5t66 90.5t99.5 58t121 32.5t133.5 9.5q207 0 387 -84v-303q-64 39 -151.5 64.5t-159.5 25.5t-72 -35q0 -21 25.5 -36.5t66 -27.5t89.5 -26t98.5 -37t90 -55t66 -86.5t25.5 -124.5q0 -74 -27 -131t-71.5 -93t-108 -59t-131.5 -32t-148 -9
q-252 0 -411 86v330q77 -55 175 -82t179 -27q53 0 74.5 9t21.5 28t-25.5 34.5t-66.5 27.5t-90 26.5t-98.5 38.5t-90.5 56t-66.5 85t-25.5 121zM950 1440l-270 -350h-379l-270 350h358l100 -125l103 125h358z" />
    <glyph glyph-name="Tcommaaccent" unicode="&#x162;" horiz-adv-x="1290" 
d="M25 1434h1241v-414h-385v-1020h-471v1020h-385v414zM713 -631h-332l82 520h391z" />
    <glyph glyph-name="tcommaaccent" unicode="&#x163;" horiz-adv-x="890" 
d="M172 1247l432 101v-365h219v-344h-219v-227q0 -93 117 -93q67 0 117 17v-332q-144 -39 -277 -39q-61 0 -114 10t-105 36t-88.5 67t-59 108.5t-22.5 155.5v297h-137v344h137v264zM590 -631h-332l82 520h391z" />
    <glyph glyph-name="Tcaron" unicode="&#x164;" horiz-adv-x="1290" 
d="M25 1434h1241v-414h-385v-1020h-471v1020h-385v414zM1108 1890l-270 -350h-379l-271 350h359l100 -125l103 125h358z" />
    <glyph glyph-name="tcaron" unicode="&#x165;" horiz-adv-x="890" 
d="M741 1567h342l-79 -477h-295zM172 1247l432 101v-365h219v-344h-219v-227q0 -93 117 -93q67 0 117 17v-332q-144 -39 -277 -39q-61 0 -114 10t-105 36t-88.5 67t-59 108.5t-22.5 155.5v297h-137v344h137v264z" />
    <glyph glyph-name="Tbar" unicode="&#x166;" horiz-adv-x="1314" 
d="M893 0h-471v487h-229l2 281h227v252h-385v414h1241v-414h-385v-252h229v-281h-229v-487z" />
    <glyph glyph-name="tbar" unicode="&#x167;" horiz-adv-x="890" 
d="M604 403q0 -86 117 -86q57 0 117 17v-330q-156 -39 -277 -39q-61 0 -114 10t-105 36t-88.5 67t-59 108.5t-22.5 155.5v84h-90v149h90v84h-137v324h137v264l432 101v-365h219v-324h-219v-84h176v-149h-176v-23z" />
    <glyph glyph-name="Umacron" unicode="&#x16a;" horiz-adv-x="1515" 
d="M952 1434h471v-877q0 -129 -37 -231t-99 -168t-148.5 -110t-180.5 -62.5t-200 -18.5t-200 18.5t-181 62.5t-149 110t-99 168t-37 231v877h473v-854q0 -189 193 -189q194 0 194 189v854zM389 1839h744v-297h-744v297z" />
    <glyph glyph-name="umacron" unicode="&#x16b;" 
d="M702 983h433v-983h-379v98q-131 -131 -303 -131q-97 0 -172.5 32.5t-119 87.5t-65.5 121t-22 140v635h432v-561q0 -48 25.5 -71t68.5 -23q64 0 102 49v606zM236 1389h743v-297h-743v297z" />
    <glyph glyph-name="Uring" unicode="&#x16e;" horiz-adv-x="1515" 
d="M952 1434h471v-877q0 -129 -37 -231t-99 -168t-148.5 -110t-180.5 -62.5t-200 -18.5t-200 18.5t-181 62.5t-149 110t-99 168t-37 231v877h473v-854q0 -189 193 -189q194 0 194 189v854zM1053 1755q0 -128 -82.5 -199t-208.5 -71q-122 0 -205.5 71t-83.5 199
q0 121 84 192.5t205 71.5q125 0 208 -71t83 -193zM694 1753q0 -31 18 -51.5t52 -20.5t52 20.5t18 51.5t-18 50.5t-52 19.5t-52 -19.5t-18 -50.5z" />
    <glyph glyph-name="uring" unicode="&#x16f;" 
d="M702 983h433v-983h-379v98q-131 -131 -303 -131q-97 0 -172.5 32.5t-119 87.5t-65.5 121t-22 140v635h432v-561q0 -48 25.5 -71t68.5 -23q64 0 102 49v606zM899 1305q0 -129 -82.5 -200t-208.5 -71q-122 0 -205.5 71.5t-83.5 199.5q0 121 84 192.5t205 71.5
q125 0 208 -71t83 -193zM541 1303q0 -31 17.5 -51.5t51.5 -20.5t52 20.5t18 51.5t-18 50t-52 19t-51.5 -19t-17.5 -50z" />
    <glyph glyph-name="Uhungarumlaut" unicode="&#x170;" horiz-adv-x="1515" 
d="M952 1434h471v-877q0 -129 -37 -231t-99 -168t-148.5 -110t-180.5 -62.5t-200 -18.5t-200 18.5t-181 62.5t-149 110t-99 168t-37 231v877h473v-854q0 -189 193 -189q194 0 194 189v854zM1124 1542h-348l174 344h375zM678 1542h-348l157 344h373z" />
    <glyph glyph-name="uhungarumlaut" unicode="&#x171;" 
d="M702 983h433v-983h-379v98q-131 -131 -303 -131q-97 0 -172.5 32.5t-119 87.5t-65.5 121t-22 140v635h432v-561q0 -48 25.5 -71t68.5 -23q64 0 102 49v606zM971 1092h-348l174 344h374zM524 1092h-348l158 344h373z" />
    <glyph glyph-name="Uogonek" unicode="&#x172;" horiz-adv-x="1517" 
d="M1174 -436q-81 -47 -199 -47q-130 0 -201.5 62.5t-71.5 158.5q3 114 101 229h-43q-106 0 -200 18.5t-181 62.5t-149 110t-99 168t-37 231v877h473v-854q0 -189 193 -189q194 0 194 189v854h471v-877q0 -303 -192 -451q-95 -75 -135.5 -140.5t-40.5 -106.5
q0 -27 16.5 -40.5t42.5 -13.5q29 0 58 13v-254z" />
    <glyph glyph-name="uogonek" unicode="&#x173;" 
d="M1135 983v-983q-54 -39 -83.5 -82t-29.5 -74q0 -47 53 -47q28 0 49 6v-256q-86 -30 -198 -30q-128 0 -195 61t-65 154q0 69 45 142t118 126h-73v98q-131 -131 -303 -131q-97 0 -172.5 32.5t-119 87.5t-65.5 121t-22 140v635h432v-561q0 -48 25.5 -71t68.5 -23
q64 0 102 49v606h433z" />
    <glyph glyph-name="Wcircumflex" unicode="&#x174;" horiz-adv-x="2277" 
d="M1759 1434h510l-432 -1434h-508l-190 723l-189 -723h-510l-432 1434h508l205 -865l223 865h389l221 -865zM944 1880h379l262 -350h-358l-92 117l-93 -117h-360z" />
    <glyph glyph-name="wcircumflex" unicode="&#x175;" horiz-adv-x="1728" 
d="M1274 983h440l-303 -983h-420l-127 485l-127 -485h-420l-303 983h441l112 -547l133 547h328l133 -547zM672 1430h379l262 -351h-359l-92 117l-92 -117h-360z" />
    <glyph glyph-name="Ycircumflex" unicode="&#x176;" horiz-adv-x="1542" 
d="M1006 0h-469v489l-545 945h534l246 -543l246 543h534l-546 -945v-489zM571 1880h379l262 -350h-358l-92 117l-92 -117h-361z" />
    <glyph glyph-name="ycircumflex" unicode="&#x177;" horiz-adv-x="1236" 
d="M641 444l150 539h438l-375 -1042q-151 -422 -524 -422q-92 0 -215 35v348q82 -21 145 -21q124 0 182 113l-450 989h446zM412 1430h379l262 -351h-359l-92 117l-92 -117h-360z" />
    <glyph glyph-name="Ydieresis" unicode="&#x178;" horiz-adv-x="1542" 
d="M1006 0h-469v489l-545 945h534l246 -543l246 543h534l-546 -945v-489zM1198 1708q0 -88 -56.5 -142.5t-142.5 -54.5q-85 0 -140.5 54.5t-55.5 142.5t55.5 142.5t140.5 54.5q86 0 142.5 -54.5t56.5 -142.5zM725 1708q0 -88 -56.5 -142.5t-142.5 -54.5q-85 0 -140.5 54.5
t-55.5 142.5t55.5 142.5t140.5 54.5q86 0 142.5 -54.5t56.5 -142.5z" />
    <glyph glyph-name="Zacute" unicode="&#x179;" horiz-adv-x="1323" 
d="M1262 0h-1207v301l533 719h-500v414h1149v-301l-532 -719h557v-414zM809 1540h-375l201 336h424z" />
    <glyph glyph-name="zacute" unicode="&#x17a;" horiz-adv-x="1034" 
d="M86 983h862v-254l-336 -385h365v-344h-922v254l338 385h-307v344zM680 1090h-375l201 335h424z" />
    <glyph glyph-name="Zdotaccent" unicode="&#x17b;" horiz-adv-x="1323" 
d="M1262 0h-1207v301l533 719h-500v414h1149v-301l-532 -719h557v-414zM461 1718q0 99 59.5 150t149.5 51q91 0 150 -51t59 -150q0 -100 -59 -151t-150 -51q-90 0 -149.5 51t-59.5 151z" />
    <glyph glyph-name="zdotaccent" unicode="&#x17c;" horiz-adv-x="1034" 
d="M86 983h862v-254l-336 -385h365v-344h-922v254l338 385h-307v344zM332 1268q0 99 59.5 149.5t149.5 50.5q91 0 150 -50.5t59 -149.5q0 -100 -59 -151.5t-150 -51.5q-90 0 -149.5 51.5t-59.5 151.5z" />
    <glyph glyph-name="Zcaron" unicode="&#x17d;" horiz-adv-x="1323" 
d="M1262 0h-1207v301l533 719h-500v414h1149v-301l-532 -719h557v-414zM1122 1890l-270 -350h-379l-270 350h358l101 -125l102 125h358z" />
    <glyph glyph-name="zcaron" unicode="&#x17e;" horiz-adv-x="1034" 
d="M86 983h862v-254l-336 -385h365v-344h-922v254l338 385h-307v344zM993 1440l-270 -350h-379l-270 350h358l100 -125l103 125h358z" />
    <glyph glyph-name="Scommaaccent" unicode="&#x218;" horiz-adv-x="1300" 
d="M70 1022q0 110 44 196t121.5 139.5t178 81t219.5 27.5q142 0 282 -31t244 -87v-410q-104 66 -229.5 102t-245.5 35q-127 0 -127 -63q0 -24 24 -43t64 -33.5t92.5 -29.5t110 -34t115 -42.5t110 -59.5t92.5 -81t64 -111t24 -146q0 -107 -31.5 -189t-85 -133.5t-132 -84
t-164 -45.5t-189.5 -13q-327 0 -569 135v428q128 -84 264 -126t258 -42q91 0 126.5 16.5t35.5 53.5q0 29 -38.5 52t-100 42t-135.5 41.5t-148 59t-135.5 85t-100 128.5t-38.5 182zM723 -631h-332l82 520h391z" />
    <glyph glyph-name="scommaaccent" unicode="&#x219;" horiz-adv-x="1005" 
d="M57 700q0 70 25 125.5t66 90.5t99.5 58t121 32.5t133.5 9.5q207 0 387 -84v-303q-64 39 -151.5 64.5t-159.5 25.5t-72 -35q0 -21 25.5 -36.5t66 -27.5t89.5 -26t98.5 -37t90 -55t66 -86.5t25.5 -124.5q0 -74 -27 -131t-71.5 -93t-108 -59t-131.5 -32t-148 -9
q-252 0 -411 86v330q77 -55 175 -82t179 -27q53 0 74.5 9t21.5 28t-25.5 34.5t-66.5 27.5t-90 26.5t-98.5 38.5t-90.5 56t-66.5 85t-25.5 121zM582 -631h-332l82 520h391z" />
    <glyph glyph-name="uni021A" unicode="&#x21a;" horiz-adv-x="1290" 
d="M25 1434h1241v-414h-385v-1020h-471v1020h-385v414zM713 -631h-332l82 520h391z" />
    <glyph glyph-name="uni021B" unicode="&#x21b;" horiz-adv-x="890" 
d="M172 1247l432 101v-365h219v-344h-219v-227q0 -93 117 -93q67 0 117 17v-332q-144 -39 -277 -39q-61 0 -114 10t-105 36t-88.5 67t-59 108.5t-22.5 155.5v297h-137v344h137v264zM590 -631h-332l82 520h391z" />
    <glyph glyph-name="circumflex" unicode="&#x2c6;" horiz-adv-x="856" 
d="M238 1880h378l263 -350h-359l-92 117l-92 -117h-361z" />
    <glyph glyph-name="caron" unicode="&#x2c7;" horiz-adv-x="856" 
d="M889 1890l-271 -350h-378l-271 350h359l100 -125l102 125h359z" />
    <glyph glyph-name="breve" unicode="&#x2d8;" horiz-adv-x="874" 
d="M807 1618q-157 -105 -371 -105q-212 0 -370 105v293q153 -94 370 -94q218 0 371 94v-293z" />
    <glyph glyph-name="dotaccent" unicode="&#x2d9;" horiz-adv-x="432" 
d="M10 1722q0 99 59.5 150t149.5 51q91 0 150 -51t59 -150q0 -100 -59 -151t-150 -51q-90 0 -149.5 51t-59.5 151z" />
    <glyph glyph-name="ring" unicode="&#x2da;" horiz-adv-x="567" 
d="M573 1755q0 -128 -82 -199t-208 -71q-122 0 -205.5 71t-83.5 199q0 121 84 192.5t205 71.5q125 0 207.5 -71t82.5 -193zM215 1753q0 -31 18 -51.5t52 -20.5t51.5 20.5t17.5 51.5t-17.5 50.5t-51.5 19.5t-52 -19.5t-18 -50.5z" />
    <glyph glyph-name="ogonek" unicode="&#x2db;" horiz-adv-x="485" 
d="M168 0h305q-54 -39 -83.5 -82t-29.5 -74q0 -47 54 -47q26 0 49 10v-253q-84 -37 -199 -37q-128 0 -195 61t-65 154q0 69 45.5 141.5t118.5 126.5z" />
    <glyph glyph-name="tilde" unicode="&#x2dc;" horiz-adv-x="921" 
d="M872 1872q40 -151 -29 -260t-204 -109q-59 0 -116 21.5t-99 43t-64 21.5q-29 0 -38 -26.5t0 -46.5h-273q-40 151 29 259.5t205 108.5q58 0 115 -21.5t98 -43t63 -21.5q30 0 38.5 23.5t2.5 50.5h272z" />
    <glyph glyph-name="hungarumlaut" unicode="&#x2dd;" horiz-adv-x="1032" 
d="M842 1542h-348l174 344h374zM395 1542h-348l158 344h373z" />
    <glyph glyph-name="uni0326" unicode="&#x326;" horiz-adv-x="512" 
d="M385 -631h-332l82 520h391z" />
    <glyph glyph-name="uni0401" unicode="&#x401;" horiz-adv-x="1273" 
d="M1092 1708q0 -88 -56.5 -142.5t-142.5 -54.5q-85 0 -141 54.5t-56 142.5t56 142.5t141 54.5q86 0 142.5 -54.5t56.5 -142.5zM618 1708q0 -88 -56 -142.5t-142 -54.5q-85 0 -141 54.5t-56 142.5t56 142.5t141 54.5q86 0 142 -54.5t56 -142.5zM109 1434h1085v-373h-612
v-166h538v-348h-538v-170h624v-377h-1097v1434z" />
    <glyph glyph-name="uni0410" unicode="&#x410;" horiz-adv-x="1566" 
d="M473 0h-479l536 1434h508l535 -1434h-479l-62 190h-495zM745 838l-100 -306h281l-101 306q-29 97 -41 184q-10 -74 -39 -184z" />
    <glyph glyph-name="uni0411" unicode="&#x411;" horiz-adv-x="1398" 
d="M582 920h229q551 0 551 -461q0 -459 -551 -459h-702v1434h1132v-379h-659v-135zM582 344h170q68 0 104.5 25t36.5 90t-36.5 90.5t-104.5 25.5h-170v-231z" />
    <glyph glyph-name="uni0412" unicode="&#x412;" horiz-adv-x="1431" 
d="M109 1434h716q508 0 508 -363q0 -230 -205 -309q263 -80 263 -352q0 -410 -584 -410h-698v1434zM920 465q0 57 -35.5 87t-102.5 30h-200v-234h200q67 0 102.5 30t35.5 87zM879 979q0 47 -30.5 76.5t-88.5 29.5h-178v-211l178 -2q57 0 88 30.5t31 76.5z" />
    <glyph glyph-name="uni0413" unicode="&#x413;" horiz-adv-x="1204" 
d="M582 0h-473v1434h1075v-414h-602v-1020z" />
    <glyph glyph-name="uni0414" unicode="&#x414;" horiz-adv-x="1740" 
d="M457 -279h-420v676h170q65 119 108.5 249t65 265.5t29.5 256t8 266.5h1089v-1037h187v-676h-420v279h-817v-279zM836 1032q-17 -208 -48.5 -358.5t-95.5 -276.5h348v635h-204z" />
    <glyph glyph-name="uni0415" unicode="&#x415;" horiz-adv-x="1273" 
d="M109 1434h1085v-373h-612v-166h538v-348h-538v-170h624v-377h-1097v1434z" />
    <glyph glyph-name="uni0416" unicode="&#x416;" horiz-adv-x="2140" 
d="M510 0h-520l383 723l-375 711h520l236 -508h80v508h473v-508h79l234 508h520l-373 -711l383 -723h-520l-254 512h-69v-512h-473v512h-72z" />
    <glyph glyph-name="uni0417" unicode="&#x417;" horiz-adv-x="1292" 
d="M1243 393q0 -81 -24.5 -147t-69 -112t-102 -79t-129 -52t-144.5 -27.5t-153 -8.5q-275 0 -558 94v420q229 -112 500 -112q207 0 207 104q0 82 -123 82h-342v344h303q107 0 107 72q0 92 -178 92q-98 0 -223 -30t-226 -81v420q235 94 492 94q289 0 447.5 -101.5
t158.5 -303.5q0 -106 -56 -187t-165 -118q278 -94 278 -363z" />
    <glyph glyph-name="uni0418" unicode="&#x418;" horiz-adv-x="1562" 
d="M1454 0h-473v430q0 139 12 242l-485 -672h-399v1434h473v-428q0 -134 -13 -246l486 674h399v-1434z" />
    <glyph glyph-name="uni0419" unicode="&#x419;" horiz-adv-x="1562" 
d="M981 0h473v1434h-399l-486 -674q13 112 13 246v428h-473v-1434h399l485 672q-12 -103 -12 -242v-430zM1161 1622q-156 -104 -370 -104q-215 0 -371 104v293q153 -94 371 -94q217 0 370 94v-293z" />
    <glyph glyph-name="uni041A" unicode="&#x41a;" horiz-adv-x="1490" 
d="M582 0h-473v1434h473v-508h118l287 508h520l-436 -711l445 -723h-521l-305 512h-108v-512z" />
    <glyph glyph-name="uni041B" unicode="&#x41b;" horiz-adv-x="1556" 
d="M344 1434h1104v-1434h-473v1020h-199q-7 -95 -15 -172.5t-21 -167.5t-29 -161.5t-40.5 -147t-53.5 -132.5t-69.5 -109t-88 -85t-108.5 -52.5t-132 -19.5q-110 0 -215 31v410q81 -26 143 12q38 18 67.5 62t48.5 112.5t31.5 139.5t20 169t11.5 175t9 182.5t9 167.5z" />
    <glyph glyph-name="uni041C" unicode="&#x41c;" horiz-adv-x="1857" 
d="M1329 1434h420v-1434h-461v655l-235 -364h-248l-236 366v-657h-460v1434h419l400 -627z" />
    <glyph glyph-name="uni041D" unicode="&#x41d;" horiz-adv-x="1550" 
d="M971 1434h471v-1434h-471v510h-389v-510h-473v1434h473v-510h389v510z" />
    <glyph glyph-name="uni041E" unicode="&#x41e;" horiz-adv-x="1650" 
d="M49 717q0 156 49.5 291t144 237.5t244.5 161.5t338 59t338 -59t245 -161.5t144.5 -237.5t49.5 -291t-49.5 -291t-144.5 -238t-245 -162t-338 -59t-338 59t-244.5 162t-144 238t-49.5 291zM1116 717q0 149 -77 235t-214 86t-213.5 -86t-76.5 -235t76.5 -235.5t213.5 -86.5
t214 86.5t77 235.5z" />
    <glyph glyph-name="uni041F" unicode="&#x41f;" horiz-adv-x="1560" 
d="M580 0h-471v1434h1343v-1434h-471v1020h-401v-1020z" />
    <glyph glyph-name="uni0420" unicode="&#x420;" horiz-adv-x="1415" 
d="M109 1434h626q643 0 643 -531q0 -528 -643 -528h-153v-375h-473v1434zM909 903q0 141 -178 141h-149v-280h149q178 0 178 139z" />
    <glyph glyph-name="uni0421" unicode="&#x421;" horiz-adv-x="1331" 
d="M51 702q-1 158 43 288t119 217t176.5 146.5t213.5 86t233 26.5q229 0 421 -86v-422q-63 43 -154 71t-183 28q-77 0 -143.5 -20t-121.5 -61t-86.5 -111t-31.5 -163q0 -81 31.5 -144t84.5 -100.5t118 -56t138 -18.5q112 0 208 26.5t151 75.5v-432q-192 -86 -420 -86
q-125 0 -239 26t-216.5 83t-178 141t-119.5 208.5t-44 276.5z" />
    <glyph glyph-name="uni0422" unicode="&#x422;" horiz-adv-x="1290" 
d="M25 1434h1241v-414h-385v-1020h-471v1020h-385v414z" />
    <glyph glyph-name="uni0423" unicode="&#x423;" horiz-adv-x="1460" 
d="M954 330q-91 -196 -213.5 -279.5t-304.5 -83.5q-110 0 -260 43v381q82 -29 168 -29q130 0 166 82l22 45l-544 945h506l262 -564l211 564h503z" />
    <glyph glyph-name="uni0424" unicode="&#x424;" horiz-adv-x="1824" 
d="M1128 -96h-428v184q-322 23 -504 188t-182 441t182 441t504 188v184h428v-184q320 -23 501 -188t181 -441t-181 -441t-501 -188v-184zM479 717q0 -46 11 -85t35.5 -76t70.5 -62t111 -33v512q-65 -8 -111 -33t-70.5 -62t-35.5 -76t-11 -85zM1122 973v-512q63 9 108 34
t69 61.5t34 75.5t10 85t-10 85t-34 75.5t-69 61.5t-108 34z" />
    <glyph glyph-name="uni0425" unicode="&#x425;" horiz-adv-x="1497" 
d="M512 0h-551l492 739l-467 695h551l213 -371l211 371h550l-467 -695l492 -739h-551l-235 403z" />
    <glyph glyph-name="uni0426" unicode="&#x426;" horiz-adv-x="1671" 
d="M1620 -279h-420v279h-1091v1434h473v-1020h391v1020h473v-1020h174v-693z" />
    <glyph glyph-name="uni0427" unicode="&#x427;" horiz-adv-x="1454" 
d="M1346 0h-474v455q-140 -45 -290 -45q-155 0 -270.5 52t-183 163t-67.5 272v537h474v-480q0 -68 48.5 -100.5t125.5 -32.5q88 0 163 35v578h474v-1434z" />
    <glyph glyph-name="uni0428" unicode="&#x428;" horiz-adv-x="2125" 
d="M2017 0h-1908v1434h473v-1020h245v1020h473v-1020h246v1020h471v-1434z" />
    <glyph glyph-name="uni0429" unicode="&#x429;" horiz-adv-x="2244" 
d="M2193 -279h-419v279h-1665v1434h473v-1020h245v1020h473v-1020h246v1020h471v-1020h176v-693z" />
    <glyph glyph-name="uni042A" unicode="&#x42a;" horiz-adv-x="1619" 
d="M967 0h-627v1020h-311v414h784v-410h154q620 0 620 -512t-620 -512zM813 635v-246h150q68 0 111.5 30.5t43.5 92.5t-43.5 92.5t-111.5 30.5h-150z" />
    <glyph glyph-name="uni042B" unicode="&#x42b;" horiz-adv-x="2023" 
d="M735 0h-626v1434h473v-410h153q619 0 619 -512t-619 -512zM582 635v-246h149q68 0 112 30.5t44 92.5t-44 92.5t-112 30.5h-149zM1915 0h-473v1434h473v-1434z" />
    <glyph glyph-name="uni042C" unicode="&#x42c;" horiz-adv-x="1386" 
d="M735 0h-626v1434h473v-410h153q619 0 619 -512t-619 -512zM582 635v-246h149q68 0 112 30.5t44 92.5t-44 92.5t-112 30.5h-149z" />
    <glyph glyph-name="uni042D" unicode="&#x42d;" horiz-adv-x="1331" 
d="M76 1380q192 86 422 86q121 0 232.5 -26.5t213.5 -86t176.5 -146.5t118.5 -217t43 -288q0 -152 -44 -276.5t-119.5 -208.5t-178 -141t-216.5 -83t-239 -26q-217 0 -409 86v408q58 -49 153.5 -75t202.5 -26q304 0 375 179h-524v358h520q-43 99 -137.5 138.5t-235.5 41.5
q-96 0 -192.5 -26.5t-161.5 -69.5v399z" />
    <glyph glyph-name="uni042E" unicode="&#x42e;" horiz-adv-x="2293" 
d="M2245 717q0 -156 -50 -291t-145 -238t-245.5 -162t-338.5 -59q-152 0 -279.5 41.5t-217.5 115.5t-149.5 171.5t-86.5 214.5h-151v-510h-473v1434h473v-510h151q27 117 86.5 214.5t149.5 171.5t217.5 115t279.5 41q188 0 338.5 -59t245.5 -161.5t145 -237.5t50 -291z
M1178 717q0 -149 76.5 -235.5t213.5 -86.5t214 86.5t77 235.5t-77 235t-214 86t-213.5 -86t-76.5 -235z" />
    <glyph glyph-name="uni042F" unicode="&#x42f;" horiz-adv-x="1484" 
d="M530 0h-532l364 506q-262 128 -262 418q0 111 34 199t91 145.5t136 95.5t165.5 54t184.5 16h665v-1434h-471v424h-80zM578 913q0 -62 41 -98.5t118 -36.5h168v271h-168q-77 0 -118 -37t-41 -99z" />
    <glyph glyph-name="uni0430" unicode="&#x430;" horiz-adv-x="1196" 
d="M1073 311q0 -53 57 -53q15 0 39 4v-252q-85 -37 -217 -37q-171 0 -245 105q-136 -111 -328 -111q-146 0 -244 78t-98 219q0 72 26 129t67.5 92t99 58t116 32t123.5 9q105 0 195 -19v23q0 108 -195 108q-164 0 -354 -69v323q218 66 403 66q106 0 188 -13t153 -45.5
t116.5 -86t71.5 -137t26 -195.5v-228zM578 387q-51 0 -87 -21t-36 -67q0 -36 27.5 -57t68.5 -21q63 0 113 33v121q-34 12 -86 12z" />
    <glyph glyph-name="uni0431" unicode="&#x431;" horiz-adv-x="1202" 
d="M1155 426q0 -92 -28.5 -168.5t-78 -129.5t-117.5 -90t-146 -54t-164 -17q-91 0 -169.5 17.5t-153 61.5t-127 112.5t-84.5 177t-32 248.5q0 135 21.5 242.5t63.5 185.5t94 133.5t122 99.5q78 49 168.5 79t166 42t146 21.5t129 27.5t93.5 51v-379q-41 -36 -98 -54.5
t-107.5 -22.5t-115.5 -14.5t-111 -30.5q-63 -26 -104.5 -85t-43.5 -122q107 116 283 116q81 0 151.5 -28t125 -82t85.5 -141t31 -197zM477 444q0 -59 29.5 -102t99.5 -43q69 0 98 43.5t29 101.5t-29 101t-98 43q-70 0 -99.5 -43t-29.5 -101z" />
    <glyph glyph-name="uni0432" unicode="&#x432;" horiz-adv-x="1144" 
d="M737 0h-653v983h631q86 0 152.5 -18t104.5 -44.5t62.5 -63t32.5 -68.5t8 -66q0 -167 -149 -229q182 -64 182 -236q0 -36 -9.5 -69.5t-35 -69t-65.5 -61t-107 -42t-154 -16.5zM489 385v-139h119q40 0 63 18.5t23 50.5q0 70 -88 70h-117zM489 735v-139h105q40 0 63 18.5
t23 51.5q0 32 -22.5 50.5t-63.5 18.5h-105z" />
    <glyph glyph-name="uni0433" unicode="&#x433;" horiz-adv-x="899" 
d="M516 0h-432v983h786v-344h-354v-639z" />
    <glyph glyph-name="uni0434" unicode="&#x434;" horiz-adv-x="1378" 
d="M420 -252h-387v555h135q77 139 104.5 304.5t24.5 375.5h897v-680h139v-555h-387v252h-526v-252zM657 678q-6 -208 -82 -375h218v375h-136z" />
    <glyph glyph-name="uni0435" unicode="&#x435;" horiz-adv-x="1120" 
d="M43 498q0 111 34 201.5t88.5 148t125.5 96.5t141 55.5t139 16.5q92 0 169.5 -19.5t132.5 -54t96.5 -82t65 -102.5t34.5 -117t9 -124t-15 -124h-606q25 -60 102 -91.5t178 -31.5q162 0 283 39v-291q-148 -51 -358 -51q-97 0 -185.5 18.5t-168.5 59.5t-138 102t-92.5 151
t-34.5 200zM713 592q9 50 -20.5 94.5t-98.5 44.5q-64 0 -102.5 -39t-38.5 -100h260z" />
    <glyph glyph-name="uni0436" unicode="&#x436;" horiz-adv-x="1759" 
d="M1751 0h-448l-152 313h-64v-313h-415v313h-64l-151 -313h-449l256 487l-246 496h449l151 -334h54v334h415v-334h54l151 334h449l-246 -496z" />
    <glyph glyph-name="uni0437" unicode="&#x437;" horiz-adv-x="1019" 
d="M975 274q0 -46 -14.5 -88t-52 -82.5t-95 -70t-150 -48t-210.5 -18.5q-235 0 -402 80v293q63 -31 159.5 -53.5t180.5 -22.5q137 0 137 64q0 31 -28 42t-82 11h-197v231h180q107 0 107 52q0 57 -123 57q-72 0 -164 -21.5t-147 -50.5v295q66 31 181.5 52.5t229.5 21.5
q113 -1 199 -20.5t136 -48.5t81.5 -69t42 -77t10.5 -78q0 -82 -44 -140t-115 -81q91 -28 135.5 -88t44.5 -142z" />
    <glyph glyph-name="uni0438" unicode="&#x438;" horiz-adv-x="1239" 
d="M422 0h-338v983h405v-397l328 397h338v-983h-405v397z" />
    <glyph glyph-name="uni0439" unicode="&#x439;" horiz-adv-x="1239" 
d="M963 1161q-143 -84 -345 -84q-199 0 -342 84v277q137 -74 342 -74t345 74v-277zM422 0h-338v983h405v-397l328 397h338v-983h-405v397z" />
    <glyph glyph-name="uni043A" unicode="&#x43a;" horiz-adv-x="1222" 
d="M516 0h-432v983h432v-315h64l174 315h469l-303 -485l313 -498h-469l-186 332h-62v-332z" />
    <glyph glyph-name="uni043B" unicode="&#x43b;" horiz-adv-x="1257" 
d="M625 647q-12 -134 -30.5 -234t-50.5 -186t-76 -140t-108 -84t-147 -30q-101 0 -199 31v348q48 -12 84 -6q83 16 115 173q21 100 35 387v3q3 49 4 74h922v-983h-433v647h-116z" />
    <glyph glyph-name="uni043C" unicode="&#x43c;" horiz-adv-x="1402" 
d="M475 0h-391v983h352l264 -422l267 422h352v-983h-391v414l-152 -242h-149l-152 242v-414z" />
    <glyph glyph-name="uni043D" unicode="&#x43d;" horiz-adv-x="1230" 
d="M516 0h-432v983h432v-326h199v326h432v-983h-432v326h-199v-326z" />
    <glyph glyph-name="uni043E" unicode="&#x43e;" 
d="M43 492q0 129 45 230.5t123 165t179 96t218 32.5t218.5 -32.5t180.5 -96t124 -165t45 -230.5q0 -104 -29.5 -190.5t-82 -147.5t-124 -103.5t-155.5 -63t-177 -20.5q-117 0 -218 33t-179 96t-123 165t-45 231zM754 492q0 76 -34.5 121.5t-111.5 45.5q-75 0 -109 -46
t-34 -121t34 -121.5t109 -46.5q77 0 111.5 46t34.5 122z" />
    <glyph glyph-name="uni043F" unicode="&#x43f;" horiz-adv-x="1222" 
d="M516 0h-432v983h1055v-983h-430v639h-193v-639z" />
    <glyph glyph-name="uni0440" unicode="&#x440;" horiz-adv-x="1280" 
d="M463 864q54 68 136 110t185 42q113 0 201.5 -43.5t142 -118t80.5 -166.5t27 -196t-27 -196.5t-80.5 -167t-142 -118t-201.5 -43.5q-166 0 -268 92v-510h-432v1434h379v-119zM791 492q0 73 -38.5 125.5t-111.5 52.5q-42 0 -76.5 -20.5t-50.5 -49.5v-217q14 -28 49.5 -49
t77.5 -21q73 0 111.5 53t38.5 126z" />
    <glyph glyph-name="uni0441" unicode="&#x441;" horiz-adv-x="1003" 
d="M43 465q0 115 33 209.5t88 157.5t131 106.5t159 62.5t173 19q153 0 303 -59v-355q-110 56 -225 56q-95 0 -156.5 -41t-61.5 -129q0 -85 59 -125.5t150 -40.5q141 0 244 49v-352q-163 -56 -342 -56q-110 0 -207 29t-176 86.5t-125.5 156t-46.5 226.5z" />
    <glyph glyph-name="uni0442" unicode="&#x442;" horiz-adv-x="999" 
d="M715 0h-430v639h-254v344h938v-344h-254v-639z" />
    <glyph glyph-name="uni0443" unicode="&#x443;" horiz-adv-x="1236" 
d="M641 444l150 539h438l-375 -1042q-151 -422 -524 -422q-92 0 -215 35v348q82 -21 145 -21q124 0 182 113l-450 989h446z" />
    <glyph glyph-name="uni0444" unicode="&#x444;" horiz-adv-x="1638" 
d="M1018 -451h-400v418q-257 12 -417 152.5t-160 372.5q0 154 74.5 271t204 181t298.5 72v418h400v-418q259 -12 419 -152t160 -372t-160 -372.5t-419 -152.5v-418zM459 492q0 -75 41 -125.5t125 -59.5v369q-85 -9 -125.5 -58.5t-40.5 -125.5zM1014 676v-369q83 9 124.5 60
t41.5 125q0 75 -41 125t-125 59z" />
    <glyph glyph-name="uni0445" unicode="&#x445;" horiz-adv-x="1169" 
d="M719 983h455l-328 -494l340 -489h-463l-137 225l-137 -225h-465l340 489l-326 494h453l135 -235z" />
    <glyph glyph-name="uni0446" unicode="&#x446;" horiz-adv-x="1329" 
d="M1280 -252h-387v252h-809v983h432v-639h193v639h430v-643h141v-592z" />
    <glyph glyph-name="uni0447" unicode="&#x447;" horiz-adv-x="1171" 
d="M1087 0h-432v266q-86 -30 -223 -30q-56 0 -109.5 12.5t-103.5 41t-87.5 70t-60 104t-22.5 138.5v381h432v-326q0 -77 86 -77q45 0 88 16v387h432v-983z" />
    <glyph glyph-name="uni0448" unicode="&#x448;" horiz-adv-x="1755" 
d="M1671 0h-1587v983h432v-639h146v639h432v-639h147v639h430v-983z" />
    <glyph glyph-name="uni0449" unicode="&#x449;" horiz-adv-x="1861" 
d="M1812 -252h-387v252h-1341v983h432v-639h146v639h432v-639h147v639h430v-643h141v-592z" />
    <glyph glyph-name="uni044A" unicode="&#x44a;" horiz-adv-x="1335" 
d="M694 731h193q202 0 310 -101.5t108 -262.5t-108.5 -264t-309.5 -103h-623v662h-235v321h665v-252zM694 274h72q54 0 83.5 26.5t29.5 70.5q0 45 -29.5 71.5t-83.5 26.5h-72v-195z" />
    <glyph glyph-name="uni044B" unicode="&#x44b;" horiz-adv-x="1744" 
d="M707 0h-623v983h432v-252h191q202 0 309.5 -101.5t107.5 -262.5t-108 -264t-309 -103zM514 469v-195h72q54 0 83 26.5t29 70.5q0 45 -29 71.5t-83 26.5h-72zM1661 0h-432v983h432v-983z" />
    <glyph glyph-name="uni044C" unicode="&#x44c;" horiz-adv-x="1155" 
d="M707 0h-623v983h432v-252h191q202 0 309.5 -101.5t107.5 -262.5t-108 -264t-309 -103zM514 469v-195h72q54 0 83 26.5t29 70.5q0 45 -29 71.5t-83 26.5h-72z" />
    <glyph glyph-name="uni044D" unicode="&#x44d;" horiz-adv-x="1056" 
d="M1014 469q0 -102 -33.5 -187.5t-88.5 -142.5t-128 -96.5t-151 -57.5t-158 -18q-131 0 -215.5 19t-180.5 67v305q57 -40 135 -62t154 -22q201 0 248 97h-367v241h367q-48 97 -242 97q-69 0 -147 -22t-137 -62v307q167 84 364 84q94 0 179 -20t158.5 -63.5t127.5 -107
t84.5 -154.5t30.5 -202z" />
    <glyph glyph-name="uni044E" unicode="&#x44e;" horiz-adv-x="1744" 
d="M1702 492q0 -129 -45 -231t-123 -165t-179 -96t-218 -33q-186 0 -329 93.5t-192 269.5h-104v-330h-428v983h428v-330h104q49 176 192 269.5t329 93.5q117 0 218 -32.5t179 -96t123 -165t45 -230.5zM991 492q0 -71 33.5 -118.5t110.5 -47.5q79 0 112 47t33 119t-33 118.5
t-112 46.5q-77 0 -110.5 -47t-33.5 -118z" />
    <glyph glyph-name="uni044F" unicode="&#x44f;" horiz-adv-x="1187" 
d="M467 0h-451l228 313q-89 48 -133.5 129t-44.5 176q0 70 25.5 133.5t75 116t134 84t193.5 31.5h610v-983h-406v258h-59zM487 602q0 -88 107 -88h104v178h-104q-53 0 -80 -24t-27 -66z" />
    <glyph glyph-name="uni0451" unicode="&#x451;" horiz-adv-x="1120" 
d="M1001 1257q0 -88 -56 -142t-142 -54q-85 0 -141 54t-56 142t56 142.5t141 54.5q86 0 142 -54.5t56 -142.5zM528 1257q0 -88 -56 -142t-142 -54q-85 0 -141 54t-56 142t56 142.5t141 54.5q86 0 142 -54.5t56 -142.5zM43 498q0 111 34 201.5t88.5 148t125.5 96.5t141 55.5
t139 16.5q92 0 169.5 -19.5t132.5 -54t96.5 -82t65 -102.5t34.5 -117t9 -124t-15 -124h-606q25 -60 102 -91.5t178 -31.5q162 0 283 39v-291q-148 -51 -358 -51q-97 0 -185.5 18.5t-168.5 59.5t-138 102t-92.5 151t-34.5 200zM713 592q9 50 -20.5 94.5t-98.5 44.5
q-64 0 -102.5 -39t-38.5 -100h260z" />
    <glyph glyph-name="Wgrave" unicode="&#x1e80;" horiz-adv-x="2277" 
d="M1759 1434h510l-432 -1434h-508l-190 723l-189 -723h-510l-432 1434h508l205 -865l223 865h389l221 -865zM1366 1540h-375l-250 336h422z" />
    <glyph glyph-name="wgrave" unicode="&#x1e81;" horiz-adv-x="1728" 
d="M1274 983h440l-303 -983h-420l-127 485l-127 -485h-420l-303 983h441l112 -547l133 547h328l133 -547zM1094 1090h-375l-250 335h422z" />
    <glyph glyph-name="Wacute" unicode="&#x1e82;" horiz-adv-x="2277" 
d="M1759 1434h510l-432 -1434h-508l-190 723l-189 -723h-510l-432 1434h508l205 -865l223 865h389l221 -865zM1278 1540h-375l201 336h424z" />
    <glyph glyph-name="wacute" unicode="&#x1e83;" horiz-adv-x="1728" 
d="M1274 983h440l-303 -983h-420l-127 485l-127 -485h-420l-303 983h441l112 -547l133 547h328l133 -547zM1006 1090h-375l200 335h424z" />
    <glyph glyph-name="Wdieresis" unicode="&#x1e84;" horiz-adv-x="2277" 
d="M1759 1434h510l-432 -1434h-508l-190 723l-189 -723h-510l-432 1434h508l205 -865l223 865h389l221 -865zM1571 1708q0 -88 -56.5 -142.5t-142.5 -54.5q-85 0 -140.5 54.5t-55.5 142.5t55.5 142.5t140.5 54.5q86 0 142.5 -54.5t56.5 -142.5zM1098 1708
q0 -88 -56.5 -142.5t-142.5 -54.5q-85 0 -141 54.5t-56 142.5t56 142.5t141 54.5q86 0 142.5 -54.5t56.5 -142.5z" />
    <glyph glyph-name="wdieresis" unicode="&#x1e85;" horiz-adv-x="1728" 
d="M1274 983h440l-303 -983h-420l-127 485l-127 -485h-420l-303 983h441l112 -547l133 547h328l133 -547zM1298 1257q0 -88 -56 -142t-142 -54q-85 0 -141 54t-56 142t56 142.5t141 54.5q86 0 142 -54.5t56 -142.5zM825 1257q0 -88 -56 -142t-142 -54q-85 0 -141 54t-56 142
t56 142.5t141 54.5q86 0 142 -54.5t56 -142.5z" />
    <glyph glyph-name="Ygrave" unicode="&#x1ef2;" horiz-adv-x="1542" 
d="M1006 0h-469v489l-545 945h534l246 -543l246 543h534l-546 -945v-489zM993 1540h-375l-249 336h422z" />
    <glyph glyph-name="ygrave" unicode="&#x1ef3;" horiz-adv-x="1236" 
d="M641 444l150 539h438l-375 -1042q-151 -422 -524 -422q-92 0 -215 35v348q82 -21 145 -21q124 0 182 113l-450 989h446zM834 1090h-375l-250 335h422z" />
    <glyph glyph-name="endash" unicode="&#x2013;" horiz-adv-x="1198" 
d="M1106 326h-1014v333h1014v-333z" />
    <glyph glyph-name="emdash" unicode="&#x2014;" horiz-adv-x="1619" 
d="M1528 326h-1436v333h1436v-333z" />
    <glyph glyph-name="quoteleft" unicode="&#x2018;" horiz-adv-x="608" 
d="M438 805h-415l237 629h322z" />
    <glyph glyph-name="quoteright" unicode="&#x2019;" horiz-adv-x="598" 
d="M365 805h-324l145 629h414z" />
    <glyph glyph-name="quotesinglbase" unicode="&#x201a;" horiz-adv-x="585" 
d="M299 -293h-324l146 629h414z" />
    <glyph glyph-name="quotedblleft" unicode="&#x201c;" horiz-adv-x="1093" 
d="M924 805h-416l237 629h322zM438 805h-415l237 629h322z" />
    <glyph glyph-name="quotedblright" unicode="&#x201d;" horiz-adv-x="1083" 
d="M850 805h-324l146 629h413zM365 805h-324l145 629h414z" />
    <glyph glyph-name="quotedblbase" unicode="&#x201e;" horiz-adv-x="1071" 
d="M784 -293h-323l145 629h414zM299 -293h-324l146 629h414z" />
    <glyph glyph-name="dagger" unicode="&#x2020;" horiz-adv-x="1173" 
d="M823 -451h-471v1018h-301v416h301v451h471v-451h299v-416h-299v-1018z" />
    <glyph glyph-name="daggerdbl" unicode="&#x2021;" horiz-adv-x="1280" 
d="M877 -451h-474v383h-321v402h321v248h-321v401h321v451h474v-451h321v-401h-321v-248h321v-402h-321v-383z" />
    <glyph glyph-name="bullet" unicode="&#x2022;" horiz-adv-x="894" 
d="M98 717q0 84 28.5 150t77.5 105t110.5 59t131.5 20q72 0 134 -20t110.5 -59.5t76.5 -104.5t28 -150q0 -86 -28 -152t-76.5 -106t-110.5 -60t-134 -20q-70 0 -131.5 20t-110.5 60t-77.5 106t-28.5 152z" />
    <glyph glyph-name="ellipsis" unicode="&#x2026;" horiz-adv-x="1814" 
d="M1763 199q0 -113 -68 -172.5t-171 -59.5q-102 0 -171 59.5t-69 172.5q0 112 69 171.5t171 59.5q103 0 171 -59t68 -172zM530 199q0 -113 -68 -172.5t-171 -59.5q-102 0 -171 59.5t-69 172.5q0 112 69 171.5t171 59.5q103 0 171 -59t68 -172zM1147 199
q0 -113 -68.5 -172.5t-171.5 -59.5q-102 0 -170.5 59.5t-68.5 172.5q0 112 68.5 171.5t170.5 59.5q103 0 171.5 -59t68.5 -172z" />
    <glyph glyph-name="perthousand" unicode="&#x2030;" horiz-adv-x="2869" 
d="M698 -123h-260l838 1679h260zM877 1077q0 -95 -33 -170.5t-90.5 -122.5t-131.5 -71.5t-159 -24.5q-86 0 -160.5 24.5t-132 71.5t-90.5 122.5t-33 170.5t33 170.5t90.5 122.5t132 71.5t160.5 24.5q85 0 159 -24.5t131.5 -71.5t90.5 -122.5t33 -170.5zM360 1077
q0 -44 23 -75t78 -31t77.5 31t22.5 75t-23 75.5t-77 31.5q-55 0 -78 -31.5t-23 -75.5zM1921 356q0 -95 -33 -170.5t-90.5 -122.5t-132 -71.5t-160.5 -24.5q-115 0 -206.5 41.5t-149 131.5t-57.5 216q0 95 33 171t90 123.5t131 72.5t159 25q86 0 160.5 -25t132 -72.5
t90.5 -123.5t33 -171zM1405 356q0 -44 22.5 -75t77.5 -31t78 31t23 75t-23.5 76.5t-77.5 32.5t-77 -32t-23 -77zM2822 356q0 -185 -119 -287t-297 -102q-85 0 -159 25t-131 72.5t-90 122.5t-33 169q0 125 57.5 215.5t149.5 133.5t206 43q115 0 207.5 -43t150.5 -133.5
t58 -215.5zM2304 356q0 -44 22.5 -75t77.5 -31t78 31t23 75t-23.5 76.5t-77.5 32.5t-77 -32t-23 -77z" />
    <glyph glyph-name="guilsinglleft" unicode="&#x2039;" horiz-adv-x="802" 
d="M758 66h-430l-279 389v73l279 390h430l-299 -426z" />
    <glyph glyph-name="guilsinglright" unicode="&#x203a;" horiz-adv-x="802" 
d="M477 66h-432l301 426l-301 426h432l277 -390v-73z" />
    <glyph glyph-name="fraction" unicode="&#x2044;" horiz-adv-x="397" 
d="M-215 -33h-123l946 1499h123z" />
    <glyph glyph-name="Euro" unicode="&#x20ac;" horiz-adv-x="1478" 
d="M1378 53q-192 -86 -409 -86q-132 0 -250.5 30.5t-220 91t-175 160.5t-106.5 230h-162v183h135v34v35h-135v182h162q26 104 79.5 189.5t124 145t158 99.5t182 59t195.5 19q230 0 422 -86v-409q-62 43 -154 70.5t-186 27.5q-190 0 -290 -115h387v-182h-455q-2 -10 -2 -35
q0 -24 2 -34h455v-183h-385q96 -108 280 -108q105 0 199.5 27t148.5 75v-420z" />
    <glyph glyph-name="trademark" unicode="&#x2122;" horiz-adv-x="1431" 
d="M836 895h-224v539h205l154 -222l151 222h207v-539h-225v229l-76 -112h-117l-75 112v-229zM430 895h-235v330h-136v209h506v-209h-135v-330z" />
    <glyph glyph-name="oneeighth" unicode="&#x215b;" horiz-adv-x="1880" 
d="M1112 606q0 47 20 90t59.5 79.5t108 58.5t156.5 22q164 0 253 -73t89 -167q-1 -61 -27.5 -100t-76.5 -72q135 -73 135 -208q0 -109 -94.5 -182.5t-282.5 -73.5q-191 0 -281 71t-90 176q0 66 35.5 120t85.5 81q-90 72 -90 178zM1470 315q-38 11 -86 27q-26 -33 -26 -76
q2 -34 28.5 -57t79.5 -23q40 0 63 16t23 42q0 14 -6 25t-18.5 19.5t-25 14t-32.5 12.5zM1536 590q-3 59 -88 59q-35 0 -55.5 -15t-20.5 -36q0 -25 23 -40t65 -28q5 -2 25 -9t28 -9q26 43 23 78zM502 -33h-123l946 1499h123zM303 1393h207v-605h141v-231h-575v231h160v336
l-152 -51v242z" />
    <glyph glyph-name="threeeighths" unicode="&#x215c;" horiz-adv-x="1898" 
d="M1130 606q0 47 20 90t59.5 79.5t108.5 58.5t157 22q164 0 253 -73t89 -167q-1 -61 -28 -100t-77 -72q135 -73 135 -208q0 -109 -94.5 -182.5t-282.5 -73.5q-191 0 -280.5 71t-89.5 176q0 66 35.5 120t85.5 81q-91 72 -91 178zM1489 315q-38 11 -86 27q-27 -34 -27 -76
q2 -34 29 -57t80 -23q40 0 63 16t23 42q0 14 -6 25t-18.5 19.5t-25 14t-32.5 12.5zM1554 590q-3 59 -88 59q-35 0 -55 -15t-20 -36q0 -25 23 -40t65 -28q5 -2 25 -9t28 -9q25 42 22 78zM528 -33h-122l946 1499h123zM694 1188q0 -63 -34 -111t-99 -69q74 -21 121 -72t47 -133
q0 -67 -29.5 -117.5t-81 -79t-113 -42t-132.5 -13.5q-150 0 -303 57v244q134 -71 280 -68q47 0 78 15.5t31 44.5q0 47 -74 47h-147l2 211l118 -2q68 0 68 41q0 51 -98 51q-54 0 -123.5 -21t-120.5 -55v238q123 73 289 73q66 0 122.5 -14t101.5 -41.5t71 -74.5t26 -109z" />
    <glyph glyph-name="fiveeighths" unicode="&#x215d;" horiz-adv-x="1896" 
d="M1128 606q0 47 20 90t59.5 79.5t108.5 58.5t157 22q164 0 253 -73t89 -167q-1 -61 -28 -100t-77 -72q135 -73 135 -208q0 -109 -94.5 -182.5t-282.5 -73.5q-191 0 -280.5 71t-89.5 176q0 66 35.5 120t85.5 81q-91 72 -91 178zM1487 315q-39 11 -86 27q-27 -34 -27 -76
q2 -34 29 -57t80 -23q40 0 63 16t23 42q0 14 -6 25t-18.5 19.5t-25 14t-32.5 12.5zM1552 590q-3 59 -88 59q-35 0 -55 -15t-20 -36q0 -25 23 -40t65 -28q5 -2 25 -9t28 -9q25 42 22 78zM526 -33h-123l947 1499h123zM123 1393h569v-234h-319l-8 -84q37 6 73 6
q126 0 207.5 -62.5t81.5 -197.5q0 -63 -22 -113t-58.5 -82.5t-86.5 -54t-103.5 -30.5t-112.5 -9q-156 0 -278 58v231q42 -27 106 -43t125 -16q67 0 107 19t40 57q0 75 -165 75q-105 0 -185 -24z" />
    <glyph glyph-name="seveneighths" unicode="&#x215e;" horiz-adv-x="1771" 
d="M381 -33h-123l946 1499h123zM1004 606q0 47 20 90t59.5 79.5t108 58.5t156.5 22q164 0 253 -73t89 -167q-1 -61 -28 -100t-77 -72q135 -73 135 -208q0 -109 -94.5 -182.5t-282.5 -73.5q-191 0 -280.5 71t-89.5 176q0 66 35.5 120t85.5 81q-90 72 -90 178zM1362 315
q-38 11 -86 27q-27 -34 -27 -76q2 -34 29 -57t80 -23q40 0 63 16t23 42q0 14 -6 25t-18.5 19.5t-25 14t-32.5 12.5zM1427 590q-3 59 -88 59q-35 0 -55 -15t-20 -36q0 -25 23 -40t65 -28q5 -2 25 -9t28 -9q25 42 22 78zM428 553h-307l278 606h-342v234h672v-183z" />
    <glyph glyph-name="partialdiff" unicode="&#x2202;" horiz-adv-x="1181" 
d="M1128 618q0 -317 -146 -484t-423 -167q-232 0 -373 133.5t-141 348.5q0 112 32.5 200.5t89 144t127.5 84.5t152 29q84 0 158 -29t119 -81q0 36 -23 80q-43 109 -170 170t-327 43v376q445 9 685 -214.5t240 -633.5zM459 444q0 -58 29.5 -100.5t99.5 -42.5q69 0 98 42.5
t29 100.5q0 36 -9.5 66.5t-39.5 55t-78 24.5q-70 0 -99.5 -43.5t-29.5 -102.5z" />
    <glyph glyph-name="emptyset" unicode="&#x2205;" horiz-adv-x="1630" 
d="M1544 1434l-176 -207q93 -102 145 -233.5t52 -276.5q0 -153 -59 -292t-159.5 -239.5t-239.5 -159.5t-292 -59q-229 0 -418 127l-82 -94h-227l176 207q-94 102 -146 233.5t-52 276.5q0 205 100 377t272 272t377 100q228 0 420 -127l82 95h227zM815 1253
q-146 0 -269.5 -71.5t-195 -195t-71.5 -269.5q0 -197 124 -346l691 805q-126 77 -279 77zM537 258q131 -78 278 -78q146 0 269.5 72t195.5 195.5t72 269.5q0 195 -125 346z" />
    <glyph glyph-name="product" unicode="&#x220f;" horiz-adv-x="1687" 
d="M694 -451h-471v1489h-166v396h1571v-396h-164v-1489h-473v1489h-297v-1489z" />
    <glyph glyph-name="summation" unicode="&#x2211;" horiz-adv-x="1222" 
d="M1143 0h-1075v254l409 463l-409 463v254h1056v-414h-422l232 -262v-82l-232 -262h441v-414z" />
    <glyph glyph-name="minus" unicode="&#x2212;" horiz-adv-x="1062" 
d="M965 547h-867v344h867v-344z" />
    <glyph glyph-name="radical" unicode="&#x221a;" horiz-adv-x="1654" 
d="M915 0h-378l-271 567h-229v416h495l191 -465l477 1079h492z" />
    <glyph glyph-name="infinity" unicode="&#x221e;" horiz-adv-x="1830" 
d="M913 981q184 207 408 207q188 0 313 -122.5t125 -332.5t-125 -332t-313 -122q-224 0 -403 206q-183 -206 -408 -206q-188 0 -313 122t-125 332t125 332.5t313 122.5q227 0 403 -207zM729 735q-44 58 -83.5 82.5t-82.5 24.5q-41 0 -71.5 -28.5t-30.5 -80.5t30.5 -80
t71.5 -28q43 0 82.5 25t83.5 85zM1370 733q0 52 -30.5 80.5t-71.5 28.5q-85 0 -166 -111q81 -106 166 -106q41 0 71.5 28t30.5 80z" />
    <glyph glyph-name="integral" unicode="&#x222b;" horiz-adv-x="1030" 
d="M299 1196q0 99 26.5 176t70 125t104 78.5t122.5 42.5t132 12q153 0 264 -43v-360q-87 28 -154 28q-58 0 -95.5 -33.5t-37.5 -103.5v-1167q0 -99 -26.5 -176t-70 -125t-104.5 -78.5t-123.5 -42.5t-132.5 -12q-151 0 -262 43v360q90 -29 154 -29q56 0 94.5 34.5t38.5 103.5
v1167z" />
    <glyph glyph-name="approxequal" unicode="&#x2248;" horiz-adv-x="1269" 
d="M1169 1180q28 -209 -53.5 -314.5t-236.5 -105.5q-65 0 -149 25t-151.5 49.5t-93.5 23.5q-54 0 -43 -84h-340q-14 108 2 190.5t57.5 132.5t98.5 74.5t129 24.5q68 0 151.5 -24.5t150.5 -49t95 -24.5q54 0 43 82h340zM1169 698q28 -210 -53.5 -314.5t-236.5 -104.5
q-65 0 -149 25t-151.5 49.5t-93.5 23.5q-55 0 -43 -84h-340q-14 108 2 190.5t57.5 132.5t98.5 74.5t129 24.5q68 0 151.5 -24.5t150 -49.5t95.5 -25q54 0 43 82h340z" />
    <glyph glyph-name="notequal" unicode="&#x2260;" horiz-adv-x="1284" 
d="M444 115h-245l108 204h-180v332h356l70 131h-426v332h602l109 205h245l-108 -205h182v-332h-358l-70 -131h428v-332h-604z" />
    <glyph glyph-name="lessequal" unicode="&#x2264;" horiz-adv-x="1069" 
d="M961 743v-372l-871 262v432l871 264v-375l-533 -104zM961 0h-871v334h871v-334z" />
    <glyph glyph-name="greaterequal" unicode="&#x2265;" horiz-adv-x="1073" 
d="M981 643l-870 -264v375l532 104l-532 105v374l870 -264v-430zM981 0h-870v334h870v-334z" />
    <glyph glyph-name="lozenge" unicode="&#x25ca;" horiz-adv-x="1282" 
d="M883 0h-484l-348 717l348 717h484l348 -717zM473 717l168 -338l168 338l-168 338z" />
    <glyph glyph-name="i.loclTRK" horiz-adv-x="600" 
d="M84 983h432v-983h-432v983zM92 1268q0 99 59.5 149.5t149.5 50.5q91 0 150 -50.5t59 -149.5q0 -100 -59 -151.5t-150 -51.5q-90 0 -149.5 51.5t-59.5 151.5z" />
    <glyph glyph-name="a.ss01" horiz-adv-x="1280" 
d="M817 119q-52 -67 -133.5 -109.5t-185.5 -42.5q-92 0 -168 29t-128 78t-88 116.5t-52.5 143t-16.5 158.5q0 104 27 196t80.5 166.5t142.5 118t203 43.5q104 0 185.5 -42.5t133.5 -109.5v119h379v-983h-379v119zM492 492q0 -74 37.5 -126.5t111.5 -52.5q42 0 76.5 20.5
t50.5 49.5v217q-16 29 -50.5 49.5t-76.5 20.5q-74 0 -111.5 -52.5t-37.5 -125.5z" />
    <glyph glyph-name="aacute.ss01" horiz-adv-x="1280" 
d="M817 119q-52 -67 -133.5 -109.5t-185.5 -42.5q-92 0 -168 29t-128 78t-88 116.5t-52.5 143t-16.5 158.5q0 104 27 196t80.5 166.5t142.5 118t203 43.5q104 0 185.5 -42.5t133.5 -109.5v119h379v-983h-379v119zM492 492q0 -74 37.5 -126.5t111.5 -52.5q42 0 76.5 20.5
t50.5 49.5v217q-16 29 -50.5 49.5t-76.5 20.5q-74 0 -111.5 -52.5t-37.5 -125.5zM786 1090h-374l200 335h424z" />
    <glyph glyph-name="abreve.ss01" horiz-adv-x="1280" 
d="M817 119q-52 -67 -133.5 -109.5t-185.5 -42.5q-92 0 -168 29t-128 78t-88 116.5t-52.5 143t-16.5 158.5q0 104 27 196t80.5 166.5t142.5 118t203 43.5q104 0 185.5 -42.5t133.5 -109.5v119h379v-983h-379v119zM492 492q0 -74 37.5 -126.5t111.5 -52.5q42 0 76.5 20.5
t50.5 49.5v217q-16 29 -50.5 49.5t-76.5 20.5q-74 0 -111.5 -52.5t-37.5 -125.5zM1016 1171q-156 -104 -371 -104t-371 104v293q153 -94 371 -94t371 94v-293z" />
    <glyph glyph-name="acircumflex.ss01" horiz-adv-x="1280" 
d="M817 119q-52 -67 -133.5 -109.5t-185.5 -42.5q-92 0 -168 29t-128 78t-88 116.5t-52.5 143t-16.5 158.5q0 104 27 196t80.5 166.5t142.5 118t203 43.5q104 0 185.5 -42.5t133.5 -109.5v119h379v-983h-379v119zM492 492q0 -74 37.5 -126.5t111.5 -52.5q42 0 76.5 20.5
t50.5 49.5v217q-16 29 -50.5 49.5t-76.5 20.5q-74 0 -111.5 -52.5t-37.5 -125.5zM453 1430h378l263 -351h-359l-92 117l-92 -117h-361z" />
    <glyph glyph-name="adieresis.ss01" horiz-adv-x="1280" 
d="M817 119q-52 -67 -133.5 -109.5t-185.5 -42.5q-92 0 -168 29t-128 78t-88 116.5t-52.5 143t-16.5 158.5q0 104 27 196t80.5 166.5t142.5 118t203 43.5q104 0 185.5 -42.5t133.5 -109.5v119h379v-983h-379v119zM492 492q0 -74 37.5 -126.5t111.5 -52.5q42 0 76.5 20.5
t50.5 49.5v217q-16 29 -50.5 49.5t-76.5 20.5q-74 0 -111.5 -52.5t-37.5 -125.5zM1079 1257q0 -88 -56 -142t-142 -54q-85 0 -141 54t-56 142t56 142.5t141 54.5q86 0 142 -54.5t56 -142.5zM606 1257q0 -88 -56 -142t-142 -54q-85 0 -141 54t-56 142t56 142.5t141 54.5
q86 0 142 -54.5t56 -142.5z" />
    <glyph glyph-name="agrave.ss01" horiz-adv-x="1280" 
d="M817 119q-52 -67 -133.5 -109.5t-185.5 -42.5q-92 0 -168 29t-128 78t-88 116.5t-52.5 143t-16.5 158.5q0 104 27 196t80.5 166.5t142.5 118t203 43.5q104 0 185.5 -42.5t133.5 -109.5v119h379v-983h-379v119zM492 492q0 -74 37.5 -126.5t111.5 -52.5q42 0 76.5 20.5
t50.5 49.5v217q-16 29 -50.5 49.5t-76.5 20.5q-74 0 -111.5 -52.5t-37.5 -125.5zM874 1090h-374l-250 335h422z" />
    <glyph glyph-name="amacron.ss01" horiz-adv-x="1280" 
d="M817 119q-52 -67 -133.5 -109.5t-185.5 -42.5q-92 0 -168 29t-128 78t-88 116.5t-52.5 143t-16.5 158.5q0 104 27 196t80.5 166.5t142.5 118t203 43.5q104 0 185.5 -42.5t133.5 -109.5v119h379v-983h-379v119zM492 492q0 -74 37.5 -126.5t111.5 -52.5q42 0 76.5 20.5
t50.5 49.5v217q-16 29 -50.5 49.5t-76.5 20.5q-74 0 -111.5 -52.5t-37.5 -125.5zM274 1389h744v-297h-744v297z" />
    <glyph glyph-name="aogonek.ss01" horiz-adv-x="1280" 
d="M1196 983v-983q-54 -39 -83.5 -82t-29.5 -74q0 -47 54 -47q24 0 51 10v-258q-82 -32 -201 -32q-128 0 -195 61t-65 154q0 69 45.5 141.5t118.5 126.5h-74v119q-52 -67 -133.5 -109.5t-185.5 -42.5q-92 0 -168 29t-128 78t-88 116.5t-52.5 143t-16.5 158.5q0 104 27 196
t80.5 166.5t142.5 118t203 43.5q104 0 185.5 -42.5t133.5 -109.5v119h379zM641 313q42 0 76.5 20.5t50.5 49.5v217q-16 29 -50.5 49.5t-76.5 20.5q-74 0 -111.5 -52.5t-37.5 -125.5q0 -74 37.5 -126.5t111.5 -52.5z" />
    <glyph glyph-name="aring.ss01" horiz-adv-x="1280" 
d="M817 119q-52 -67 -133.5 -109.5t-185.5 -42.5q-92 0 -168 29t-128 78t-88 116.5t-52.5 143t-16.5 158.5q0 104 27 196t80.5 166.5t142.5 118t203 43.5q104 0 185.5 -42.5t133.5 -109.5v119h379v-983h-379v119zM492 492q0 -74 37.5 -126.5t111.5 -52.5q42 0 76.5 20.5
t50.5 49.5v217q-16 29 -50.5 49.5t-76.5 20.5q-74 0 -111.5 -52.5t-37.5 -125.5zM938 1305q0 -129 -82.5 -200t-208.5 -71q-122 0 -205.5 71.5t-83.5 199.5q0 121 84 192.5t205 71.5q125 0 208 -71t83 -193zM580 1303q0 -31 17.5 -51.5t51.5 -20.5t52 20.5t18 51.5t-18 50
t-52 19t-51.5 -19t-17.5 -50z" />
    <glyph glyph-name="atilde.ss01" horiz-adv-x="1280" 
d="M817 119q-52 -67 -133.5 -109.5t-185.5 -42.5q-92 0 -168 29t-128 78t-88 116.5t-52.5 143t-16.5 158.5q0 104 27 196t80.5 166.5t142.5 118t203 43.5q104 0 185.5 -42.5t133.5 -109.5v119h379v-983h-379v119zM492 492q0 -74 37.5 -126.5t111.5 -52.5q42 0 76.5 20.5
t50.5 49.5v217q-16 29 -50.5 49.5t-76.5 20.5q-74 0 -111.5 -52.5t-37.5 -125.5zM1053 1421q40 -151 -29.5 -259.5t-204.5 -108.5q-59 0 -116 21.5t-98.5 43t-63.5 21.5q-29 0 -37.5 -24.5t-1.5 -49.5h-273q-40 151 29 260t205 109q58 0 115 -21.5t98 -43t63 -21.5
q30 0 38.5 23t2.5 50h273z" />
    <glyph glyph-name="ae.ss01" horiz-adv-x="1882" 
d="M817 119q-52 -67 -133.5 -109.5t-185.5 -42.5q-92 0 -168 29t-128 78t-88 116.5t-52.5 143t-16.5 158.5q0 104 27 196t80.5 166.5t142.5 118t203 43.5q104 0 185.5 -42.5t133.5 -109.5v119h359v-109q105 142 284 142q86 0 154 -26.5t111.5 -73t71.5 -107.5t38 -132
t7 -143t-19 -145h-606q25 -58 102 -88.5t176 -30.5q157 0 252 37v-291q-104 -49 -240 -49q-210 0 -331 154v-121h-359v119zM492 492q0 -74 37.5 -126.5t111.5 -52.5q42 0 76.5 20.5t50.5 49.5v217q-16 29 -50.5 49.5t-76.5 20.5q-74 0 -111.5 -52.5t-37.5 -125.5zM1352 731
q-64 0 -103 -40t-39 -101h260q9 51 -20.5 96t-97.5 45z" />
    <glyph glyph-name="y.ss01" 
d="M1135 45q0 -133 -47 -236t-129 -165.5t-186 -94.5t-224 -32q-248 0 -426 69v363q62 -38 154.5 -60t181.5 -22q243 0 243 168v41q-113 -86 -249 -86q-97 0 -172.5 32.5t-119 88t-65.5 121.5t-22 139v612h432v-561q0 -48 25.5 -71t68.5 -23q64 0 102 49v606h433v-938z" />
    <glyph glyph-name="yacute.ss01" 
d="M1135 45q0 -133 -47 -236t-129 -165.5t-186 -94.5t-224 -32q-248 0 -426 69v363q62 -38 154.5 -60t181.5 -22q243 0 243 168v41q-113 -86 -249 -86q-97 0 -172.5 32.5t-119 88t-65.5 121.5t-22 139v612h432v-561q0 -48 25.5 -71t68.5 -23q64 0 102 49v606h433v-938z
M748 1090h-375l200 335h424z" />
    <glyph glyph-name="ycircumflex.ss01" 
d="M1135 45q0 -133 -47 -236t-129 -165.5t-186 -94.5t-224 -32q-248 0 -426 69v363q62 -38 154.5 -60t181.5 -22q243 0 243 168v41q-113 -86 -249 -86q-97 0 -172.5 32.5t-119 88t-65.5 121.5t-22 139v612h432v-561q0 -48 25.5 -71t68.5 -23q64 0 102 49v606h433v-938z
M414 1430h379l262 -351h-359l-92 117l-92 -117h-360z" />
    <glyph glyph-name="ydieresis.ss01" 
d="M1135 45q0 -133 -47 -236t-129 -165.5t-186 -94.5t-224 -32q-248 0 -426 69v363q62 -38 154.5 -60t181.5 -22q243 0 243 168v41q-113 -86 -249 -86q-97 0 -172.5 32.5t-119 88t-65.5 121.5t-22 139v612h432v-561q0 -48 25.5 -71t68.5 -23q64 0 102 49v606h433v-938z
M1040 1257q0 -88 -56 -142t-142 -54q-85 0 -141 54t-56 142t56 142.5t141 54.5q86 0 142 -54.5t56 -142.5zM567 1257q0 -88 -56 -142t-142 -54q-85 0 -141 54t-56 142t56 142.5t141 54.5q86 0 142 -54.5t56 -142.5z" />
    <glyph glyph-name="ygrave.ss01" 
d="M1135 45q0 -133 -47 -236t-129 -165.5t-186 -94.5t-224 -32q-248 0 -426 69v363q62 -38 154.5 -60t181.5 -22q243 0 243 168v41q-113 -86 -249 -86q-97 0 -172.5 32.5t-119 88t-65.5 121.5t-22 139v612h432v-561q0 -48 25.5 -71t68.5 -23q64 0 102 49v606h433v-938z
M836 1090h-375l-250 335h422z" />
    <glyph glyph-name="f_b" horiz-adv-x="2105" 
d="M1341 924q102 92 269 92q113 0 201.5 -43.5t141.5 -118t80 -166.5t27 -196q0 -83 -16.5 -158.5t-52 -143t-87.5 -116.5t-127.5 -78t-166.5 -29q-104 0 -186 42.5t-136 109.5v-119h-379v1102q-75 27 -139 24q-67 0 -108 -28.5t-41 -85.5v-29h182v-344h-182v-639h-433v639
h-139v344h139v53q0 143 64 244.5t167.5 149t235.5 47.5q157 0 314 -56l372 41v-538zM1341 383q16 -29 50.5 -49.5t76.5 -20.5q73 0 111.5 53t38.5 126t-38.5 125.5t-111.5 52.5q-42 0 -77.5 -21t-49.5 -49v-217z" />
    <glyph glyph-name="f_f_b" horiz-adv-x="2820" 
d="M2056 924q102 92 268 92q113 0 201.5 -43.5t142 -118t80.5 -166.5t27 -196t-27 -196.5t-80.5 -167t-142 -118t-201.5 -43.5q-103 0 -185 42t-136 110v-119h-379v1122q-78 28 -139 25q-68 0 -109 -30.5t-41 -94.5v-39h183v-344h-183v-639h-432v639h-282v-639h-433v639
h-139v344h139v47q0 106 37.5 188t102.5 131.5t148 75t179 25.5q188 0 365 -82q126 129 350 129q159 0 316 -55l370 41v-559zM905 983v61v48q-63 32 -149 32q-61 0 -98 -29.5t-37 -82.5v-29h284zM2056 383q16 -29 50.5 -49.5t76.5 -20.5q73 0 111.5 53t38.5 126t-38.5 125.5
t-111.5 52.5q-42 0 -77.5 -21t-49.5 -49v-217z" />
    <glyph glyph-name="f_f_h" horiz-adv-x="2758" 
d="M2056 930q109 86 248 86q97 0 172.5 -32.5t120 -87.5t66.5 -121t22 -140v-635h-432v561q0 47 -26 70.5t-68 23.5q-33 0 -60.5 -14.5t-42.5 -34.5v-606h-432v1122q-78 28 -139 25q-68 0 -109 -30.5t-41 -94.5v-39h183v-344h-183v-639h-432v639h-282v-639h-433v639h-139
v344h139v47q0 106 37.5 188t102.5 131.5t148 75t179 25.5q188 0 365 -82q126 129 350 129q159 0 316 -55l370 41v-553zM905 983v61v48q-63 32 -149 32q-61 0 -98 -29.5t-37 -82.5v-29h284z" />
    <glyph glyph-name="f_f_j" horiz-adv-x="2111" 
d="M2028 -117q0 -80 -23 -144t-61 -105.5t-89.5 -69.5t-106.5 -39.5t-114 -11.5q-103 0 -196 34v349q32 -9 57 -9q102 0 102 109v643h-262v-639h-432v639h-282v-639h-433v639h-139v344h139v47q0 106 37.5 188t102.5 131.5t148 75t179 25.5q190 0 367 -82q142 139 418 139
q185 0 395 -67v-336q-165 55 -303 55q-91 0 -144 -33t-53 -100v-43h693v-1100zM621 1012v-29h284v61v48q-63 32 -149 32q-61 0 -98 -29.5t-37 -82.5z" />
    <glyph glyph-name="f_f_k" horiz-adv-x="2760" 
d="M2763 983l-305 -487l315 -496h-465l-190 332h-62v-332h-432v1122q-78 28 -139 25q-68 0 -109 -30.5t-41 -94.5v-39h183v-344h-183v-639h-432v639h-282v-639h-433v639h-139v344h139v47q0 106 37.5 188t102.5 131.5t148 75t179 25.5q188 0 365 -82q126 129 350 129
q159 0 316 -55l370 41v-815h68l174 315h465zM905 983v61v48q-63 32 -149 32q-61 0 -98 -29.5t-37 -82.5v-29h284z" />
    <glyph glyph-name="f_h" horiz-adv-x="2043" 
d="M1341 930q109 86 248 86q97 0 172.5 -32.5t120 -87.5t66.5 -121t22 -140v-635h-432v561q0 47 -26 70.5t-68 23.5q-33 0 -60.5 -14.5t-42.5 -34.5v-606h-432v1102q-75 27 -139 24q-67 0 -108 -28.5t-41 -85.5v-29h182v-344h-182v-639h-433v639h-139v344h139v53
q0 143 64 244.5t167.5 149t235.5 47.5q157 0 314 -56l372 41v-532z" />
    <glyph glyph-name="f_i" horiz-adv-x="1378" 
d="M621 983h673v-983h-430v639h-243v-639h-433v639h-139v344h139v55q0 115 41 203t114.5 141.5t169.5 80t212 26.5q182 0 395 -68v-336q-168 56 -303 56q-91 0 -143.5 -33t-52.5 -100v-25z" />
    <glyph glyph-name="f_j" horiz-adv-x="1378" 
d="M621 983h673v-1100q0 -80 -23 -144t-60.5 -105.5t-89 -69.5t-106.5 -39.5t-114 -11.5q-103 0 -196 34v349q31 -9 57 -9q102 0 102 109v643h-243v-639h-433v639h-139v344h139v55q0 115 41 203t114.5 141.5t169.5 80t212 26.5q182 0 395 -68v-336q-168 56 -303 56
q-91 0 -143.5 -33t-52.5 -100v-25z" />
    <glyph glyph-name="f_k" horiz-adv-x="2045" 
d="M2048 983l-305 -487l315 -496h-465l-190 332h-62v-332h-432v1102q-75 27 -139 24q-67 0 -108 -28.5t-41 -85.5v-29h182v-344h-182v-639h-433v639h-139v344h139v53q0 143 64 244.5t167.5 149t235.5 47.5q157 0 314 -56l372 41v-794h68l174 315h465z" />
    <glyph glyph-name="f_l" horiz-adv-x="1425" 
d="M655 1489q160 0 314 -55l372 41v-1475h-432v1112q-68 27 -139 27q-68 -2 -108.5 -32.5t-40.5 -94.5v-29h182v-344h-182v-639h-433v639h-139v344h139v64q0 108 36.5 193.5t100.5 139t148 81.5t182 28z" />
    <glyph glyph-name="uni0414.loclBGR" horiz-adv-x="1796" 
d="M469 -279h-420v676h174l420 1037h510l420 -1037h174v-676h-420v279h-858v-279zM899 956l-199 -559h398z" />
    <glyph glyph-name="uni041B.loclBGR" horiz-adv-x="1523" 
d="M520 1434h484l524 -1434h-502l-264 879l-266 -879h-502z" />
    <glyph glyph-name="uni0424.loclBGR" horiz-adv-x="1849" 
d="M1141 -184h-428v194q-220 22 -380 122.5t-239.5 251t-79.5 333.5t79.5 333.5t239.5 250.5t380 122v195h428v-195q164 -17 296 -79t218 -156.5t132 -214.5t46 -256t-46 -256t-132 -214.5t-218 -157t-296 -79.5v-194zM485 717q0 -52 9.5 -98t33 -94.5t72 -81.5t117.5 -42
v631q-69 -9 -117.5 -41.5t-72 -81t-33 -94.5t-9.5 -98zM1135 1030v-627q47 6 84 23.5t61 43t41 55t25.5 64t12 65t3.5 63.5q0 52 -9 97.5t-31.5 93.5t-70 80.5t-116.5 41.5z" />
    <glyph glyph-name="uni0432.loclBGR" horiz-adv-x="1247" 
d="M1114 1085q0 -186 -162 -284q112 -40 183 -134.5t71 -224.5q0 -219 -152.5 -347t-404.5 -128q-108 0 -195 20t-162 68t-125 122.5t-78 188t-28 261.5v139q-1 345 152 522.5t436 177.5q205 0 335 -110.5t130 -270.5zM723 1026q0 44 -22 71t-66 27q-143 0 -156 -260l117 21
q62 13 94.5 53.5t32.5 87.5zM479 563q3 -135 40 -189.5t120 -54.5q67 0 107 40.5t40 105.5q0 62 -48.5 98t-127.5 23z" />
    <glyph glyph-name="uni0433.loclBGR" horiz-adv-x="1019" 
d="M948 53q-162 -86 -411 -86q-104 0 -189 16t-156 51.5t-111 99t-40 151.5q0 77 26 135t68 90t92.5 54t101.5 33.5t93 20.5t68 23t26 35q0 43 -80 43q-79 0 -167 -25t-152 -63v301q175 84 401 84q91 0 167.5 -16t141 -50.5t101.5 -98.5t37 -151q0 -72 -26.5 -127t-68.5 -87
t-93 -54.5t-102 -35t-93 -23t-68.5 -24.5t-26.5 -34q0 -41 107 -41q83 0 180 27t174 84v-332z" />
    <glyph glyph-name="uni0434.loclBGR" horiz-adv-x="1280" 
d="M45 504q0 83 16.5 157t52.5 139.5t88 113t128 75t168 27.5q104 0 185.5 -42.5t133.5 -109.5v119h379v-920q0 -118 -33 -212t-89 -156t-133.5 -102.5t-163 -58t-181.5 -17.5q-244 0 -446 84v356q166 -90 368 -90q248 0 248 168v49q-101 -94 -268 -94q-114 0 -203 42
t-142.5 114.5t-80.5 163t-27 194.5zM768 606q-16 29 -50.5 49.5t-76.5 20.5q-74 0 -111.5 -52.5t-37.5 -125.5q0 -74 37.5 -126.5t111.5 -52.5q42 0 76.5 20.5t50.5 49.5v217z" />
    <glyph glyph-name="uni0436.loclBGR" horiz-adv-x="1759" 
d="M457 0h-449l258 487l-248 496h449l145 -321h60v772h415v-772h60l145 321h449l-248 -496l258 -487h-448l-160 328h-56v-328h-415v328h-56z" />
    <glyph glyph-name="uni0438.loclBGR" 
d="M702 983h433v-983h-379v98q-131 -131 -303 -131q-97 0 -172.5 32.5t-119 87.5t-65.5 121t-22 140v635h432v-561q0 -48 25.5 -71t68.5 -23q64 0 102 49v606z" />
    <glyph glyph-name="uni0439.loclBGR" 
d="M948 1161q-143 -84 -344 -84q-199 0 -342 84v277q137 -74 342 -74q204 0 344 74v-277zM702 983h433v-983h-379v98q-131 -131 -303 -131q-97 0 -172.5 32.5t-119 87.5t-65.5 121t-22 140v635h432v-561q0 -48 25.5 -71t68.5 -23q64 0 102 49v606z" />
    <glyph glyph-name="uni043A.loclBGR" horiz-adv-x="1222" 
d="M1233 0h-469l-186 332h-62v-332h-432v1434h432v-766h64l174 315h469l-303 -485z" />
    <glyph glyph-name="uni043B.loclBGR" horiz-adv-x="1226" 
d="M1223 0h-453l-156 571l-155 -571h-455l381 983h457z" />
    <glyph glyph-name="uni043F.loclBGR" 
d="M463 885q131 131 301 131q97 0 172.5 -32.5t120 -87.5t66.5 -121t22 -140v-635h-432v561q0 47 -26.5 70.5t-68.5 23.5q-64 0 -102 -49v-606h-432v983h379v-98z" />
    <glyph glyph-name="uni0442.loclBGR" horiz-adv-x="1771" 
d="M510 0h-426v983h379v-92q46 51 129 88t172 37q193 0 280 -131q60 60 141 95.5t167 35.5q94 0 163 -32t108 -89t57 -126t18 -151v-618h-426v584q0 35 -20.5 53t-53.5 18q-47 0 -90 -37v-28v-590h-426v584q0 35 -20.5 53t-51.5 18q-56 0 -100 -47v-608z" />
    <glyph glyph-name="uni0446.loclBGR" horiz-adv-x="1310" 
d="M1135 311q0 -23 14 -37t37 -14h88v-512h-375v244q-45 9 -82 37t-59 69q-115 -131 -305 -131q-97 0 -172.5 32.5t-119 87.5t-65.5 121t-22 140v635h432v-561q0 -48 25.5 -71t68.5 -23q64 0 102 49v606h433v-672z" />
    <glyph glyph-name="uni0448.loclBGR" horiz-adv-x="1771" 
d="M1262 983h426v-983h-379v92q-46 -51 -129 -88t-172 -37q-194 0 -281 131q-60 -60 -140.5 -95.5t-166.5 -35.5q-94 0 -163 32t-108 89t-57 126t-18 151v618h426v-584q0 -35 20 -53t53 -18q48 0 91 37v28v590h426v-584q0 -35 20 -53t51 -18q57 0 101 47v608z" />
    <glyph glyph-name="uni0449.loclBGR" horiz-adv-x="1869" 
d="M1692 311q0 -23 14 -37t37 -14h90v-512h-375v242q-94 21 -143 106q-51 -58 -131.5 -93.5t-171.5 -35.5q-190 0 -281 129q-60 -58 -140.5 -93.5t-166.5 -35.5q-76 0 -136 21.5t-99.5 58t-66 88t-37.5 108.5t-11 122v618h432v-584q0 -34 20.5 -52.5t51.5 -18.5q47 0 84 37
v618h432v-584q0 -34 20 -52.5t51 -18.5q54 0 95 47v608h432v-672z" />
    <glyph glyph-name="uni044E.loclBGR" horiz-adv-x="1744" 
d="M1702 492q0 -129 -45 -231t-123 -165t-179 -96t-218 -33q-186 0 -329 93.5t-192 269.5h-104v-330h-428v1434h428v-781h104q49 176 192 269.5t329 93.5q117 0 218 -32.5t179 -96t123 -165t45 -230.5zM991 492q0 -71 33.5 -118.5t110.5 -47.5q79 0 112 47t33 119t-33 118.5
t-112 46.5q-77 0 -110.5 -47t-33.5 -118z" />
    <glyph glyph-name="uni0430.ss01" horiz-adv-x="1280" 
d="M817 119q-52 -67 -133.5 -109.5t-185.5 -42.5q-92 0 -168 29t-128 78t-88 116.5t-52.5 143t-16.5 158.5q0 104 27 196t80.5 166.5t142.5 118t203 43.5q104 0 185.5 -42.5t133.5 -109.5v119h379v-983h-379v119zM492 492q0 -74 37.5 -126.5t111.5 -52.5q42 0 76.5 20.5
t50.5 49.5v217q-16 29 -50.5 49.5t-76.5 20.5q-74 0 -111.5 -52.5t-37.5 -125.5z" />
    <glyph glyph-name="uni0437.ss01" horiz-adv-x="989" 
d="M883 635q0 -188 -156 -285q111 -42 179.5 -135.5t68.5 -222.5q0 -117 -47 -209.5t-128 -149.5t-185 -86.5t-224 -29.5q-212 0 -373 77v322q138 -76 304 -76q106 0 173.5 41.5t67.5 130.5q0 73 -53 112.5t-158 14.5l-112 -24v291l127 28q129 31 129 137q0 64 -49.5 94.5
t-131.5 30.5q-144 0 -276 -78v316q168 82 364 82q101 0 186.5 -23t152 -68.5t104 -120t37.5 -169.5z" />
    <glyph glyph-name="uni0443.ss01" 
d="M1135 45q0 -133 -47 -236t-129 -165.5t-186 -94.5t-224 -32q-248 0 -426 69v363q62 -38 154.5 -60t181.5 -22q243 0 243 168v41q-113 -86 -249 -86q-97 0 -172.5 32.5t-119 88t-65.5 121.5t-22 139v612h432v-561q0 -48 25.5 -71t68.5 -23q64 0 102 49v606h433v-938z" />
    <glyph glyph-name="zero.osf" horiz-adv-x="1390" 
d="M1333 532q0 -112 -38.5 -211.5t-113.5 -179.5t-200 -127t-285 -47q-161 0 -286.5 47t-200.5 127t-113.5 179.5t-38.5 211.5q0 89 23.5 170.5t74 154t124 126t181 84.5t236.5 31t235.5 -31t180 -84.5t124 -126t74 -154t23.5 -170.5zM528 532q0 -81 44 -130.5t124 -49.5
q78 0 122 49.5t44 130.5t-44 131t-122 50q-80 0 -124 -49.5t-44 -131.5z" />
    <glyph glyph-name="one.osf" horiz-adv-x="1036" 
d="M434 1065h344v-690h215v-375h-909v375h238v266l-226 -84v379z" />
    <glyph glyph-name="two.osf" horiz-adv-x="1167" 
d="M1087 2h-1026v160q0 67 21.5 117t74 91t92 62.5t121.5 60.5q13 6 19 9q137 62 168 85q40 31 41 66q0 62 -102 62q-70 0 -174 -35.5t-205 -101.5v407q119 57 234 85t255 28q95 0 179.5 -22.5t151.5 -66t106.5 -114t39.5 -158.5q0 -87 -37 -147.5t-106 -106.5
q-85 -59 -225 -106h372v-375z" />
    <glyph glyph-name="three.osf" horiz-adv-x="1155" 
d="M1047 698q0 -103 -57.5 -183t-162.5 -116q122 -32 199.5 -118t77.5 -224q0 -90 -33 -162.5t-88 -119t-131 -78t-158.5 -44.5t-173.5 -13q-241 0 -452 77v396q183 -86 413 -86q77 2 125.5 26.5t48.5 73.5q0 36 -30.5 57t-81.5 21h-217l2 350h172q102 0 102 68
q0 84 -156 84q-177 0 -354 -80v385q185 86 428 86q107 0 199.5 -23t167 -69.5t117.5 -125.5t43 -182z" />
    <glyph glyph-name="four.osf" horiz-adv-x="1310" 
d="M637 1065h463v-840h162v-366h-162v-187h-416v187h-653v354zM684 225v314l-225 -314h225z" />
    <glyph glyph-name="five.osf" horiz-adv-x="1155" 
d="M160 1065h884v-385l-473 2l-10 -141q62 10 109 10q195 -3 313.5 -115.5t118.5 -318.5q0 -104 -36.5 -187.5t-96.5 -136.5t-141.5 -88.5t-167.5 -50t-179 -14.5q-236 0 -418 79v381q148 -82 353 -82q95 0 155 32t60 95q0 61 -59 93t-162 32q-175 0 -299 -41z" />
    <glyph glyph-name="six.osf" horiz-adv-x="1320" 
d="M543 850q121 59 266 59q88 0 168.5 -28.5t145.5 -82.5t104 -142.5t39 -198.5q0 -124 -46.5 -220.5t-126 -154t-177.5 -86.5t-209 -29q-320 0 -480.5 186.5t-160.5 528.5q0 152 39 277.5t104.5 210.5t153.5 143.5t184 85t198 26.5q224 0 412 -90v-358q-146 86 -305 86
q-247 0 -309 -213zM528 537q24 -224 162 -224q54 0 90.5 34.5t36.5 96.5q0 68 -41 102t-100 34q-81 0 -148 -43z" />
    <glyph glyph-name="seven.osf" horiz-adv-x="1126" 
d="M39 1065h1067v-299l-492 -1094h-510l453 1008h-518v385z" />
    <glyph glyph-name="eight.osf" horiz-adv-x="1306" 
d="M113 1010q0 62 19.5 120.5t63 112.5t105.5 94t153.5 64t200.5 24q130 0 236 -35.5t170.5 -93.5t99 -128t33.5 -142q-1 -101 -45 -166t-127 -121q105 -56 164 -138.5t59 -207.5q0 -68 -22 -129.5t-69 -116t-116 -94.5t-168.5 -63t-220.5 -23q-154 0 -270.5 34.5t-184 94.5
t-100.5 131.5t-33 153.5q0 109 60 197.5t143 134.5q-151 119 -151 297zM666 532q-102 35 -107 37q-43 -55 -43 -127q2 -55 38 -92t105 -37q61 0 95 28t34 69q0 48 -29 73.5t-93 48.5zM766 983q0 43 -33 71.5t-82 28.5q-53 0 -81.5 -25.5t-28.5 -64.5q0 -37 22.5 -62.5
t73.5 -45.5q30 -13 92 -31q40 69 37 129z" />
    <glyph glyph-name="nine.osf" horiz-adv-x="1298" 
d="M41 608q0 124 46.5 220.5t126 154t177 86.5t207.5 29q321 0 482 -186.5t161 -528.5q0 -151 -39 -277t-105 -211t-154 -143.5t-184 -85t-198 -26.5q-223 0 -411 90v358q143 -86 303 -86q249 0 311 213q-121 -59 -268 -59q-88 0 -168 28.5t-145 82.5t-103.5 142.5
t-38.5 198.5zM614 752q-52 0 -88.5 -34.5t-36.5 -96.5q0 -68 41.5 -102t100.5 -34q80 0 147 43q-24 224 -164 224z" />
    <glyph glyph-name="zero.sinf" horiz-adv-x="880" 
d="M836 213q0 -72 -14 -135.5t-45 -119.5t-76 -96t-112 -63.5t-149 -23.5q-103 0 -180.5 35t-123.5 97t-68.5 139t-22.5 167t22.5 167t68.5 139t123.5 97t180.5 35q82 0 149 -23.5t112 -63.5t76 -96t45 -119.5t14 -135.5zM328 213q0 -102 27 -147.5t85 -45.5t85.5 46
t27.5 147t-27.5 147t-85.5 46t-85 -45.5t-27 -147.5z" />
    <glyph glyph-name="one.sinf" horiz-adv-x="659" 
d="M285 631h207v-604h141v-232h-576v232h160v335l-151 -51v242z" />
    <glyph glyph-name="two.sinf" horiz-adv-x="774" 
d="M74 561q142 90 313 90q68 0 125.5 -15t104.5 -46.5t73.5 -85.5t26.5 -125q0 -82 -41 -136.5t-115 -105.5q-16 -11 -45 -29.5t-44.5 -29t-33 -25t-26.5 -26.5h305v-232h-670l2 115q0 52 15.5 97.5t34.5 75t56.5 62.5t61 48.5t68.5 44.5q19 13 52.5 31.5t48 28t27.5 25.5
t13 33q0 26 -21.5 40t-58.5 14q-132 0 -272 -107v258z" />
    <glyph glyph-name="three.sinf" horiz-adv-x="757" 
d="M680 412q0 -63 -34.5 -111.5t-98.5 -69.5q74 -21 121 -71.5t47 -132.5q0 -54 -20 -97.5t-53.5 -72t-79.5 -47.5t-96.5 -27t-107.5 -8q-150 0 -303 57v244q134 -71 281 -68q47 0 77.5 15.5t30.5 44.5q0 47 -73 47h-148l2 211l119 -2q68 0 68 41q0 51 -99 51
q-54 0 -123 -21t-120 -55v238q123 73 288 73q89 0 159.5 -23.5t116.5 -79t46 -136.5z" />
    <glyph glyph-name="four.sinf" horiz-adv-x="845" 
d="M422 631h278v-504h103v-219h-103v-113h-256v113h-415v225zM444 127v197l-155 -197h155z" />
    <glyph glyph-name="five.sinf" horiz-adv-x="757" 
d="M109 635h569v-234h-320l-8 -84q44 7 74 7q126 0 207.5 -63t81.5 -198q0 -63 -22 -113t-58.5 -82.5t-86.5 -53.5t-103.5 -30t-112.5 -9q-159 0 -279 57v231q42 -27 106 -43t126 -16q67 0 107 19t40 57q0 76 -166 76q-101 0 -184 -25z" />
    <glyph glyph-name="six.sinf" horiz-adv-x="839" 
d="M324 293q86 47 190 47q119 0 202 -68.5t83 -197.5q0 -100 -49.5 -169.5t-125.5 -99.5t-171 -30q-209 0 -308.5 115t-99.5 327q0 111 34.5 196.5t94.5 136t134.5 76t160.5 25.5q144 0 258 -57v-219q-94 57 -201 57q-85 0 -135.5 -30.5t-66.5 -108.5zM322 113
q11 -71 40.5 -100t77.5 -29q39 0 63.5 20.5t24.5 58.5q0 78 -102 78q-50 0 -104 -28z" />
    <glyph glyph-name="seven.sinf" horiz-adv-x="722" 
d="M401 -205h-307l279 606h-342v234h671v-182z" />
    <glyph glyph-name="eight.sinf" horiz-adv-x="829" 
d="M72 406q0 47 20 89.5t59.5 79t108 58.5t156.5 22q164 0 253 -72.5t89 -166.5q-1 -61 -28 -100t-77 -72q135 -73 135 -209q0 -109 -94 -182.5t-282 -73.5q-191 0 -281 71.5t-90 176.5q0 66 35.5 119.5t85.5 80.5q-90 72 -90 179zM430 115q-53 15 -86 26q-27 -35 -27 -75
q2 -34 29 -57t80 -23q40 0 63 16t23 41q0 27 -20.5 42.5t-61.5 29.5zM496 389q-2 28 -23.5 44t-64.5 16q-35 0 -55.5 -15.5t-20.5 -36.5q0 -25 22.5 -39.5t65.5 -27.5q8 -3 26.5 -10t26.5 -9q26 43 23 78z" />
    <glyph glyph-name="nine.sinf" horiz-adv-x="839" 
d="M41 352q0 100 49.5 169.5t125 99.5t169.5 30q210 0 310 -115t100 -327q0 -111 -34.5 -196.5t-94.5 -136t-134.5 -76t-160.5 -25.5q-144 0 -258 57v219q96 -57 200 -57q85 0 136 30.5t67 110.5q-85 -49 -190 -49q-121 0 -203 68.5t-82 197.5zM399 442q-39 0 -64.5 -21
t-25.5 -59q0 -40 29 -58.5t74 -18.5q52 0 106 28q-11 71 -41 100t-78 29z" />
    <glyph glyph-name="zero.sups" horiz-adv-x="880" 
d="M836 1194q0 -72 -14 -135.5t-45 -119.5t-76 -96t-112 -63.5t-149 -23.5q-103 0 -180.5 35t-123.5 97t-68.5 139t-22.5 167t22.5 167t68.5 139t123.5 97t180.5 35q82 0 149 -23.5t112 -63.5t76 -96t45 -119.5t14 -135.5zM328 1194q0 -102 27 -147.5t85 -45.5t85.5 46
t27.5 147t-27.5 146.5t-85.5 45.5t-85 -45.5t-27 -146.5z" />
    <glyph glyph-name="one.sups" horiz-adv-x="659" 
d="M285 1597h207v-604h141v-231h-576v231h160v336l-151 -51v242z" />
    <glyph glyph-name="two.sups" horiz-adv-x="774" 
d="M74 1542q142 90 313 90q68 0 125.5 -15t104.5 -46.5t73.5 -85.5t26.5 -125q0 -82 -41 -136.5t-115 -105.5q-16 -11 -45 -29.5t-44.5 -29t-33 -25t-26.5 -26.5h305v-232h-670l2 115q0 52 15.5 97.5t34.5 75t56.5 62.5t61 48.5t68.5 44.5q19 13 52.5 31.5t48 28t27.5 25.5
t13 33q0 26 -21.5 40t-58.5 14q-132 0 -272 -107v258z" />
    <glyph glyph-name="three.sups" horiz-adv-x="757" 
d="M680 1393q0 -63 -34.5 -111.5t-98.5 -69.5q74 -21 121 -71.5t47 -132.5q0 -54 -20 -97.5t-53.5 -72t-79.5 -47.5t-96.5 -27t-107.5 -8q-150 0 -303 57v244q134 -71 281 -68q47 0 77.5 15.5t30.5 44.5q0 47 -73 47h-148l2 211l119 -2q68 0 68 41q0 51 -99 51
q-54 0 -123 -21t-120 -55v238q123 73 288 73q89 0 159.5 -23.5t116.5 -79t46 -136.5z" />
    <glyph glyph-name="four.sups" horiz-adv-x="845" 
d="M422 1597h278v-503h103v-220h-103v-112h-256v112h-415v226zM444 1094v196l-155 -196h155z" />
    <glyph glyph-name="five.sups" horiz-adv-x="757" 
d="M109 1597h569v-233h-320l-8 -84q38 6 74 6q126 0 207.5 -62.5t81.5 -197.5q0 -63 -22 -113t-58.5 -82.5t-86.5 -54t-103.5 -30.5t-112.5 -9q-157 0 -279 58v231q42 -27 106 -43t126 -16q67 0 107 18.5t40 56.5q0 76 -166 76q-104 0 -184 -24z" />
    <glyph glyph-name="six.sups" horiz-adv-x="837" 
d="M324 1274q86 47 190 47q119 0 202 -68.5t83 -197.5q0 -100 -49.5 -169.5t-125.5 -99.5t-171 -30q-209 0 -308.5 115t-99.5 327q0 111 34.5 196.5t94.5 136t134.5 76t160.5 25.5q144 0 258 -57v-219q-94 57 -201 57q-85 0 -135.5 -30.5t-66.5 -108.5zM322 1094
q11 -71 40.5 -100t77.5 -29q39 0 63.5 20.5t24.5 58.5q0 78 -102 78q-50 0 -104 -28z" />
    <glyph glyph-name="seven.sups" horiz-adv-x="722" 
d="M401 758h-307l279 606h-342v233h671v-182z" />
    <glyph glyph-name="eight.sups" horiz-adv-x="833" 
d="M74 1386q0 47 20 90t59.5 79.5t108 58.5t156.5 22q164 0 253 -72.5t89 -166.5q-1 -61 -28 -100t-77 -72q136 -73 136 -209q0 -109 -94.5 -182.5t-282.5 -73.5q-191 0 -281 71.5t-90 176.5q0 66 35.5 119.5t85.5 80.5q-90 72 -90 178zM432 1096q-53 15 -86 26
q-27 -34 -27 -75q2 -34 29 -57t80 -23q40 0 63 16t23 41q0 27 -20.5 42.5t-61.5 29.5zM498 1370q-2 28 -23.5 44t-64.5 16q-35 0 -55.5 -15.5t-20.5 -36.5q0 -25 22.5 -39.5t65.5 -27.5q8 -3 26.5 -10t26.5 -9q26 43 23 78z" />
    <glyph glyph-name="nine.sups" horiz-adv-x="839" 
d="M41 1333q0 100 49.5 169.5t125 99.5t169.5 30q210 0 310 -115t100 -327q0 -111 -34.5 -196.5t-94.5 -136t-134.5 -76t-160.5 -25.5q-144 0 -258 57v219q96 -57 200 -57q85 0 136 30.5t67 110.5q-85 -49 -190 -49q-121 0 -203 68.5t-82 197.5zM399 1423q-39 0 -64.5 -21
t-25.5 -59q0 -40 29 -58.5t74 -18.5q52 0 106 28q-11 71 -41 100t-78 29z" />
    <glyph glyph-name="zero.tf" horiz-adv-x="1353" 
d="M1321 696q0 -120 -23 -226t-73 -199t-124 -160t-182 -105.5t-241 -38.5q-134 0 -242.5 38.5t-182.5 105.5t-124 160t-73 199t-23 226t23 226t73 199t124 160t182.5 105.5t242.5 38.5q133 0 241 -38.5t182 -105.5t124 -160t73 -199t23 -226zM504 696q0 -167 43 -244
t131 -77q86 0 129 77t43 244t-43 244.5t-129 77.5q-88 0 -131 -77t-43 -245z" />
    <glyph glyph-name="one.tf" horiz-adv-x="1353" 
d="M594 1393h344v-1006h358v-387h-1206v387h389v559l-317 -123v402z" />
    <glyph glyph-name="two.tf" horiz-adv-x="1353" 
d="M139 1276q248 149 541 149q113 0 209 -25t174 -77t123 -141t45 -207q0 -59 -15 -111.5t-38 -92t-59 -78t-69.5 -65t-78.5 -57.5q-35 -24 -99 -64t-103.5 -67.5t-63.5 -52.5h548v-385h-1157v193q0 66 15 124t43.5 105.5t60 85t78 74t83 61.5t87.5 58l16.5 10.5t14.5 9
t16 10.5q33 22 87.5 54t79.5 48.5t46.5 43.5t21.5 57q0 43 -35 65.5t-98 22.5q-223 0 -473 -176v428z" />
    <glyph glyph-name="three.tf" horiz-adv-x="1353" 
d="M1198 1026q0 -103 -57 -183t-162 -116q122 -32 199 -118t77 -224q0 -91 -33 -163t-89.5 -119t-135.5 -78t-166.5 -44.5t-187.5 -13.5q-277 0 -526 94v406q210 -113 485 -113q205 3 205 101q0 37 -32 57t-91 20h-270v351h227q113 -3 113 67q0 84 -187 84
q-104 0 -221.5 -34t-204.5 -91v396q201 120 502 120q118 0 216 -23t175.5 -69.5t120.5 -124.5t43 -182z" />
    <glyph glyph-name="four.tf" horiz-adv-x="1353" 
d="M676 1393h463v-840h174v-367h-174v-186h-426v186h-693v377zM719 553v326l-260 -326h260z" />
    <glyph glyph-name="five.tf" horiz-adv-x="1353" 
d="M215 1393h975v-385l-563 2l-11 -144q99 13 154 13q77 0 145 -14t130.5 -46.5t107 -82t70.5 -124t26 -168.5q0 -105 -37 -187.5t-98 -136t-146 -89t-175.5 -50t-192.5 -14.5q-279 0 -481 94v385q69 -46 179 -73t226 -27q115 0 184.5 32t69.5 95q0 125 -284 125
q-194 0 -328 -41z" />
    <glyph glyph-name="six.tf" horiz-adv-x="1353" 
d="M514 827q146 82 320 82q76 0 145.5 -17t130 -53t104.5 -88t69.5 -126t25.5 -162q0 -126 -46.5 -223t-127.5 -155.5t-182 -88t-218 -29.5q-349 0 -515.5 189.5t-166.5 535.5q0 153 38 277t103.5 208t156.5 140.5t193 82t216 25.5q244 0 430 -92v-366q-163 96 -334 96
q-69 0 -122 -11t-98.5 -37t-76 -73t-45.5 -115zM512 528q19 -117 70 -166t129 -49q65 0 108 34.5t43 96.5q0 69 -48 102.5t-124 33.5q-85 0 -178 -52z" />
    <glyph glyph-name="seven.tf" horiz-adv-x="1353" 
d="M90 1393h1188v-299l-530 -1094h-510l489 1008h-637v385z" />
    <glyph glyph-name="eight.tf" horiz-adv-x="1353" 
d="M104 1010q0 62 20 120.5t65 112.5t110.5 94t163 64t215.5 24q141 0 254 -35.5t180 -94t101.5 -127.5t33.5 -142q-1 -101 -45 -166t-127 -121q105 -56 164 -138.5t59 -207.5q0 -86 -36.5 -160.5t-109 -135t-196 -95.5t-284.5 -35q-133 0 -239.5 23t-176.5 62t-116.5 93
t-66.5 112.5t-20 123.5q0 109 60 197.5t143 134.5q-152 119 -152 297zM698 524q-102 32 -141 45q-43 -54 -43 -127q2 -56 46 -94.5t132 -38.5q68 0 106 27t38 67q0 46 -34 71t-104 50zM811 981q-2 45 -38.5 73.5t-108.5 28.5q-60 0 -93.5 -24.5t-33.5 -59.5q0 -45 36.5 -69
t110.5 -47q89 -29 90 -29q40 69 37 127z" />
    <glyph glyph-name="nine.tf" horiz-adv-x="1353" 
d="M45 930q0 101 31 184t84 140t126.5 96t156.5 57t175 18q350 0 516 -191t166 -544q0 -150 -38 -272t-103 -205t-155.5 -139t-192.5 -81.5t-217 -25.5q-246 0 -428 92v367q159 -96 332 -96q142 0 227.5 52t114.5 183q-146 -82 -320 -82q-96 0 -180 28t-151 81.5
t-105.5 140.5t-38.5 197zM643 1079q-64 0 -106.5 -34.5t-42.5 -96.5q0 -69 47 -102t123 -33q87 0 178 51q-19 118 -69.5 166.5t-129.5 48.5z" />
    <glyph glyph-name="zero.tosf" horiz-adv-x="1353" 
d="M1321 532q0 -113 -38 -212t-113.5 -179t-202 -127t-289.5 -47t-290 47t-202.5 127t-114 179.5t-38.5 211.5q0 74 16.5 143t50 133t87 116.5t123.5 91.5t164 60.5t204 21.5q163 0 289.5 -47t202 -127.5t113.5 -179.5t38 -212zM504 532q0 -82 45 -131t129 -49
q83 0 127.5 49t44.5 131t-44.5 131.5t-127.5 49.5q-84 0 -129 -49.5t-45 -131.5z" />
    <glyph glyph-name="one.tosf" horiz-adv-x="1353" 
d="M588 1065h344v-690h358v-375h-1206v375h389v278l-317 -123v367z" />
    <glyph glyph-name="two.tosf" horiz-adv-x="1353" 
d="M1245 2h-1155v160q0 56 20.5 104.5t52.5 83.5t79 66t90.5 51t97.5 39q34 13 89 30.5t89 29.5t70 27.5t53 31.5t17 34q0 56 -140 56q-105 0 -226.5 -39t-236.5 -111v406q241 127 543 127q166 0 289 -39t194.5 -123t71.5 -207q0 -156 -131 -242q-88 -64 -283 -110h416v-375
z" />
    <glyph glyph-name="three.tosf" horiz-adv-x="1353" 
d="M1198 698q0 -103 -57 -183t-162 -116q122 -32 199 -118t77 -224q0 -91 -33 -162.5t-89.5 -118.5t-135.5 -78.5t-166.5 -44.5t-187.5 -13q-277 0 -526 94v405q208 -112 485 -112q205 3 205 100q0 37 -32.5 57.5t-90.5 20.5h-270v350h227q113 -3 113 68q0 84 -187 84
q-104 0 -221.5 -34t-204.5 -91v395q202 121 502 121q118 0 216 -23t175 -69.5t120.5 -125t43.5 -182.5z" />
    <glyph glyph-name="four.tosf" horiz-adv-x="1353" 
d="M680 1065h463v-840h174v-366h-174v-187h-426v187h-692v377zM723 225v326l-260 -326h260z" />
    <glyph glyph-name="five.tosf" horiz-adv-x="1353" 
d="M215 1065h975v-385l-563 2l-11 -143q92 12 154 12q77 0 145 -14t130.5 -46.5t107 -81.5t70.5 -123.5t26 -168.5q0 -105 -37 -187.5t-98 -136t-146 -89t-175.5 -50t-192.5 -14.5q-279 0 -481 94v385q69 -46 179.5 -73.5t225.5 -27.5t184.5 32t69.5 95q0 125 -284 125
q-194 0 -328 -41z" />
    <glyph glyph-name="six.tosf" horiz-adv-x="1353" 
d="M514 827q146 82 320 82q76 0 145.5 -17t130 -53t104.5 -88t69.5 -126t25.5 -162q0 -126 -46.5 -223t-127.5 -155.5t-182 -88t-218 -29.5q-350 0 -516 191t-166 544q0 150 38 272t103.5 205t156.5 139t193 81.5t216 25.5q244 0 430 -92v-366q-163 96 -334 96
q-69 0 -122 -11t-98.5 -37t-76 -73t-45.5 -115zM512 528q19 -117 70 -166t129 -49q65 0 108 34.5t43 96.5q0 69 -48 102.5t-124 33.5q-85 0 -178 -52z" />
    <glyph glyph-name="seven.tosf" horiz-adv-x="1353" 
d="M88 1065h1188v-299l-531 -1094h-509l489 1008h-637v385z" />
    <glyph glyph-name="eight.tosf" horiz-adv-x="1353" 
d="M104 1010q0 62 20 120.5t65 112.5t110.5 94t163 64t215.5 24q141 0 254 -35.5t180 -94t101.5 -127.5t33.5 -142q-1 -101 -45 -166t-127 -121q105 -56 164 -138.5t59 -207.5q0 -86 -36.5 -160.5t-109 -135t-196 -95.5t-284.5 -35q-133 0 -239.5 23t-176.5 62t-116.5 93
t-66.5 112.5t-20 123.5q0 109 60 197.5t143 134.5q-152 119 -152 297zM698 524q-102 32 -141 45q-43 -54 -43 -127q2 -56 46 -94.5t132 -38.5q68 0 106 27t38 67q0 46 -34 71t-104 50zM811 981q-2 45 -38.5 73.5t-108.5 28.5q-60 0 -93.5 -24.5t-33.5 -59.5q0 -45 36.5 -69
t110.5 -47q89 -29 90 -29q40 69 37 127z" />
    <glyph glyph-name="nine.tosf" horiz-adv-x="1353" 
d="M41 602q0 101 31 184t84 140.5t126.5 96.5t156.5 57t175 18q178 0 309 -50.5t212.5 -147.5t121 -230.5t39.5 -307.5q0 -150 -38 -272t-103 -204.5t-155.5 -138.5t-192.5 -81.5t-217 -25.5q-246 0 -428 92v366q159 -96 332 -96q69 0 122 11t98.5 37t76 73t45.5 115
q-146 -82 -320 -82q-76 0 -145.5 17t-130 53t-104.5 88t-69.5 126t-25.5 162zM639 752q-65 0 -107.5 -34.5t-42.5 -96.5q0 -70 47 -103t123 -33q86 0 179 52q-19 118 -69.5 166.5t-129.5 48.5z" />
    <glyph glyph-name="zero.dnom" horiz-adv-x="880" 
d="M836 418q0 -72 -14 -135.5t-45 -119.5t-76 -96t-112 -63.5t-149 -23.5q-103 0 -180.5 35t-123.5 97t-68.5 139t-22.5 167t22.5 167t68.5 139t123.5 97t180.5 35q82 0 149 -23.5t112 -63.5t76 -96t45 -119.5t14 -135.5zM328 418q0 -102 27 -147.5t85 -45.5t85.5 46
t27.5 147t-27.5 146.5t-85.5 45.5t-85 -45.5t-27 -146.5z" />
    <glyph glyph-name="one.dnom" horiz-adv-x="659" 
d="M285 836h207v-605h141v-231h-576v231h160v336l-151 -51v242z" />
    <glyph glyph-name="two.dnom" horiz-adv-x="774" 
d="M74 766q142 90 313 90q68 0 125.5 -15t104.5 -46.5t73.5 -85.5t26.5 -125q0 -82 -41 -136.5t-115 -105.5q-15 -10 -44.5 -29.5t-44.5 -30t-32.5 -25t-27.5 -26.5h305v-231h-670l2 115q0 52 15.5 97.5t34 74.5t57 62t61 48.5t68.5 44.5q19 12 52.5 31.5t48 29t27.5 25.5
t13 33q0 53 -80 53q-134 0 -272 -106v258z" />
    <glyph glyph-name="three.dnom" horiz-adv-x="757" 
d="M680 616q0 -63 -34 -111t-99 -69q74 -21 121 -72t47 -133q0 -67 -29.5 -117t-81 -78.5t-113 -42t-133.5 -13.5q-150 0 -303 57v244q134 -71 281 -68q47 0 77.5 15t30.5 44q0 47 -73 47h-148l2 211l119 -2q68 0 68 41q0 52 -99 52q-54 0 -123 -21t-120 -55v237
q125 74 288 74q89 0 159.5 -23.5t116.5 -79.5t46 -137z" />
    <glyph glyph-name="four.dnom" horiz-adv-x="845" 
d="M422 836h278v-504h103v-219h-103v-113h-256v113h-415v225zM444 332v196l-155 -196h155z" />
    <glyph glyph-name="five.dnom" horiz-adv-x="757" 
d="M109 840h569v-234h-320l-8 -84q38 6 74 6q126 0 207.5 -62.5t81.5 -197.5q0 -63 -22 -113t-58.5 -82.5t-86.5 -53.5t-103.5 -30t-112.5 -9q-159 0 -279 57v231q42 -27 106 -43t126 -16q67 0 107 19t40 57q0 75 -166 75q-104 0 -184 -24z" />
    <glyph glyph-name="six.dnom" horiz-adv-x="839" 
d="M324 498q86 47 190 47q119 0 202 -68.5t83 -197.5q0 -100 -49.5 -169.5t-125.5 -99.5t-171 -30q-209 0 -308.5 115t-99.5 327q0 111 34.5 196.5t94.5 136t134.5 76t160.5 25.5q144 0 258 -57v-219q-94 57 -201 57q-85 0 -135.5 -30.5t-66.5 -108.5zM322 317
q11 -71 40.5 -100t77.5 -29q38 0 63 21t25 59q0 78 -102 78q-48 0 -104 -29z" />
    <glyph glyph-name="seven.dnom" horiz-adv-x="722" 
d="M401 0h-307l279 606h-342v234h671v-183z" />
    <glyph glyph-name="eight.dnom" horiz-adv-x="833" 
d="M74 606q0 47 20 90t59.5 79.5t108 58.5t156.5 22q164 0 253 -73t89 -167q-1 -61 -28 -100t-77 -72q136 -73 136 -208q0 -109 -94.5 -182.5t-282.5 -73.5q-191 0 -281 71t-90 176q0 66 35.5 120t85.5 81q-90 72 -90 178zM432 315q-38 11 -86 27q-27 -34 -27 -76
q2 -34 29 -57t80 -23q40 0 63 16t23 42q0 14 -6 25t-18.5 19.5t-25 14t-32.5 12.5zM498 590q-3 59 -88 59q-35 0 -55.5 -15t-20.5 -36q0 -25 23 -40t65 -28q5 -2 25 -9t28 -9q26 43 23 78z" />
    <glyph glyph-name="nine.dnom" horiz-adv-x="839" 
d="M41 557q0 100 49.5 169.5t125 99.5t169.5 30q210 0 310 -115t100 -327q0 -111 -34.5 -196.5t-94.5 -136t-134.5 -76t-160.5 -25.5q-144 0 -258 57v219q96 -57 200 -57q85 0 136 30.5t67 110.5q-85 -49 -190 -49q-121 0 -203 68.5t-82 197.5zM399 647q-39 0 -64.5 -21
t-25.5 -59q0 -40 29 -59t74 -19q50 0 106 29q-11 71 -41 100t-78 29z" />
    <glyph glyph-name="zero.numr" horiz-adv-x="880" 
d="M836 989q0 -72 -14 -135.5t-45 -119.5t-76 -96t-112 -63.5t-149 -23.5q-103 0 -180.5 35t-123.5 97t-68.5 139t-22.5 167t22.5 167t68.5 139t123.5 97t180.5 35q82 0 149 -23.5t112 -63.5t76 -96t45 -119.5t14 -135.5zM328 989q0 -101 27 -146.5t85 -45.5t85.5 45.5
t27.5 146.5t-27.5 147t-85.5 46t-85 -45.5t-27 -147.5z" />
    <glyph glyph-name="one.numr" horiz-adv-x="659" 
d="M285 1393h207v-605h141v-231h-576v231h160v336l-151 -51v242z" />
    <glyph glyph-name="two.numr" horiz-adv-x="774" 
d="M74 1337q142 90 313 90q68 0 125.5 -15t104.5 -46.5t73.5 -85.5t26.5 -125q0 -82 -41 -136.5t-115 -105.5q-16 -11 -45 -29.5t-44.5 -29t-33 -25t-26.5 -26.5h305v-232h-670l2 115q0 52 15.5 97.5t34.5 75t56.5 62.5t61 48.5t68.5 44.5q19 12 52.5 31.5t48 29t27.5 25.5
t13 33q0 53 -80 53q-132 0 -272 -107v258z" />
    <glyph glyph-name="three.numr" horiz-adv-x="757" 
d="M680 1188q0 -63 -34 -111t-99 -69q74 -21 121 -72t47 -133q0 -54 -20 -97.5t-53.5 -72t-79.5 -47.5t-96.5 -27t-107.5 -8q-150 0 -303 57v244q134 -71 281 -68q47 0 77.5 15.5t30.5 44.5q0 47 -73 47h-148l2 211l119 -2q68 0 68 41q0 51 -99 51q-54 0 -123 -21t-120 -55
v238q123 73 288 73q89 0 159.5 -23.5t116.5 -79t46 -136.5z" />
    <glyph glyph-name="four.numr" horiz-adv-x="845" 
d="M422 1393h278v-504h103v-219h-103v-113h-256v113h-415v225zM444 889v196l-155 -196h155z" />
    <glyph glyph-name="five.numr" horiz-adv-x="757" 
d="M109 1393h569v-234h-320l-8 -84q38 6 74 6q126 0 207.5 -62.5t81.5 -197.5q0 -63 -22 -113t-58.5 -82.5t-86.5 -54t-103.5 -30.5t-112.5 -9q-157 0 -279 58v231q42 -27 106 -43t126 -16q67 0 107 19t40 57q0 75 -166 75q-104 0 -184 -24z" />
    <glyph glyph-name="six.numr" horiz-adv-x="837" 
d="M324 1069q86 47 190 47q119 0 202 -68.5t83 -197.5q0 -100 -49.5 -169.5t-125.5 -99.5t-171 -30q-209 0 -308.5 115t-99.5 327q0 111 34.5 196.5t94.5 136t134.5 76t160.5 25.5q144 0 258 -57v-219q-94 57 -201 57q-85 0 -135.5 -30.5t-66.5 -108.5zM322 889
q11 -71 40.5 -100t77.5 -29q38 0 63 21t25 59q0 78 -102 78q-48 0 -104 -29z" />
    <glyph glyph-name="seven.numr" horiz-adv-x="722" 
d="M401 553h-307l279 606h-342v234h671v-183z" />
    <glyph glyph-name="eight.numr" horiz-adv-x="833" 
d="M74 1178q0 47 20 89.5t59.5 79t108 58.5t156.5 22q164 0 253 -72.5t89 -166.5q-1 -61 -28 -100t-77 -72q136 -73 136 -209q0 -109 -94.5 -182.5t-282.5 -73.5q-191 0 -281 71.5t-90 176.5q0 66 35.5 119.5t85.5 80.5q-90 72 -90 179zM432 887q-53 15 -86 26
q-27 -34 -27 -75q2 -34 29 -57t80 -23q40 0 63 16t23 41q0 27 -20.5 42.5t-61.5 29.5zM498 1161q-2 28 -23.5 44t-64.5 16q-35 0 -55.5 -15.5t-20.5 -36.5q0 -25 22.5 -39.5t65.5 -27.5q8 -3 26.5 -10t26.5 -9q26 43 23 78z" />
    <glyph glyph-name="nine.numr" horiz-adv-x="839" 
d="M41 1128q0 100 49.5 169.5t125 99.5t169.5 30q210 0 310 -115t100 -327q0 -111 -34.5 -196.5t-94.5 -136t-134.5 -76t-160.5 -25.5q-144 0 -258 57v219q96 -57 200 -57q85 0 136 30.5t67 110.5q-85 -49 -190 -49q-121 0 -203 68.5t-82 197.5zM399 1219q-39 0 -64.5 -21
t-25.5 -59q0 -40 29 -59t74 -19q50 0 106 29q-11 71 -41 100t-78 29z" />
    <glyph glyph-name="emdash.case" horiz-adv-x="1632" 
d="M1534 551h-1436v332h1436v-332z" />
    <glyph glyph-name="endash.case" horiz-adv-x="1210" 
d="M1112 551h-1014v332h1014v-332z" />
    <glyph glyph-name="hyphen.case" horiz-adv-x="995" 
d="M98 883h799v-332h-799v332z" />
    <glyph glyph-name="guillemotleft.case" horiz-adv-x="1415" 
d="M1341 291h-430l-280 389v74l280 389h430l-301 -426zM770 291h-430l-279 389v74l279 389h430l-299 -426z" />
    <glyph glyph-name="guillemotright.case" horiz-adv-x="1413" 
d="M1075 291h-432l301 426l-301 426h432l277 -389v-74zM506 291h-432l301 426l-301 426h432l276 -389v-74z" />
    <glyph glyph-name="guilsinglleft.case" horiz-adv-x="843" 
d="M770 291h-430l-279 389v74l279 389h430l-299 -426z" />
    <glyph glyph-name="guilsinglright.case" horiz-adv-x="843" 
d="M506 291h-432l301 426l-301 426h432l276 -389v-74z" />
    <glyph glyph-name="cent.tf" horiz-adv-x="1353" 
d="M963 334q75 11 139 41v-352q-81 -25 -139 -37v-232h-191v213h-12q-110 0 -207 29t-176 86.5t-125.5 156t-46.5 226.5q0 113 31.5 206t85 156t127 106.5t154 64t169.5 22.5v209h191v-230q73 -16 129 -38v-355q-64 31 -129 45v-317zM772 649q-123 -34 -123 -157
q0 -122 123 -156v313z" />
    <glyph glyph-name="currency.tf" horiz-adv-x="1353" 
d="M471 340l-164 -164l-174 174l152 152q-54 91 -54 215q0 119 56 217l-154 153l172 175l166 -168q89 41 205 41q119 0 205 -41l166 168l172 -175l-152 -153q55 -102 55 -217q0 -122 -55 -215l152 -152l-175 -174l-161 164q-96 -41 -207 -41q-112 0 -205 41zM573 717
q0 -41 26.5 -71t78.5 -30q50 0 76 30t26 71t-26 71.5t-76 30.5q-52 0 -78.5 -30.5t-26.5 -71.5z" />
    <glyph glyph-name="dollar.tf" horiz-adv-x="1353" 
d="M831 -244h-305v219q-235 24 -415 127v428q128 -84 264 -126t258 -42q91 0 126.5 16.5t35.5 53.5q0 26 -30.5 46t-80 33t-113 30.5t-130 36.5t-130 53.5t-113 78t-80 113.5t-30.5 158q0 186 120 297t318 139v219h305v-223q201 -29 347 -106v-410q-104 66 -230 102t-246 35
q-127 0 -127 -63q0 -26 30.5 -46.5t80 -33t113 -29.5t130 -35t130 -51t113 -76t80 -112t30.5 -156q0 -403 -451 -457v-219z" />
    <glyph glyph-name="Euro.tf" horiz-adv-x="1353" 
d="M735 479q51 -54 128.5 -81t164.5 -27q147 0 256 47v-400q-149 -51 -317 -51q-132 0 -253 30.5t-226 90.5t-182 160.5t-111 230.5h-162v183h135v34v35h-135v182h164q34 129 110 229.5t178 161t218 91t241 30.5q178 0 330 -51v-395q-122 49 -248 49q-86 0 -163.5 -29
t-131.5 -86h383v-182h-457q-2 -10 -2 -35q0 -24 2 -34h457v-183h-379z" />
    <glyph glyph-name="sterling.tf" horiz-adv-x="1353" 
d="M1270 0h-1176v369h43q59 0 92 36.5t33 98.5v45h-137v307h139v66q0 129 41 226.5t115.5 157.5t172 89.5t216.5 29.5q214 0 381 -71v-357q-121 76 -283 76q-95 0 -144.5 -44t-49.5 -126v-47h338v-307h-338v-39q0 -90 -60 -141h617v-369z" />
    <glyph glyph-name="yen.tf" horiz-adv-x="1353" 
d="M866 1393h500l-356 -656h213v-225h-312v-80h312v-225h-312v-207h-471v207h-311v225h311v80h-311v225h215l-358 656h501l189 -455z" />
    </font>
</defs>
</svg>
