<svg version="1.1" id="Layer_1" xmlns="http://www.w3.org/2000/svg" x="0" y="0" width="36" height="36" xml:space="preserve"><style>.st0{fill:#329cd5}</style><path class="st0" d="M35 1v34H1V1h34m1-1H0v36h36V0z"/><path class="st0" d="M28.1 15.2L35.7 1l-.9-.5-2.2 4.1h-6.2L27.8.4l-1-.3-1.5 4.5h-6.9V0h-1v4.6h-6.9L9.2.1l-1 .3 1.4 4.2H3.4L1.2.5.3 1l7.6 14.3v9.4L1.6 35.4l2.4.1L9.4 26h17.1l5.6 9.6 2.2-.2-6.2-10.7v-9.5zm-19.2-.1l-.7-1.3h4.4l.4 1.3H8.9zm13.8-2.4h-4.2V9.9h5.1l-.9 2.8zm2-2.8h5.1l-1.5 2.8h-4.6l1-2.8zm-7.2 2.8h-4.2l-.9-2.8h5.1v2.8zm-5.3 0H7.7L6.2 9.9h5.1l.9 2.8zm1.9 2.4l-.4-1.3h3.9v1.3h-3.5zm4.4-1.4h3.9L22 15h-3.4v-1.3zm4.9 0h4.4l-.7 1.3H23l.4-1.3zm8.7-8.1l-1.7 3.3H25l1.1-3.3h6zm-7.1 0l-1 3.3h-5.5V5.6H25zm-7.5 0v3.3H12l-1-3.3h6.5zm-7.6 0L11 8.9H5.6L3.9 5.6h6zM26.1 24H9.9v-6.9h16.3V24z"/></svg>