<svg version="1.1" id="Layer_1" xmlns="http://www.w3.org/2000/svg" x="0" y="0" width="36" height="36" xml:space="preserve"><style>.st0{fill:#329cd5}</style><path class="st0" d="M35.1 12.4l-5.6 2.3-7.3-1.9L27 9.9l8.4 2.3.3-1-7.5-2 7.6-4.7-.5-.8-8.4 5.2-8.1-2.2L26.5 1 26 .2l-8.5 6.2-6.4-1.7L14.7 1 14 .3l-4.1 4L.6 1.8l-.3 1 8.8 2.4-3.5 3.3-4.5-1.2-.3 1 4 1-4.4 4.3 5.4 1.2-3.1 2.3-2-.4-.4 2L15.7 22v14h2V21.8l18.1-7.5-.7-1.9zm-7.1 3l-5.5 2.2-5.8-1.3 4.4-2.7 6.9 1.8zm-12.7.6l-7.1-1.6 4.2-3 7.4 1.9-4.5 2.7zm10.3-6.5l-4.7 2.9-7.5-2 4.3-3.1 7.9 2.2zM10.2 5.4l6.2 1.7-4.3 3.1-5.4-1.4 3.5-3.4zM2.4 13l3.5-3.4 5.2 1.4-4.2 3-4.5-1zm4.7 2.1l7 1.6-3.4 2.1L4 17.4l3.1-2.3zm9.5 5l-4.5-.9 3.3-2.1 5.4 1.2-4.2 1.8z"/><path class="st0" d="M35 1v34H1V1h34m1-1H0v36h36V0z"/></svg>