<svg version="1.1" id="Layer_1" xmlns="http://www.w3.org/2000/svg" x="0" y="0" width="36" height="36" xml:space="preserve"><style>.st0{fill:#329cd5}</style><path class="st0" d="M35 1v34H1V1h34m1-1H0v36h36V0z"/><path class="st0" d="M31.9 16.5v-1.6h-4l3.5-3.5h-5.1V5.2L16.1 15.4H4.8v4.3l-3.4 3.4h6.9l-1.5 1.5.2.2-6 6h10l7.5-7.5h10.6l6.8-6.8h-4zm-5.3-3.1l-2 2H19l5.4-5.4v3.4h2.2zM3.9 22.1l2-2v-3.7h9.3l-5.7 5.7H3.9zM6.6 28v.7h-.8l.8-.7zm21.7-6.7H17.7l-7.5 7.5H8.6v-3l9.4-9.4h5.6l-.6.5h6.9v2.8l-1.6 1.6z"/></svg>