<svg version="1.1" id="Layer_1" xmlns="http://www.w3.org/2000/svg" x="0" y="0" width="36" height="36" xml:space="preserve"><style>.st0{fill:#329cd5}</style><path class="st0" d="M35 1v34H1V1h34m1-1H0v36h36V0z"/><path class="st0" d="M35.7 19.2H20.2L1 0 .4 2.2l18.4 18.4v14.8h2V21.2h14.9z"/><path class="st0" d="M13.9 6.3c1.5 0 3-.4 3-1.4s-1.5-1.4-3-1.4-3 .4-3 1.4 1.5 1.4 3 1.4zm0-1.8c1 0 1.7.2 1.9.4-.2.1-.8.4-1.9.4S12.2 5 12 4.9c.2-.2.9-.4 1.9-.4zm2.6 5.9c0 1 1.5 1.4 3 1.4s3-.4 3-1.4S21 9 19.5 9s-3 .5-3 1.4zm3-.4c1 0 1.7.2 1.9.4-.2.2-.9.4-1.9.4s-1.7-.2-1.9-.4c.2-.1.8-.4 1.9-.4zm2 5.4c0 1 1.5 1.4 3 1.4s3-.4 3-1.4-1.5-1.4-3-1.4-3 .4-3 1.4zm2.9.4c-1 0-1.7-.2-1.9-.4.2-.2.9-.4 1.9-.4s1.7.2 1.9.4c-.2.2-.8.4-1.9.4zm.9-9.5c1.5 0 3-.4 3-1.4s-1.5-1.4-3-1.4-3 .4-3 1.4 1.6 1.4 3 1.4zm0-1.8c1 0 1.7.2 1.9.4-.2.1-.8.4-1.9.4s-1.7-.3-1.9-.4c.2-.2.9-.4 1.9-.4zm2.6 5.9c0 1 1.5 1.4 3 1.4s3-.4 3-1.4-1.5-1.4-3-1.4-3 .5-3 1.4zm3-.4c1 0 1.7.2 1.9.4-.2.2-.9.4-1.9.4s-1.7-.2-1.9-.4c.2-.1.9-.4 1.9-.4z"/></svg>