<svg version="1.1" id="Layer_1" xmlns="http://www.w3.org/2000/svg" x="0" y="0" width="36" height="36" xml:space="preserve"><style>.st0{fill:#329cd5}</style><path class="st0" d="M35 1v34H1V1h34m1-1H0v36h36V0z"/><path class="st0" d="M36 27.8h-8.6l1.3-6.2h6.8v-1h-6.6l1-4.7h5.6v-2H12.3V0h-2v14.7L0 34.6l1.8.9 3.4-6.7H14l-2.6 6.3.9.4 2.7-6.7h11.1l-1.4 6.4 1 .2 1.4-6.6H36v-1zm-8.1-7.2h-9.5l1.9-4.7h8.6l-1 4.7zm-16-4.7h7.3l-1.9 4.7H9.5l2.4-4.7zM5.8 27.8L9 21.6h7.9l-2.5 6.2H5.8zm9.7 0l2.5-6.2h9.7l-1.3 6.2H15.5z"/></svg>