<svg version="1.1" id="Layer_1" xmlns="http://www.w3.org/2000/svg" x="0" y="0" width="36" height="36" xml:space="preserve"><style>.st0{fill:#329cd5}</style><path class="st0" d="M35 1v34H1V1h34m1-1H0v36h36V0z"/><path class="st0" d="M17.8 16.6c1.7 0 2.6-1.6 3-2.5h1v-1.7l-1-.3c-.3-1-1.1-2.5-2.7-2.6h-.2c-1.6.1-2.5 1.6-2.7 2.6l-1 .3v1.7h.9c.3 1.1 1.1 2.5 2.7 2.5zm0-1c-1 0-1.4-.9-1.7-1.6h3.7c-.4.8-1.1 1.6-2 1.6zM16.1 13l.1-.3c0-.1.4-2 1.9-2.1 1.5.1 1.8 2 1.9 2.1l.1.3.4.1h-4.8l.4-.1zm-6.4 2.4c1.7 0 2.6-1.6 3-2.5h1v-1.7l-1-.3c-.3-1-1.1-2.5-2.7-2.6h-.2C8.2 8.5 7.4 10 7.1 11l-1 .3V13H7c.3 1 1.1 2.4 2.7 2.4zm0-.9c-1 0-1.4-.9-1.7-1.6h3.7c-.4.7-1.1 1.6-2 1.6zm-1.8-2.7l.1-.3c0-.1.4-2 1.9-2.1 1.5.1 1.8 2 1.9 2.1l.1.3.4.1H7.5l.4-.1zm18.4 3.6c1.6 0 2.4-1.4 2.7-2.5h.9v-1.7l-1-.3c-.3-1-1.1-2.5-2.7-2.6H26c-1.6.1-2.4 1.6-2.7 2.6l-1 .3v1.7h1c.4.9 1.3 2.5 3 2.5zm0-.9c-1 0-1.6-.9-2-1.6H28c-.3.7-.7 1.6-1.7 1.6zm-2.1-2.7l.1-.3c0-.1.4-2 1.9-2.1 1.5.1 1.9 2 1.9 2.1l.1.3.4.1h-4.8l.4-.1z"/><path class="st0" d="M28.4 14.7l-2.3 3.6-2.3-3.6-3.4 2.5h-.1l-.1.2-.1.1-2.1 3.3-2.1-3.4-.1-.1-.1-.2h-.1l-3.4-2.5-2.3 3.6-2.3-3.6-3.9 2.8v6.5h8.2v2.4h12.4v-2.4h8.2v-6.5l-4.1-2.7zm-20 8.4H4.6V18l2.7-1.9 2 3.2-.4.7h2l-.4-.7 2-3.2 2.4 1.7-3 2.2v3.2H8.4zm14.8 2.5H12.7v-5.1l2.7-1.9 2 3.2-.4.6h2l-.4-.7 2-3.2 2.7 1.9v5.2zm8.1-2.5h-7.2V20l-3-2.2 2.4-1.7 2 3.2-.4.7h2l-.4-.7 2-3.2 2.7 1.9v5.1z"/></svg>