<svg version="1.1" id="Layer_1" xmlns="http://www.w3.org/2000/svg" x="0" y="0" width="36" height="36" xml:space="preserve"><style>.st0{fill:#329cd5}</style><path class="st0" d="M35 1v34H1V1h34m1-1H0v36h36V0z"/><path class="st0" d="M35.3.9l-.9-.4-10.8 22.3H12.4L1.6.5.7.9l10.6 21.9V36h2V24.8h9.4V36h2V22.8z"/><path class="st0" d="M18 10c4.8 0 9.6-1 9.6-3S22.8 4 18 4 8.4 5 8.4 7s4.8 3 9.6 3zm0-5.1c5.6 0 8.6 1.3 8.6 2s-3 2-8.6 2-8.6-1.3-8.6-2 3-2 8.6-2zm-5 11.3c0 1.4 3.2 1.8 5 1.8s5-.4 5-1.8-3.2-1.8-5-1.8-5 .4-5 1.8zm5 .8c-2.6 0-3.9-.6-4-.7.1-.2 1.5-.8 4-.8 2.4 0 3.7.5 4 .8-.3.2-1.6.7-4 .7z"/></svg>