<svg version="1.1" id="Layer_1" xmlns="http://www.w3.org/2000/svg" x="0" y="0" width="36" height="36" xml:space="preserve"><style>.st1{fill:#329cd5}</style><path transform="rotate(-180 18 18)" fill="#fff" d="M0 0h36v36H0z"/><path class="st1" d="M12.7 22c0-.4-.3-.7-.8-.7h-.4v1.4h.4c.5.1.8-.2.8-.7zm3.3-.7h-.5v3.1h.4c1 0 1.6-.5 1.6-1.6 0-1-.6-1.5-1.5-1.5z"/><path class="st1" d="M22.1 5.3H11.6c-1.5 0-2.8 1.2-2.8 2.8v10.2h-.2c-.6 0-1.1.5-1.1 1.1v6.8c0 .6.5 1.1 1.1 1.1h.3v1.2c0 1.5 1.2 2.8 2.8 2.8H26c1.5 0 2.8-1.2 2.8-2.8V11.8l-6.7-6.5zM10.4 20.6c.3-.1.8-.1 1.4-.1.7 0 1.1.1 1.4.4.3.2.5.6.5 1.1 0 .5-.2.8-.4 1.1-.4.3-.9.5-1.5.5h-.4v1.7h-1.1v-4.7zm15.5 9H11.6c-.6 0-1.1-.5-1.1-1.1v-1.2h13.3c.6 0 1.1-.5 1.1-1.1v-6.8c0-.6-.5-1.1-1.1-1.1H10.6V8c0-.6.5-1.1 1.1-1.1h9.8v3.6c0 1.1.9 1.9 1.9 1.9H27v16c0 .7-.5 1.2-1.1 1.2zm-11.4-4.4v-4.6c.4-.1.9-.1 1.4-.1.9 0 1.5.2 1.9.5.5.4.8.9.8 1.8s-.3 1.5-.8 1.9c-.5.4-1.2.6-2.2.6-.5 0-.9 0-1.1-.1zm7.6-2.7v.9h-1.7v1.9h-1.1v-4.7h2.9v.9h-1.8v1.1h1.7z"/><path class="st1" d="M11.6 5.3L8.9 8V5.3zM8.9 27.9v3.4h3.8l-1.9-1.1zm19.8-.3v3.7h-3.9l3.1-2.1zM7.5 20.9l2.6-.9 1.1-1.7H7.5zm3.5 6.4H7.5V25l2.9.6zm12.3-9H25v2.2h-1.7zm0 7H25v2h-1.7zM21.5 8.9l2.6 3.6h-2.6z"/></svg>