<svg version="1.1" id="Layer_1" xmlns="http://www.w3.org/2000/svg" x="0" y="0" width="166" height="198" xml:space="preserve"><style>.st3{fill:#79acbe}</style><path opacity=".4" fill="#79acbe" d="M0 0h166v198H0z"/><path fill="#fff" d="M41.4 134.8L31 119.4 74 50h18.2l43.5 69.8-10 15z"/><g opacity=".4"><path class="st3" d="M98.9 74.8H74.5l-.4.1-.6.3L61.9 85c-.3.3-.5.7-.6 1.1v36.1c0 2.5 2 4.5 4.5 4.5H99c2.5 0 4.5-2 4.5-4.5V79.3c-.1-2.5-2.1-4.5-4.6-4.5zm1.4 47.4c0 .7-.6 1.3-1.3 1.3H65.7c-.7 0-1.3-.6-1.3-1.3V87.6l9.8-8.3V88h-4.7v3.1h7.8V77.9h21.6c.7 0 1.3.6 1.3 1.3v43z"/><path class="st3" d="M92.5 109H71.9c-.9 0-1.6-.7-1.6-1.6s.7-1.6 1.6-1.6h20.6c.9 0 1.6.7 1.6 1.6s-.7 1.6-1.6 1.6zm0 7.2H71.9c-.9 0-1.6-.7-1.6-1.6 0-.9.7-1.6 1.6-1.6h20.6c.9 0 1.6.7 1.6 1.6 0 .9-.7 1.6-1.6 1.6zm0-14.4H71.9c-.9 0-1.6-.7-1.6-1.6s.7-1.6 1.6-1.6h20.6c.9 0 1.6.7 1.6 1.6s-.7 1.6-1.6 1.6z"/></g></svg>