<svg version="1.1" id="Layer_1" xmlns="http://www.w3.org/2000/svg" x="0" y="0" width="280" height="226" xml:space="preserve"><style>.st1{fill:#fff}</style><path opacity=".4" fill="#79acbe" d="M27.9 226L0 184.9 115.2 0h48.4L280 186.1 253.3 226z"/><path class="st1" d="M185.4 98.4l-1.6-1.6L162.9 76l-1.6-1.6c-.7-.7-1.7-1.1-2.7-1.1H98.5c-2.5 0-5.1 1.9-5.1 6v109.5c0 1.7 1.7 3.4 3.8 3.9.1 0 .2.1.3.1.3.1.7.1 1 .1h82.9c.3 0 .7 0 1-.1.1 0 .2-.1.3-.1 2.1-.5 3.8-2.2 3.8-3.9v-86.7c.1-1.6-.1-2.8-1.1-3.7zm-6.2-.4h-17.5V80.6L179.2 98zm-80.7 90.8c-.1 0-.3-.1-.4-.1-.3-.2-.5-.5-.5-.9v-30h84.8v30c0 .4-.2.7-.5.9-.1 0-.3.1-.4.1h-83zm-.9-35.1V79.3c0-.4.1-1.9 1-1.9h59.2c-.1.3-.1.5-.1.8v24h24c.3 0 .5-.1.8-.1v51.7H97.6z"/><path class="st1" d="M125.6 165.6c-.7-.6-1.5-1-2.3-1.3-.9-.3-1.7-.4-2.6-.4h-6v20.8h3.4v-7.5h2.5c1.1 0 2.1-.2 3-.5s1.7-.8 2.3-1.4 1.1-1.3 1.5-2.2c.4-.9.5-1.8.5-2.9 0-1-.2-1.9-.6-2.7s-1-1.4-1.7-1.9zm-1.3 6.8c-.2.6-.5 1-.8 1.3-.3.3-.7.6-1.1.7-.4.1-.8.2-1.2.2H118v-8.2h2.5c.9 0 1.6.1 2.1.4.5.3.9.6 1.2 1 .3.4.5.8.6 1.3.1.4.1.8.1 1.2.1.8 0 1.6-.2 2.1zm21.8-5.5c-.9-.9-2-1.7-3.3-2.2-1.3-.6-2.9-.8-4.6-.8h-6.3v20.8h7.9c.3 0 .7 0 1.2-.1s1.2-.2 1.8-.5c.7-.2 1.3-.6 2.1-1.1s1.3-1.1 1.9-1.9c.6-.8 1-1.8 1.4-3 .4-1.2.6-2.7.6-4.4 0-1.2-.2-2.5-.6-3.6-.6-1.2-1.2-2.3-2.1-3.2zm-2.5 13.1c-1 1.5-2.7 2.2-5 2.2h-3.4v-15.7h2c1.6 0 2.9.2 4 .6 1 .4 1.8 1 2.4 1.7s1 1.5 1.2 2.3c.2.8.3 1.7.3 2.6.1 2.7-.4 4.8-1.5 6.3zm10.1 4.7h3.4v-9.4h8.7V173h-8.7v-6.6h9.6v-2.5h-13zm5.8-64.1c-1.9 0-4.2.2-6.9.7-3.8-4-7.7-9.9-10.5-15.6 2.8-11.6 1.4-13.3.8-14-.6-.8-1.6-2.2-2.6-2.2-.4 0-1.6.2-2.1.4-1.2.4-1.8 1.3-2.3 2.5-1.5 3.4.5 9.2 2.6 13.7-1.8 7-4.7 15.4-7.8 22.2-7.8 3.6-12 7.1-12.4 10.5-.1 1.2.2 3 2.3 4.6.6.4 1.3.7 2 .7 1.8 0 3.6-1.4 5.8-4.3 1.5-2.2 3.2-5.1 4.9-8.8 5.5-2.4 12.4-4.6 18.3-5.8 3.3 3.1 6.2 4.7 8.7 4.7 1.9 0 3.4-.9 4.6-2.5 1.2-1.7 1.5-3.2.8-4.5-1-1.5-3-2.3-6.2-2.3zm-37 20c-1-.7-.9-1.2-.9-1.4.1-1.1 1.9-3.2 6.4-5.7-3.4 6.2-5.2 7-5.5 7.1zm17-47.3c.1 0 2.2 2.3.2 6.6-3-3-.4-6.5-.2-6.6zm-4.3 33c2.1-5 4.1-10.5 5.5-15.6 2.3 4.2 5.1 8.2 7.9 11.4-4.4 1.1-9.1 2.6-13.4 4.2zm26.7-.9c-.6.9-2 .9-2.5.9-1.1 0-1.5-.7-3.2-1.9 1.4-.2 2.7-.2 3.7-.2 1.8 0 2.2.3 2.4.4 0 .1-.1.3-.4.8z"/></svg>