<svg version="1.1" id="Layer_1" xmlns="http://www.w3.org/2000/svg" x="0" y="0" width="167" height="135" xml:space="preserve"><style>.st1{fill:#fff}</style><path opacity=".4" fill="#79acbe" d="M17.1 135.2L.4 110.6 69.1.2H98l69.4 111.2-15.9 23.8z"/><path class="st1" d="M100.5 54.5H76.1l-.4.1-.6.3-11.6 9.7c-.3.3-.5.7-.6 1.1v36c0 2.5 2 4.5 4.5 4.5h33.2c2.5 0 4.5-2 4.5-4.5V59c-.1-2.5-2.1-4.5-4.6-4.5zm1.4 47.3c0 .7-.6 1.3-1.3 1.3H67.3c-.7 0-1.3-.6-1.3-1.3V67.3l9.8-8.2v8.7h-4.7v3.1h7.8V57.7h21.6c.7 0 1.3.6 1.3 1.3v42.8z"/><path class="st1" d="M94.1 88.6H73.6c-.9 0-1.6-.7-1.6-1.6s.7-1.6 1.6-1.6h20.5c.9 0 1.6.7 1.6 1.6s-.7 1.6-1.6 1.6zm0 7.2H73.6c-.9 0-1.6-.7-1.6-1.6 0-.9.7-1.6 1.6-1.6h20.5c.9 0 1.6.7 1.6 1.6 0 .9-.7 1.6-1.6 1.6zm0-14.3H73.6c-.9 0-1.6-.7-1.6-1.6s.7-1.6 1.6-1.6h20.5c.9 0 1.6.7 1.6 1.6s-.7 1.6-1.6 1.6z"/></svg>