<svg xmlns="http://www.w3.org/2000/svg" width="166" height="198"><path opacity=".4" fill="#79acbe" d="M0 0h166v198H0z"/><path fill="#fff" d="M41 141.4L30.6 126l43.1-69.4h18.1l43.6 69.8-10 15z"/><path d="M107.7 96.5c-.6-2.2-2.3-4-4.6-4.6-4-1.1-20.1-1.1-20.1-1.1s-16.1 0-20.1 1.1c-2.2.6-4 2.4-4.6 4.6-1.1 4-1.1 12.5-1.1 12.5s0 8.4 1.1 12.5c.6 2.2 2.3 4 4.6 4.6 4 1.1 20.1 1.1 20.1 1.1s16.1 0 20.1-1.1c2.2-.6 4-2.4 4.6-4.6 1.1-4 1.1-12.5 1.1-12.5s0-8.4-1.1-12.5zm-30 20.2v-15.3l13.5 7.7-13.5 7.6z" fill="#79acbe" opacity=".4"/></svg>