<svg width="114" height="114" viewBox="0 0 114 114" fill="none" xmlns="http://www.w3.org/2000/svg">
<path d="M112.219 113.777H1.78125C0.797555 113.777 0 112.98 0 111.996V43.4179C0 42.8573 0.26407 42.3293 0.7125 41.9929L55.9312 0.578851C56.5645 0.103925 57.4355 0.103925 58.0687 0.578851L113.287 41.9929C113.736 42.3293 114 42.8573 114 43.4179V111.996C114 112.98 113.202 113.777 112.219 113.777Z" fill="#3146D5"/>
<path d="M99.75 6.90234H14.25C13.2663 6.90234 12.4688 7.6999 12.4688 8.68359V95.9648C12.4688 96.9485 13.2663 97.7461 14.25 97.7461H99.75C100.734 97.7461 101.531 96.9485 101.531 95.9648V8.68359C101.531 7.6999 100.734 6.90234 99.75 6.90234Z" fill="#FFC67C"/>
<path d="M57 71.8506L12.4688 44.0186V95.9647C12.4688 96.9484 13.2663 97.746 14.25 97.746H99.75C100.734 97.746 101.531 96.9484 101.531 95.9647V44.0188L57 71.8506Z" fill="#FFB75C"/>
<path d="M0.649414 113.371C0.957125 113.625 1.35123 113.777 1.78118 113.777H112.219C113.202 113.777 114 112.98 114 111.996V43.4178C114 43.1444 113.936 42.8792 113.82 42.6396L0.649414 113.371Z" fill="#596FFF"/>
<path d="M62.0411 75.0015L0.649414 113.371C0.957125 113.625 1.35123 113.777 1.78118 113.777H112.219C113.202 113.777 114 112.98 114 111.996V107.476L62.0411 75.0015Z" fill="#4B63FF"/>
<path d="M0.180129 42.6396C0.0636797 42.8792 0 43.1444 0 43.4178V111.996C0 112.98 0.797555 113.777 1.78125 113.777H112.219C112.649 113.777 113.043 113.625 113.351 113.371L0.180129 42.6396Z" fill="#3751FF"/>
<path d="M71.25 54.9961H42.75C41.7663 54.9961 40.9688 54.1985 40.9688 53.2148V28.2773C40.9688 27.2936 41.7663 26.4961 42.75 26.4961H71.25C72.2337 26.4961 73.0312 27.2936 73.0312 28.2773V53.2148C73.0312 54.1985 72.2337 54.9961 71.25 54.9961Z" fill="#FB8BA4"/>
<path d="M73.0312 35.4023H40.9688V28.2773C40.9688 27.2936 41.7663 26.4961 42.75 26.4961H71.25C72.2337 26.4961 73.0312 27.2936 73.0312 28.2773V35.4023Z" fill="#F96485"/>
<path d="M58.7815 28.275C61.9018 28.2369 67.657 27.9595 69.8582 26.4922C71.4417 25.4366 72.5194 23.8272 72.8926 21.9612C73.266 20.0949 72.8901 18.1949 71.8343 16.6116C69.6549 13.3428 65.2227 12.456 61.9537 14.6355C60.2254 15.7873 58.3322 19.2436 57.0003 22.0629C55.6683 19.2436 53.7751 15.7873 52.0468 14.6355C48.778 12.4564 44.3456 13.3428 42.1662 16.6116C41.1104 18.1949 40.7345 20.0951 41.1079 21.9612C41.4811 23.8272 42.5588 25.4364 44.1423 26.4922C46.3435 27.9597 52.0987 28.2369 55.219 28.275V33.621H40.969V37.1835H55.219V54.996H58.7815V37.1835H73.0315V33.621H58.7815V28.275ZM63.9298 17.5995C64.5358 17.1956 65.2216 17.0022 65.9005 17.0022C67.0525 17.0022 68.1845 17.5592 68.8701 18.5875C69.398 19.3792 69.5857 20.3291 69.3991 21.2622C69.2125 22.1954 68.6737 23.0001 67.8817 23.528C66.9007 24.1822 63.2923 24.5898 59.712 24.6925C61.1833 21.4279 62.9472 18.2546 63.9298 17.5995ZM46.1184 23.528C45.3266 23.0001 44.7878 22.1956 44.6012 21.2622C44.4146 20.3293 44.6025 19.3792 45.1302 18.5875C45.816 17.559 46.9478 17.0022 48.0998 17.0022C48.7787 17.0022 49.4645 17.1954 50.0705 17.5995C51.0515 18.2537 52.8157 21.4275 54.2876 24.6929C50.7089 24.5905 47.1012 24.1828 46.1184 23.528Z" fill="white"/>
</svg>
