<svg xmlns="http://www.w3.org/2000/svg" viewBox="0 0 907.555 1409.083"><g data-name="Group 41"><path data-name="Path 1" d="M188.827 0h718.729v599.01L188.827 714.79z" fill="#274bc8"/><path data-name="Path 2" d="M.001 178.606h718.725V777.62L.001 885.955z" fill="#315efb"/><path data-name="Path 3" d="M377.071 526.836q209.266 0 320.637 67.6 111.318 67.618 111.355 210.175 0 88.924-44.951 144.326-44.977 55.466-129.486 87.133 28.222 31.667 59.072 72.461 30.841 40.88 61.035 85.3 30.184 44.462 58.342 92.592 28.148 48.173 52.33 94.426H631.434q-25.59-41.392-51.862-84.063-26.292-42.671-53.869-82.868-27.568-40.176-54.508-76.13-27-35.89-53.865-65.169H313.994v305.84l-209.286 30.622V548.756a1312.829 1312.829 0 01141.511-17.06q73.129-4.8 130.852-4.862m12.025 162.026q-22.776 0-40.895 1.237-18.114 1.215-34.208 2.431v229.028h59.023q118.042 0 169.063-26.826 50.988-26.742 50.967-91.355 0-62.119-51.648-88.327-51.693-26.166-152.3-26.187" fill="#343b4c"/></g></svg>