<svg xmlns="http://www.w3.org/2000/svg" width="97" height="134" viewBox="0 0 97 134">
  <g id="Group_41" data-name="Group 41" transform="translate(-517 1412.169)">
    <path id="Union_1" data-name="Union 1" d="M29.938,119.09H0V0H97V119.09H67.062L48.5,134Z" transform="translate(517 -1412.169)" fill="#fff"/>
    <path id="Path_1" data-name="Path 1" d="M1086.891-89.774h45.616v38.018l-45.616,7.348Z" transform="translate(-538.177 -1308.08)" fill="#274bc8"/>
    <path id="Path_2" data-name="Path 2" d="M1082.262-85.4h45.615v38.018L1082.262-40.5Z" transform="translate(-545.532 -1301.123)" fill="#315efb"/>
    <path id="Path_3" data-name="Path 3" d="M1042.731-64.1q13.282,0,20.35,4.29t7.068,13.339a14.093,14.093,0,0,1-2.853,9.16,18.732,18.732,0,0,1-8.218,5.53q1.791,2.01,3.749,4.6t3.874,5.414q1.915,2.822,3.7,5.877t3.321,5.993h-14.85q-1.624-2.627-3.291-5.335t-3.419-5.259q-1.75-2.55-3.459-4.832t-3.418-4.136h-6.559v19.411l-13.283,1.944v-54.6a83.318,83.318,0,0,1,8.981-1.083q4.641-.3,8.3-.309m.763,10.283q-1.445,0-2.6.078c-.766.051-1.489.1-2.171.154V-39.05h3.746q7.492,0,10.73-1.7a6.007,6.007,0,0,0,3.235-5.8,5.794,5.794,0,0,0-3.278-5.606q-3.281-1.661-9.666-1.662" transform="translate(-482.07 -1300.315)" fill="#343b4c"/>
  </g>
</svg>
